<?xml version="1.0" encoding="UTF-8" standalone="no"?>
<!DOCTYPE svg PUBLIC "-//W3C//DTD SVG 1.1//EN"
 "http://www.w3.org/Graphics/SVG/1.1/DTD/svg11.dtd">
<!-- Generated by graphviz version 12.1.2 (20240928.0832)
 -->
<!-- Title: menus.DoctorMenu.recordAppointmentOutcome Pages: 1 -->
<svg width="894pt" height="249pt"
 viewBox="0.00 0.00 894.00 249.25" xmlns="http://www.w3.org/2000/svg" xmlns:xlink="http://www.w3.org/1999/xlink">
<g id="graph0" class="graph" transform="scale(1 1) rotate(0) translate(4 245.25)">
<title>menus.DoctorMenu.recordAppointmentOutcome</title>
<!-- Node1 -->
<g id="Node000001" class="node">
<title>Node1</title>
<g id="a_Node000001"><a xlink:title="Records the outcome of a completed appointment.">
<polygon fill="#999999" stroke="#666666" points="226,-148.25 0,-148.25 0,-129 226,-129 226,-148.25"/>
<text text-anchor="middle" x="113" y="-134.75" font-family="Helvetica,sans-Serif" font-size="10.00">menus.DoctorMenu.recordAppointmentOutcome</text>
</a>
</g>
</g>
<!-- Node2 -->
<g id="Node000002" class="node">
<title>Node2</title>
<g id="a_Node000002"><a xlink:href="classitems_1_1_medical_record.html#a908cb7dcead431f2e7e9f712b0a0eb9f" target="_top" xlink:title="Adds a treatment to the medical record.">
<polygon fill="white" stroke="#666666" points="445.25,-241.25 274,-241.25 274,-222 445.25,-222 445.25,-241.25"/>
<text text-anchor="middle" x="359.62" y="-227.75" font-family="Helvetica,sans-Serif" font-size="10.00">items.MedicalRecord.addTreatment</text>
</a>
</g>
</g>
<!-- Node1&#45;&gt;Node2 -->
<g id="edge1_Node000001_Node000002" class="edge">
<title>Node1&#45;&gt;Node2</title>
<g id="a_edge1_Node000001_Node000002"><a xlink:title=" ">
<path fill="none" stroke="#63b8ff" d="M129.76,-148.53C156.12,-164.63 211.25,-196.44 262,-213.62 267.71,-215.56 273.68,-217.3 279.73,-218.87"/>
<polygon fill="#63b8ff" stroke="#63b8ff" points="278.67,-222.21 289.21,-221.15 280.3,-215.41 278.67,-222.21"/>
</a>
</g>
</g>
<!-- Node3 -->
<g id="Node000003" class="node">
<title>Node3</title>
<g id="a_Node000003"><a xlink:href="classdb_1_1_text_d_b.html#abbad566987a06b5249224e8e5ea7e667" target="_top" xlink:title="Calculates the result.">
<polygon fill="white" stroke="#666666" points="429.12,-204.25 290.12,-204.25 290.12,-185 429.12,-185 429.12,-204.25"/>
<text text-anchor="middle" x="359.62" y="-190.75" font-family="Helvetica,sans-Serif" font-size="10.00">db.TextDB.getAppointments</text>
</a>
</g>
</g>
<!-- Node1&#45;&gt;Node3 -->
<g id="edge2_Node000001_Node000003" class="edge">
<title>Node1&#45;&gt;Node3</title>
<g id="a_edge2_Node000001_Node000003"><a xlink:title=" ">
<path fill="none" stroke="#63b8ff" d="M150.33,-148.68C180.19,-156.77 223.67,-168.14 262,-176.62 270.88,-178.59 280.26,-180.52 289.53,-182.34"/>
<polygon fill="#63b8ff" stroke="#63b8ff" points="288.79,-185.76 299.27,-184.21 290.12,-178.89 288.79,-185.76"/>
</a>
</g>
</g>
<!-- Node4 -->
<g id="Node000004" class="node">
<title>Node4</title>
<g id="a_Node000004"><a xlink:href="classdb_1_1_text_d_b.html#aab1523293cf65f8ac7227048532a7d11" target="_top" xlink:title=" ">
<polygon fill="white" stroke="#666666" points="457.25,-167.25 262,-167.25 262,-148 457.25,-148 457.25,-167.25"/>
<text text-anchor="middle" x="359.62" y="-153.75" font-family="Helvetica,sans-Serif" font-size="10.00">db.TextDB.getMedicalRecordByPatientId</text>
</a>
</g>
</g>
<!-- Node1&#45;&gt;Node4 -->
<g id="edge3_Node000001_Node000004" class="edge">
<title>Node1&#45;&gt;Node4</title>
<g id="a_edge3_Node000001_Node000004"><a xlink:title=" ">
<path fill="none" stroke="#63b8ff" d="M226.29,-147.35C234.31,-147.97 242.4,-148.6 250.4,-149.22"/>
<polygon fill="#63b8ff" stroke="#63b8ff" points="249.89,-152.69 260.13,-149.98 250.43,-145.71 249.89,-152.69"/>
</a>
</g>
</g>
<!-- Node5 -->
<g id="Node000005" class="node">
<title>Node5</title>
<g id="a_Node000005"><a xlink:href="classitems_1_1_appointment.html#adb475898d23e112a0f1751507da7fb52" target="_top" xlink:title="Prints the details of the appointment.">
<polygon fill="white" stroke="#666666" points="419.38,-130.25 299.88,-130.25 299.88,-111 419.38,-111 419.38,-130.25"/>
<text text-anchor="middle" x="359.62" y="-116.75" font-family="Helvetica,sans-Serif" font-size="10.00">items.Appointment.print</text>
</a>
</g>
</g>
<!-- Node1&#45;&gt;Node5 -->
<g id="edge4_Node000001_Node000005" class="edge">
<title>Node1&#45;&gt;Node5</title>
<g id="a_edge4_Node000001_Node000005"><a xlink:title=" ">
<path fill="none" stroke="#63b8ff" d="M226.29,-130.36C247.29,-128.82 268.7,-127.24 288,-125.82"/>
<polygon fill="#63b8ff" stroke="#63b8ff" points="288.18,-129.32 297.9,-125.09 287.67,-122.34 288.18,-129.32"/>
</a>
</g>
</g>
<!-- Node7 -->
<g id="Node000007" class="node">
<title>Node7</title>
<g id="a_Node000007"><a xlink:href="classdb_1_1_text_d_b.html#a86c8f97829de1275242b05f46cdd6415" target="_top" xlink:title="Updates an appointment with a new status and saves changes.">
<polygon fill="white" stroke="#666666" points="434.38,-93.25 284.88,-93.25 284.88,-74 434.38,-74 434.38,-93.25"/>
<text text-anchor="middle" x="359.62" y="-79.75" font-family="Helvetica,sans-Serif" font-size="10.00">db.TextDB.updateAppointment</text>
</a>
</g>
</g>
<!-- Node1&#45;&gt;Node7 -->
<g id="edge6_Node000001_Node000007" class="edge">
<title>Node1&#45;&gt;Node7</title>
<g id="a_edge6_Node000001_Node000007"><a xlink:title=" ">
<path fill="none" stroke="#63b8ff" d="M151.57,-128.56C181.39,-120.74 224.22,-109.86 262,-101.62 271.11,-99.64 280.73,-97.68 290.23,-95.83"/>
<polygon fill="#63b8ff" stroke="#63b8ff" points="290.64,-99.32 299.8,-94 289.32,-92.44 290.64,-99.32"/>
</a>
</g>
</g>
<!-- Node13 -->
<g id="Node000013" class="node">
<title>Node13</title>
<g id="a_Node000013"><a xlink:href="classdb_1_1_text_d_b.html#adfdc3049e72c63729571069796bb3291" target="_top" xlink:title=" ">
<polygon fill="white" stroke="#666666" points="439.62,-56.25 279.62,-56.25 279.62,-37 439.62,-37 439.62,-56.25"/>
<text text-anchor="middle" x="359.62" y="-42.75" font-family="Helvetica,sans-Serif" font-size="10.00">db.TextDB.updateMedicalRecord</text>
</a>
</g>
</g>
<!-- Node1&#45;&gt;Node13 -->
<g id="edge13_Node000001_Node000013" class="edge">
<title>Node1&#45;&gt;Node13</title>
<g id="a_edge13_Node000001_Node000013"><a xlink:title=" ">
<path fill="none" stroke="#63b8ff" d="M130.21,-128.61C156.76,-112.65 211.62,-81.54 262,-64.62 267.76,-62.69 273.79,-60.95 279.9,-59.37"/>
<polygon fill="#63b8ff" stroke="#63b8ff" points="280.57,-62.81 289.48,-57.09 278.94,-56.01 280.57,-62.81"/>
</a>
</g>
</g>
<!-- Node6 -->
<g id="Node000006" class="node">
<title>Node6</title>
<g id="a_Node000006"><a xlink:href="classitems_1_1_time_slot.html#adde7d44b94192b8fce5921554c74799c" target="_top" xlink:title=" ">
<polygon fill="white" stroke="#666666" points="639,-130.25 520.25,-130.25 520.25,-111 639,-111 639,-130.25"/>
<text text-anchor="middle" x="579.62" y="-116.75" font-family="Helvetica,sans-Serif" font-size="10.00">items.TimeSlot.toString</text>
</a>
</g>
</g>
<!-- Node5&#45;&gt;Node6 -->
<g id="edge5_Node000005_Node000006" class="edge">
<title>Node5&#45;&gt;Node6</title>
<g id="a_edge5_Node000005_Node000006"><a xlink:title=" ">
<path fill="none" stroke="#63b8ff" d="M419.62,-120.62C447.11,-120.62 480.03,-120.62 508.76,-120.62"/>
<polygon fill="#63b8ff" stroke="#63b8ff" points="508.45,-124.13 518.45,-120.63 508.45,-117.13 508.45,-124.13"/>
</a>
</g>
</g>
<!-- Node8 -->
<g id="Node000008" class="node">
<title>Node8</title>
<g id="a_Node000008"><a xlink:href="classdb_1_1_text_d_b.html#a15e72117fb552c009020fe017eff11b1" target="_top" xlink:title=" ">
<polygon fill="white" stroke="#666666" points="666,-93.25 493.25,-93.25 493.25,-74 666,-74 666,-93.25"/>
<text text-anchor="middle" x="579.62" y="-79.75" font-family="Helvetica,sans-Serif" font-size="10.00">db.TextDB.saveAppointmentsToFile</text>
</a>
</g>
</g>
<!-- Node7&#45;&gt;Node8 -->
<g id="edge7_Node000007_Node000008" class="edge">
<title>Node7&#45;&gt;Node8</title>
<g id="a_edge7_Node000007_Node000008"><a xlink:title=" ">
<path fill="none" stroke="#63b8ff" d="M434.73,-83.62C449.83,-83.62 465.93,-83.62 481.68,-83.62"/>
<polygon fill="#63b8ff" stroke="#63b8ff" points="481.56,-87.13 491.56,-83.63 481.56,-80.13 481.56,-87.13"/>
</a>
</g>
</g>
<!-- Node10 -->
<g id="Node000010" class="node">
<title>Node10</title>
<g id="a_Node000010"><a xlink:href="classdb_1_1_text_d_b.html#ad0cc1ccd01528bf3a15b1dda0e764482" target="_top" xlink:title=" ">
<polygon fill="white" stroke="#666666" points="658.88,-56.25 500.38,-56.25 500.38,-37 658.88,-37 658.88,-56.25"/>
<text text-anchor="middle" x="579.62" y="-42.75" font-family="Helvetica,sans-Serif" font-size="10.00">db.TextDB.saveSchedulesToFile</text>
</a>
</g>
</g>
<!-- Node7&#45;&gt;Node10 -->
<g id="edge9_Node000007_Node000010" class="edge">
<title>Node7&#45;&gt;Node10</title>
<g id="a_edge9_Node000007_Node000010"><a xlink:title=" ">
<path fill="none" stroke="#63b8ff" d="M420.19,-73.51C447.35,-68.91 479.7,-63.42 508.06,-58.6"/>
<polygon fill="#63b8ff" stroke="#63b8ff" points="508.36,-62.1 517.64,-56.98 507.19,-55.2 508.36,-62.1"/>
</a>
</g>
</g>
<!-- Node9 -->
<g id="Node000009" class="node">
<title>Node9</title>
<g id="a_Node000009"><a xlink:href="classdb_1_1_text_d_b.html#ab0828cdec6203b29d3036e79ecd6cc5e" target="_top" xlink:title=" ">
<polygon fill="white" stroke="#666666" points="837.25,-93.25 750.75,-93.25 750.75,-74 837.25,-74 837.25,-93.25"/>
<text text-anchor="middle" x="794" y="-79.75" font-family="Helvetica,sans-Serif" font-size="10.00">db.TextDB.write</text>
</a>
</g>
</g>
<!-- Node8&#45;&gt;Node9 -->
<g id="edge8_Node000008_Node000009" class="edge">
<title>Node8&#45;&gt;Node9</title>
<g id="a_edge8_Node000008_Node000009"><a xlink:title=" ">
<path fill="none" stroke="#63b8ff" d="M666.39,-83.62C690.89,-83.62 716.89,-83.62 738.91,-83.62"/>
<polygon fill="#63b8ff" stroke="#63b8ff" points="738.86,-87.13 748.86,-83.63 738.86,-80.13 738.86,-87.13"/>
</a>
</g>
</g>
<!-- Node10&#45;&gt;Node9 -->
<g id="edge12_Node000010_Node000009" class="edge">
<title>Node10&#45;&gt;Node9</title>
<g id="a_edge12_Node000010_Node000009"><a xlink:title=" ">
<path fill="none" stroke="#63b8ff" d="M638.66,-56.74C670.16,-62.22 708.83,-68.96 739.59,-74.32"/>
<polygon fill="#63b8ff" stroke="#63b8ff" points="738.59,-77.7 749.04,-75.97 739.79,-70.8 738.59,-77.7"/>
</a>
</g>
</g>
<!-- Node11 -->
<g id="Node000011" class="node">
<title>Node11</title>
<g id="a_Node000011"><a xlink:href="classitems_1_1_schedule.html#a4549ab37ec9b3215ebfaf575c5d691c6" target="_top" xlink:title=" ">
<polygon fill="white" stroke="#666666" points="867.62,-56.25 720.38,-56.25 720.38,-37 867.62,-37 867.62,-56.25"/>
<text text-anchor="middle" x="794" y="-42.75" font-family="Helvetica,sans-Serif" font-size="10.00">items.Schedule.getAvailability</text>
</a>
</g>
</g>
<!-- Node10&#45;&gt;Node11 -->
<g id="edge10_Node000010_Node000011" class="edge">
<title>Node10&#45;&gt;Node11</title>
<g id="a_edge10_Node000010_Node000011"><a xlink:title=" ">
<path fill="none" stroke="#63b8ff" d="M659.1,-46.62C675.33,-46.62 692.48,-46.62 708.9,-46.62"/>
<polygon fill="#63b8ff" stroke="#63b8ff" points="708.61,-50.13 718.61,-46.63 708.61,-43.13 708.61,-50.13"/>
</a>
</g>
</g>
<!-- Node12 -->
<g id="Node000012" class="node">
<title>Node12</title>
<g id="a_Node000012"><a xlink:href="classitems_1_1_schedule.html#a85b87460a427b084400c5a4fa7f1a2c5" target="_top" xlink:title=" ">
<polygon fill="white" stroke="#666666" points="886,-19.25 702,-19.25 702,0 886,0 886,-19.25"/>
<text text-anchor="middle" x="794" y="-5.75" font-family="Helvetica,sans-Serif" font-size="10.00">items.Schedule.getAvailableTimeSlots</text>
</a>
</g>
</g>
<!-- Node10&#45;&gt;Node12 -->
<g id="edge11_Node000010_Node000012" class="edge">
<title>Node10&#45;&gt;Node12</title>
<g id="a_edge11_Node000010_Node000012"><a xlink:title=" ">
<path fill="none" stroke="#63b8ff" d="M638.66,-36.51C665,-31.93 696.35,-26.46 723.89,-21.66"/>
<polygon fill="#63b8ff" stroke="#63b8ff" points="724.3,-25.15 733.55,-19.98 723.09,-18.25 724.3,-25.15"/>
</a>
</g>
</g>
</g>
</svg>
