<?xml version="1.0" encoding="UTF-8" standalone="no"?>
<!DOCTYPE svg PUBLIC "-//W3C//DTD SVG 1.1//EN"
 "http://www.w3.org/Graphics/SVG/1.1/DTD/svg11.dtd">
<!-- Generated by graphviz version 12.1.2 (20240928.0832)
 -->
<!-- Title: user_classes.Doctor Pages: 1 -->
<svg width="260pt" height="773pt"
 viewBox="0.00 0.00 260.00 773.25" xmlns="http://www.w3.org/2000/svg" xmlns:xlink="http://www.w3.org/1999/xlink">
<g id="graph0" class="graph" transform="scale(1 1) rotate(0) translate(4 769.25)">
<title>user_classes.Doctor</title>
<!-- Node1 -->
<g id="Node000001" class="node">
<title>Node1</title>
<g id="a_Node000001"><a xlink:title="Represents a doctor in the hospital management system.">
<polygon fill="#999999" stroke="none" points="252,-347 0,-347 0,0 252,0 252,-347"/>
<text text-anchor="start" x="81" y="-333.5" font-family="Helvetica,sans-Serif" font-size="10.00">user_classes.Doctor</text>
<text text-anchor="start" x="124.5" y="-318.5" font-family="Helvetica,sans-Serif" font-size="10.00"> </text>
<text text-anchor="start" x="4" y="-303.5" font-family="Helvetica,sans-Serif" font-size="10.00">+</text>
<text text-anchor="start" x="14" y="-303.5" font-family="Helvetica,sans-Serif" font-size="10.00">Doctor(String hospitalID, String password,</text>
<text text-anchor="start" x="14" y="-292.25" font-family="Helvetica,sans-Serif" font-size="10.00"> String name, LocalDate dateOfBirth, String</text>
<text text-anchor="start" x="14" y="-281" font-family="Helvetica,sans-Serif" font-size="10.00"> gender, Schedule schedule)</text>
<text text-anchor="start" x="4" y="-266.5" font-family="Helvetica,sans-Serif" font-size="10.00">+</text>
<text text-anchor="start" x="14" y="-266.5" font-family="Helvetica,sans-Serif" font-size="10.00">Doctor(String hospitalID, String password,</text>
<text text-anchor="start" x="14" y="-255.25" font-family="Helvetica,sans-Serif" font-size="10.00"> String name, LocalDate dateOfBirth, String</text>
<text text-anchor="start" x="14" y="-244" font-family="Helvetica,sans-Serif" font-size="10.00"> gender, Schedule schedule, List&lt; String &gt; patientIds)</text>
<text text-anchor="start" x="4" y="-229.5" font-family="Helvetica,sans-Serif" font-size="10.00">+</text>
<text text-anchor="start" x="14" y="-229.5" font-family="Helvetica,sans-Serif" font-size="10.00">List&lt; String &gt; getPatients()</text>
<text text-anchor="start" x="4" y="-214.5" font-family="Helvetica,sans-Serif" font-size="10.00">+</text>
<text text-anchor="start" x="14" y="-214.5" font-family="Helvetica,sans-Serif" font-size="10.00">void addPatient(String patientId)</text>
<text text-anchor="start" x="4" y="-199.5" font-family="Helvetica,sans-Serif" font-size="10.00">+</text>
<text text-anchor="start" x="14" y="-199.5" font-family="Helvetica,sans-Serif" font-size="10.00">void removePatient(String patientId)</text>
<text text-anchor="start" x="4" y="-184.5" font-family="Helvetica,sans-Serif" font-size="10.00">+</text>
<text text-anchor="start" x="14" y="-184.5" font-family="Helvetica,sans-Serif" font-size="10.00">Schedule getSchedule()</text>
<text text-anchor="start" x="4" y="-169.5" font-family="Helvetica,sans-Serif" font-size="10.00">+</text>
<text text-anchor="start" x="14" y="-169.5" font-family="Helvetica,sans-Serif" font-size="10.00">void setSchedule(Schedule schedule)</text>
<text text-anchor="start" x="4" y="-154.5" font-family="Helvetica,sans-Serif" font-size="10.00">+</text>
<text text-anchor="start" x="14" y="-154.5" font-family="Helvetica,sans-Serif" font-size="10.00">MedicalRecord getPatientMedicalRecord</text>
<text text-anchor="start" x="14" y="-143.25" font-family="Helvetica,sans-Serif" font-size="10.00">(String patientId)</text>
<text text-anchor="start" x="4" y="-128.5" font-family="Helvetica,sans-Serif" font-size="10.00">+</text>
<text text-anchor="start" x="14" y="-128.5" font-family="Helvetica,sans-Serif" font-size="10.00">void updatePatientMedicalRecord(String</text>
<text text-anchor="start" x="14" y="-117.25" font-family="Helvetica,sans-Serif" font-size="10.00"> patientId, MedicalRecord updatedRecord)</text>
<text text-anchor="start" x="4" y="-102.5" font-family="Helvetica,sans-Serif" font-size="10.00">+</text>
<text text-anchor="start" x="14" y="-102.5" font-family="Helvetica,sans-Serif" font-size="10.00">void setAvailability(LocalDate date,</text>
<text text-anchor="start" x="14" y="-91.25" font-family="Helvetica,sans-Serif" font-size="10.00"> List&lt; TimeSlot &gt; availability)</text>
<text text-anchor="start" x="4" y="-76.5" font-family="Helvetica,sans-Serif" font-size="10.00">+</text>
<text text-anchor="start" x="14" y="-76.5" font-family="Helvetica,sans-Serif" font-size="10.00">List&lt; TimeSlot &gt; getAvailableTimeSlots</text>
<text text-anchor="start" x="14" y="-65.25" font-family="Helvetica,sans-Serif" font-size="10.00">(LocalDate date)</text>
<text text-anchor="start" x="4" y="-50.5" font-family="Helvetica,sans-Serif" font-size="10.00">+</text>
<text text-anchor="start" x="14" y="-50.5" font-family="Helvetica,sans-Serif" font-size="10.00">String toString()</text>
<text text-anchor="start" x="4" y="-35.5" font-family="Helvetica,sans-Serif" font-size="10.00">+</text>
<text text-anchor="start" x="14" y="-35.5" font-family="Helvetica,sans-Serif" font-size="10.00">void login()</text>
<text text-anchor="start" x="4" y="-20.5" font-family="Helvetica,sans-Serif" font-size="10.00">+</text>
<text text-anchor="start" x="14" y="-20.5" font-family="Helvetica,sans-Serif" font-size="10.00">void changePassword()</text>
<text text-anchor="start" x="4" y="-5.5" font-family="Helvetica,sans-Serif" font-size="10.00">+</text>
<text text-anchor="start" x="14" y="-5.5" font-family="Helvetica,sans-Serif" font-size="10.00">void logout()</text>
<polygon fill="#666666" stroke="#666666" points="0,-330 0,-330 252,-330 252,-330 0,-330"/>
<polygon fill="#666666" stroke="#666666" points="0,-315 0,-315 252,-315 252,-315 0,-315"/>
<polygon fill="none" stroke="#666666" points="0,0 0,-347 252,-347 252,0 0,0"/>
</a>
</g>
</g>
<!-- Node2 -->
<g id="Node000002" class="node">
<title>Node2</title>
<g id="a_Node000002"><a xlink:href="classuser__classes_1_1_user.html" target="_top" xlink:title="An abstract base class representing a generic user in the hospital management system.">
<polygon fill="white" stroke="none" points="247.5,-669 4.5,-669 4.5,-384 247.5,-384 247.5,-669"/>
<text text-anchor="start" x="85.12" y="-655.5" font-family="Helvetica,sans-Serif" font-size="10.00">user_classes.User</text>
<text text-anchor="start" x="8.5" y="-640.5" font-family="Helvetica,sans-Serif" font-size="10.00">+</text>
<text text-anchor="start" x="18.5" y="-640.5" font-family="Helvetica,sans-Serif" font-size="10.00">String role</text>
<text text-anchor="start" x="8.5" y="-625.5" font-family="Helvetica,sans-Serif" font-size="10.00">~</text>
<text text-anchor="start" x="18.5" y="-625.5" font-family="Helvetica,sans-Serif" font-size="10.00">static int userCount</text>
<text text-anchor="start" x="8.88" y="-610.5" font-family="Helvetica,sans-Serif" font-size="10.00">#</text>
<text text-anchor="start" x="18.5" y="-610.5" font-family="Helvetica,sans-Serif" font-size="10.00">String hospitalID</text>
<text text-anchor="start" x="8.88" y="-595.5" font-family="Helvetica,sans-Serif" font-size="10.00">#</text>
<text text-anchor="start" x="18.5" y="-595.5" font-family="Helvetica,sans-Serif" font-size="10.00">String password</text>
<text text-anchor="start" x="8.88" y="-580.5" font-family="Helvetica,sans-Serif" font-size="10.00">#</text>
<text text-anchor="start" x="18.5" y="-580.5" font-family="Helvetica,sans-Serif" font-size="10.00">String name</text>
<text text-anchor="start" x="8.88" y="-565.5" font-family="Helvetica,sans-Serif" font-size="10.00">#</text>
<text text-anchor="start" x="18.5" y="-565.5" font-family="Helvetica,sans-Serif" font-size="10.00">String gender</text>
<text text-anchor="start" x="8.5" y="-550.5" font-family="Helvetica,sans-Serif" font-size="10.00">+</text>
<text text-anchor="start" x="18.5" y="-550.5" font-family="Helvetica,sans-Serif" font-size="10.00">User(String hospitalID, String password,</text>
<text text-anchor="start" x="18.5" y="-539.25" font-family="Helvetica,sans-Serif" font-size="10.00"> String name, LocalDate dateOfBirth, String gender)</text>
<text text-anchor="start" x="8.5" y="-524.5" font-family="Helvetica,sans-Serif" font-size="10.00">+</text>
<text text-anchor="start" x="18.5" y="-524.5" font-family="Helvetica,sans-Serif" font-size="10.00">String getRole()</text>
<text text-anchor="start" x="8.5" y="-509.5" font-family="Helvetica,sans-Serif" font-size="10.00">+</text>
<text text-anchor="start" x="18.5" y="-509.5" font-family="Helvetica,sans-Serif" font-size="10.00">String getAge()</text>
<text text-anchor="start" x="8.5" y="-494.5" font-family="Helvetica,sans-Serif" font-size="10.00">+</text>
<text text-anchor="start" x="18.5" y="-494.5" font-family="Helvetica,sans-Serif" font-size="10.00">String getHospitalID()</text>
<text text-anchor="start" x="8.5" y="-479.5" font-family="Helvetica,sans-Serif" font-size="10.00">+</text>
<text text-anchor="start" x="18.5" y="-479.5" font-family="Helvetica,sans-Serif" font-size="10.00">void setHospitalID(String hospitalID)</text>
<text text-anchor="start" x="8.5" y="-464.5" font-family="Helvetica,sans-Serif" font-size="10.00">+</text>
<text text-anchor="start" x="18.5" y="-464.5" font-family="Helvetica,sans-Serif" font-size="10.00">String getPassword()</text>
<text text-anchor="start" x="8.5" y="-449.5" font-family="Helvetica,sans-Serif" font-size="10.00">+</text>
<text text-anchor="start" x="18.5" y="-449.5" font-family="Helvetica,sans-Serif" font-size="10.00">void setPassword(String password)</text>
<text text-anchor="start" x="8.5" y="-434.5" font-family="Helvetica,sans-Serif" font-size="10.00">+</text>
<text text-anchor="start" x="18.5" y="-434.5" font-family="Helvetica,sans-Serif" font-size="10.00">String getName()</text>
<text text-anchor="start" x="8.5" y="-419.5" font-family="Helvetica,sans-Serif" font-size="10.00">+</text>
<text text-anchor="start" x="18.5" y="-419.5" font-family="Helvetica,sans-Serif" font-size="10.00">void setName(String name)</text>
<text text-anchor="start" x="8.5" y="-404.5" font-family="Helvetica,sans-Serif" font-size="10.00">+</text>
<text text-anchor="start" x="18.5" y="-404.5" font-family="Helvetica,sans-Serif" font-size="10.00">LocalDate getDateOfBirth()</text>
<text text-anchor="start" x="18.5" y="-389.5" font-family="Helvetica,sans-Serif" font-size="10.00">and 6 more...</text>
<polygon fill="#666666" stroke="#666666" points="4.5,-652 4.5,-652 247.5,-652 247.5,-652 4.5,-652"/>
<polygon fill="#666666" stroke="#666666" points="4.5,-562 4.5,-562 16.5,-562 16.5,-562 4.5,-562"/>
<polygon fill="#666666" stroke="#666666" points="16.5,-562 16.5,-562 247.5,-562 247.5,-562 16.5,-562"/>
<polygon fill="none" stroke="#666666" points="4.5,-384 4.5,-669 247.5,-669 247.5,-384 4.5,-384"/>
</a>
</g>
</g>
<!-- Node2&#45;&gt;Node1 -->
<g id="edge1_Node000001_Node000002" class="edge">
<title>Node2&#45;&gt;Node1</title>
<g id="a_edge1_Node000001_Node000002"><a xlink:title=" ">
<path fill="none" stroke="#63b8ff" d="M126,-372.96C126,-364.34 126,-355.64 126,-346.95"/>
<polygon fill="none" stroke="#63b8ff" points="122.5,-372.74 126,-382.74 129.5,-372.74 122.5,-372.74"/>
</a>
</g>
</g>
<!-- Node3 -->
<g id="Node000003" class="node">
<title>Node3</title>
<g id="a_Node000003"><a xlink:title=" ">
<polygon fill="white" stroke="none" points="153,-765.25 99,-765.25 99,-716.25 153,-716.25 153,-765.25"/>
<text text-anchor="start" x="103.88" y="-751.75" font-family="Helvetica,sans-Serif" font-size="10.00">LocalDate</text>
<text text-anchor="start" x="124.5" y="-736.75" font-family="Helvetica,sans-Serif" font-size="10.00"> </text>
<text text-anchor="start" x="124.5" y="-721.75" font-family="Helvetica,sans-Serif" font-size="10.00"> </text>
<polygon fill="#666666" stroke="#666666" points="99,-748.25 99,-748.25 153,-748.25 153,-748.25 99,-748.25"/>
<polygon fill="#666666" stroke="#666666" points="99,-733.25 99,-733.25 153,-733.25 153,-733.25 99,-733.25"/>
<polygon fill="none" stroke="#666666" points="99,-716.25 99,-765.25 153,-765.25 153,-716.25 99,-716.25"/>
</a>
</g>
</g>
<!-- Node3&#45;&gt;Node2 -->
<g id="edge2_Node000002_Node000003" class="edge">
<title>Node3&#45;&gt;Node2</title>
<g id="a_edge2_Node000002_Node000003"><a xlink:title=" ">
<path fill="none" stroke="#63b8ff" d="M126,-716.63C126,-706.92 126,-694.75 126,-681.29"/>
<polygon fill="none" stroke="#63b8ff" points="126,-681.5 122,-675.5 126,-669.5 130,-675.5 126,-681.5"/>
</a>
</g>
<text text-anchor="middle" x="154.88" y="-688.75" font-family="Helvetica,sans-Serif" font-size="10.00" fill="grey"> #dateOfBirth</text>
</g>
</g>
</svg>
