<?xml version="1.0" encoding="UTF-8" standalone="no"?>
<!DOCTYPE svg PUBLIC "-//W3C//DTD SVG 1.1//EN"
 "http://www.w3.org/Graphics/SVG/1.1/DTD/svg11.dtd">
<!-- Generated by graphviz version 12.1.2 (20240928.0832)
 -->
<!-- Title: db.MedicalRecordLoader.saveData Pages: 1 -->
<svg width="565pt" height="64pt"
 viewBox="0.00 0.00 564.50 64.25" xmlns="http://www.w3.org/2000/svg" xmlns:xlink="http://www.w3.org/1999/xlink">
<g id="graph0" class="graph" transform="scale(1 1) rotate(0) translate(4 60.25)">
<title>db.MedicalRecordLoader.saveData</title>
<!-- Node1 -->
<g id="Node000001" class="node">
<title>Node1</title>
<g id="a_Node000001"><a xlink:title="Saves all loaded medical records to the associated file.">
<polygon fill="#999999" stroke="#666666" points="168.25,-37.25 0,-37.25 0,-18 168.25,-18 168.25,-37.25"/>
<text text-anchor="middle" x="84.12" y="-23.75" font-family="Helvetica,sans-Serif" font-size="10.00">db.MedicalRecordLoader.saveData</text>
</a>
</g>
</g>
<!-- Node2 -->
<g id="Node000002" class="node">
<title>Node2</title>
<g id="a_Node000002"><a xlink:href="classdb_1_1_medical_record_loader.html#a74c661fbd5b13961ff19ad859d9e01c6" target="_top" xlink:title="Serializes a MedicalRecord object into a string representation.">
<polygon fill="white" stroke="#666666" points="380.38,-56.25 218.12,-56.25 218.12,-37 380.38,-37 380.38,-56.25"/>
<text text-anchor="middle" x="299.25" y="-42.75" font-family="Helvetica,sans-Serif" font-size="10.00">db.MedicalRecordLoader.serialize</text>
</a>
</g>
</g>
<!-- Node1&#45;&gt;Node2 -->
<g id="edge1_Node000001_Node000002" class="edge">
<title>Node1&#45;&gt;Node2</title>
<g id="a_edge1_Node000001_Node000002"><a xlink:title=" ">
<path fill="none" stroke="#63b8ff" d="M168.75,-35.08C181.07,-36.18 193.82,-37.31 206.3,-38.43"/>
<polygon fill="#63b8ff" stroke="#63b8ff" points="205.88,-41.9 216.15,-39.31 206.5,-34.93 205.88,-41.9"/>
</a>
</g>
</g>
<!-- Node4 -->
<g id="Node000004" class="node">
<title>Node4</title>
<g id="a_Node000004"><a xlink:href="classdb_1_1_data_loader.html#aa5158bfeba84e106797b9139c4ef8bf1" target="_top" xlink:title="Writes a list of strings to a specified file.">
<polygon fill="white" stroke="#666666" points="394.25,-19.25 204.25,-19.25 204.25,0 394.25,0 394.25,-19.25"/>
<text text-anchor="middle" x="299.25" y="-5.75" font-family="Helvetica,sans-Serif" font-size="10.00">db.DataLoader&lt; MedicalRecord &gt;::write</text>
</a>
</g>
</g>
<!-- Node1&#45;&gt;Node4 -->
<g id="edge3_Node000001_Node000004" class="edge">
<title>Node1&#45;&gt;Node4</title>
<g id="a_edge3_Node000001_Node000004"><a xlink:title=" ">
<path fill="none" stroke="#63b8ff" d="M168.75,-20.56C176.59,-19.9 184.61,-19.22 192.63,-18.55"/>
<polygon fill="#63b8ff" stroke="#63b8ff" points="192.76,-22.05 202.43,-17.72 192.17,-15.07 192.76,-22.05"/>
</a>
</g>
</g>
<!-- Node3 -->
<g id="Node000003" class="node">
<title>Node3</title>
<g id="a_Node000003"><a xlink:href="classitems_1_1_treatment.html#aac7d63f6e4f3402f26dedfc49b600163" target="_top" xlink:title="Serializes the Treatment object into a string.">
<polygon fill="white" stroke="#666666" points="556.5,-56.25 430.25,-56.25 430.25,-37 556.5,-37 556.5,-56.25"/>
<text text-anchor="middle" x="493.38" y="-42.75" font-family="Helvetica,sans-Serif" font-size="10.00">items.Treatment.serialize</text>
</a>
</g>
</g>
<!-- Node2&#45;&gt;Node3 -->
<g id="edge2_Node000002_Node000003" class="edge">
<title>Node2&#45;&gt;Node3</title>
<g id="a_edge2_Node000002_Node000003"><a xlink:title=" ">
<path fill="none" stroke="#63b8ff" d="M380.62,-46.62C393.21,-46.62 406.18,-46.62 418.62,-46.62"/>
<polygon fill="#63b8ff" stroke="#63b8ff" points="418.35,-50.13 428.35,-46.63 418.35,-43.13 418.35,-50.13"/>
</a>
</g>
</g>
</g>
</svg>
