<?xml version="1.0" encoding="UTF-8" standalone="no"?>
<!DOCTYPE svg PUBLIC "-//W3C//DTD SVG 1.1//EN"
 "http://www.w3.org/Graphics/SVG/1.1/DTD/svg11.dtd">
<!-- Generated by graphviz version 12.1.2 (20240928.0832)
 -->
<!-- Title: items.Schedule Pages: 1 -->
<svg width="255pt" height="165pt"
 viewBox="0.00 0.00 255.00 165.00" xmlns="http://www.w3.org/2000/svg" xmlns:xlink="http://www.w3.org/1999/xlink">
<g id="graph0" class="graph" transform="scale(1 1) rotate(0) translate(4 161)">
<title>items.Schedule</title>
<!-- Node1 -->
<g id="Node000001" class="node">
<title>Node1</title>
<g id="a_Node000001"><a xlink:title="The Schedule class manages a doctor&#39;s availability across different dates.">
<polygon fill="#999999" stroke="none" points="247,-157 0,-157 0,0 247,0 247,-157"/>
<text text-anchor="start" x="89.75" y="-143.5" font-family="Helvetica,sans-Serif" font-size="10.00">items.Schedule</text>
<text text-anchor="start" x="122" y="-128.5" font-family="Helvetica,sans-Serif" font-size="10.00"> </text>
<text text-anchor="start" x="4" y="-113.5" font-family="Helvetica,sans-Serif" font-size="10.00">+</text>
<text text-anchor="start" x="14" y="-113.5" font-family="Helvetica,sans-Serif" font-size="10.00">Schedule()</text>
<text text-anchor="start" x="4" y="-98.5" font-family="Helvetica,sans-Serif" font-size="10.00">+</text>
<text text-anchor="start" x="14" y="-98.5" font-family="Helvetica,sans-Serif" font-size="10.00">void setAvailability(LocalDate date,</text>
<text text-anchor="start" x="14" y="-87.25" font-family="Helvetica,sans-Serif" font-size="10.00"> List&lt; TimeSlot &gt; timeSlots)</text>
<text text-anchor="start" x="4" y="-72.5" font-family="Helvetica,sans-Serif" font-size="10.00">+</text>
<text text-anchor="start" x="14" y="-72.5" font-family="Helvetica,sans-Serif" font-size="10.00">List&lt; TimeSlot &gt; getAvailableTimeSlots</text>
<text text-anchor="start" x="14" y="-61.25" font-family="Helvetica,sans-Serif" font-size="10.00">(LocalDate date)</text>
<text text-anchor="start" x="4" y="-46.5" font-family="Helvetica,sans-Serif" font-size="10.00">+</text>
<text text-anchor="start" x="14" y="-46.5" font-family="Helvetica,sans-Serif" font-size="10.00">Map&lt; LocalDate, List&lt; TimeSlot &gt; &gt; getAvailability()</text>
<text text-anchor="start" x="4" y="-31.5" font-family="Helvetica,sans-Serif" font-size="10.00">+</text>
<text text-anchor="start" x="14" y="-31.5" font-family="Helvetica,sans-Serif" font-size="10.00">void setAvailabilityMap(Map&lt; LocalDate,</text>
<text text-anchor="start" x="14" y="-20.25" font-family="Helvetica,sans-Serif" font-size="10.00"> List&lt; TimeSlot &gt; &gt; availability)</text>
<text text-anchor="start" x="4" y="-5.5" font-family="Helvetica,sans-Serif" font-size="10.00">+</text>
<text text-anchor="start" x="14" y="-5.5" font-family="Helvetica,sans-Serif" font-size="10.00">String toString()</text>
<polygon fill="#666666" stroke="#666666" points="0,-140 0,-140 247,-140 247,-140 0,-140"/>
<polygon fill="#666666" stroke="#666666" points="0,-125 0,-125 247,-125 247,-125 0,-125"/>
<polygon fill="none" stroke="#666666" points="0,0 0,-157 247,-157 247,0 0,0"/>
</a>
</g>
</g>
</g>
</svg>
