<?xml version="1.0" encoding="UTF-8" standalone="no"?>
<!DOCTYPE svg PUBLIC "-//W3C//DTD SVG 1.1//EN"
 "http://www.w3.org/Graphics/SVG/1.1/DTD/svg11.dtd">
<!-- Generated by graphviz version 12.1.2 (20240928.0832)
 -->
<!-- Title: items.Appointment.getTimeSlot Pages: 1 -->
<svg width="565pt" height="27pt"
 viewBox="0.00 0.00 565.25 27.25" xmlns="http://www.w3.org/2000/svg" xmlns:xlink="http://www.w3.org/1999/xlink">
<g id="graph0" class="graph" transform="scale(1 1) rotate(0) translate(4 23.25)">
<title>items.Appointment.getTimeSlot</title>
<!-- Node1 -->
<g id="Node000001" class="node">
<title>Node1</title>
<g id="a_Node000001"><a xlink:title="Gets the time slot for the appointment.">
<polygon fill="#999999" stroke="#666666" points="557.25,-19.25 404,-19.25 404,0 557.25,0 557.25,-19.25"/>
<text text-anchor="middle" x="480.62" y="-5.75" font-family="Helvetica,sans-Serif" font-size="10.00">items.Appointment.getTimeSlot</text>
</a>
</g>
</g>
<!-- Node2 -->
<g id="Node000002" class="node">
<title>Node2</title>
<g id="a_Node000002"><a xlink:href="classdb_1_1_text_d_b.html#aab8621330ecb08ae4364ef3745975c8e" target="_top" xlink:title="Calculates the result.">
<polygon fill="white" stroke="#666666" points="368,-19.25 172,-19.25 172,0 368,0 368,-19.25"/>
<text text-anchor="middle" x="270" y="-5.75" font-family="Helvetica,sans-Serif" font-size="10.00">db.TextDB.getAvailableAppointmentSlots</text>
</a>
</g>
</g>
<!-- Node1&#45;&gt;Node2 -->
<g id="edge1_Node000001_Node000002" class="edge">
<title>Node1&#45;&gt;Node2</title>
<g id="a_edge1_Node000001_Node000002"><a xlink:title=" ">
<path fill="none" stroke="#63b8ff" d="M392.22,-9.62C384.3,-9.62 376.24,-9.62 368.23,-9.62"/>
<polygon fill="#63b8ff" stroke="#63b8ff" points="392.2,-13.13 402.2,-9.63 392.2,-6.13 392.2,-13.13"/>
</a>
</g>
</g>
<!-- Node3 -->
<g id="Node000003" class="node">
<title>Node3</title>
<g id="a_Node000003"><a xlink:href="classdb_1_1_text_d_b.html#ad012623bfd1b59de612a4bdb189029a4" target="_top" xlink:title="Calculates the result.">
<polygon fill="white" stroke="#666666" points="136,-19.25 0,-19.25 0,0 136,0 136,-19.25"/>
<text text-anchor="middle" x="68" y="-5.75" font-family="Helvetica,sans-Serif" font-size="10.00">db.TextDB.addAppointment</text>
</a>
</g>
</g>
<!-- Node2&#45;&gt;Node3 -->
<g id="edge2_Node000002_Node000003" class="edge">
<title>Node2&#45;&gt;Node3</title>
<g id="a_edge2_Node000002_Node000003"><a xlink:title=" ">
<path fill="none" stroke="#63b8ff" d="M160.19,-9.62C152.11,-9.62 144.11,-9.62 136.4,-9.62"/>
<polygon fill="#63b8ff" stroke="#63b8ff" points="160.12,-13.13 170.12,-9.63 160.12,-6.13 160.12,-13.13"/>
</a>
</g>
</g>
</g>
</svg>
