<?xml version="1.0" encoding="UTF-8" standalone="no"?>
<!DOCTYPE svg PUBLIC "-//W3C//DTD SVG 1.1//EN"
 "http://www.w3.org/Graphics/SVG/1.1/DTD/svg11.dtd">
<!-- Generated by graphviz version 12.1.2 (20240928.0832)
 -->
<!-- Title: db.TextDB.updateAppointment Pages: 1 -->
<svg width="586pt" height="101pt"
 viewBox="0.00 0.00 586.25 101.25" xmlns="http://www.w3.org/2000/svg" xmlns:xlink="http://www.w3.org/1999/xlink">
<g id="graph0" class="graph" transform="scale(1 1) rotate(0) translate(4 97.25)">
<title>db.TextDB.updateAppointment</title>
<!-- Node1 -->
<g id="Node000001" class="node">
<title>Node1</title>
<g id="a_Node000001"><a xlink:title="Updates an appointment with a new status and saves changes.">
<polygon fill="#999999" stroke="#666666" points="149.5,-74.25 0,-74.25 0,-55 149.5,-55 149.5,-74.25"/>
<text text-anchor="middle" x="74.75" y="-60.75" font-family="Helvetica,sans-Serif" font-size="10.00">db.TextDB.updateAppointment</text>
</a>
</g>
</g>
<!-- Node2 -->
<g id="Node000002" class="node">
<title>Node2</title>
<g id="a_Node000002"><a xlink:href="classdb_1_1_text_d_b.html#a15e72117fb552c009020fe017eff11b1" target="_top" xlink:title=" ">
<polygon fill="white" stroke="#666666" points="358.25,-93.25 185.5,-93.25 185.5,-74 358.25,-74 358.25,-93.25"/>
<text text-anchor="middle" x="271.88" y="-79.75" font-family="Helvetica,sans-Serif" font-size="10.00">db.TextDB.saveAppointmentsToFile</text>
</a>
</g>
</g>
<!-- Node1&#45;&gt;Node2 -->
<g id="edge1_Node000001_Node000002" class="edge">
<title>Node1&#45;&gt;Node2</title>
<g id="a_edge1_Node000001_Node000002"><a xlink:title=" ">
<path fill="none" stroke="#63b8ff" d="M149.8,-71.84C157.64,-72.6 165.69,-73.38 173.75,-74.17"/>
<polygon fill="#63b8ff" stroke="#63b8ff" points="173.31,-77.64 183.6,-75.13 173.98,-70.67 173.31,-77.64"/>
</a>
</g>
</g>
<!-- Node4 -->
<g id="Node000004" class="node">
<title>Node4</title>
<g id="a_Node000004"><a xlink:href="classdb_1_1_text_d_b.html#ad0cc1ccd01528bf3a15b1dda0e764482" target="_top" xlink:title=" ">
<polygon fill="white" stroke="#666666" points="351.12,-56.25 192.62,-56.25 192.62,-37 351.12,-37 351.12,-56.25"/>
<text text-anchor="middle" x="271.88" y="-42.75" font-family="Helvetica,sans-Serif" font-size="10.00">db.TextDB.saveSchedulesToFile</text>
</a>
</g>
</g>
<!-- Node1&#45;&gt;Node4 -->
<g id="edge3_Node000001_Node000004" class="edge">
<title>Node1&#45;&gt;Node4</title>
<g id="a_edge3_Node000001_Node000004"><a xlink:title=" ">
<path fill="none" stroke="#63b8ff" d="M149.8,-57.79C160.01,-56.85 170.59,-55.88 181.05,-54.91"/>
<polygon fill="#63b8ff" stroke="#63b8ff" points="181.19,-58.41 190.82,-54.01 180.54,-51.44 181.19,-58.41"/>
</a>
</g>
</g>
<!-- Node3 -->
<g id="Node000003" class="node">
<title>Node3</title>
<g id="a_Node000003"><a xlink:href="classdb_1_1_text_d_b.html#ab0828cdec6203b29d3036e79ecd6cc5e" target="_top" xlink:title=" ">
<polygon fill="white" stroke="#666666" points="529.5,-93.25 443,-93.25 443,-74 529.5,-74 529.5,-93.25"/>
<text text-anchor="middle" x="486.25" y="-79.75" font-family="Helvetica,sans-Serif" font-size="10.00">db.TextDB.write</text>
</a>
</g>
</g>
<!-- Node2&#45;&gt;Node3 -->
<g id="edge2_Node000002_Node000003" class="edge">
<title>Node2&#45;&gt;Node3</title>
<g id="a_edge2_Node000002_Node000003"><a xlink:title=" ">
<path fill="none" stroke="#63b8ff" d="M358.64,-83.62C383.14,-83.62 409.14,-83.62 431.16,-83.62"/>
<polygon fill="#63b8ff" stroke="#63b8ff" points="431.11,-87.13 441.11,-83.63 431.11,-80.13 431.11,-87.13"/>
</a>
</g>
</g>
<!-- Node4&#45;&gt;Node3 -->
<g id="edge6_Node000004_Node000003" class="edge">
<title>Node4&#45;&gt;Node3</title>
<g id="a_edge6_Node000004_Node000003"><a xlink:title=" ">
<path fill="none" stroke="#63b8ff" d="M330.91,-56.74C362.41,-62.22 401.08,-68.96 431.84,-74.32"/>
<polygon fill="#63b8ff" stroke="#63b8ff" points="430.84,-77.7 441.29,-75.97 432.04,-70.8 430.84,-77.7"/>
</a>
</g>
</g>
<!-- Node5 -->
<g id="Node000005" class="node">
<title>Node5</title>
<g id="a_Node000005"><a xlink:href="classitems_1_1_schedule.html#a4549ab37ec9b3215ebfaf575c5d691c6" target="_top" xlink:title=" ">
<polygon fill="white" stroke="#666666" points="559.88,-56.25 412.62,-56.25 412.62,-37 559.88,-37 559.88,-56.25"/>
<text text-anchor="middle" x="486.25" y="-42.75" font-family="Helvetica,sans-Serif" font-size="10.00">items.Schedule.getAvailability</text>
</a>
</g>
</g>
<!-- Node4&#45;&gt;Node5 -->
<g id="edge4_Node000004_Node000005" class="edge">
<title>Node4&#45;&gt;Node5</title>
<g id="a_edge4_Node000004_Node000005"><a xlink:title=" ">
<path fill="none" stroke="#63b8ff" d="M351.35,-46.62C367.58,-46.62 384.73,-46.62 401.15,-46.62"/>
<polygon fill="#63b8ff" stroke="#63b8ff" points="400.86,-50.13 410.86,-46.63 400.86,-43.13 400.86,-50.13"/>
</a>
</g>
</g>
<!-- Node6 -->
<g id="Node000006" class="node">
<title>Node6</title>
<g id="a_Node000006"><a xlink:href="classitems_1_1_schedule.html#a85b87460a427b084400c5a4fa7f1a2c5" target="_top" xlink:title=" ">
<polygon fill="white" stroke="#666666" points="578.25,-19.25 394.25,-19.25 394.25,0 578.25,0 578.25,-19.25"/>
<text text-anchor="middle" x="486.25" y="-5.75" font-family="Helvetica,sans-Serif" font-size="10.00">items.Schedule.getAvailableTimeSlots</text>
</a>
</g>
</g>
<!-- Node4&#45;&gt;Node6 -->
<g id="edge5_Node000004_Node000006" class="edge">
<title>Node4&#45;&gt;Node6</title>
<g id="a_edge5_Node000004_Node000006"><a xlink:title=" ">
<path fill="none" stroke="#63b8ff" d="M330.91,-36.51C357.25,-31.93 388.6,-26.46 416.14,-21.66"/>
<polygon fill="#63b8ff" stroke="#63b8ff" points="416.55,-25.15 425.8,-19.98 415.34,-18.25 416.55,-25.15"/>
</a>
</g>
</g>
</g>
</svg>
