<?xml version="1.0" encoding="UTF-8" standalone="no"?>
<!DOCTYPE svg PUBLIC "-//W3C//DTD SVG 1.1//EN"
 "http://www.w3.org/Graphics/SVG/1.1/DTD/svg11.dtd">
<!-- Generated by graphviz version 12.1.2 (20240928.0832)
 -->
<!-- Title: items.PatientHistory.printHistory Pages: 1 -->
<svg width="453pt" height="101pt"
 viewBox="0.00 0.00 452.50 101.25" xmlns="http://www.w3.org/2000/svg" xmlns:xlink="http://www.w3.org/1999/xlink">

<svg id="main" version="1.1" xmlns="http://www.w3.org/2000/svg" xmlns:xlink="http://www.w3.org/1999/xlink" xml:space="preserve" onload="init(evt)">
<style type="text/css"><![CDATA[
.node, .edge {opacity: 0.7;}
.node.selected, .edge.selected {opacity: 1;}
.edge:hover path { stroke: red; }
.edge:hover polygon { stroke: red; fill: red; }
]]></style>
<script type="application/ecmascript" xlink:href="svg.min.js"/>
<svg id="graph" class="graph">
<g id="graph0" class="graph" transform="scale(1 1) rotate(0) translate(4 97.25)">
<title>items.PatientHistory.printHistory</title>
<!-- Node1 -->
<g id="Node000001" class="node">
<title>Node1</title>
<g id="a_Node000001"><a xlink:title=" ">
<polygon fill="#999999" stroke="#666666" points="157,-56.25 0,-56.25 0,-37 157,-37 157,-56.25"/>
<text text-anchor="middle" x="78.5" y="-42.75" font-family="Helvetica,sans-Serif" font-size="10.00">items.PatientHistory.printHistory</text>
</a>
</g>
</g>
<!-- Node2 -->
<g id="Node000002" class="node">
<title>Node2</title>
<g id="a_Node000002"><a xlink:href="classitems_1_1_treatment.html#a7e38d237cd5f339079befeb239ce5c21" target="_top" xlink:title="Prints all prescribed medicines with their details.">
<polygon fill="white" stroke="#666666" points="421.62,-93.25 215.88,-93.25 215.88,-74 421.62,-74 421.62,-93.25"/>
<text text-anchor="middle" x="318.75" y="-79.75" font-family="Helvetica,sans-Serif" font-size="10.00">items.Treatment.printAllPrescribedMedicine</text>
</a>
</g>
</g>
<!-- Node1&#45;&gt;Node2 -->
<g id="edge1_Node000001_Node000002" class="edge">
<title>Node1&#45;&gt;Node2</title>
<g id="a_edge1_Node000001_Node000002"><a xlink:title=" ">
<path fill="none" stroke="#63b8ff" d="M138.37,-56.74C155.93,-59.69 175.23,-62.86 193,-65.62 206.48,-67.73 220.79,-69.87 234.73,-71.91"/>
<polygon fill="#63b8ff" stroke="#63b8ff" points="233.91,-75.33 244.31,-73.31 234.92,-68.4 233.91,-75.33"/>
</a>
</g>
</g>
<!-- Node3 -->
<g id="Node000003" class="node">
<title>Node3</title>
<g id="a_Node000003"><a xlink:href="classitems_1_1_diagnosis.html#ac04e549a35e959b55144f9dc3d6d87ec" target="_top" xlink:title="Prints the diagnosed illness details along with any associated comments.">
<polygon fill="white" stroke="#666666" points="444.5,-56.25 193,-56.25 193,-37 444.5,-37 444.5,-56.25"/>
<text text-anchor="middle" x="318.75" y="-42.75" font-family="Helvetica,sans-Serif" font-size="10.00">items.Diagnosis.printDiagnosedIllnessWithComments</text>
</a>
</g>
</g>
<!-- Node1&#45;&gt;Node3 -->
<g id="edge2_Node000001_Node000003" class="edge">
<title>Node1&#45;&gt;Node3</title>
<g id="a_edge2_Node000001_Node000003"><a xlink:title=" ">
<path fill="none" stroke="#63b8ff" d="M157.18,-46.62C165.02,-46.62 173.14,-46.62 181.37,-46.62"/>
<polygon fill="#63b8ff" stroke="#63b8ff" points="181.13,-50.13 191.13,-46.63 181.13,-43.13 181.13,-50.13"/>
</a>
</g>
</g>
<!-- Node4 -->
<g id="Node000004" class="node">
<title>Node4</title>
<g id="a_Node000004"><a xlink:href="classitems_1_1_treatment.html#ac84c30dd33100c8a0b87721f26eac7e0" target="_top" xlink:title="Prints the treatment comments.">
<polygon fill="white" stroke="#666666" points="419.38,-19.25 218.12,-19.25 218.12,0 419.38,0 419.38,-19.25"/>
<text text-anchor="middle" x="318.75" y="-5.75" font-family="Helvetica,sans-Serif" font-size="10.00">items.Treatment.printTreatmentComments</text>
</a>
</g>
</g>
<!-- Node1&#45;&gt;Node4 -->
<g id="edge3_Node000001_Node000004" class="edge">
<title>Node1&#45;&gt;Node4</title>
<g id="a_edge3_Node000001_Node000004"><a xlink:title=" ">
<path fill="none" stroke="#63b8ff" d="M138.37,-36.51C155.93,-33.56 175.23,-30.39 193,-27.62 206.48,-25.52 220.79,-23.38 234.73,-21.34"/>
<polygon fill="#63b8ff" stroke="#63b8ff" points="234.92,-24.85 244.31,-19.94 233.91,-17.92 234.92,-24.85"/>
</a>
</g>
</g>
</g>
</svg>
</svg>

<style type='text/css'>
<![CDATA[
[data-mouse-over-selected='false'] { opacity: 0.7; }
[data-mouse-over-selected='true']  { opacity: 1.0; }
]]>
</style>
<script type="application/ecmascript"><![CDATA[
document.addEventListener('DOMContentLoaded', (event) => {
  highlightEdges();
  highlightAdjacentNodes();
});
]]></script>
</svg>
