<?xml version="1.0" encoding="UTF-8" standalone="no"?>
<!DOCTYPE svg PUBLIC "-//W3C//DTD SVG 1.1//EN"
 "http://www.w3.org/Graphics/SVG/1.1/DTD/svg11.dtd">
<!-- Generated by graphviz version 12.1.2 (20240928.0832)
 -->
<!-- Title: db.TextDB.updateDoctorSchedule Pages: 1 -->
<svg width="587pt" height="101pt"
 viewBox="0.00 0.00 587.00 101.25" xmlns="http://www.w3.org/2000/svg" xmlns:xlink="http://www.w3.org/1999/xlink">
<g id="graph0" class="graph" transform="scale(1 1) rotate(0) translate(4 97.25)">
<title>db.TextDB.updateDoctorSchedule</title>
<!-- Node1 -->
<g id="Node000001" class="node">
<title>Node1</title>
<g id="a_Node000001"><a xlink:title=" ">
<polygon fill="#999999" stroke="#666666" points="164.5,-74.25 0,-74.25 0,-55 164.5,-55 164.5,-74.25"/>
<text text-anchor="middle" x="82.25" y="-60.75" font-family="Helvetica,sans-Serif" font-size="10.00">db.TextDB.updateDoctorSchedule</text>
</a>
</g>
</g>
<!-- Node2 -->
<g id="Node000002" class="node">
<title>Node2</title>
<g id="a_Node000002"><a xlink:href="classdb_1_1_text_d_b.html#ab39cc2b53e47baa667d4749f2209342b" target="_top" xlink:title="Calculates the result.">
<polygon fill="white" stroke="#666666" points="359,-93.25 200.5,-93.25 200.5,-74 359,-74 359,-93.25"/>
<text text-anchor="middle" x="279.75" y="-79.75" font-family="Helvetica,sans-Serif" font-size="10.00">db.TextDB.getUserByHospitalID</text>
</a>
</g>
</g>
<!-- Node1&#45;&gt;Node2 -->
<g id="edge1_Node000001_Node000002" class="edge">
<title>Node1&#45;&gt;Node2</title>
<g id="a_edge1_Node000001_Node000002"><a xlink:title=" ">
<path fill="none" stroke="#63b8ff" d="M164.74,-72.55C172.72,-73.32 180.84,-74.11 188.9,-74.89"/>
<polygon fill="#63b8ff" stroke="#63b8ff" points="188.41,-78.36 198.7,-75.85 189.09,-71.39 188.41,-78.36"/>
</a>
</g>
</g>
<!-- Node3 -->
<g id="Node000003" class="node">
<title>Node3</title>
<g id="a_Node000003"><a xlink:href="classdb_1_1_text_d_b.html#ad0cc1ccd01528bf3a15b1dda0e764482" target="_top" xlink:title=" ">
<polygon fill="white" stroke="#666666" points="359,-56.25 200.5,-56.25 200.5,-37 359,-37 359,-56.25"/>
<text text-anchor="middle" x="279.75" y="-42.75" font-family="Helvetica,sans-Serif" font-size="10.00">db.TextDB.saveSchedulesToFile</text>
</a>
</g>
</g>
<!-- Node1&#45;&gt;Node3 -->
<g id="edge2_Node000001_Node000003" class="edge">
<title>Node1&#45;&gt;Node3</title>
<g id="a_edge2_Node000001_Node000003"><a xlink:title=" ">
<path fill="none" stroke="#63b8ff" d="M164.74,-57.12C172.72,-56.39 180.84,-55.64 188.9,-54.9"/>
<polygon fill="#63b8ff" stroke="#63b8ff" points="189.07,-58.4 198.7,-54 188.42,-51.43 189.07,-58.4"/>
</a>
</g>
</g>
<!-- Node4 -->
<g id="Node000004" class="node">
<title>Node4</title>
<g id="a_Node000004"><a xlink:href="classitems_1_1_schedule.html#a4549ab37ec9b3215ebfaf575c5d691c6" target="_top" xlink:title=" ">
<polygon fill="white" stroke="#666666" points="560.62,-93.25 413.38,-93.25 413.38,-74 560.62,-74 560.62,-93.25"/>
<text text-anchor="middle" x="487" y="-79.75" font-family="Helvetica,sans-Serif" font-size="10.00">items.Schedule.getAvailability</text>
</a>
</g>
</g>
<!-- Node3&#45;&gt;Node4 -->
<g id="edge3_Node000003_Node000004" class="edge">
<title>Node3&#45;&gt;Node4</title>
<g id="a_edge3_Node000003_Node000004"><a xlink:title=" ">
<path fill="none" stroke="#63b8ff" d="M336.84,-56.74C362.18,-61.3 392.32,-66.74 418.86,-71.52"/>
<polygon fill="#63b8ff" stroke="#63b8ff" points="418.03,-74.93 428.49,-73.26 419.27,-68.04 418.03,-74.93"/>
</a>
</g>
</g>
<!-- Node5 -->
<g id="Node000005" class="node">
<title>Node5</title>
<g id="a_Node000005"><a xlink:href="classitems_1_1_schedule.html#a85b87460a427b084400c5a4fa7f1a2c5" target="_top" xlink:title=" ">
<polygon fill="white" stroke="#666666" points="579,-56.25 395,-56.25 395,-37 579,-37 579,-56.25"/>
<text text-anchor="middle" x="487" y="-42.75" font-family="Helvetica,sans-Serif" font-size="10.00">items.Schedule.getAvailableTimeSlots</text>
</a>
</g>
</g>
<!-- Node3&#45;&gt;Node5 -->
<g id="edge4_Node000003_Node000005" class="edge">
<title>Node3&#45;&gt;Node5</title>
<g id="a_edge4_Node000003_Node000005"><a xlink:title=" ">
<path fill="none" stroke="#63b8ff" d="M359.22,-46.62C367.07,-46.62 375.12,-46.62 383.16,-46.62"/>
<polygon fill="#63b8ff" stroke="#63b8ff" points="383.01,-50.13 393.01,-46.63 383.01,-43.13 383.01,-50.13"/>
</a>
</g>
</g>
<!-- Node6 -->
<g id="Node000006" class="node">
<title>Node6</title>
<g id="a_Node000006"><a xlink:href="classdb_1_1_text_d_b.html#ab0828cdec6203b29d3036e79ecd6cc5e" target="_top" xlink:title=" ">
<polygon fill="white" stroke="#666666" points="530.25,-19.25 443.75,-19.25 443.75,0 530.25,0 530.25,-19.25"/>
<text text-anchor="middle" x="487" y="-5.75" font-family="Helvetica,sans-Serif" font-size="10.00">db.TextDB.write</text>
</a>
</g>
</g>
<!-- Node3&#45;&gt;Node6 -->
<g id="edge5_Node000003_Node000006" class="edge">
<title>Node3&#45;&gt;Node6</title>
<g id="a_edge5_Node000003_Node000006"><a xlink:title=" ">
<path fill="none" stroke="#63b8ff" d="M336.84,-36.51C366.49,-31.17 402.72,-24.64 432.05,-19.35"/>
<polygon fill="#63b8ff" stroke="#63b8ff" points="432.62,-22.8 441.84,-17.59 431.38,-15.91 432.62,-22.8"/>
</a>
</g>
</g>
</g>
</svg>
