<?xml version="1.0" encoding="UTF-8" standalone="no"?>
<!DOCTYPE svg PUBLIC "-//W3C//DTD SVG 1.1//EN"
 "http://www.w3.org/Graphics/SVG/1.1/DTD/svg11.dtd">
<!-- Generated by graphviz version 12.1.2 (20240928.0832)
 -->
<!-- Title: user_classes.User Pages: 1 -->
<svg width="251pt" height="389pt"
 viewBox="0.00 0.00 251.00 389.25" xmlns="http://www.w3.org/2000/svg" xmlns:xlink="http://www.w3.org/1999/xlink">

<svg id="main" version="1.1" xmlns="http://www.w3.org/2000/svg" xmlns:xlink="http://www.w3.org/1999/xlink" xml:space="preserve" onload="init(evt)">
<style type="text/css"><![CDATA[
.node, .edge {opacity: 0.7;}
.node.selected, .edge.selected {opacity: 1;}
.edge:hover path { stroke: red; }
.edge:hover polygon { stroke: red; fill: red; }
]]></style>
<script type="application/ecmascript" xlink:href="svg.min.js"/>
<svg id="graph" class="graph">
<g id="graph0" class="graph" transform="scale(1 1) rotate(0) translate(4 385.25)">
<title>user_classes.User</title>
<!-- Node1 -->
<g id="Node000001" class="node">
<title>Node1</title>
<g id="a_Node000001"><a xlink:title="An abstract base class representing a generic user in the hospital management system.">
<polygon fill="#999999" stroke="none" points="243,-285 0,-285 0,0 243,0 243,-285"/>
<text text-anchor="start" x="80.62" y="-271.5" font-family="Helvetica,sans-Serif" font-size="10.00">user_classes.User</text>
<text text-anchor="start" x="4" y="-256.5" font-family="Helvetica,sans-Serif" font-size="10.00">+</text>
<text text-anchor="start" x="14" y="-256.5" font-family="Helvetica,sans-Serif" font-size="10.00">String role</text>
<text text-anchor="start" x="4" y="-241.5" font-family="Helvetica,sans-Serif" font-size="10.00">~</text>
<text text-anchor="start" x="14" y="-241.5" font-family="Helvetica,sans-Serif" font-size="10.00">static int userCount</text>
<text text-anchor="start" x="4.38" y="-226.5" font-family="Helvetica,sans-Serif" font-size="10.00">#</text>
<text text-anchor="start" x="14" y="-226.5" font-family="Helvetica,sans-Serif" font-size="10.00">String hospitalID</text>
<text text-anchor="start" x="4.38" y="-211.5" font-family="Helvetica,sans-Serif" font-size="10.00">#</text>
<text text-anchor="start" x="14" y="-211.5" font-family="Helvetica,sans-Serif" font-size="10.00">String password</text>
<text text-anchor="start" x="4.38" y="-196.5" font-family="Helvetica,sans-Serif" font-size="10.00">#</text>
<text text-anchor="start" x="14" y="-196.5" font-family="Helvetica,sans-Serif" font-size="10.00">String name</text>
<text text-anchor="start" x="4.38" y="-181.5" font-family="Helvetica,sans-Serif" font-size="10.00">#</text>
<text text-anchor="start" x="14" y="-181.5" font-family="Helvetica,sans-Serif" font-size="10.00">String gender</text>
<text text-anchor="start" x="4" y="-166.5" font-family="Helvetica,sans-Serif" font-size="10.00">+</text>
<text text-anchor="start" x="14" y="-166.5" font-family="Helvetica,sans-Serif" font-size="10.00">User(String hospitalID, String password,</text>
<text text-anchor="start" x="14" y="-155.25" font-family="Helvetica,sans-Serif" font-size="10.00"> String name, LocalDate dateOfBirth, String gender)</text>
<text text-anchor="start" x="4" y="-140.5" font-family="Helvetica,sans-Serif" font-size="10.00">+</text>
<text text-anchor="start" x="14" y="-140.5" font-family="Helvetica,sans-Serif" font-size="10.00">String getRole()</text>
<text text-anchor="start" x="4" y="-125.5" font-family="Helvetica,sans-Serif" font-size="10.00">+</text>
<text text-anchor="start" x="14" y="-125.5" font-family="Helvetica,sans-Serif" font-size="10.00">String getAge()</text>
<text text-anchor="start" x="4" y="-110.5" font-family="Helvetica,sans-Serif" font-size="10.00">+</text>
<text text-anchor="start" x="14" y="-110.5" font-family="Helvetica,sans-Serif" font-size="10.00">String getHospitalID()</text>
<text text-anchor="start" x="4" y="-95.5" font-family="Helvetica,sans-Serif" font-size="10.00">+</text>
<text text-anchor="start" x="14" y="-95.5" font-family="Helvetica,sans-Serif" font-size="10.00">void setHospitalID(String hospitalID)</text>
<text text-anchor="start" x="4" y="-80.5" font-family="Helvetica,sans-Serif" font-size="10.00">+</text>
<text text-anchor="start" x="14" y="-80.5" font-family="Helvetica,sans-Serif" font-size="10.00">String getPassword()</text>
<text text-anchor="start" x="4" y="-65.5" font-family="Helvetica,sans-Serif" font-size="10.00">+</text>
<text text-anchor="start" x="14" y="-65.5" font-family="Helvetica,sans-Serif" font-size="10.00">void setPassword(String password)</text>
<text text-anchor="start" x="4" y="-50.5" font-family="Helvetica,sans-Serif" font-size="10.00">+</text>
<text text-anchor="start" x="14" y="-50.5" font-family="Helvetica,sans-Serif" font-size="10.00">String getName()</text>
<text text-anchor="start" x="4" y="-35.5" font-family="Helvetica,sans-Serif" font-size="10.00">+</text>
<text text-anchor="start" x="14" y="-35.5" font-family="Helvetica,sans-Serif" font-size="10.00">void setName(String name)</text>
<text text-anchor="start" x="4" y="-20.5" font-family="Helvetica,sans-Serif" font-size="10.00">+</text>
<text text-anchor="start" x="14" y="-20.5" font-family="Helvetica,sans-Serif" font-size="10.00">LocalDate getDateOfBirth()</text>
<text text-anchor="start" x="14" y="-5.5" font-family="Helvetica,sans-Serif" font-size="10.00">and 6 more...</text>
<polygon fill="#666666" stroke="#666666" points="0,-268 0,-268 243,-268 243,-268 0,-268"/>
<polygon fill="#666666" stroke="#666666" points="0,-178 0,-178 12,-178 12,-178 0,-178"/>
<polygon fill="#666666" stroke="#666666" points="12,-178 12,-178 243,-178 243,-178 12,-178"/>
<polygon fill="none" stroke="#666666" points="0,0 0,-285 243,-285 243,0 0,0"/>
</a>
</g>
</g>
<!-- Node2 -->
<g id="Node000002" class="node">
<title>Node2</title>
<g id="a_Node000002"><a xlink:title=" ">
<polygon fill="white" stroke="none" points="148.5,-381.25 94.5,-381.25 94.5,-332.25 148.5,-332.25 148.5,-381.25"/>
<text text-anchor="start" x="99.38" y="-367.75" font-family="Helvetica,sans-Serif" font-size="10.00">LocalDate</text>
<text text-anchor="start" x="120" y="-352.75" font-family="Helvetica,sans-Serif" font-size="10.00"> </text>
<text text-anchor="start" x="120" y="-337.75" font-family="Helvetica,sans-Serif" font-size="10.00"> </text>
<polygon fill="#666666" stroke="#666666" points="94.5,-364.25 94.5,-364.25 148.5,-364.25 148.5,-364.25 94.5,-364.25"/>
<polygon fill="#666666" stroke="#666666" points="94.5,-349.25 94.5,-349.25 148.5,-349.25 148.5,-349.25 94.5,-349.25"/>
<polygon fill="none" stroke="#666666" points="94.5,-332.25 94.5,-381.25 148.5,-381.25 148.5,-332.25 94.5,-332.25"/>
</a>
</g>
</g>
<!-- Node2&#45;&gt;Node1 -->
<g id="edge1_Node000001_Node000002" class="edge">
<title>Node2&#45;&gt;Node1</title>
<g id="a_edge1_Node000001_Node000002"><a xlink:title=" ">
<path fill="none" stroke="#63b8ff" d="M121.5,-332.63C121.5,-322.92 121.5,-310.75 121.5,-297.29"/>
<polygon fill="none" stroke="#63b8ff" points="121.5,-297.5 117.5,-291.5 121.5,-285.5 125.5,-291.5 121.5,-297.5"/>
</a>
</g>
<text text-anchor="middle" x="150.38" y="-304.75" font-family="Helvetica,sans-Serif" font-size="10.00" fill="grey"> #dateOfBirth</text>
</g>
</g>
</svg>
</svg>

<style type='text/css'>
<![CDATA[
[data-mouse-over-selected='false'] { opacity: 0.7; }
[data-mouse-over-selected='true']  { opacity: 1.0; }
]]>
</style>
<script type="application/ecmascript"><![CDATA[
document.addEventListener('DOMContentLoaded', (event) => {
  highlightEdges();
  highlightAdjacentNodes();
});
]]></script>
</svg>
