<?xml version="1.0" encoding="UTF-8" standalone="no"?>
<!DOCTYPE svg PUBLIC "-//W3C//DTD SVG 1.1//EN"
 "http://www.w3.org/Graphics/SVG/1.1/DTD/svg11.dtd">
<!-- Generated by graphviz version 12.1.2 (20240928.0832)
 -->
<!-- Title: db.ReplenishmentRequestsLoader.loadData Pages: 1 -->
<svg width="476pt" height="64pt"
 viewBox="0.00 0.00 475.75 64.25" xmlns="http://www.w3.org/2000/svg" xmlns:xlink="http://www.w3.org/1999/xlink">
<g id="graph0" class="graph" transform="scale(1 1) rotate(0) translate(4 60.25)">
<title>db.ReplenishmentRequestsLoader.loadData</title>
<!-- Node1 -->
<g id="Node000001" class="node">
<title>Node1</title>
<g id="a_Node000001"><a xlink:title="Loads replenishment requests from the specified file.">
<polygon fill="#999999" stroke="#666666" points="207.25,-37.25 0,-37.25 0,-18 207.25,-18 207.25,-37.25"/>
<text text-anchor="middle" x="103.62" y="-23.75" font-family="Helvetica,sans-Serif" font-size="10.00">db.ReplenishmentRequestsLoader.loadData</text>
</a>
</g>
</g>
<!-- Node2 -->
<g id="Node000002" class="node">
<title>Node2</title>
<g id="a_Node000002"><a xlink:href="classdb_1_1_replenishment_requests_loader.html#abeccd48de944fe61781853778d9bc44d" target="_top" xlink:title="Deserializes a ReplenishmentRequest object from a string representation.">
<polygon fill="white" stroke="#666666" points="462.88,-56.25 248.12,-56.25 248.12,-37 462.88,-37 462.88,-56.25"/>
<text text-anchor="middle" x="355.5" y="-42.75" font-family="Helvetica,sans-Serif" font-size="10.00">db.ReplenishmentRequestsLoader.deserialize</text>
</a>
</g>
</g>
<!-- Node1&#45;&gt;Node2 -->
<g id="edge1_Node000001_Node000002" class="edge">
<title>Node1&#45;&gt;Node2</title>
<g id="a_edge1_Node000001_Node000002"><a xlink:title=" ">
<path fill="none" stroke="#63b8ff" d="M207.7,-35.46C217.27,-36.19 227.01,-36.93 236.69,-37.67"/>
<polygon fill="#63b8ff" stroke="#63b8ff" points="236.28,-41.15 246.51,-38.41 236.81,-34.17 236.28,-41.15"/>
</a>
</g>
</g>
<!-- Node3 -->
<g id="Node000003" class="node">
<title>Node3</title>
<g id="a_Node000003"><a xlink:href="classdb_1_1_data_loader.html#af737f278a0a511944938fdcd5880f0d9" target="_top" xlink:title="Reads all lines from a specified file.">
<polygon fill="white" stroke="#666666" points="467.75,-19.25 243.25,-19.25 243.25,0 467.75,0 467.75,-19.25"/>
<text text-anchor="middle" x="355.5" y="-5.75" font-family="Helvetica,sans-Serif" font-size="10.00">db.DataLoader&lt; ReplenishmentRequest &gt;::read</text>
</a>
</g>
</g>
<!-- Node1&#45;&gt;Node3 -->
<g id="edge2_Node000001_Node000003" class="edge">
<title>Node1&#45;&gt;Node3</title>
<g id="a_edge2_Node000001_Node000003"><a xlink:title=" ">
<path fill="none" stroke="#63b8ff" d="M207.7,-20.2C215.65,-19.63 223.72,-19.05 231.78,-18.47"/>
<polygon fill="#63b8ff" stroke="#63b8ff" points="231.92,-21.96 241.64,-17.75 231.42,-14.98 231.92,-21.96"/>
</a>
</g>
</g>
</g>
</svg>
