<?xml version="1.0" encoding="UTF-8" standalone="no"?>
<!DOCTYPE svg PUBLIC "-//W3C//DTD SVG 1.1//EN"
 "http://www.w3.org/Graphics/SVG/1.1/DTD/svg11.dtd">
<!-- Generated by graphviz version 12.1.2 (20240928.0832)
 -->
<!-- Title: db.TextDB.saveSchedulesToFile Pages: 1 -->
<svg width="830pt" height="138pt"
 viewBox="0.00 0.00 830.25 138.25" xmlns="http://www.w3.org/2000/svg" xmlns:xlink="http://www.w3.org/1999/xlink">
<g id="graph0" class="graph" transform="scale(1 1) rotate(0) translate(4 134.25)">
<title>db.TextDB.saveSchedulesToFile</title>
<!-- Node1 -->
<g id="Node000001" class="node">
<title>Node1</title>
<g id="a_Node000001"><a xlink:title=" ">
<polygon fill="#999999" stroke="#666666" points="822.25,-74.25 663.75,-74.25 663.75,-55 822.25,-55 822.25,-74.25"/>
<text text-anchor="middle" x="743" y="-60.75" font-family="Helvetica,sans-Serif" font-size="10.00">db.TextDB.saveSchedulesToFile</text>
</a>
</g>
</g>
<!-- Node2 -->
<g id="Node000002" class="node">
<title>Node2</title>
<g id="a_Node000002"><a xlink:href="classdb_1_1_text_d_b.html#ad012623bfd1b59de612a4bdb189029a4" target="_top" xlink:title="Calculates the result.">
<polygon fill="white" stroke="#666666" points="606.75,-130.25 470.75,-130.25 470.75,-111 606.75,-111 606.75,-130.25"/>
<text text-anchor="middle" x="538.75" y="-116.75" font-family="Helvetica,sans-Serif" font-size="10.00">db.TextDB.addAppointment</text>
</a>
</g>
</g>
<!-- Node1&#45;&gt;Node2 -->
<g id="edge1_Node000001_Node000002" class="edge">
<title>Node1&#45;&gt;Node2</title>
<g id="a_edge1_Node000001_Node000002"><a xlink:title=" ">
<path fill="none" stroke="#63b8ff" d="M704.43,-78.38C682.3,-86.16 653.66,-95.69 627.75,-102.62 616.9,-105.53 605.2,-108.22 593.97,-110.59"/>
<polygon fill="#63b8ff" stroke="#63b8ff" points="705.36,-81.76 713.61,-75.11 703.02,-75.17 705.36,-81.76"/>
</a>
</g>
</g>
<!-- Node3 -->
<g id="Node000003" class="node">
<title>Node3</title>
<g id="a_Node000003"><a xlink:href="classdb_1_1_text_d_b.html#a86c8f97829de1275242b05f46cdd6415" target="_top" xlink:title="Updates an appointment with a new status and saves changes.">
<polygon fill="white" stroke="#666666" points="613.5,-93.25 464,-93.25 464,-74 613.5,-74 613.5,-93.25"/>
<text text-anchor="middle" x="538.75" y="-79.75" font-family="Helvetica,sans-Serif" font-size="10.00">db.TextDB.updateAppointment</text>
</a>
</g>
</g>
<!-- Node1&#45;&gt;Node3 -->
<g id="edge2_Node000001_Node000003" class="edge">
<title>Node1&#45;&gt;Node3</title>
<g id="a_edge2_Node000001_Node000003"><a xlink:title=" ">
<path fill="none" stroke="#63b8ff" d="M652.31,-73.05C639.47,-74.26 626.38,-75.49 613.88,-76.66"/>
<polygon fill="#63b8ff" stroke="#63b8ff" points="652.38,-76.56 662.01,-72.14 651.72,-69.59 652.38,-76.56"/>
</a>
</g>
</g>
<!-- Node6 -->
<g id="Node000006" class="node">
<title>Node6</title>
<g id="a_Node000006"><a xlink:href="classdb_1_1_text_d_b.html#a04a650ae8f6750cd2068585b496767dd" target="_top" xlink:title="Calculates the result.">
<polygon fill="white" stroke="#666666" points="627.75,-56.25 449.75,-56.25 449.75,-37 627.75,-37 627.75,-56.25"/>
<text text-anchor="middle" x="538.75" y="-42.75" font-family="Helvetica,sans-Serif" font-size="10.00">db.TextDB.updateAppointmentStatus</text>
</a>
</g>
</g>
<!-- Node1&#45;&gt;Node6 -->
<g id="edge5_Node000001_Node000006" class="edge">
<title>Node1&#45;&gt;Node6</title>
<g id="a_edge5_Node000001_Node000006"><a xlink:title=" ">
<path fill="none" stroke="#63b8ff" d="M652.2,-56.63C644.14,-55.92 635.98,-55.19 627.93,-54.47"/>
<polygon fill="#63b8ff" stroke="#63b8ff" points="651.74,-60.11 662.01,-57.51 652.36,-53.13 651.74,-60.11"/>
</a>
</g>
</g>
<!-- Node7 -->
<g id="Node000007" class="node">
<title>Node7</title>
<g id="a_Node000007"><a xlink:href="classdb_1_1_text_d_b.html#a6f9c8a5da2c13ddf2e9f16e50f825b7d" target="_top" xlink:title=" ">
<polygon fill="white" stroke="#666666" points="621,-19.25 456.5,-19.25 456.5,0 621,0 621,-19.25"/>
<text text-anchor="middle" x="538.75" y="-5.75" font-family="Helvetica,sans-Serif" font-size="10.00">db.TextDB.updateDoctorSchedule</text>
</a>
</g>
</g>
<!-- Node1&#45;&gt;Node7 -->
<g id="edge6_Node000001_Node000007" class="edge">
<title>Node1&#45;&gt;Node7</title>
<g id="a_edge6_Node000001_Node000007"><a xlink:title=" ">
<path fill="none" stroke="#63b8ff" d="M703.21,-50.87C681.24,-43.39 653.16,-34.32 627.75,-27.62 616.89,-24.77 605.18,-22.09 593.96,-19.72"/>
<polygon fill="#63b8ff" stroke="#63b8ff" points="702.06,-54.18 712.66,-54.13 704.34,-47.56 702.06,-54.18"/>
</a>
</g>
</g>
<!-- Node4 -->
<g id="Node000004" class="node">
<title>Node4</title>
<g id="a_Node000004"><a xlink:href="classmenus_1_1_doctor_menu.html#ae7d20b71f38894a6236e1f23b637ce42" target="_top" xlink:title="Records the outcome of a completed appointment.">
<polygon fill="white" stroke="#666666" points="413.75,-93.25 187.75,-93.25 187.75,-74 413.75,-74 413.75,-93.25"/>
<text text-anchor="middle" x="300.75" y="-79.75" font-family="Helvetica,sans-Serif" font-size="10.00">menus.DoctorMenu.recordAppointmentOutcome</text>
</a>
</g>
</g>
<!-- Node3&#45;&gt;Node4 -->
<g id="edge3_Node000003_Node000004" class="edge">
<title>Node3&#45;&gt;Node4</title>
<g id="a_edge3_Node000003_Node000004"><a xlink:title=" ">
<path fill="none" stroke="#63b8ff" d="M452.42,-83.62C439.93,-83.62 426.91,-83.62 413.98,-83.62"/>
<polygon fill="#63b8ff" stroke="#63b8ff" points="452.21,-87.13 462.21,-83.63 452.21,-80.13 452.21,-87.13"/>
</a>
</g>
</g>
<!-- Node5 -->
<g id="Node000005" class="node">
<title>Node5</title>
<g id="a_Node000005"><a xlink:href="classmenus_1_1_doctor_menu.html#af4a80d7af2990dd2f809c409c732536d" target="_top" xlink:title="Displays the Doctor Menu and handles user selections.">
<polygon fill="white" stroke="#666666" points="151.75,-93.25 0,-93.25 0,-74 151.75,-74 151.75,-93.25"/>
<text text-anchor="middle" x="75.88" y="-79.75" font-family="Helvetica,sans-Serif" font-size="10.00">menus.DoctorMenu.showMenu</text>
</a>
</g>
</g>
<!-- Node4&#45;&gt;Node5 -->
<g id="edge4_Node000004_Node000005" class="edge">
<title>Node4&#45;&gt;Node5</title>
<g id="a_edge4_Node000004_Node000005"><a xlink:title=" ">
<path fill="none" stroke="#63b8ff" d="M175.92,-83.62C167.88,-83.62 159.92,-83.62 152.22,-83.62"/>
<polygon fill="#63b8ff" stroke="#63b8ff" points="175.82,-87.13 185.82,-83.63 175.82,-80.13 175.82,-87.13"/>
</a>
</g>
</g>
</g>
</svg>
