<?xml version="1.0" encoding="UTF-8" standalone="no"?>
<!DOCTYPE svg PUBLIC "-//W3C//DTD SVG 1.1//EN"
 "http://www.w3.org/Graphics/SVG/1.1/DTD/svg11.dtd">
<!-- Generated by graphviz version 12.1.2 (20240928.0832)
 -->
<!-- Title: db.TextDB.getMedicalRecordByPatientId Pages: 1 -->
<svg width="653pt" height="64pt"
 viewBox="0.00 0.00 653.00 64.25" xmlns="http://www.w3.org/2000/svg" xmlns:xlink="http://www.w3.org/1999/xlink">
<g id="graph0" class="graph" transform="scale(1 1) rotate(0) translate(4 60.25)">
<title>db.TextDB.getMedicalRecordByPatientId</title>
<!-- Node1 -->
<g id="Node000001" class="node">
<title>Node1</title>
<g id="a_Node000001"><a xlink:title=" ">
<polygon fill="#999999" stroke="#666666" points="645,-37.25 449.75,-37.25 449.75,-18 645,-18 645,-37.25"/>
<text text-anchor="middle" x="547.38" y="-23.75" font-family="Helvetica,sans-Serif" font-size="10.00">db.TextDB.getMedicalRecordByPatientId</text>
</a>
</g>
</g>
<!-- Node2 -->
<g id="Node000002" class="node">
<title>Node2</title>
<g id="a_Node000002"><a xlink:href="classuser__classes_1_1_patient.html#ac659d06b120d409ff7ef5296c68a931c" target="_top" xlink:title="Constructs a Patient object with the specified attributes.">
<polygon fill="white" stroke="#666666" points="371.38,-56.25 230.12,-56.25 230.12,-37 371.38,-37 371.38,-56.25"/>
<text text-anchor="middle" x="300.75" y="-42.75" font-family="Helvetica,sans-Serif" font-size="10.00">user_classes.Patient.Patient</text>
</a>
</g>
</g>
<!-- Node1&#45;&gt;Node2 -->
<g id="edge1_Node000001_Node000002" class="edge">
<title>Node1&#45;&gt;Node2</title>
<g id="a_edge1_Node000001_Node000002"><a xlink:title=" ">
<path fill="none" stroke="#63b8ff" d="M437.98,-36.04C415.42,-37.8 392.22,-39.6 371.51,-41.21"/>
<polygon fill="#63b8ff" stroke="#63b8ff" points="438.13,-39.54 447.83,-35.28 437.59,-32.56 438.13,-39.54"/>
</a>
</g>
</g>
<!-- Node3 -->
<g id="Node000003" class="node">
<title>Node3</title>
<g id="a_Node000003"><a xlink:href="classmenus_1_1_doctor_menu.html#ae7d20b71f38894a6236e1f23b637ce42" target="_top" xlink:title="Records the outcome of a completed appointment.">
<polygon fill="white" stroke="#666666" points="413.75,-19.25 187.75,-19.25 187.75,0 413.75,0 413.75,-19.25"/>
<text text-anchor="middle" x="300.75" y="-5.75" font-family="Helvetica,sans-Serif" font-size="10.00">menus.DoctorMenu.recordAppointmentOutcome</text>
</a>
</g>
</g>
<!-- Node1&#45;&gt;Node3 -->
<g id="edge2_Node000001_Node000003" class="edge">
<title>Node1&#45;&gt;Node3</title>
<g id="a_edge2_Node000001_Node000003"><a xlink:title=" ">
<path fill="none" stroke="#63b8ff" d="M438.11,-19.66C430.11,-19.07 422.03,-18.48 414.02,-17.89"/>
<polygon fill="#63b8ff" stroke="#63b8ff" points="437.6,-23.13 447.83,-20.37 438.12,-16.15 437.6,-23.13"/>
</a>
</g>
</g>
<!-- Node4 -->
<g id="Node000004" class="node">
<title>Node4</title>
<g id="a_Node000004"><a xlink:href="classmenus_1_1_doctor_menu.html#af4a80d7af2990dd2f809c409c732536d" target="_top" xlink:title="Displays the Doctor Menu and handles user selections.">
<polygon fill="white" stroke="#666666" points="151.75,-19.25 0,-19.25 0,0 151.75,0 151.75,-19.25"/>
<text text-anchor="middle" x="75.88" y="-5.75" font-family="Helvetica,sans-Serif" font-size="10.00">menus.DoctorMenu.showMenu</text>
</a>
</g>
</g>
<!-- Node3&#45;&gt;Node4 -->
<g id="edge3_Node000003_Node000004" class="edge">
<title>Node3&#45;&gt;Node4</title>
<g id="a_edge3_Node000003_Node000004"><a xlink:title=" ">
<path fill="none" stroke="#63b8ff" d="M175.92,-9.62C167.88,-9.62 159.92,-9.62 152.22,-9.62"/>
<polygon fill="#63b8ff" stroke="#63b8ff" points="175.82,-13.13 185.82,-9.63 175.82,-6.13 175.82,-13.13"/>
</a>
</g>
</g>
</g>
</svg>
