<?xml version="1.0" encoding="UTF-8" standalone="no"?>
<!DOCTYPE svg PUBLIC "-//W3C//DTD SVG 1.1//EN"
 "http://www.w3.org/Graphics/SVG/1.1/DTD/svg11.dtd">
<!-- Generated by graphviz version 12.1.2 (20240928.0832)
 -->
<!-- Title: db.MedicalRecordLoader.loadData Pages: 1 -->
<svg width="740pt" height="64pt"
 viewBox="0.00 0.00 740.25 64.25" xmlns="http://www.w3.org/2000/svg" xmlns:xlink="http://www.w3.org/1999/xlink">
<g id="graph0" class="graph" transform="scale(1 1) rotate(0) translate(4 60.25)">
<title>db.MedicalRecordLoader.loadData</title>
<!-- Node1 -->
<g id="Node000001" class="node">
<title>Node1</title>
<g id="a_Node000001"><a xlink:title="Loads medical records from the associated file.">
<polygon fill="#999999" stroke="#666666" points="165.25,-37.25 0,-37.25 0,-18 165.25,-18 165.25,-37.25"/>
<text text-anchor="middle" x="82.62" y="-23.75" font-family="Helvetica,sans-Serif" font-size="10.00">db.MedicalRecordLoader.loadData</text>
</a>
</g>
</g>
<!-- Node2 -->
<g id="Node000002" class="node">
<title>Node2</title>
<g id="a_Node000002"><a xlink:href="classdb_1_1_medical_record_loader.html#a90d533c86c0cb78c0ffbcddbfdd9e3ee" target="_top" xlink:title="Deserializes a MedicalRecord object from a string representation.">
<polygon fill="white" stroke="#666666" points="381.5,-56.25 208.75,-56.25 208.75,-37 381.5,-37 381.5,-56.25"/>
<text text-anchor="middle" x="295.12" y="-42.75" font-family="Helvetica,sans-Serif" font-size="10.00">db.MedicalRecordLoader.deserialize</text>
</a>
</g>
</g>
<!-- Node1&#45;&gt;Node2 -->
<g id="edge1_Node000001_Node000002" class="edge">
<title>Node1&#45;&gt;Node2</title>
<g id="a_edge1_Node000001_Node000002"><a xlink:title=" ">
<path fill="none" stroke="#63b8ff" d="M165.61,-35.03C175.96,-35.96 186.61,-36.92 197.16,-37.87"/>
<polygon fill="#63b8ff" stroke="#63b8ff" points="196.76,-41.35 207.03,-38.76 197.39,-34.38 196.76,-41.35"/>
</a>
</g>
</g>
<!-- Node5 -->
<g id="Node000005" class="node">
<title>Node5</title>
<g id="a_Node000005"><a xlink:href="classdb_1_1_data_loader.html#af737f278a0a511944938fdcd5880f0d9" target="_top" xlink:title="Reads all lines from a specified file.">
<polygon fill="white" stroke="#666666" points="389,-19.25 201.25,-19.25 201.25,0 389,0 389,-19.25"/>
<text text-anchor="middle" x="295.12" y="-5.75" font-family="Helvetica,sans-Serif" font-size="10.00">db.DataLoader&lt; MedicalRecord &gt;::read</text>
</a>
</g>
</g>
<!-- Node1&#45;&gt;Node5 -->
<g id="edge4_Node000001_Node000005" class="edge">
<title>Node1&#45;&gt;Node5</title>
<g id="a_edge4_Node000001_Node000005"><a xlink:title=" ">
<path fill="none" stroke="#63b8ff" d="M165.61,-20.61C173.46,-19.94 181.49,-19.26 189.51,-18.57"/>
<polygon fill="#63b8ff" stroke="#63b8ff" points="189.66,-22.07 199.32,-17.73 189.06,-15.1 189.66,-22.07"/>
</a>
</g>
</g>
<!-- Node3 -->
<g id="Node000003" class="node">
<title>Node3</title>
<g id="a_Node000003"><a xlink:href="classitems_1_1_treatment.html#a8f88f9c1ac686801ba3e47b65c7142b5" target="_top" xlink:title="Deserializes a Treatment object from a string.">
<polygon fill="white" stroke="#666666" points="561.75,-56.25 425,-56.25 425,-37 561.75,-37 561.75,-56.25"/>
<text text-anchor="middle" x="493.38" y="-42.75" font-family="Helvetica,sans-Serif" font-size="10.00">items.Treatment.deserialize</text>
</a>
</g>
</g>
<!-- Node2&#45;&gt;Node3 -->
<g id="edge2_Node000002_Node000003" class="edge">
<title>Node2&#45;&gt;Node3</title>
<g id="a_edge2_Node000002_Node000003"><a xlink:title=" ">
<path fill="none" stroke="#63b8ff" d="M381.92,-46.62C392.33,-46.62 402.94,-46.62 413.25,-46.62"/>
<polygon fill="#63b8ff" stroke="#63b8ff" points="413.23,-50.13 423.23,-46.63 413.23,-43.13 413.23,-50.13"/>
</a>
</g>
</g>
<!-- Node4 -->
<g id="Node000004" class="node">
<title>Node4</title>
<g id="a_Node000004"><a xlink:href="classitems_1_1_treatment.html#a392635dc4fde65f3db7b4372503fad72" target="_top" xlink:title="Default constructor initializes the list of prescribed medicines and sets comments to an empty string...">
<polygon fill="white" stroke="#666666" points="732.25,-56.25 597.75,-56.25 597.75,-37 732.25,-37 732.25,-56.25"/>
<text text-anchor="middle" x="665" y="-42.75" font-family="Helvetica,sans-Serif" font-size="10.00">items.Treatment.Treatment</text>
</a>
</g>
</g>
<!-- Node3&#45;&gt;Node4 -->
<g id="edge3_Node000003_Node000004" class="edge">
<title>Node3&#45;&gt;Node4</title>
<g id="a_edge3_Node000003_Node000004"><a xlink:title=" ">
<path fill="none" stroke="#63b8ff" d="M561.9,-46.62C569.81,-46.62 577.94,-46.62 585.98,-46.62"/>
<polygon fill="#63b8ff" stroke="#63b8ff" points="585.74,-50.13 595.74,-46.63 585.74,-43.13 585.74,-50.13"/>
</a>
</g>
</g>
</g>
</svg>
