<?xml version="1.0" encoding="UTF-8" standalone="no"?>
<!DOCTYPE svg PUBLIC "-//W3C//DTD SVG 1.1//EN"
 "http://www.w3.org/Graphics/SVG/1.1/DTD/svg11.dtd">
<!-- Generated by graphviz version 12.1.2 (20240928.0832)
 -->
<!-- Title: db.TextDB.saveAppointmentsToFile Pages: 1 -->
<svg width="845pt" height="138pt"
 viewBox="0.00 0.00 844.50 138.25" xmlns="http://www.w3.org/2000/svg" xmlns:xlink="http://www.w3.org/1999/xlink">
<g id="graph0" class="graph" transform="scale(1 1) rotate(0) translate(4 134.25)">
<title>db.TextDB.saveAppointmentsToFile</title>
<!-- Node1 -->
<g id="Node000001" class="node">
<title>Node1</title>
<g id="a_Node000001"><a xlink:title=" ">
<polygon fill="#999999" stroke="#666666" points="836.5,-74.25 663.75,-74.25 663.75,-55 836.5,-55 836.5,-74.25"/>
<text text-anchor="middle" x="750.12" y="-60.75" font-family="Helvetica,sans-Serif" font-size="10.00">db.TextDB.saveAppointmentsToFile</text>
</a>
</g>
</g>
<!-- Node2 -->
<g id="Node000002" class="node">
<title>Node2</title>
<g id="a_Node000002"><a xlink:href="classdb_1_1_text_d_b.html#ad012623bfd1b59de612a4bdb189029a4" target="_top" xlink:title="Calculates the result.">
<polygon fill="white" stroke="#666666" points="606.75,-130.25 470.75,-130.25 470.75,-111 606.75,-111 606.75,-130.25"/>
<text text-anchor="middle" x="538.75" y="-116.75" font-family="Helvetica,sans-Serif" font-size="10.00">db.TextDB.addAppointment</text>
</a>
</g>
</g>
<!-- Node1&#45;&gt;Node2 -->
<g id="edge1_Node000001_Node000002" class="edge">
<title>Node1&#45;&gt;Node2</title>
<g id="a_edge1_Node000001_Node000002"><a xlink:title=" ">
<path fill="none" stroke="#63b8ff" d="M709.31,-78.21C685.76,-85.97 655.25,-95.53 627.75,-102.62 616.73,-105.47 604.84,-108.16 593.47,-110.54"/>
<polygon fill="#63b8ff" stroke="#63b8ff" points="710.11,-81.63 718.5,-75.16 707.9,-74.99 710.11,-81.63"/>
</a>
</g>
</g>
<!-- Node3 -->
<g id="Node000003" class="node">
<title>Node3</title>
<g id="a_Node000003"><a xlink:href="classdb_1_1_text_d_b.html#a500080effe96b185a8b5cd4c6dd75be0" target="_top" xlink:title="Calculates the result.">
<polygon fill="white" stroke="#666666" points="613.12,-93.25 464.38,-93.25 464.38,-74 613.12,-74 613.12,-93.25"/>
<text text-anchor="middle" x="538.75" y="-79.75" font-family="Helvetica,sans-Serif" font-size="10.00">db.TextDB.cancelAppointment</text>
</a>
</g>
</g>
<!-- Node1&#45;&gt;Node3 -->
<g id="edge2_Node000001_Node000003" class="edge">
<title>Node1&#45;&gt;Node3</title>
<g id="a_edge2_Node000001_Node000003"><a xlink:title=" ">
<path fill="none" stroke="#63b8ff" d="M652,-73.44C638.99,-74.62 625.84,-75.81 613.33,-76.95"/>
<polygon fill="#63b8ff" stroke="#63b8ff" points="652.21,-76.93 661.85,-72.54 651.58,-69.96 652.21,-76.93"/>
</a>
</g>
</g>
<!-- Node4 -->
<g id="Node000004" class="node">
<title>Node4</title>
<g id="a_Node000004"><a xlink:href="classdb_1_1_text_d_b.html#a86c8f97829de1275242b05f46cdd6415" target="_top" xlink:title="Updates an appointment with a new status and saves changes.">
<polygon fill="white" stroke="#666666" points="613.5,-56.25 464,-56.25 464,-37 613.5,-37 613.5,-56.25"/>
<text text-anchor="middle" x="538.75" y="-42.75" font-family="Helvetica,sans-Serif" font-size="10.00">db.TextDB.updateAppointment</text>
</a>
</g>
</g>
<!-- Node1&#45;&gt;Node4 -->
<g id="edge3_Node000001_Node000004" class="edge">
<title>Node1&#45;&gt;Node4</title>
<g id="a_edge3_Node000001_Node000004"><a xlink:title=" ">
<path fill="none" stroke="#63b8ff" d="M652.15,-56.29C639.33,-55.19 626.35,-54.07 613.99,-53.01"/>
<polygon fill="#63b8ff" stroke="#63b8ff" points="651.59,-59.75 661.85,-57.12 652.19,-52.78 651.59,-59.75"/>
</a>
</g>
</g>
<!-- Node7 -->
<g id="Node000007" class="node">
<title>Node7</title>
<g id="a_Node000007"><a xlink:href="classdb_1_1_text_d_b.html#a04a650ae8f6750cd2068585b496767dd" target="_top" xlink:title="Calculates the result.">
<polygon fill="white" stroke="#666666" points="627.75,-19.25 449.75,-19.25 449.75,0 627.75,0 627.75,-19.25"/>
<text text-anchor="middle" x="538.75" y="-5.75" font-family="Helvetica,sans-Serif" font-size="10.00">db.TextDB.updateAppointmentStatus</text>
</a>
</g>
</g>
<!-- Node1&#45;&gt;Node7 -->
<g id="edge6_Node000001_Node000007" class="edge">
<title>Node1&#45;&gt;Node7</title>
<g id="a_edge6_Node000001_Node000007"><a xlink:title=" ">
<path fill="none" stroke="#63b8ff" d="M708.01,-51.04C684.63,-43.58 654.72,-34.48 627.75,-27.62 616.57,-24.78 604.49,-22.08 592.98,-19.67"/>
<polygon fill="#63b8ff" stroke="#63b8ff" points="706.89,-54.35 717.48,-54.09 709.03,-47.69 706.89,-54.35"/>
</a>
</g>
</g>
<!-- Node5 -->
<g id="Node000005" class="node">
<title>Node5</title>
<g id="a_Node000005"><a xlink:href="classmenus_1_1_doctor_menu.html#ae7d20b71f38894a6236e1f23b637ce42" target="_top" xlink:title="Records the outcome of a completed appointment.">
<polygon fill="white" stroke="#666666" points="413.75,-56.25 187.75,-56.25 187.75,-37 413.75,-37 413.75,-56.25"/>
<text text-anchor="middle" x="300.75" y="-42.75" font-family="Helvetica,sans-Serif" font-size="10.00">menus.DoctorMenu.recordAppointmentOutcome</text>
</a>
</g>
</g>
<!-- Node4&#45;&gt;Node5 -->
<g id="edge4_Node000004_Node000005" class="edge">
<title>Node4&#45;&gt;Node5</title>
<g id="a_edge4_Node000004_Node000005"><a xlink:title=" ">
<path fill="none" stroke="#63b8ff" d="M452.42,-46.62C439.93,-46.62 426.91,-46.62 413.98,-46.62"/>
<polygon fill="#63b8ff" stroke="#63b8ff" points="452.21,-50.13 462.21,-46.63 452.21,-43.13 452.21,-50.13"/>
</a>
</g>
</g>
<!-- Node6 -->
<g id="Node000006" class="node">
<title>Node6</title>
<g id="a_Node000006"><a xlink:href="classmenus_1_1_doctor_menu.html#af4a80d7af2990dd2f809c409c732536d" target="_top" xlink:title="Displays the Doctor Menu and handles user selections.">
<polygon fill="white" stroke="#666666" points="151.75,-56.25 0,-56.25 0,-37 151.75,-37 151.75,-56.25"/>
<text text-anchor="middle" x="75.88" y="-42.75" font-family="Helvetica,sans-Serif" font-size="10.00">menus.DoctorMenu.showMenu</text>
</a>
</g>
</g>
<!-- Node5&#45;&gt;Node6 -->
<g id="edge5_Node000005_Node000006" class="edge">
<title>Node5&#45;&gt;Node6</title>
<g id="a_edge5_Node000005_Node000006"><a xlink:title=" ">
<path fill="none" stroke="#63b8ff" d="M175.92,-46.62C167.88,-46.62 159.92,-46.62 152.22,-46.62"/>
<polygon fill="#63b8ff" stroke="#63b8ff" points="175.82,-50.13 185.82,-46.63 175.82,-43.13 175.82,-50.13"/>
</a>
</g>
</g>
</g>
</svg>
