<?xml version="1.0" encoding="UTF-8" standalone="no"?>
<!DOCTYPE svg PUBLIC "-//W3C//DTD SVG 1.1//EN"
 "http://www.w3.org/Graphics/SVG/1.1/DTD/svg11.dtd">
<!-- Generated by graphviz version 12.1.2 (20240928.0832)
 -->
<!-- Title: db.TextDB Pages: 1 -->
<!--zoomable 534 -->

<svg id="main" version="1.1" xmlns="http://www.w3.org/2000/svg" xmlns:xlink="http://www.w3.org/1999/xlink" xml:space="preserve" onload="init(evt)">
<style type="text/css"><![CDATA[
.node, .edge {opacity: 0.7;}
.node.selected, .edge.selected {opacity: 1;}
.edge:hover path { stroke: red; }
.edge:hover polygon { stroke: red; fill: red; }
]]></style>

<defs>
  <circle id="rim" cx="0" cy="0" r="7"/>
  <circle id="rim2" cx="0" cy="0" r="3.5"/>
  <g id="zoomPlus">
    <use xlink:href="#rim" fill="#404040"><set attributeName="fill" to="#808080" begin="zoomplus.mouseover" end="zoomplus.mouseout"/></use>
    <path d="M-4,0h8M0,-4v8" fill="none" stroke="white" stroke-width="1.5" pointer-events="none"/>
  </g>
  <g id="zoomMin">
    <use xlink:href="#rim" fill="#404040"><set attributeName="fill" to="#808080" begin="zoomminus.mouseover" end="zoomminus.mouseout"/></use>
    <path d="M-4,0h8" fill="none" stroke="white" stroke-width="1.5" pointer-events="none"/>
  </g>
  <g id="arrowUp" transform="translate(30 24)">
    <use xlink:href="#rim"/>
    <path pointer-events="none" fill="none" stroke="white" stroke-width="1.5" d="M0,-3.0v7 M-2.5,-0.5L0,-3.0L2.5,-0.5"/>
  </g>
  <g id="arrowRight" transform="rotate(90) translate(36 -43)">
    <use xlink:href="#rim"/>
    <path pointer-events="none" fill="none" stroke="white" stroke-width="1.5" d="M0,-3.0v7 M-2.5,-0.5L0,-3.0L2.5,-0.5"/>
  </g>
  <g id="arrowDown" transform="rotate(180) translate(-30 -48)">
    <use xlink:href="#rim"/>
    <path pointer-events="none" fill="none" stroke="white" stroke-width="1.5" d="M0,-3.0v7 M-2.5,-0.5L0,-3.0L2.5,-0.5"/>
  </g>
  <g id="arrowLeft" transform="rotate(270) translate(-36 17)">
    <use xlink:href="#rim"/>
    <path pointer-events="none" fill="none" stroke="white" stroke-width="1.5" d="M0,-3.0v7 M-2.5,-0.5L0,-3.0L2.5,-0.5"/>
  </g>
  <g id="resetDef">
    <use xlink:href="#rim2" fill="#404040"><set attributeName="fill" to="#808080" begin="reset.mouseover" end="reset.mouseout"/></use>
  </g>
</defs>
<script type="application/ecmascript">
var viewWidth = 283;
var viewHeight = 534;
var sectionId = 'dynsection-0';
</script>
<script type="application/ecmascript" xlink:href="svg.min.js"/>
<svg id="graph" class="graph">
<g id="viewport">
<title>db.TextDB</title>
<!-- Node1 -->
<g id="Node000001" class="node">
<title>Node1</title>
<g id="a_Node000001"><a xlink:title="This class.">
<polygon fill="#999999" stroke="none" points="244,-333 0,-333 0,0 244,0 244,-333"/>
<text text-anchor="start" x="98.75" y="-319.5" font-family="Helvetica,sans-Serif" font-size="10.00">db.TextDB</text>
<text text-anchor="start" x="4" y="-304.5" font-family="Helvetica,sans-Serif" font-size="10.00">+</text>
<text text-anchor="start" x="14" y="-304.5" font-family="Helvetica,sans-Serif" font-size="10.00">static final String SEPARATOR</text>
<text text-anchor="start" x="4" y="-289.5" font-family="Helvetica,sans-Serif" font-size="10.00">+</text>
<text text-anchor="start" x="14" y="-289.5" font-family="Helvetica,sans-Serif" font-size="10.00">void loadSchedulesFromFile(String filename)</text>
<text text-anchor="start" x="4" y="-274.5" font-family="Helvetica,sans-Serif" font-size="10.00">+</text>
<text text-anchor="start" x="14" y="-274.5" font-family="Helvetica,sans-Serif" font-size="10.00">void saveSchedulesToFile(String filename)</text>
<text text-anchor="start" x="4" y="-259.5" font-family="Helvetica,sans-Serif" font-size="10.00">+</text>
<text text-anchor="start" x="14" y="-259.5" font-family="Helvetica,sans-Serif" font-size="10.00">void updateDoctorSchedule(String doctorId,</text>
<text text-anchor="start" x="14" y="-248.25" font-family="Helvetica,sans-Serif" font-size="10.00"> Schedule schedule)</text>
<text text-anchor="start" x="4" y="-233.5" font-family="Helvetica,sans-Serif" font-size="10.00">+</text>
<text text-anchor="start" x="14" y="-233.5" font-family="Helvetica,sans-Serif" font-size="10.00">void addUser(User user)</text>
<text text-anchor="start" x="4" y="-218.5" font-family="Helvetica,sans-Serif" font-size="10.00">+</text>
<text text-anchor="start" x="14" y="-218.5" font-family="Helvetica,sans-Serif" font-size="10.00">void removeUser(User user)</text>
<text text-anchor="start" x="4" y="-203.5" font-family="Helvetica,sans-Serif" font-size="10.00">+</text>
<text text-anchor="start" x="14" y="-203.5" font-family="Helvetica,sans-Serif" font-size="10.00">User getUserByHospitalID(String hospitalID)</text>
<text text-anchor="start" x="4" y="-188.5" font-family="Helvetica,sans-Serif" font-size="10.00">+</text>
<text text-anchor="start" x="14" y="-188.5" font-family="Helvetica,sans-Serif" font-size="10.00">List&lt; User &gt; getUsers()</text>
<text text-anchor="start" x="4" y="-173.5" font-family="Helvetica,sans-Serif" font-size="10.00">+</text>
<text text-anchor="start" x="14" y="-173.5" font-family="Helvetica,sans-Serif" font-size="10.00">boolean cancelAppointment(Patient patient,</text>
<text text-anchor="start" x="14" y="-162.25" font-family="Helvetica,sans-Serif" font-size="10.00"> int appointmentId)</text>
<text text-anchor="start" x="4" y="-147.5" font-family="Helvetica,sans-Serif" font-size="10.00">+</text>
<text text-anchor="start" x="14" y="-147.5" font-family="Helvetica,sans-Serif" font-size="10.00">List&lt; Doctor &gt; getAllDoctors()</text>
<text text-anchor="start" x="4" y="-132.5" font-family="Helvetica,sans-Serif" font-size="10.00">+</text>
<text text-anchor="start" x="14" y="-132.5" font-family="Helvetica,sans-Serif" font-size="10.00">List&lt; TimeSlot &gt; getAvailableAppointmentSlots</text>
<text text-anchor="start" x="14" y="-121.25" font-family="Helvetica,sans-Serif" font-size="10.00">(LocalDate date, Doctor doctor)</text>
<text text-anchor="start" x="14" y="-106.5" font-family="Helvetica,sans-Serif" font-size="10.00">and 18 more...</text>
<text text-anchor="start" x="4" y="-91.5" font-family="Helvetica,sans-Serif" font-size="10.00">+</text>
<text text-anchor="start" x="14" y="-91.5" font-family="Helvetica,sans-Serif" font-size="10.00">static TextDB getInstance()</text>
<text text-anchor="start" x="4" y="-76.5" font-family="Helvetica,sans-Serif" font-size="10.00">+</text>
<text text-anchor="start" x="14" y="-76.5" font-family="Helvetica,sans-Serif" font-size="10.00">static void updateUserPassword(User user)</text>
<text text-anchor="start" x="4" y="-61.5" font-family="Helvetica,sans-Serif" font-size="10.00">+</text>
<text text-anchor="start" x="14" y="-61.5" font-family="Helvetica,sans-Serif" font-size="10.00">static void saveToFile(String filename)</text>
<text text-anchor="start" x="4" y="-46.5" font-family="Helvetica,sans-Serif" font-size="10.00">+</text>
<text text-anchor="start" x="14" y="-46.5" font-family="Helvetica,sans-Serif" font-size="10.00">static void write(String fileName, List</text>
<text text-anchor="start" x="14" y="-35.25" font-family="Helvetica,sans-Serif" font-size="10.00">&lt; String &gt; data)</text>
<text text-anchor="start" x="4" y="-20.5" font-family="Helvetica,sans-Serif" font-size="10.00">+</text>
<text text-anchor="start" x="14" y="-20.5" font-family="Helvetica,sans-Serif" font-size="10.00">static List&lt; String &gt; read(String fileName)</text>
<text text-anchor="start" x="4" y="-5.5" font-family="Helvetica,sans-Serif" font-size="10.00">+</text>
<text text-anchor="start" x="14" y="-5.5" font-family="Helvetica,sans-Serif" font-size="10.00">static void saveAppointmentsToFile(String filename)</text>
<polygon fill="#666666" stroke="#666666" points="0,-316 0,-316 244,-316 244,-316 0,-316"/>
<polygon fill="#666666" stroke="#666666" points="0,-301 0,-301 12,-301 12,-301 0,-301"/>
<polygon fill="#666666" stroke="#666666" points="12,-301 12,-301 244,-301 244,-301 12,-301"/>
<polygon fill="none" stroke="#666666" points="0,0 0,-333 244,-333 244,0 0,0"/>
</a>
</g>
</g>
<!-- Node2 -->
<g id="Node000002" class="node">
<title>Node2</title>
<g id="a_Node000002"><a xlink:title=" ">
<polygon fill="white" stroke="none" points="208,-429.25 36,-429.25 36,-380.25 208,-380.25 208,-429.25"/>
<text text-anchor="start" x="40.62" y="-415.75" font-family="Helvetica,sans-Serif" font-size="10.00">List&lt; items.ReplenishmentRequest &gt;</text>
<text text-anchor="start" x="120.5" y="-400.75" font-family="Helvetica,sans-Serif" font-size="10.00"> </text>
<text text-anchor="start" x="120.5" y="-385.75" font-family="Helvetica,sans-Serif" font-size="10.00"> </text>
<polygon fill="#666666" stroke="#666666" points="36,-412.25 36,-412.25 208,-412.25 208,-412.25 36,-412.25"/>
<polygon fill="#666666" stroke="#666666" points="36,-397.25 36,-397.25 208,-397.25 208,-397.25 36,-397.25"/>
<polygon fill="none" stroke="#666666" points="36,-380.25 36,-429.25 208,-429.25 208,-380.25 36,-380.25"/>
</a>
</g>
</g>
<!-- Node2&#45;&gt;Node1 -->
<g id="edge1_Node000001_Node000002" class="edge">
<title>Node2&#45;&gt;Node1</title>
<g id="a_edge1_Node000001_Node000002"><a xlink:title=" ">
<path fill="none" stroke="#63b8ff" d="M122,-380.67C122,-371.07 122,-359.01 122,-345.53"/>
<polygon fill="none" stroke="#63b8ff" points="122,-345.69 118,-339.69 122,-333.69 126,-339.69 122,-345.69"/>
</a>
</g>
<text text-anchor="middle" x="177.88" y="-352.75" font-family="Helvetica,sans-Serif" font-size="10.00" fill="grey"> +replenishmentRequests</text>
</g>
<!-- Node3 -->
<g id="Node000003" class="node">
<title>Node3</title>
<g id="a_Node000003"><a xlink:title=" ">
<polygon fill="white" stroke="none" points="134.5,-525.5 109.5,-525.5 109.5,-476.5 134.5,-476.5 134.5,-525.5"/>
<text text-anchor="start" x="114.12" y="-512" font-family="Helvetica,sans-Serif" font-size="10.00">List</text>
<text text-anchor="start" x="120.5" y="-497" font-family="Helvetica,sans-Serif" font-size="10.00"> </text>
<text text-anchor="start" x="120.5" y="-482" font-family="Helvetica,sans-Serif" font-size="10.00"> </text>
<polygon fill="#666666" stroke="#666666" points="109.5,-508.5 109.5,-508.5 134.5,-508.5 134.5,-508.5 109.5,-508.5"/>
<polygon fill="#666666" stroke="#666666" points="109.5,-493.5 109.5,-493.5 134.5,-493.5 134.5,-493.5 109.5,-493.5"/>
<polygon fill="none" stroke="#666666" points="109.5,-476.5 109.5,-525.5 134.5,-525.5 134.5,-476.5 109.5,-476.5"/>
</a>
</g>
</g>
<!-- Node3&#45;&gt;Node2 -->
<g id="edge2_Node000002_Node000003" class="edge">
<title>Node3&#45;&gt;Node2</title>
<g id="a_edge2_Node000002_Node000003"><a xlink:title=" ">
<path fill="none" stroke="orange" d="M122,-465.19C122,-453.16 122,-439.99 122,-429.11"/>
<polygon fill="orange" stroke="orange" points="118.5,-465.19 122,-475.19 125.5,-465.19 118.5,-465.19"/>
</a>
</g>
<text text-anchor="middle" x="198.5" y="-449" font-family="Helvetica,sans-Serif" font-size="10.00" fill="grey"> &lt; items::ReplenishmentRequest &gt;</text>
</g>
</g>
</svg>

<g id="navigator" transform="translate(0 0)" fill="#404254">
  <rect fill="#f2f5e9" fill-opacity="0.5" stroke="#606060" stroke-width=".5" x="0" y="0" width="60" height="60"/>
  <use id="zoomplus" xlink:href="#zoomPlus" x="17" y="9" onmousedown="handleZoom(evt,'in')"/>
  <use id="zoomminus" xlink:href="#zoomMin" x="42" y="9" onmousedown="handleZoom(evt,'out')"/>
  <use id="reset" xlink:href="#resetDef" x="30" y="36" onmousedown="handleReset()"/>
   <use id="arrowup" xlink:href="#arrowUp" x="0" y="0" onmousedown="handlePan(0,-1)"/>
  <use id="arrowright" xlink:href="#arrowRight" x="0" y="0" onmousedown="handlePan(1,0)"/>
  <use id="arrowdown" xlink:href="#arrowDown" x="0" y="0" onmousedown="handlePan(0,1)"/>
  <use id="arrowleft" xlink:href="#arrowLeft" x="0" y="0" onmousedown="handlePan(-1,0)"/>
</g>
<svg viewBox="0 0 15 15" width="100%" height="30px" preserveAspectRatio="xMaxYMin meet">
 <g id="arrow_out" transform="scale(0.3 0.3)">
  <a xlink:href="classdb_1_1_text_d_b__coll__graph_org.svg" target="_base">
   <rect id="button" ry="5" rx="5" y="6" x="6" height="38" width="38"
        fill="#f2f5e9" fill-opacity="0.5" stroke="#606060" stroke-width="1.0"/>
   <path id="arrow"
     d="M 11.500037,31.436501 C 11.940474,20.09759 22.043105,11.32322 32.158766,21.979434 L 37.068811,17.246167 C 37.068811,17.246167 37.088388,32 37.088388,32 L 22.160133,31.978069 C 22.160133,31.978069 26.997745,27.140456 26.997745,27.140456 C 18.528582,18.264221 13.291696,25.230495 11.500037,31.436501 z"
     style="fill:#404040;"/>
  </a>
 </g>
</svg>

<style type='text/css'>
<![CDATA[
[data-mouse-over-selected='false'] { opacity: 0.7; }
[data-mouse-over-selected='true']  { opacity: 1.0; }
]]>
</style>
<script type="application/ecmascript"><![CDATA[
document.addEventListener('DOMContentLoaded', (event) => {
  highlightEdges();
  highlightAdjacentNodes();
});
]]></script>
</svg>
