<?xml version="1.0" encoding="UTF-8" standalone="no"?>
<!DOCTYPE svg PUBLIC "-//W3C//DTD SVG 1.1//EN"
 "http://www.w3.org/Graphics/SVG/1.1/DTD/svg11.dtd">
<!-- Generated by graphviz version 12.1.2 (20240928.0832)
 -->
<!-- Title: db.TextDB.write Pages: 1 -->
<!--zoomable 323 -->

<svg id="main" version="1.1" xmlns="http://www.w3.org/2000/svg" xmlns:xlink="http://www.w3.org/1999/xlink" xml:space="preserve" onload="init(evt)">
<style type="text/css"><![CDATA[
.node, .edge {opacity: 0.7;}
.node.selected, .edge.selected {opacity: 1;}
.edge:hover path { stroke: red; }
.edge:hover polygon { stroke: red; fill: red; }
]]></style>

<defs>
  <circle id="rim" cx="0" cy="0" r="7"/>
  <circle id="rim2" cx="0" cy="0" r="3.5"/>
  <g id="zoomPlus">
    <use xlink:href="#rim" fill="#404040"><set attributeName="fill" to="#808080" begin="zoomplus.mouseover" end="zoomplus.mouseout"/></use>
    <path d="M-4,0h8M0,-4v8" fill="none" stroke="white" stroke-width="1.5" pointer-events="none"/>
  </g>
  <g id="zoomMin">
    <use xlink:href="#rim" fill="#404040"><set attributeName="fill" to="#808080" begin="zoomminus.mouseover" end="zoomminus.mouseout"/></use>
    <path d="M-4,0h8" fill="none" stroke="white" stroke-width="1.5" pointer-events="none"/>
  </g>
  <g id="arrowUp" transform="translate(30 24)">
    <use xlink:href="#rim"/>
    <path pointer-events="none" fill="none" stroke="white" stroke-width="1.5" d="M0,-3.0v7 M-2.5,-0.5L0,-3.0L2.5,-0.5"/>
  </g>
  <g id="arrowRight" transform="rotate(90) translate(36 -43)">
    <use xlink:href="#rim"/>
    <path pointer-events="none" fill="none" stroke="white" stroke-width="1.5" d="M0,-3.0v7 M-2.5,-0.5L0,-3.0L2.5,-0.5"/>
  </g>
  <g id="arrowDown" transform="rotate(180) translate(-30 -48)">
    <use xlink:href="#rim"/>
    <path pointer-events="none" fill="none" stroke="white" stroke-width="1.5" d="M0,-3.0v7 M-2.5,-0.5L0,-3.0L2.5,-0.5"/>
  </g>
  <g id="arrowLeft" transform="rotate(270) translate(-36 17)">
    <use xlink:href="#rim"/>
    <path pointer-events="none" fill="none" stroke="white" stroke-width="1.5" d="M0,-3.0v7 M-2.5,-0.5L0,-3.0L2.5,-0.5"/>
  </g>
  <g id="resetDef">
    <use xlink:href="#rim2" fill="#404040"><set attributeName="fill" to="#808080" begin="reset.mouseover" end="reset.mouseout"/></use>
  </g>
</defs>
<script type="application/ecmascript">
var viewWidth = 1000;
var viewHeight = 323;
var sectionId = 'dynsection-32';
</script>
<script type="application/ecmascript" xlink:href="svg.min.js"/>
<svg id="graph" class="graph">
<g id="viewport">
<title>db.TextDB.write</title>
<!-- Node1 -->
<g id="Node000001" class="node">
<title>Node1</title>
<g id="a_Node000001"><a xlink:title=" ">
<polygon fill="#999999" stroke="#666666" points="992,-130.25 905.5,-130.25 905.5,-111 992,-111 992,-130.25"/>
<text text-anchor="middle" x="948.75" y="-116.75" font-family="Helvetica,sans-Serif" font-size="10.00">db.TextDB.write</text>
</a>
</g>
</g>
<!-- Node2 -->
<g id="Node000002" class="node">
<title>Node2</title>
<g id="a_Node000002"><a xlink:href="classdb_1_1_text_d_b.html#a15e72117fb552c009020fe017eff11b1" target="_top" xlink:title=" ">
<polygon fill="white" stroke="#666666" points="859,-204.25 686.25,-204.25 686.25,-185 859,-185 859,-204.25"/>
<text text-anchor="middle" x="772.62" y="-190.75" font-family="Helvetica,sans-Serif" font-size="10.00">db.TextDB.saveAppointmentsToFile</text>
</a>
</g>
</g>
<!-- Node1&#45;&gt;Node2 -->
<g id="edge1_Node000001_Node000002" class="edge">
<title>Node1&#45;&gt;Node2</title>
<g id="a_edge1_Node000001_Node000002"><a xlink:title=" ">
<path fill="none" stroke="#63b8ff" d="M913.8,-135.05C879.49,-149.63 827.37,-171.78 797.29,-184.57"/>
<polygon fill="#63b8ff" stroke="#63b8ff" points="915.04,-138.33 922.87,-131.2 912.3,-131.89 915.04,-138.33"/>
</a>
</g>
</g>
<!-- Node9 -->
<g id="Node000009" class="node">
<title>Node9</title>
<g id="a_Node000009"><a xlink:href="classdb_1_1_text_d_b.html#a58769f10973a3c851b3f44b805de9100" target="_top" xlink:title=" ">
<polygon fill="white" stroke="#666666" points="859.75,-130.25 685.5,-130.25 685.5,-111 859.75,-111 859.75,-130.25"/>
<text text-anchor="middle" x="772.62" y="-116.75" font-family="Helvetica,sans-Serif" font-size="10.00">db.TextDB.saveMedicationInventory</text>
</a>
</g>
</g>
<!-- Node1&#45;&gt;Node9 -->
<g id="edge8_Node000001_Node000009" class="edge">
<title>Node1&#45;&gt;Node9</title>
<g id="a_edge8_Node000001_Node000009"><a xlink:title=" ">
<path fill="none" stroke="#63b8ff" d="M893.86,-120.62C883.12,-120.62 871.6,-120.62 860.09,-120.62"/>
<polygon fill="#63b8ff" stroke="#63b8ff" points="893.64,-124.13 903.64,-120.63 893.64,-117.13 893.64,-124.13"/>
</a>
</g>
</g>
<!-- Node11 -->
<g id="Node000011" class="node">
<title>Node11</title>
<g id="a_Node000011"><a xlink:href="classdb_1_1_text_d_b.html#a158c26f22cf82ca9e1dd728d98d86aac" target="_top" xlink:title=" ">
<polygon fill="white" stroke="#666666" points="869.5,-93.25 675.75,-93.25 675.75,-74 869.5,-74 869.5,-93.25"/>
<text text-anchor="middle" x="772.62" y="-79.75" font-family="Helvetica,sans-Serif" font-size="10.00">db.TextDB.saveReplenishmentRequests</text>
</a>
</g>
</g>
<!-- Node1&#45;&gt;Node11 -->
<g id="edge10_Node000001_Node000011" class="edge">
<title>Node1&#45;&gt;Node11</title>
<g id="a_edge10_Node000001_Node000011"><a xlink:title=" ">
<path fill="none" stroke="#63b8ff" d="M897.08,-107.91C887.92,-105.73 878.44,-103.55 869.5,-101.62 856.83,-98.9 843.18,-96.2 830.25,-93.74"/>
<polygon fill="#63b8ff" stroke="#63b8ff" points="896.02,-111.26 906.56,-110.2 897.66,-104.45 896.02,-111.26"/>
</a>
</g>
</g>
<!-- Node13 -->
<g id="Node000013" class="node">
<title>Node13</title>
<g id="a_Node000013"><a xlink:href="classdb_1_1_text_d_b.html#ad0cc1ccd01528bf3a15b1dda0e764482" target="_top" xlink:title=" ">
<polygon fill="white" stroke="#666666" points="851.88,-241.25 693.38,-241.25 693.38,-222 851.88,-222 851.88,-241.25"/>
<text text-anchor="middle" x="772.62" y="-227.75" font-family="Helvetica,sans-Serif" font-size="10.00">db.TextDB.saveSchedulesToFile</text>
</a>
</g>
</g>
<!-- Node1&#45;&gt;Node13 -->
<g id="edge12_Node000001_Node000013" class="edge">
<title>Node1&#45;&gt;Node13</title>
<g id="a_edge12_Node000001_Node000013"><a xlink:title=" ">
<path fill="none" stroke="#63b8ff" d="M936.74,-140.49C923.66,-162.12 899.74,-195.97 869.5,-213.62 864.09,-216.78 858.24,-219.41 852.19,-221.58"/>
<polygon fill="#63b8ff" stroke="#63b8ff" points="939.67,-142.43 941.66,-132.02 933.61,-138.91 939.67,-142.43"/>
</a>
</g>
</g>
<!-- Node15 -->
<g id="Node000015" class="node">
<title>Node15</title>
<g id="a_Node000015"><a xlink:href="classdb_1_1_text_d_b.html#a5d011188d9c20f646307db43839666c7" target="_top" xlink:title="Sets the object&#39;s name.">
<polygon fill="white" stroke="#666666" points="829,-56.25 716.25,-56.25 716.25,-37 829,-37 829,-56.25"/>
<text text-anchor="middle" x="772.62" y="-42.75" font-family="Helvetica,sans-Serif" font-size="10.00">db.TextDB.saveToFile</text>
</a>
</g>
</g>
<!-- Node1&#45;&gt;Node15 -->
<g id="edge17_Node000001_Node000015" class="edge">
<title>Node1&#45;&gt;Node15</title>
<g id="a_edge17_Node000001_Node000015"><a xlink:title=" ">
<path fill="none" stroke="#63b8ff" d="M928.66,-103.29C913.65,-90.63 891.64,-74.07 869.5,-64.62 856.96,-59.27 842.83,-55.51 829.34,-52.86"/>
<polygon fill="#63b8ff" stroke="#63b8ff" points="926.05,-105.67 935.89,-109.59 930.64,-100.38 926.05,-105.67"/>
</a>
</g>
</g>
<!-- Node3 -->
<g id="Node000003" class="node">
<title>Node3</title>
<g id="a_Node000003"><a xlink:href="classdb_1_1_text_d_b.html#ad012623bfd1b59de612a4bdb189029a4" target="_top" xlink:title="Calculates the result.">
<polygon fill="white" stroke="#666666" points="612.75,-278.25 476.75,-278.25 476.75,-259 612.75,-259 612.75,-278.25"/>
<text text-anchor="middle" x="544.75" y="-264.75" font-family="Helvetica,sans-Serif" font-size="10.00">db.TextDB.addAppointment</text>
</a>
</g>
</g>
<!-- Node2&#45;&gt;Node3 -->
<g id="edge2_Node000002_Node000003" class="edge">
<title>Node2&#45;&gt;Node3</title>
<g id="a_edge2_Node000002_Node000003"><a xlink:title=" ">
<path fill="none" stroke="#63b8ff" d="M683.6,-208.78C680.91,-209.96 678.29,-211.24 675.75,-212.62 655.32,-223.76 660.16,-239.45 639.75,-250.62 631.44,-255.17 622.17,-258.59 612.78,-261.15"/>
<polygon fill="#63b8ff" stroke="#63b8ff" points="684.76,-212.09 692.84,-205.23 682.25,-205.55 684.76,-212.09"/>
</a>
</g>
</g>
<!-- Node4 -->
<g id="Node000004" class="node">
<title>Node4</title>
<g id="a_Node000004"><a xlink:href="classdb_1_1_text_d_b.html#a500080effe96b185a8b5cd4c6dd75be0" target="_top" xlink:title="Calculates the result.">
<polygon fill="white" stroke="#666666" points="619.12,-167.25 470.38,-167.25 470.38,-148 619.12,-148 619.12,-167.25"/>
<text text-anchor="middle" x="544.75" y="-153.75" font-family="Helvetica,sans-Serif" font-size="10.00">db.TextDB.cancelAppointment</text>
</a>
</g>
</g>
<!-- Node2&#45;&gt;Node4 -->
<g id="edge3_Node000002_Node000004" class="edge">
<title>Node2&#45;&gt;Node4</title>
<g id="a_edge3_Node000002_Node000004"><a xlink:title=" ">
<path fill="none" stroke="#63b8ff" d="M698.83,-182.7C669.34,-177.87 635.65,-172.35 607.4,-167.72"/>
<polygon fill="#63b8ff" stroke="#63b8ff" points="697.98,-186.11 708.41,-184.27 699.11,-179.2 697.98,-186.11"/>
</a>
</g>
</g>
<!-- Node5 -->
<g id="Node000005" class="node">
<title>Node5</title>
<g id="a_Node000005"><a xlink:href="classdb_1_1_text_d_b.html#a86c8f97829de1275242b05f46cdd6415" target="_top" xlink:title="Updates an appointment with a new status and saves changes.">
<polygon fill="white" stroke="#666666" points="619.5,-241.25 470,-241.25 470,-222 619.5,-222 619.5,-241.25"/>
<text text-anchor="middle" x="544.75" y="-227.75" font-family="Helvetica,sans-Serif" font-size="10.00">db.TextDB.updateAppointment</text>
</a>
</g>
</g>
<!-- Node2&#45;&gt;Node5 -->
<g id="edge4_Node000002_Node000005" class="edge">
<title>Node2&#45;&gt;Node5</title>
<g id="a_edge4_Node000002_Node000005"><a xlink:title=" ">
<path fill="none" stroke="#63b8ff" d="M698.83,-206.55C669.34,-211.38 635.65,-216.9 607.4,-221.53"/>
<polygon fill="#63b8ff" stroke="#63b8ff" points="699.11,-210.05 708.41,-204.98 697.98,-203.14 699.11,-210.05"/>
</a>
</g>
</g>
<!-- Node8 -->
<g id="Node000008" class="node">
<title>Node8</title>
<g id="a_Node000008"><a xlink:href="classdb_1_1_text_d_b.html#a04a650ae8f6750cd2068585b496767dd" target="_top" xlink:title="Calculates the result.">
<polygon fill="white" stroke="#666666" points="633.75,-204.25 455.75,-204.25 455.75,-185 633.75,-185 633.75,-204.25"/>
<text text-anchor="middle" x="544.75" y="-190.75" font-family="Helvetica,sans-Serif" font-size="10.00">db.TextDB.updateAppointmentStatus</text>
</a>
</g>
</g>
<!-- Node2&#45;&gt;Node8 -->
<g id="edge7_Node000002_Node000008" class="edge">
<title>Node2&#45;&gt;Node8</title>
<g id="a_edge7_Node000002_Node000008"><a xlink:title=" ">
<path fill="none" stroke="#63b8ff" d="M674.66,-194.62C661.17,-194.62 647.36,-194.62 634.03,-194.62"/>
<polygon fill="#63b8ff" stroke="#63b8ff" points="674.4,-198.13 684.4,-194.63 674.4,-191.13 674.4,-198.13"/>
</a>
</g>
</g>
<!-- Node6 -->
<g id="Node000006" class="node">
<title>Node6</title>
<g id="a_Node000006"><a xlink:href="classmenus_1_1_doctor_menu.html#ae7d20b71f38894a6236e1f23b637ce42" target="_top" xlink:title="Records the outcome of a completed appointment.">
<polygon fill="white" stroke="#666666" points="413.75,-241.25 187.75,-241.25 187.75,-222 413.75,-222 413.75,-241.25"/>
<text text-anchor="middle" x="300.75" y="-227.75" font-family="Helvetica,sans-Serif" font-size="10.00">menus.DoctorMenu.recordAppointmentOutcome</text>
</a>
</g>
</g>
<!-- Node5&#45;&gt;Node6 -->
<g id="edge5_Node000005_Node000006" class="edge">
<title>Node5&#45;&gt;Node6</title>
<g id="a_edge5_Node000005_Node000006"><a xlink:title=" ">
<path fill="none" stroke="#63b8ff" d="M458.46,-231.62C444.07,-231.62 428.94,-231.62 413.99,-231.62"/>
<polygon fill="#63b8ff" stroke="#63b8ff" points="458.31,-235.13 468.31,-231.63 458.31,-228.13 458.31,-235.13"/>
</a>
</g>
</g>
<!-- Node7 -->
<g id="Node000007" class="node">
<title>Node7</title>
<g id="a_Node000007"><a xlink:href="classmenus_1_1_doctor_menu.html#af4a80d7af2990dd2f809c409c732536d" target="_top" xlink:title="Displays the Doctor Menu and handles user selections.">
<polygon fill="white" stroke="#666666" points="151.75,-241.25 0,-241.25 0,-222 151.75,-222 151.75,-241.25"/>
<text text-anchor="middle" x="75.88" y="-227.75" font-family="Helvetica,sans-Serif" font-size="10.00">menus.DoctorMenu.showMenu</text>
</a>
</g>
</g>
<!-- Node6&#45;&gt;Node7 -->
<g id="edge6_Node000006_Node000007" class="edge">
<title>Node6&#45;&gt;Node7</title>
<g id="a_edge6_Node000006_Node000007"><a xlink:title=" ">
<path fill="none" stroke="#63b8ff" d="M175.92,-231.62C167.88,-231.62 159.92,-231.62 152.22,-231.62"/>
<polygon fill="#63b8ff" stroke="#63b8ff" points="175.82,-235.13 185.82,-231.63 175.82,-228.13 175.82,-235.13"/>
</a>
</g>
</g>
<!-- Node10 -->
<g id="Node000010" class="node">
<title>Node10</title>
<g id="a_Node000010"><a xlink:href="classdb_1_1_text_d_b.html#a17747f1bac59bcb00ce6fc6de7293968" target="_top" xlink:title=" ">
<polygon fill="white" stroke="#666666" points="615.75,-130.25 473.75,-130.25 473.75,-111 615.75,-111 615.75,-130.25"/>
<text text-anchor="middle" x="544.75" y="-116.75" font-family="Helvetica,sans-Serif" font-size="10.00">db.TextDB.updateMedication</text>
</a>
</g>
</g>
<!-- Node9&#45;&gt;Node10 -->
<g id="edge9_Node000009_Node000010" class="edge">
<title>Node9&#45;&gt;Node10</title>
<g id="a_edge9_Node000009_Node000010"><a xlink:title=" ">
<path fill="none" stroke="#63b8ff" d="M673.88,-120.62C654.39,-120.62 634.29,-120.62 615.95,-120.62"/>
<polygon fill="#63b8ff" stroke="#63b8ff" points="673.75,-124.13 683.75,-120.63 673.75,-117.13 673.75,-124.13"/>
</a>
</g>
</g>
<!-- Node12 -->
<g id="Node000012" class="node">
<title>Node12</title>
<g id="a_Node000012"><a xlink:href="classdb_1_1_text_d_b.html#ab9bd2effa4634240fefc7d2e2372ac70" target="_top" xlink:title=" ">
<polygon fill="white" stroke="#666666" points="636.38,-93.25 453.12,-93.25 453.12,-74 636.38,-74 636.38,-93.25"/>
<text text-anchor="middle" x="544.75" y="-79.75" font-family="Helvetica,sans-Serif" font-size="10.00">db.TextDB.addReplenishmentRequest</text>
</a>
</g>
</g>
<!-- Node11&#45;&gt;Node12 -->
<g id="edge11_Node000011_Node000012" class="edge">
<title>Node11&#45;&gt;Node12</title>
<g id="a_edge11_Node000011_Node000012"><a xlink:title=" ">
<path fill="none" stroke="#63b8ff" d="M664,-83.62C654.89,-83.62 645.73,-83.62 636.76,-83.62"/>
<polygon fill="#63b8ff" stroke="#63b8ff" points="663.99,-87.13 673.99,-83.63 663.99,-80.13 663.99,-87.13"/>
</a>
</g>
</g>
<!-- Node13&#45;&gt;Node3 -->
<g id="edge13_Node000013_Node000003" class="edge">
<title>Node13&#45;&gt;Node3</title>
<g id="a_edge13_Node000013_Node000003"><a xlink:title=" ">
<path fill="none" stroke="#63b8ff" d="M698.83,-243.55C669.34,-248.38 635.65,-253.9 607.4,-258.53"/>
<polygon fill="#63b8ff" stroke="#63b8ff" points="699.11,-247.05 708.41,-241.98 697.98,-240.14 699.11,-247.05"/>
</a>
</g>
</g>
<!-- Node13&#45;&gt;Node5 -->
<g id="edge14_Node000013_Node000005" class="edge">
<title>Node13&#45;&gt;Node5</title>
<g id="a_edge14_Node000013_Node000005"><a xlink:title=" ">
<path fill="none" stroke="#63b8ff" d="M681.7,-231.62C661.23,-231.62 639.71,-231.62 619.98,-231.62"/>
<polygon fill="#63b8ff" stroke="#63b8ff" points="681.43,-235.13 691.43,-231.63 681.43,-228.13 681.43,-235.13"/>
</a>
</g>
</g>
<!-- Node13&#45;&gt;Node8 -->
<g id="edge15_Node000013_Node000008" class="edge">
<title>Node13&#45;&gt;Node8</title>
<g id="a_edge15_Node000013_Node000008"><a xlink:title=" ">
<path fill="none" stroke="#63b8ff" d="M698.83,-219.7C669.34,-214.87 635.65,-209.35 607.4,-204.72"/>
<polygon fill="#63b8ff" stroke="#63b8ff" points="697.98,-223.11 708.41,-221.27 699.11,-216.2 697.98,-223.11"/>
</a>
</g>
</g>
<!-- Node14 -->
<g id="Node000014" class="node">
<title>Node14</title>
<g id="a_Node000014"><a xlink:href="classdb_1_1_text_d_b.html#a6f9c8a5da2c13ddf2e9f16e50f825b7d" target="_top" xlink:title=" ">
<polygon fill="white" stroke="#666666" points="627,-315.25 462.5,-315.25 462.5,-296 627,-296 627,-315.25"/>
<text text-anchor="middle" x="544.75" y="-301.75" font-family="Helvetica,sans-Serif" font-size="10.00">db.TextDB.updateDoctorSchedule</text>
</a>
</g>
</g>
<!-- Node13&#45;&gt;Node14 -->
<g id="edge16_Node000013_Node000014" class="edge">
<title>Node13&#45;&gt;Node14</title>
<g id="a_edge16_Node000013_Node000014"><a xlink:title=" ">
<path fill="none" stroke="#63b8ff" d="M741.49,-246.6C715.2,-259.13 675.72,-276.68 639.75,-287.62 629.81,-290.65 619.13,-293.27 608.65,-295.5"/>
<polygon fill="#63b8ff" stroke="#63b8ff" points="742.72,-249.89 750.2,-242.39 739.68,-243.59 742.72,-249.89"/>
</a>
</g>
</g>
<!-- Node16 -->
<g id="Node000016" class="node">
<title>Node16</title>
<g id="a_Node000016"><a xlink:href="classmain_1_1_hospital_management_system.html#abc443238cd870242799d0f301cf2109e" target="_top" xlink:title="Main method for running the Hospital Management System.">
<polygon fill="white" stroke="#666666" points="639.75,-19.25 449.75,-19.25 449.75,0 639.75,0 639.75,-19.25"/>
<text text-anchor="middle" x="544.75" y="-5.75" font-family="Helvetica,sans-Serif" font-size="10.00">main.HospitalManagementSystem.main</text>
</a>
</g>
</g>
<!-- Node15&#45;&gt;Node16 -->
<g id="edge18_Node000015_Node000016" class="edge">
<title>Node15&#45;&gt;Node16</title>
<g id="a_edge18_Node000015_Node000016"><a xlink:title=" ">
<path fill="none" stroke="#63b8ff" d="M704.69,-35.66C673.84,-30.61 637.46,-24.65 607.29,-19.71"/>
<polygon fill="#63b8ff" stroke="#63b8ff" points="703.86,-39.07 714.3,-37.23 704.99,-32.16 703.86,-39.07"/>
</a>
</g>
</g>
<!-- Node17 -->
<g id="Node000017" class="node">
<title>Node17</title>
<g id="a_Node000017"><a xlink:href="classdb_1_1_text_d_b.html#a041f3ac450450fd0d648d0fd20831a11" target="_top" xlink:title="Sets the object&#39;s name.">
<polygon fill="white" stroke="#666666" points="624.38,-56.25 465.12,-56.25 465.12,-37 624.38,-37 624.38,-56.25"/>
<text text-anchor="middle" x="544.75" y="-42.75" font-family="Helvetica,sans-Serif" font-size="10.00">db.TextDB.updateUserPassword</text>
</a>
</g>
</g>
<!-- Node15&#45;&gt;Node17 -->
<g id="edge19_Node000015_Node000017" class="edge">
<title>Node15&#45;&gt;Node17</title>
<g id="a_edge19_Node000015_Node000017"><a xlink:title=" ">
<path fill="none" stroke="#63b8ff" d="M704.56,-46.62C679.51,-46.62 650.83,-46.62 624.8,-46.62"/>
<polygon fill="#63b8ff" stroke="#63b8ff" points="704.28,-50.13 714.28,-46.63 704.28,-43.13 704.28,-50.13"/>
</a>
</g>
</g>
<!-- Node18 -->
<g id="Node000018" class="node">
<title>Node18</title>
<g id="a_Node000018"><a xlink:href="classuser__classes_1_1_user.html#a8b403334d60adc09d7eaedbb5711dfeb" target="_top" xlink:title="Sets the user&#39;s password and updates it in the database.">
<polygon fill="white" stroke="#666666" points="379.25,-56.25 222.25,-56.25 222.25,-37 379.25,-37 379.25,-56.25"/>
<text text-anchor="middle" x="300.75" y="-42.75" font-family="Helvetica,sans-Serif" font-size="10.00">user_classes.User.setPassword</text>
</a>
</g>
</g>
<!-- Node17&#45;&gt;Node18 -->
<g id="edge20_Node000017_Node000018" class="edge">
<title>Node17&#45;&gt;Node18</title>
<g id="a_edge20_Node000017_Node000018"><a xlink:title=" ">
<path fill="none" stroke="#63b8ff" d="M453.48,-46.62C429.24,-46.62 403.23,-46.62 379.72,-46.62"/>
<polygon fill="#63b8ff" stroke="#63b8ff" points="453.33,-50.13 463.33,-46.63 453.33,-43.13 453.33,-50.13"/>
</a>
</g>
</g>
</g>
</svg>

<g id="navigator" transform="translate(0 0)" fill="#404254">
  <rect fill="#f2f5e9" fill-opacity="0.5" stroke="#606060" stroke-width=".5" x="0" y="0" width="60" height="60"/>
  <use id="zoomplus" xlink:href="#zoomPlus" x="17" y="9" onmousedown="handleZoom(evt,'in')"/>
  <use id="zoomminus" xlink:href="#zoomMin" x="42" y="9" onmousedown="handleZoom(evt,'out')"/>
  <use id="reset" xlink:href="#resetDef" x="30" y="36" onmousedown="handleReset()"/>
   <use id="arrowup" xlink:href="#arrowUp" x="0" y="0" onmousedown="handlePan(0,-1)"/>
  <use id="arrowright" xlink:href="#arrowRight" x="0" y="0" onmousedown="handlePan(1,0)"/>
  <use id="arrowdown" xlink:href="#arrowDown" x="0" y="0" onmousedown="handlePan(0,1)"/>
  <use id="arrowleft" xlink:href="#arrowLeft" x="0" y="0" onmousedown="handlePan(-1,0)"/>
</g>
<svg viewBox="0 0 15 15" width="100%" height="30px" preserveAspectRatio="xMaxYMin meet">
 <g id="arrow_out" transform="scale(0.3 0.3)">
  <a xlink:href="classdb_1_1_text_d_b_ab0828cdec6203b29d3036e79ecd6cc5e_icgraph_org.svg" target="_base">
   <rect id="button" ry="5" rx="5" y="6" x="6" height="38" width="38"
        fill="#f2f5e9" fill-opacity="0.5" stroke="#606060" stroke-width="1.0"/>
   <path id="arrow"
     d="M 11.500037,31.436501 C 11.940474,20.09759 22.043105,11.32322 32.158766,21.979434 L 37.068811,17.246167 C 37.068811,17.246167 37.088388,32 37.088388,32 L 22.160133,31.978069 C 22.160133,31.978069 26.997745,27.140456 26.997745,27.140456 C 18.528582,18.264221 13.291696,25.230495 11.500037,31.436501 z"
     style="fill:#404040;"/>
  </a>
 </g>
</svg>

<style type='text/css'>
<![CDATA[
[data-mouse-over-selected='false'] { opacity: 0.7; }
[data-mouse-over-selected='true']  { opacity: 1.0; }
]]>
</style>
<script type="application/ecmascript"><![CDATA[
document.addEventListener('DOMContentLoaded', (event) => {
  highlightEdges();
  highlightAdjacentNodes();
});
]]></script>
</svg>
