<?xml version="1.0" encoding="UTF-8" standalone="no"?>
<!DOCTYPE svg PUBLIC "-//W3C//DTD SVG 1.1//EN"
 "http://www.w3.org/Graphics/SVG/1.1/DTD/svg11.dtd">
<!-- Generated by graphviz version 12.1.2 (20240928.0832)
 -->
<!-- Title: user_classes.Pharmacist.toString Pages: 1 -->
<svg width="367pt" height="64pt"
 viewBox="0.00 0.00 367.00 64.25" xmlns="http://www.w3.org/2000/svg" xmlns:xlink="http://www.w3.org/1999/xlink">
<g id="graph0" class="graph" transform="scale(1 1) rotate(0) translate(4 60.25)">
<title>user_classes.Pharmacist.toString</title>
<!-- Node1 -->
<g id="Node000001" class="node">
<title>Node1</title>
<g id="a_Node000001"><a xlink:title="Provides a string representation of the Pharmacist object.">
<polygon fill="#999999" stroke="#666666" points="163,-37.25 0,-37.25 0,-18 163,-18 163,-37.25"/>
<text text-anchor="middle" x="81.5" y="-23.75" font-family="Helvetica,sans-Serif" font-size="10.00">user_classes.Pharmacist.toString</text>
</a>
</g>
</g>
<!-- Node2 -->
<g id="Node000002" class="node">
<title>Node2</title>
<g id="a_Node000002"><a xlink:href="classuser__classes_1_1_user.html#a3182331e1a0ffcddfed96b814425efb8" target="_top" xlink:title="Gets the hospital ID of the user.">
<polygon fill="white" stroke="#666666" points="359,-56.25 199,-56.25 199,-37 359,-37 359,-56.25"/>
<text text-anchor="middle" x="279" y="-42.75" font-family="Helvetica,sans-Serif" font-size="10.00">user_classes.User.getHospitalID</text>
</a>
</g>
</g>
<!-- Node1&#45;&gt;Node2 -->
<g id="edge1_Node000001_Node000002" class="edge">
<title>Node1&#45;&gt;Node2</title>
<g id="a_edge1_Node000001_Node000002"><a xlink:title=" ">
<path fill="none" stroke="#63b8ff" d="M163.43,-35.49C171.35,-36.26 179.43,-37.05 187.44,-37.82"/>
<polygon fill="#63b8ff" stroke="#63b8ff" points="186.91,-41.29 197.2,-38.77 187.58,-34.32 186.91,-41.29"/>
</a>
</g>
</g>
<!-- Node3 -->
<g id="Node000003" class="node">
<title>Node3</title>
<g id="a_Node000003"><a xlink:href="classuser__classes_1_1_user.html#a3e0dc31aaed7eb8a71c26e936e96e374" target="_top" xlink:title="Gets the user&#39;s full name.">
<polygon fill="white" stroke="#666666" points="348.88,-19.25 209.12,-19.25 209.12,0 348.88,0 348.88,-19.25"/>
<text text-anchor="middle" x="279" y="-5.75" font-family="Helvetica,sans-Serif" font-size="10.00">user_classes.User.getName</text>
</a>
</g>
</g>
<!-- Node1&#45;&gt;Node3 -->
<g id="edge2_Node000001_Node000003" class="edge">
<title>Node1&#45;&gt;Node3</title>
<g id="a_edge2_Node000001_Node000003"><a xlink:title=" ">
<path fill="none" stroke="#63b8ff" d="M163.43,-20.17C174.69,-19.14 186.27,-18.07 197.53,-17.03"/>
<polygon fill="#63b8ff" stroke="#63b8ff" points="197.51,-20.55 207.15,-16.15 196.87,-13.58 197.51,-20.55"/>
</a>
</g>
</g>
</g>
</svg>
