<?xml version="1.0" encoding="UTF-8" standalone="no"?>
<!DOCTYPE svg PUBLIC "-//W3C//DTD SVG 1.1//EN"
 "http://www.w3.org/Graphics/SVG/1.1/DTD/svg11.dtd">
<!-- Generated by graphviz version 12.1.2 (20240928.0832)
 -->
<!-- Title: db.AppointmentsLoader.loadData Pages: 1 -->
<svg width="686pt" height="64pt"
 viewBox="0.00 0.00 685.50 64.25" xmlns="http://www.w3.org/2000/svg" xmlns:xlink="http://www.w3.org/1999/xlink">
<g id="graph0" class="graph" transform="scale(1 1) rotate(0) translate(4 60.25)">
<title>db.AppointmentsLoader.loadData</title>
<!-- Node1 -->
<g id="Node000001" class="node">
<title>Node1</title>
<g id="a_Node000001"><a xlink:title="Loads appointment data from the specified file.">
<polygon fill="#999999" stroke="#666666" points="160,-37.25 0,-37.25 0,-18 160,-18 160,-37.25"/>
<text text-anchor="middle" x="80" y="-23.75" font-family="Helvetica,sans-Serif" font-size="10.00">db.AppointmentsLoader.loadData</text>
</a>
</g>
</g>
<!-- Node2 -->
<g id="Node000002" class="node">
<title>Node2</title>
<g id="a_Node000002"><a xlink:href="classdb_1_1_appointments_loader.html#aae76853fd2d3fff58837eb3793408e2e" target="_top" xlink:title="Deserializes an Appointment object from a string.">
<polygon fill="white" stroke="#666666" points="368,-56.25 200.5,-56.25 200.5,-37 368,-37 368,-56.25"/>
<text text-anchor="middle" x="284.25" y="-42.75" font-family="Helvetica,sans-Serif" font-size="10.00">db.AppointmentsLoader.deserialize</text>
</a>
</g>
</g>
<!-- Node1&#45;&gt;Node2 -->
<g id="edge1_Node000001_Node000002" class="edge">
<title>Node1&#45;&gt;Node2</title>
<g id="a_edge1_Node000001_Node000002"><a xlink:title=" ">
<path fill="none" stroke="#63b8ff" d="M160.35,-35.08C169.74,-35.96 179.39,-36.87 188.96,-37.77"/>
<polygon fill="#63b8ff" stroke="#63b8ff" points="188.34,-41.22 198.62,-38.67 188.99,-34.25 188.34,-41.22"/>
</a>
</g>
</g>
<!-- Node5 -->
<g id="Node000005" class="node">
<title>Node5</title>
<g id="a_Node000005"><a xlink:href="classdb_1_1_data_loader.html#af737f278a0a511944938fdcd5880f0d9" target="_top" xlink:title="Reads all lines from a specified file.">
<polygon fill="white" stroke="#666666" points="372.5,-19.25 196,-19.25 196,0 372.5,0 372.5,-19.25"/>
<text text-anchor="middle" x="284.25" y="-5.75" font-family="Helvetica,sans-Serif" font-size="10.00">db.DataLoader&lt; Appointment &gt;::read</text>
</a>
</g>
</g>
<!-- Node1&#45;&gt;Node5 -->
<g id="edge4_Node000001_Node000005" class="edge">
<title>Node1&#45;&gt;Node5</title>
<g id="a_edge4_Node000001_Node000005"><a xlink:title=" ">
<path fill="none" stroke="#63b8ff" d="M160.35,-20.56C168.25,-19.86 176.34,-19.14 184.4,-18.42"/>
<polygon fill="#63b8ff" stroke="#63b8ff" points="184.61,-21.92 194.26,-17.54 183.99,-14.95 184.61,-21.92"/>
</a>
</g>
</g>
<!-- Node3 -->
<g id="Node000003" class="node">
<title>Node3</title>
<g id="a_Node000003"><a xlink:href="classitems_1_1_time_slot.html#a0667b222129a8a35cab99a64ecf33b42" target="_top" xlink:title=" ">
<polygon fill="white" stroke="#666666" points="517.5,-56.25 408.5,-56.25 408.5,-37 517.5,-37 517.5,-56.25"/>
<text text-anchor="middle" x="463" y="-42.75" font-family="Helvetica,sans-Serif" font-size="10.00">items.TimeSlot.parse</text>
</a>
</g>
</g>
<!-- Node2&#45;&gt;Node3 -->
<g id="edge2_Node000002_Node000003" class="edge">
<title>Node2&#45;&gt;Node3</title>
<g id="a_edge2_Node000002_Node000003"><a xlink:title=" ">
<path fill="none" stroke="#63b8ff" d="M368.45,-46.62C377.96,-46.62 387.54,-46.62 396.77,-46.62"/>
<polygon fill="#63b8ff" stroke="#63b8ff" points="396.71,-50.13 406.71,-46.63 396.71,-43.13 396.71,-50.13"/>
</a>
</g>
</g>
<!-- Node4 -->
<g id="Node000004" class="node">
<title>Node4</title>
<g id="a_Node000004"><a xlink:href="classitems_1_1_time_slot.html#a47501583da2ebd3ad2bcad768d10e634" target="_top" xlink:title=" ">
<polygon fill="white" stroke="#666666" points="677.5,-56.25 553.5,-56.25 553.5,-37 677.5,-37 677.5,-56.25"/>
<text text-anchor="middle" x="615.5" y="-42.75" font-family="Helvetica,sans-Serif" font-size="10.00">items.TimeSlot.TimeSlot</text>
</a>
</g>
</g>
<!-- Node3&#45;&gt;Node4 -->
<g id="edge3_Node000003_Node000004" class="edge">
<title>Node3&#45;&gt;Node4</title>
<g id="a_edge3_Node000003_Node000004"><a xlink:title=" ">
<path fill="none" stroke="#63b8ff" d="M517.91,-46.62C525.65,-46.62 533.72,-46.62 541.75,-46.62"/>
<polygon fill="#63b8ff" stroke="#63b8ff" points="541.52,-50.13 551.52,-46.63 541.52,-43.13 541.52,-50.13"/>
</a>
</g>
</g>
</g>
</svg>
