<?xml version="1.0" encoding="UTF-8" standalone="no"?>
<!DOCTYPE svg PUBLIC "-//W3C//DTD SVG 1.1//EN"
 "http://www.w3.org/Graphics/SVG/1.1/DTD/svg11.dtd">
<!-- Generated by graphviz version 12.1.2 (20240928.0832)
 -->
<!-- Title: db.TextDB.addReplenishmentRequest Pages: 1 -->
<svg width="544pt" height="27pt"
 viewBox="0.00 0.00 543.50 27.25" xmlns="http://www.w3.org/2000/svg" xmlns:xlink="http://www.w3.org/1999/xlink">
<g id="graph0" class="graph" transform="scale(1 1) rotate(0) translate(4 23.25)">
<title>db.TextDB.addReplenishmentRequest</title>
<!-- Node1 -->
<g id="Node000001" class="node">
<title>Node1</title>
<g id="a_Node000001"><a xlink:title=" ">
<polygon fill="#999999" stroke="#666666" points="183.25,-19.25 0,-19.25 0,0 183.25,0 183.25,-19.25"/>
<text text-anchor="middle" x="91.62" y="-5.75" font-family="Helvetica,sans-Serif" font-size="10.00">db.TextDB.addReplenishmentRequest</text>
</a>
</g>
</g>
<!-- Node2 -->
<g id="Node000002" class="node">
<title>Node2</title>
<g id="a_Node000002"><a xlink:href="classdb_1_1_text_d_b.html#a158c26f22cf82ca9e1dd728d98d86aac" target="_top" xlink:title=" ">
<polygon fill="white" stroke="#666666" points="413,-19.25 219.25,-19.25 219.25,0 413,0 413,-19.25"/>
<text text-anchor="middle" x="316.12" y="-5.75" font-family="Helvetica,sans-Serif" font-size="10.00">db.TextDB.saveReplenishmentRequests</text>
</a>
</g>
</g>
<!-- Node1&#45;&gt;Node2 -->
<g id="edge1_Node000001_Node000002" class="edge">
<title>Node1&#45;&gt;Node2</title>
<g id="a_edge1_Node000001_Node000002"><a xlink:title=" ">
<path fill="none" stroke="#63b8ff" d="M183.45,-9.62C191.37,-9.62 199.43,-9.62 207.47,-9.62"/>
<polygon fill="#63b8ff" stroke="#63b8ff" points="207.29,-13.13 217.29,-9.63 207.29,-6.13 207.29,-13.13"/>
</a>
</g>
</g>
<!-- Node3 -->
<g id="Node000003" class="node">
<title>Node3</title>
<g id="a_Node000003"><a xlink:href="classdb_1_1_text_d_b.html#ab0828cdec6203b29d3036e79ecd6cc5e" target="_top" xlink:title=" ">
<polygon fill="white" stroke="#666666" points="535.5,-19.25 449,-19.25 449,0 535.5,0 535.5,-19.25"/>
<text text-anchor="middle" x="492.25" y="-5.75" font-family="Helvetica,sans-Serif" font-size="10.00">db.TextDB.write</text>
</a>
</g>
</g>
<!-- Node2&#45;&gt;Node3 -->
<g id="edge2_Node000002_Node000003" class="edge">
<title>Node2&#45;&gt;Node3</title>
<g id="a_edge2_Node000002_Node000003"><a xlink:title=" ">
<path fill="none" stroke="#63b8ff" d="M413.35,-9.62C421.61,-9.62 429.75,-9.62 437.48,-9.62"/>
<polygon fill="#63b8ff" stroke="#63b8ff" points="437.34,-13.13 447.34,-9.63 437.34,-6.13 437.34,-13.13"/>
</a>
</g>
</g>
</g>
</svg>
