<?xml version="1.0" encoding="UTF-8" standalone="no"?>
<!DOCTYPE svg PUBLIC "-//W3C//DTD SVG 1.1//EN"
 "http://www.w3.org/Graphics/SVG/1.1/DTD/svg11.dtd">
<!-- Generated by graphviz version 12.1.2 (20240928.0832)
 -->
<!-- Title: db.TextDB.getInstance Pages: 1 -->
<svg width="395pt" height="212pt"
 viewBox="0.00 0.00 394.75 212.25" xmlns="http://www.w3.org/2000/svg" xmlns:xlink="http://www.w3.org/1999/xlink">
<g id="graph0" class="graph" transform="scale(1 1) rotate(0) translate(4 208.25)">
<title>db.TextDB.getInstance</title>
<!-- Node1 -->
<g id="Node000001" class="node">
<title>Node1</title>
<g id="a_Node000001"><a xlink:title="Calculates the result.">
<polygon fill="#999999" stroke="#666666" points="386.75,-111.25 270.25,-111.25 270.25,-92 386.75,-92 386.75,-111.25"/>
<text text-anchor="middle" x="328.5" y="-97.75" font-family="Helvetica,sans-Serif" font-size="10.00">db.TextDB.getInstance</text>
</a>
</g>
</g>
<!-- Node2 -->
<g id="Node000002" class="node">
<title>Node2</title>
<g id="a_Node000002"><a xlink:href="classservices_1_1_appointment_service.html#a294690336ab622b5f3baa62b6007bf8f" target="_top" xlink:title="Constructor for AppointmentService.">
<polygon fill="white" stroke="#666666" points="234.25,-204.25 0,-204.25 0,-185 234.25,-185 234.25,-204.25"/>
<text text-anchor="middle" x="117.12" y="-190.75" font-family="Helvetica,sans-Serif" font-size="10.00">services.AppointmentService.AppointmentService</text>
</a>
</g>
</g>
<!-- Node1&#45;&gt;Node2 -->
<g id="edge1_Node000001_Node000002" class="edge">
<title>Node1&#45;&gt;Node2</title>
<g id="a_edge1_Node000001_Node000002"><a xlink:title=" ">
<path fill="none" stroke="#63b8ff" d="M311.05,-119.46C293.74,-137.04 264.8,-163.15 234.25,-176.62 227.16,-179.75 219.61,-182.35 211.9,-184.51"/>
<polygon fill="#63b8ff" stroke="#63b8ff" points="313.13,-122.35 317.53,-112.71 308.08,-117.51 313.13,-122.35"/>
</a>
</g>
</g>
<!-- Node3 -->
<g id="Node000003" class="node">
<title>Node3</title>
<g id="a_Node000003"><a xlink:href="classuser__classes_1_1_doctor.html#ac1f6d07dabbf2d9326565e317e63b94f" target="_top" xlink:title="Retrieves the MedicalRecord of a specific patient assigned to the doctor.">
<polygon fill="white" stroke="#666666" points="226,-167.25 8.25,-167.25 8.25,-148 226,-148 226,-167.25"/>
<text text-anchor="middle" x="117.12" y="-153.75" font-family="Helvetica,sans-Serif" font-size="10.00">user_classes.Doctor.getPatientMedicalRecord</text>
</a>
</g>
</g>
<!-- Node1&#45;&gt;Node3 -->
<g id="edge2_Node000001_Node000003" class="edge">
<title>Node1&#45;&gt;Node3</title>
<g id="a_edge2_Node000001_Node000003"><a xlink:title=" ">
<path fill="none" stroke="#63b8ff" d="M296.5,-116.39C278.65,-124.34 255.6,-133.71 234.25,-139.62 223.04,-142.73 211.07,-145.35 199.23,-147.54"/>
<polygon fill="#63b8ff" stroke="#63b8ff" points="297.85,-119.62 305.5,-112.29 294.95,-113.25 297.85,-119.62"/>
</a>
</g>
</g>
<!-- Node4 -->
<g id="Node000004" class="node">
<title>Node4</title>
<g id="a_Node000004"><a xlink:href="classmain_1_1_hospital_management_system.html#abc443238cd870242799d0f301cf2109e" target="_top" xlink:title="Main method for running the Hospital Management System.">
<polygon fill="white" stroke="#666666" points="212.12,-130.25 22.12,-130.25 22.12,-111 212.12,-111 212.12,-130.25"/>
<text text-anchor="middle" x="117.12" y="-116.75" font-family="Helvetica,sans-Serif" font-size="10.00">main.HospitalManagementSystem.main</text>
</a>
</g>
</g>
<!-- Node1&#45;&gt;Node4 -->
<g id="edge3_Node000001_Node000004" class="edge">
<title>Node1&#45;&gt;Node4</title>
<g id="a_edge3_Node000001_Node000004"><a xlink:title=" ">
<path fill="none" stroke="#63b8ff" d="M258.9,-107.85C244.07,-109.2 228.13,-110.64 212.51,-112.06"/>
<polygon fill="#63b8ff" stroke="#63b8ff" points="258.86,-111.37 268.5,-106.98 258.23,-104.4 258.86,-111.37"/>
</a>
</g>
</g>
<!-- Node5 -->
<g id="Node000005" class="node">
<title>Node5</title>
<g id="a_Node000005"><a xlink:href="classuser__classes_1_1_patient.html#ac659d06b120d409ff7ef5296c68a931c" target="_top" xlink:title="Constructs a Patient object with the specified attributes.">
<polygon fill="white" stroke="#666666" points="187.75,-93.25 46.5,-93.25 46.5,-74 187.75,-74 187.75,-93.25"/>
<text text-anchor="middle" x="117.12" y="-79.75" font-family="Helvetica,sans-Serif" font-size="10.00">user_classes.Patient.Patient</text>
</a>
</g>
</g>
<!-- Node1&#45;&gt;Node5 -->
<g id="edge4_Node000001_Node000005" class="edge">
<title>Node1&#45;&gt;Node5</title>
<g id="a_edge4_Node000001_Node000005"><a xlink:title=" ">
<path fill="none" stroke="#63b8ff" d="M258.77,-95.72C236.12,-93.77 210.91,-91.6 188.16,-89.65"/>
<polygon fill="#63b8ff" stroke="#63b8ff" points="258.24,-99.18 268.5,-96.55 258.84,-92.21 258.24,-99.18"/>
</a>
</g>
</g>
<!-- Node6 -->
<g id="Node000006" class="node">
<title>Node6</title>
<g id="a_Node000006"><a xlink:href="classuser__classes_1_1_doctor.html#a402d63c83dfd86656f8a817a3eff5834" target="_top" xlink:title="Sets the doctor&#39;s availability for a specific date.">
<polygon fill="white" stroke="#666666" points="201.62,-56.25 32.62,-56.25 32.62,-37 201.62,-37 201.62,-56.25"/>
<text text-anchor="middle" x="117.12" y="-42.75" font-family="Helvetica,sans-Serif" font-size="10.00">user_classes.Doctor.setAvailability</text>
</a>
</g>
</g>
<!-- Node1&#45;&gt;Node6 -->
<g id="edge5_Node000001_Node000006" class="edge">
<title>Node1&#45;&gt;Node6</title>
<g id="a_edge5_Node000001_Node000006"><a xlink:title=" ">
<path fill="none" stroke="#63b8ff" d="M295.76,-86.98C278,-79.31 255.26,-70.35 234.25,-64.62 222.83,-61.52 210.63,-58.89 198.58,-56.69"/>
<polygon fill="#63b8ff" stroke="#63b8ff" points="294.17,-90.1 304.73,-90.93 296.99,-83.69 294.17,-90.1"/>
</a>
</g>
</g>
<!-- Node7 -->
<g id="Node000007" class="node">
<title>Node7</title>
<g id="a_Node000007"><a xlink:href="classuser__classes_1_1_doctor.html#aae72302abff72261c4c78deaab0190aa" target="_top" xlink:title="Updates the MedicalRecord of a specific patient.">
<polygon fill="white" stroke="#666666" points="233.88,-19.25 0.37,-19.25 0.37,0 233.88,0 233.88,-19.25"/>
<text text-anchor="middle" x="117.12" y="-5.75" font-family="Helvetica,sans-Serif" font-size="10.00">user_classes.Doctor.updatePatientMedicalRecord</text>
</a>
</g>
</g>
<!-- Node1&#45;&gt;Node7 -->
<g id="edge6_Node000001_Node000007" class="edge">
<title>Node1&#45;&gt;Node7</title>
<g id="a_edge6_Node000001_Node000007"><a xlink:title=" ">
<path fill="none" stroke="#63b8ff" d="M310.25,-83.28C292.82,-65.96 264.24,-40.74 234.25,-27.62 227.05,-24.48 219.4,-21.87 211.58,-19.71"/>
<polygon fill="#63b8ff" stroke="#63b8ff" points="307.75,-85.72 317.24,-90.43 312.75,-80.83 307.75,-85.72"/>
</a>
</g>
</g>
</g>
</svg>
