<?xml version="1.0" encoding="UTF-8" standalone="no"?>
<!DOCTYPE svg PUBLIC "-//W3C//DTD SVG 1.1//EN"
 "http://www.w3.org/Graphics/SVG/1.1/DTD/svg11.dtd">
<!-- Generated by graphviz version 12.1.2 (20240928.0832)
 -->
<!-- Title: items.Schedule.getAvailableTimeSlots Pages: 1 -->
<svg width="1098pt" height="138pt"
 viewBox="0.00 0.00 1097.50 138.25" xmlns="http://www.w3.org/2000/svg" xmlns:xlink="http://www.w3.org/1999/xlink">
<g id="graph0" class="graph" transform="scale(1 1) rotate(0) translate(4 134.25)">
<title>items.Schedule.getAvailableTimeSlots</title>
<!-- Node1 -->
<g id="Node000001" class="node">
<title>Node1</title>
<g id="a_Node000001"><a xlink:title=" ">
<polygon fill="#999999" stroke="#666666" points="1089.5,-92.25 905.5,-92.25 905.5,-73 1089.5,-73 1089.5,-92.25"/>
<text text-anchor="middle" x="997.5" y="-78.75" font-family="Helvetica,sans-Serif" font-size="10.00">items.Schedule.getAvailableTimeSlots</text>
</a>
</g>
</g>
<!-- Node2 -->
<g id="Node000002" class="node">
<title>Node2</title>
<g id="a_Node000002"><a xlink:href="classuser__classes_1_1_doctor.html#a6cf6dd2c1123114b8be632a205501578" target="_top" xlink:title="Retrieves the doctor&#39;s available TimeSlots for a specific date.">
<polygon fill="white" stroke="#666666" points="869.5,-111.25 663.75,-111.25 663.75,-92 869.5,-92 869.5,-111.25"/>
<text text-anchor="middle" x="766.62" y="-97.75" font-family="Helvetica,sans-Serif" font-size="10.00">user_classes.Doctor.getAvailableTimeSlots</text>
</a>
</g>
</g>
<!-- Node1&#45;&gt;Node2 -->
<g id="edge1_Node000001_Node000002" class="edge">
<title>Node1&#45;&gt;Node2</title>
<g id="a_edge1_Node000001_Node000002"><a xlink:title=" ">
<path fill="none" stroke="#63b8ff" d="M893.84,-91.15C885.87,-91.81 877.81,-92.48 869.83,-93.14"/>
<polygon fill="#63b8ff" stroke="#63b8ff" points="893.87,-94.66 903.55,-90.34 893.29,-87.68 893.87,-94.66"/>
</a>
</g>
</g>
<!-- Node3 -->
<g id="Node000003" class="node">
<title>Node3</title>
<g id="a_Node000003"><a xlink:href="classdb_1_1_text_d_b.html#ad0cc1ccd01528bf3a15b1dda0e764482" target="_top" xlink:title=" ">
<polygon fill="white" stroke="#666666" points="845.88,-74.25 687.38,-74.25 687.38,-55 845.88,-55 845.88,-74.25"/>
<text text-anchor="middle" x="766.62" y="-60.75" font-family="Helvetica,sans-Serif" font-size="10.00">db.TextDB.saveSchedulesToFile</text>
</a>
</g>
</g>
<!-- Node1&#45;&gt;Node3 -->
<g id="edge2_Node000001_Node000003" class="edge">
<title>Node1&#45;&gt;Node3</title>
<g id="a_edge2_Node000001_Node000003"><a xlink:title=" ">
<path fill="none" stroke="#63b8ff" d="M893.98,-74.56C877.88,-73.3 861.46,-72 846.02,-70.79"/>
<polygon fill="#63b8ff" stroke="#63b8ff" points="893.3,-78.02 903.55,-75.31 893.85,-71.04 893.3,-78.02"/>
</a>
</g>
</g>
<!-- Node4 -->
<g id="Node000004" class="node">
<title>Node4</title>
<g id="a_Node000004"><a xlink:href="classdb_1_1_text_d_b.html#ad012623bfd1b59de612a4bdb189029a4" target="_top" xlink:title="Calculates the result.">
<polygon fill="white" stroke="#666666" points="606.75,-130.25 470.75,-130.25 470.75,-111 606.75,-111 606.75,-130.25"/>
<text text-anchor="middle" x="538.75" y="-116.75" font-family="Helvetica,sans-Serif" font-size="10.00">db.TextDB.addAppointment</text>
</a>
</g>
</g>
<!-- Node3&#45;&gt;Node4 -->
<g id="edge3_Node000003_Node000004" class="edge">
<title>Node3&#45;&gt;Node4</title>
<g id="a_edge3_Node000003_Node000004"><a xlink:title=" ">
<path fill="none" stroke="#63b8ff" d="M680.4,-77.48C674.71,-79.01 669.11,-80.72 663.75,-82.62 646.5,-88.75 644.92,-96.27 627.75,-102.62 619.27,-105.76 610.11,-108.4 601.02,-110.61"/>
<polygon fill="#63b8ff" stroke="#63b8ff" points="681.09,-80.92 689.95,-75.11 679.4,-74.12 681.09,-80.92"/>
</a>
</g>
</g>
<!-- Node5 -->
<g id="Node000005" class="node">
<title>Node5</title>
<g id="a_Node000005"><a xlink:href="classdb_1_1_text_d_b.html#a86c8f97829de1275242b05f46cdd6415" target="_top" xlink:title="Updates an appointment with a new status and saves changes.">
<polygon fill="white" stroke="#666666" points="613.5,-93.25 464,-93.25 464,-74 613.5,-74 613.5,-93.25"/>
<text text-anchor="middle" x="538.75" y="-79.75" font-family="Helvetica,sans-Serif" font-size="10.00">db.TextDB.updateAppointment</text>
</a>
</g>
</g>
<!-- Node3&#45;&gt;Node5 -->
<g id="edge4_Node000003_Node000005" class="edge">
<title>Node3&#45;&gt;Node5</title>
<g id="a_edge4_Node000003_Node000005"><a xlink:title=" ">
<path fill="none" stroke="#63b8ff" d="M675.7,-72.19C655.23,-73.91 633.71,-75.72 613.98,-77.38"/>
<polygon fill="#63b8ff" stroke="#63b8ff" points="675.76,-75.7 685.43,-71.37 675.18,-68.72 675.76,-75.7"/>
</a>
</g>
</g>
<!-- Node8 -->
<g id="Node000008" class="node">
<title>Node8</title>
<g id="a_Node000008"><a xlink:href="classdb_1_1_text_d_b.html#a04a650ae8f6750cd2068585b496767dd" target="_top" xlink:title="Calculates the result.">
<polygon fill="white" stroke="#666666" points="627.75,-56.25 449.75,-56.25 449.75,-37 627.75,-37 627.75,-56.25"/>
<text text-anchor="middle" x="538.75" y="-42.75" font-family="Helvetica,sans-Serif" font-size="10.00">db.TextDB.updateAppointmentStatus</text>
</a>
</g>
</g>
<!-- Node3&#45;&gt;Node8 -->
<g id="edge7_Node000003_Node000008" class="edge">
<title>Node3&#45;&gt;Node8</title>
<g id="a_edge7_Node000003_Node000008"><a xlink:title=" ">
<path fill="none" stroke="#63b8ff" d="M675.68,-57.46C660.04,-56.21 643.79,-54.92 628.19,-53.67"/>
<polygon fill="#63b8ff" stroke="#63b8ff" points="675.19,-60.93 685.43,-58.23 675.74,-53.95 675.19,-60.93"/>
</a>
</g>
</g>
<!-- Node9 -->
<g id="Node000009" class="node">
<title>Node9</title>
<g id="a_Node000009"><a xlink:href="classdb_1_1_text_d_b.html#a6f9c8a5da2c13ddf2e9f16e50f825b7d" target="_top" xlink:title=" ">
<polygon fill="white" stroke="#666666" points="621,-19.25 456.5,-19.25 456.5,0 621,0 621,-19.25"/>
<text text-anchor="middle" x="538.75" y="-5.75" font-family="Helvetica,sans-Serif" font-size="10.00">db.TextDB.updateDoctorSchedule</text>
</a>
</g>
</g>
<!-- Node3&#45;&gt;Node9 -->
<g id="edge8_Node000003_Node000009" class="edge">
<title>Node3&#45;&gt;Node9</title>
<g id="a_edge8_Node000003_Node000009"><a xlink:title=" ">
<path fill="none" stroke="#63b8ff" d="M719.41,-51.47C692.72,-44.07 658.46,-34.88 627.75,-27.62 616.06,-24.86 603.45,-22.14 591.52,-19.67"/>
<polygon fill="#63b8ff" stroke="#63b8ff" points="718.32,-54.8 728.89,-54.12 720.2,-48.06 718.32,-54.8"/>
</a>
</g>
</g>
<!-- Node6 -->
<g id="Node000006" class="node">
<title>Node6</title>
<g id="a_Node000006"><a xlink:href="classmenus_1_1_doctor_menu.html#ae7d20b71f38894a6236e1f23b637ce42" target="_top" xlink:title="Records the outcome of a completed appointment.">
<polygon fill="white" stroke="#666666" points="413.75,-93.25 187.75,-93.25 187.75,-74 413.75,-74 413.75,-93.25"/>
<text text-anchor="middle" x="300.75" y="-79.75" font-family="Helvetica,sans-Serif" font-size="10.00">menus.DoctorMenu.recordAppointmentOutcome</text>
</a>
</g>
</g>
<!-- Node5&#45;&gt;Node6 -->
<g id="edge5_Node000005_Node000006" class="edge">
<title>Node5&#45;&gt;Node6</title>
<g id="a_edge5_Node000005_Node000006"><a xlink:title=" ">
<path fill="none" stroke="#63b8ff" d="M452.42,-83.62C439.93,-83.62 426.91,-83.62 413.98,-83.62"/>
<polygon fill="#63b8ff" stroke="#63b8ff" points="452.21,-87.13 462.21,-83.63 452.21,-80.13 452.21,-87.13"/>
</a>
</g>
</g>
<!-- Node7 -->
<g id="Node000007" class="node">
<title>Node7</title>
<g id="a_Node000007"><a xlink:href="classmenus_1_1_doctor_menu.html#af4a80d7af2990dd2f809c409c732536d" target="_top" xlink:title="Displays the Doctor Menu and handles user selections.">
<polygon fill="white" stroke="#666666" points="151.75,-93.25 0,-93.25 0,-74 151.75,-74 151.75,-93.25"/>
<text text-anchor="middle" x="75.88" y="-79.75" font-family="Helvetica,sans-Serif" font-size="10.00">menus.DoctorMenu.showMenu</text>
</a>
</g>
</g>
<!-- Node6&#45;&gt;Node7 -->
<g id="edge6_Node000006_Node000007" class="edge">
<title>Node6&#45;&gt;Node7</title>
<g id="a_edge6_Node000006_Node000007"><a xlink:title=" ">
<path fill="none" stroke="#63b8ff" d="M175.92,-83.62C167.88,-83.62 159.92,-83.62 152.22,-83.62"/>
<polygon fill="#63b8ff" stroke="#63b8ff" points="175.82,-87.13 185.82,-83.63 175.82,-80.13 175.82,-87.13"/>
</a>
</g>
</g>
</g>
</svg>
