<?xml version="1.0" encoding="UTF-8" standalone="no"?>
<!DOCTYPE svg PUBLIC "-//W3C//DTD SVG 1.1//EN"
 "http://www.w3.org/Graphics/SVG/1.1/DTD/svg11.dtd">
<!-- Generated by graphviz version 12.1.2 (20240928.0832)
 -->
<!-- Title: user_classes.User Pages: 1 -->
<svg width="1012pt" height="691pt"
 viewBox="0.00 0.00 1012.00 691.00" xmlns="http://www.w3.org/2000/svg" xmlns:xlink="http://www.w3.org/1999/xlink">
<g id="graph0" class="graph" transform="scale(1 1) rotate(0) translate(4 687)">
<title>user_classes.User</title>
<!-- Node1 -->
<g id="Node000001" class="node">
<title>Node1</title>
<g id="a_Node000001"><a xlink:title="An abstract base class representing a generic user in the hospital management system.">
<polygon fill="#999999" stroke="none" points="626,-683 383,-683 383,-383 626,-383 626,-683"/>
<text text-anchor="start" x="463.62" y="-669.5" font-family="Helvetica,sans-Serif" font-size="10.00">user_classes.User</text>
<text text-anchor="start" x="387" y="-654.5" font-family="Helvetica,sans-Serif" font-size="10.00">+</text>
<text text-anchor="start" x="397" y="-654.5" font-family="Helvetica,sans-Serif" font-size="10.00">String role</text>
<text text-anchor="start" x="387" y="-639.5" font-family="Helvetica,sans-Serif" font-size="10.00">~</text>
<text text-anchor="start" x="397" y="-639.5" font-family="Helvetica,sans-Serif" font-size="10.00">static int userCount</text>
<text text-anchor="start" x="387.38" y="-624.5" font-family="Helvetica,sans-Serif" font-size="10.00">#</text>
<text text-anchor="start" x="397" y="-624.5" font-family="Helvetica,sans-Serif" font-size="10.00">String hospitalID</text>
<text text-anchor="start" x="387.38" y="-609.5" font-family="Helvetica,sans-Serif" font-size="10.00">#</text>
<text text-anchor="start" x="397" y="-609.5" font-family="Helvetica,sans-Serif" font-size="10.00">String password</text>
<text text-anchor="start" x="387.38" y="-594.5" font-family="Helvetica,sans-Serif" font-size="10.00">#</text>
<text text-anchor="start" x="397" y="-594.5" font-family="Helvetica,sans-Serif" font-size="10.00">String name</text>
<text text-anchor="start" x="387.38" y="-579.5" font-family="Helvetica,sans-Serif" font-size="10.00">#</text>
<text text-anchor="start" x="397" y="-579.5" font-family="Helvetica,sans-Serif" font-size="10.00">LocalDate dateOfBirth</text>
<text text-anchor="start" x="387.38" y="-564.5" font-family="Helvetica,sans-Serif" font-size="10.00">#</text>
<text text-anchor="start" x="397" y="-564.5" font-family="Helvetica,sans-Serif" font-size="10.00">String gender</text>
<text text-anchor="start" x="387" y="-549.5" font-family="Helvetica,sans-Serif" font-size="10.00">+</text>
<text text-anchor="start" x="397" y="-549.5" font-family="Helvetica,sans-Serif" font-size="10.00">User(String hospitalID, String password,</text>
<text text-anchor="start" x="397" y="-538.25" font-family="Helvetica,sans-Serif" font-size="10.00"> String name, LocalDate dateOfBirth, String gender)</text>
<text text-anchor="start" x="387" y="-523.5" font-family="Helvetica,sans-Serif" font-size="10.00">+</text>
<text text-anchor="start" x="397" y="-523.5" font-family="Helvetica,sans-Serif" font-size="10.00">String getRole()</text>
<text text-anchor="start" x="387" y="-508.5" font-family="Helvetica,sans-Serif" font-size="10.00">+</text>
<text text-anchor="start" x="397" y="-508.5" font-family="Helvetica,sans-Serif" font-size="10.00">String getAge()</text>
<text text-anchor="start" x="387" y="-493.5" font-family="Helvetica,sans-Serif" font-size="10.00">+</text>
<text text-anchor="start" x="397" y="-493.5" font-family="Helvetica,sans-Serif" font-size="10.00">String getHospitalID()</text>
<text text-anchor="start" x="387" y="-478.5" font-family="Helvetica,sans-Serif" font-size="10.00">+</text>
<text text-anchor="start" x="397" y="-478.5" font-family="Helvetica,sans-Serif" font-size="10.00">void setHospitalID(String hospitalID)</text>
<text text-anchor="start" x="387" y="-463.5" font-family="Helvetica,sans-Serif" font-size="10.00">+</text>
<text text-anchor="start" x="397" y="-463.5" font-family="Helvetica,sans-Serif" font-size="10.00">String getPassword()</text>
<text text-anchor="start" x="387" y="-448.5" font-family="Helvetica,sans-Serif" font-size="10.00">+</text>
<text text-anchor="start" x="397" y="-448.5" font-family="Helvetica,sans-Serif" font-size="10.00">void setPassword(String password)</text>
<text text-anchor="start" x="387" y="-433.5" font-family="Helvetica,sans-Serif" font-size="10.00">+</text>
<text text-anchor="start" x="397" y="-433.5" font-family="Helvetica,sans-Serif" font-size="10.00">String getName()</text>
<text text-anchor="start" x="387" y="-418.5" font-family="Helvetica,sans-Serif" font-size="10.00">+</text>
<text text-anchor="start" x="397" y="-418.5" font-family="Helvetica,sans-Serif" font-size="10.00">void setName(String name)</text>
<text text-anchor="start" x="387" y="-403.5" font-family="Helvetica,sans-Serif" font-size="10.00">+</text>
<text text-anchor="start" x="397" y="-403.5" font-family="Helvetica,sans-Serif" font-size="10.00">LocalDate getDateOfBirth()</text>
<text text-anchor="start" x="397" y="-388.5" font-family="Helvetica,sans-Serif" font-size="10.00">and 6 more...</text>
<polygon fill="#666666" stroke="#666666" points="383,-666 383,-666 626,-666 626,-666 383,-666"/>
<polygon fill="#666666" stroke="#666666" points="383,-561 383,-561 395,-561 395,-561 383,-561"/>
<polygon fill="#666666" stroke="#666666" points="395,-561 395,-561 626,-561 626,-561 395,-561"/>
<polygon fill="none" stroke="#666666" points="383,-383 383,-683 626,-683 626,-383 383,-383"/>
</a>
</g>
</g>
<!-- Node2 -->
<g id="Node000002" class="node">
<title>Node2</title>
<g id="a_Node000002"><a xlink:href="classuser__classes_1_1_administrator.html" target="_top" xlink:title="Represents an administrator user with specific responsibilities within the hospital system.">
<polygon fill="white" stroke="none" points="227,-269 0,-269 0,-78 227,-78 227,-269"/>
<text text-anchor="start" x="54.25" y="-255.5" font-family="Helvetica,sans-Serif" font-size="10.00">user_classes.Administrator</text>
<text text-anchor="start" x="112" y="-240.5" font-family="Helvetica,sans-Serif" font-size="10.00"> </text>
<text text-anchor="start" x="4" y="-225.5" font-family="Helvetica,sans-Serif" font-size="10.00">+</text>
<text text-anchor="start" x="14" y="-225.5" font-family="Helvetica,sans-Serif" font-size="10.00">Administrator(String hospitalID, String</text>
<text text-anchor="start" x="14" y="-214.25" font-family="Helvetica,sans-Serif" font-size="10.00"> password, String name, LocalDate dateOfBirth,</text>
<text text-anchor="start" x="14" y="-203" font-family="Helvetica,sans-Serif" font-size="10.00"> String gender)</text>
<text text-anchor="start" x="4" y="-188.5" font-family="Helvetica,sans-Serif" font-size="10.00">+</text>
<text text-anchor="start" x="14" y="-188.5" font-family="Helvetica,sans-Serif" font-size="10.00">String toString()</text>
<text text-anchor="start" x="4" y="-173.5" font-family="Helvetica,sans-Serif" font-size="10.00">+</text>
<text text-anchor="start" x="14" y="-173.5" font-family="Helvetica,sans-Serif" font-size="10.00">void login()</text>
<text text-anchor="start" x="4" y="-158.5" font-family="Helvetica,sans-Serif" font-size="10.00">+</text>
<text text-anchor="start" x="14" y="-158.5" font-family="Helvetica,sans-Serif" font-size="10.00">void changePassword()</text>
<text text-anchor="start" x="4" y="-143.5" font-family="Helvetica,sans-Serif" font-size="10.00">+</text>
<text text-anchor="start" x="14" y="-143.5" font-family="Helvetica,sans-Serif" font-size="10.00">void logout()</text>
<text text-anchor="start" x="4" y="-128.5" font-family="Helvetica,sans-Serif" font-size="10.00">+</text>
<text text-anchor="start" x="14" y="-128.5" font-family="Helvetica,sans-Serif" font-size="10.00">void manageHospitalStaff()</text>
<text text-anchor="start" x="4" y="-113.5" font-family="Helvetica,sans-Serif" font-size="10.00">+</text>
<text text-anchor="start" x="14" y="-113.5" font-family="Helvetica,sans-Serif" font-size="10.00">void viewAppointmentsDetails()</text>
<text text-anchor="start" x="4" y="-98.5" font-family="Helvetica,sans-Serif" font-size="10.00">+</text>
<text text-anchor="start" x="14" y="-98.5" font-family="Helvetica,sans-Serif" font-size="10.00">void viewAndManageMedicationInventory()</text>
<text text-anchor="start" x="4" y="-83.5" font-family="Helvetica,sans-Serif" font-size="10.00">+</text>
<text text-anchor="start" x="14" y="-83.5" font-family="Helvetica,sans-Serif" font-size="10.00">void approveReplenishmentRequests()</text>
<polygon fill="#666666" stroke="#666666" points="0,-252 0,-252 227,-252 227,-252 0,-252"/>
<polygon fill="#666666" stroke="#666666" points="0,-237 0,-237 227,-237 227,-237 0,-237"/>
<polygon fill="none" stroke="#666666" points="0,-78 0,-269 227,-269 227,-78 0,-78"/>
</a>
</g>
</g>
<!-- Node1&#45;&gt;Node2 -->
<g id="edge1_Node000001_Node000002" class="edge">
<title>Node1&#45;&gt;Node2</title>
<g id="a_edge1_Node000001_Node000002"><a xlink:title=" ">
<path fill="none" stroke="#63b8ff" d="M373.85,-454.98C327.75,-424.52 277.29,-387.18 236.5,-347 212.91,-323.77 190.71,-295.56 171.83,-268.73"/>
<polygon fill="none" stroke="#63b8ff" points="371.76,-457.79 382.04,-460.35 375.59,-451.94 371.76,-457.79"/>
</a>
</g>
</g>
<!-- Node3 -->
<g id="Node000003" class="node">
<title>Node3</title>
<g id="a_Node000003"><a xlink:href="classuser__classes_1_1_doctor.html" target="_top" xlink:title="Represents a doctor in the hospital management system.">
<polygon fill="white" stroke="none" points="497.5,-347 245.5,-347 245.5,0 497.5,0 497.5,-347"/>
<text text-anchor="start" x="326.5" y="-333.5" font-family="Helvetica,sans-Serif" font-size="10.00">user_classes.Doctor</text>
<text text-anchor="start" x="370" y="-318.5" font-family="Helvetica,sans-Serif" font-size="10.00"> </text>
<text text-anchor="start" x="249.5" y="-303.5" font-family="Helvetica,sans-Serif" font-size="10.00">+</text>
<text text-anchor="start" x="259.5" y="-303.5" font-family="Helvetica,sans-Serif" font-size="10.00">Doctor(String hospitalID, String password,</text>
<text text-anchor="start" x="259.5" y="-292.25" font-family="Helvetica,sans-Serif" font-size="10.00"> String name, LocalDate dateOfBirth, String</text>
<text text-anchor="start" x="259.5" y="-281" font-family="Helvetica,sans-Serif" font-size="10.00"> gender, Schedule schedule)</text>
<text text-anchor="start" x="249.5" y="-266.5" font-family="Helvetica,sans-Serif" font-size="10.00">+</text>
<text text-anchor="start" x="259.5" y="-266.5" font-family="Helvetica,sans-Serif" font-size="10.00">Doctor(String hospitalID, String password,</text>
<text text-anchor="start" x="259.5" y="-255.25" font-family="Helvetica,sans-Serif" font-size="10.00"> String name, LocalDate dateOfBirth, String</text>
<text text-anchor="start" x="259.5" y="-244" font-family="Helvetica,sans-Serif" font-size="10.00"> gender, Schedule schedule, List&lt; String &gt; patientIds)</text>
<text text-anchor="start" x="249.5" y="-229.5" font-family="Helvetica,sans-Serif" font-size="10.00">+</text>
<text text-anchor="start" x="259.5" y="-229.5" font-family="Helvetica,sans-Serif" font-size="10.00">List&lt; String &gt; getPatients()</text>
<text text-anchor="start" x="249.5" y="-214.5" font-family="Helvetica,sans-Serif" font-size="10.00">+</text>
<text text-anchor="start" x="259.5" y="-214.5" font-family="Helvetica,sans-Serif" font-size="10.00">void addPatient(String patientId)</text>
<text text-anchor="start" x="249.5" y="-199.5" font-family="Helvetica,sans-Serif" font-size="10.00">+</text>
<text text-anchor="start" x="259.5" y="-199.5" font-family="Helvetica,sans-Serif" font-size="10.00">void removePatient(String patientId)</text>
<text text-anchor="start" x="249.5" y="-184.5" font-family="Helvetica,sans-Serif" font-size="10.00">+</text>
<text text-anchor="start" x="259.5" y="-184.5" font-family="Helvetica,sans-Serif" font-size="10.00">Schedule getSchedule()</text>
<text text-anchor="start" x="249.5" y="-169.5" font-family="Helvetica,sans-Serif" font-size="10.00">+</text>
<text text-anchor="start" x="259.5" y="-169.5" font-family="Helvetica,sans-Serif" font-size="10.00">void setSchedule(Schedule schedule)</text>
<text text-anchor="start" x="249.5" y="-154.5" font-family="Helvetica,sans-Serif" font-size="10.00">+</text>
<text text-anchor="start" x="259.5" y="-154.5" font-family="Helvetica,sans-Serif" font-size="10.00">MedicalRecord getPatientMedicalRecord</text>
<text text-anchor="start" x="259.5" y="-143.25" font-family="Helvetica,sans-Serif" font-size="10.00">(String patientId)</text>
<text text-anchor="start" x="249.5" y="-128.5" font-family="Helvetica,sans-Serif" font-size="10.00">+</text>
<text text-anchor="start" x="259.5" y="-128.5" font-family="Helvetica,sans-Serif" font-size="10.00">void updatePatientMedicalRecord(String</text>
<text text-anchor="start" x="259.5" y="-117.25" font-family="Helvetica,sans-Serif" font-size="10.00"> patientId, MedicalRecord updatedRecord)</text>
<text text-anchor="start" x="249.5" y="-102.5" font-family="Helvetica,sans-Serif" font-size="10.00">+</text>
<text text-anchor="start" x="259.5" y="-102.5" font-family="Helvetica,sans-Serif" font-size="10.00">void setAvailability(LocalDate date,</text>
<text text-anchor="start" x="259.5" y="-91.25" font-family="Helvetica,sans-Serif" font-size="10.00"> List&lt; TimeSlot &gt; availability)</text>
<text text-anchor="start" x="249.5" y="-76.5" font-family="Helvetica,sans-Serif" font-size="10.00">+</text>
<text text-anchor="start" x="259.5" y="-76.5" font-family="Helvetica,sans-Serif" font-size="10.00">List&lt; TimeSlot &gt; getAvailableTimeSlots</text>
<text text-anchor="start" x="259.5" y="-65.25" font-family="Helvetica,sans-Serif" font-size="10.00">(LocalDate date)</text>
<text text-anchor="start" x="249.5" y="-50.5" font-family="Helvetica,sans-Serif" font-size="10.00">+</text>
<text text-anchor="start" x="259.5" y="-50.5" font-family="Helvetica,sans-Serif" font-size="10.00">String toString()</text>
<text text-anchor="start" x="249.5" y="-35.5" font-family="Helvetica,sans-Serif" font-size="10.00">+</text>
<text text-anchor="start" x="259.5" y="-35.5" font-family="Helvetica,sans-Serif" font-size="10.00">void login()</text>
<text text-anchor="start" x="249.5" y="-20.5" font-family="Helvetica,sans-Serif" font-size="10.00">+</text>
<text text-anchor="start" x="259.5" y="-20.5" font-family="Helvetica,sans-Serif" font-size="10.00">void changePassword()</text>
<text text-anchor="start" x="249.5" y="-5.5" font-family="Helvetica,sans-Serif" font-size="10.00">+</text>
<text text-anchor="start" x="259.5" y="-5.5" font-family="Helvetica,sans-Serif" font-size="10.00">void logout()</text>
<polygon fill="#666666" stroke="#666666" points="245.5,-330 245.5,-330 497.5,-330 497.5,-330 245.5,-330"/>
<polygon fill="#666666" stroke="#666666" points="245.5,-315 245.5,-315 497.5,-315 497.5,-315 245.5,-315"/>
<polygon fill="none" stroke="#666666" points="245.5,0 245.5,-347 497.5,-347 497.5,0 245.5,0"/>
</a>
</g>
</g>
<!-- Node1&#45;&gt;Node3 -->
<g id="edge2_Node000001_Node000003" class="edge">
<title>Node1&#45;&gt;Node3</title>
<g id="a_edge2_Node000001_Node000003"><a xlink:title=" ">
<path fill="none" stroke="#63b8ff" d="M445.17,-372.52C442.01,-364.03 438.83,-355.48 435.66,-346.96"/>
<polygon fill="none" stroke="#63b8ff" points="441.86,-373.66 448.63,-381.82 448.42,-371.22 441.86,-373.66"/>
</a>
</g>
</g>
<!-- Node4 -->
<g id="Node000004" class="node">
<title>Node4</title>
<g id="a_Node000004"><a xlink:href="classuser__classes_1_1_patient.html" target="_top" xlink:title="Represents a patient in the hospital management system.">
<polygon fill="white" stroke="none" points="759,-263.5 516,-263.5 516,-83.5 759,-83.5 759,-263.5"/>
<text text-anchor="start" x="591.75" y="-250" font-family="Helvetica,sans-Serif" font-size="10.00">user_classes.Patient</text>
<text text-anchor="start" x="636" y="-235" font-family="Helvetica,sans-Serif" font-size="10.00"> </text>
<text text-anchor="start" x="520" y="-220" font-family="Helvetica,sans-Serif" font-size="10.00">+</text>
<text text-anchor="start" x="530" y="-220" font-family="Helvetica,sans-Serif" font-size="10.00">Patient(String hospitalID, String password,</text>
<text text-anchor="start" x="530" y="-208.75" font-family="Helvetica,sans-Serif" font-size="10.00"> String name, LocalDate dateOfBirth, String gender)</text>
<text text-anchor="start" x="520" y="-194" font-family="Helvetica,sans-Serif" font-size="10.00">+</text>
<text text-anchor="start" x="530" y="-194" font-family="Helvetica,sans-Serif" font-size="10.00">void login()</text>
<text text-anchor="start" x="520" y="-179" font-family="Helvetica,sans-Serif" font-size="10.00">+</text>
<text text-anchor="start" x="530" y="-179" font-family="Helvetica,sans-Serif" font-size="10.00">String toString()</text>
<text text-anchor="start" x="520" y="-164" font-family="Helvetica,sans-Serif" font-size="10.00">+</text>
<text text-anchor="start" x="530" y="-164" font-family="Helvetica,sans-Serif" font-size="10.00">void changePassword()</text>
<text text-anchor="start" x="520" y="-149" font-family="Helvetica,sans-Serif" font-size="10.00">+</text>
<text text-anchor="start" x="530" y="-149" font-family="Helvetica,sans-Serif" font-size="10.00">void logout()</text>
<text text-anchor="start" x="520" y="-134" font-family="Helvetica,sans-Serif" font-size="10.00">+</text>
<text text-anchor="start" x="530" y="-134" font-family="Helvetica,sans-Serif" font-size="10.00">void requestAppointment()</text>
<text text-anchor="start" x="520" y="-119" font-family="Helvetica,sans-Serif" font-size="10.00">+</text>
<text text-anchor="start" x="530" y="-119" font-family="Helvetica,sans-Serif" font-size="10.00">void viewPrescriptions()</text>
<text text-anchor="start" x="520" y="-104" font-family="Helvetica,sans-Serif" font-size="10.00">+</text>
<text text-anchor="start" x="530" y="-104" font-family="Helvetica,sans-Serif" font-size="10.00">void updateContactInformation()</text>
<text text-anchor="start" x="520" y="-89" font-family="Helvetica,sans-Serif" font-size="10.00">+</text>
<text text-anchor="start" x="530" y="-89" font-family="Helvetica,sans-Serif" font-size="10.00">MedicalRecord getMedicalRecord()</text>
<polygon fill="#666666" stroke="#666666" points="516,-246.5 516,-246.5 759,-246.5 759,-246.5 516,-246.5"/>
<polygon fill="#666666" stroke="#666666" points="516,-231.5 516,-231.5 759,-231.5 759,-231.5 516,-231.5"/>
<polygon fill="none" stroke="#666666" points="516,-83.5 516,-263.5 759,-263.5 759,-83.5 516,-83.5"/>
</a>
</g>
</g>
<!-- Node1&#45;&gt;Node4 -->
<g id="edge3_Node000001_Node000004" class="edge">
<title>Node1&#45;&gt;Node4</title>
<g id="a_edge3_Node000001_Node000004"><a xlink:title=" ">
<path fill="none" stroke="#63b8ff" d="M563.77,-372.69C577.72,-335.17 592.11,-296.5 604.43,-263.39"/>
<polygon fill="none" stroke="#63b8ff" points="560.58,-371.22 560.37,-381.82 567.14,-373.66 560.58,-371.22"/>
</a>
</g>
</g>
<!-- Node5 -->
<g id="Node000005" class="node">
<title>Node5</title>
<g id="a_Node000005"><a xlink:href="classuser__classes_1_1_pharmacist.html" target="_top" xlink:title="Represents a pharmacist in the hospital management system.">
<polygon fill="white" stroke="none" points="1004,-269 777,-269 777,-78 1004,-78 1004,-269"/>
<text text-anchor="start" x="835.38" y="-255.5" font-family="Helvetica,sans-Serif" font-size="10.00">user_classes.Pharmacist</text>
<text text-anchor="start" x="889" y="-240.5" font-family="Helvetica,sans-Serif" font-size="10.00"> </text>
<text text-anchor="start" x="781" y="-225.5" font-family="Helvetica,sans-Serif" font-size="10.00">+</text>
<text text-anchor="start" x="791" y="-225.5" font-family="Helvetica,sans-Serif" font-size="10.00">Pharmacist(String hospitalID, String</text>
<text text-anchor="start" x="791" y="-214.25" font-family="Helvetica,sans-Serif" font-size="10.00"> password, String name, LocalDate dateOfBirth,</text>
<text text-anchor="start" x="791" y="-203" font-family="Helvetica,sans-Serif" font-size="10.00"> String gender)</text>
<text text-anchor="start" x="781" y="-188.5" font-family="Helvetica,sans-Serif" font-size="10.00">+</text>
<text text-anchor="start" x="791" y="-188.5" font-family="Helvetica,sans-Serif" font-size="10.00">void login()</text>
<text text-anchor="start" x="781" y="-173.5" font-family="Helvetica,sans-Serif" font-size="10.00">+</text>
<text text-anchor="start" x="791" y="-173.5" font-family="Helvetica,sans-Serif" font-size="10.00">void changePassword()</text>
<text text-anchor="start" x="781" y="-158.5" font-family="Helvetica,sans-Serif" font-size="10.00">+</text>
<text text-anchor="start" x="791" y="-158.5" font-family="Helvetica,sans-Serif" font-size="10.00">void logout()</text>
<text text-anchor="start" x="781" y="-143.5" font-family="Helvetica,sans-Serif" font-size="10.00">+</text>
<text text-anchor="start" x="791" y="-143.5" font-family="Helvetica,sans-Serif" font-size="10.00">String toString()</text>
<text text-anchor="start" x="781" y="-128.5" font-family="Helvetica,sans-Serif" font-size="10.00">+</text>
<text text-anchor="start" x="791" y="-128.5" font-family="Helvetica,sans-Serif" font-size="10.00">void viewAppointmentOutcomeRecords()</text>
<text text-anchor="start" x="781" y="-113.5" font-family="Helvetica,sans-Serif" font-size="10.00">+</text>
<text text-anchor="start" x="791" y="-113.5" font-family="Helvetica,sans-Serif" font-size="10.00">void updatePrescriptionStatus()</text>
<text text-anchor="start" x="781" y="-98.5" font-family="Helvetica,sans-Serif" font-size="10.00">+</text>
<text text-anchor="start" x="791" y="-98.5" font-family="Helvetica,sans-Serif" font-size="10.00">void viewMedicationInventory()</text>
<text text-anchor="start" x="781" y="-83.5" font-family="Helvetica,sans-Serif" font-size="10.00">+</text>
<text text-anchor="start" x="791" y="-83.5" font-family="Helvetica,sans-Serif" font-size="10.00">void submitReplenishmentRequest()</text>
<polygon fill="#666666" stroke="#666666" points="777,-252 777,-252 1004,-252 1004,-252 777,-252"/>
<polygon fill="#666666" stroke="#666666" points="777,-237 777,-237 1004,-237 1004,-237 777,-237"/>
<polygon fill="none" stroke="#666666" points="777,-78 777,-269 1004,-269 1004,-78 777,-78"/>
</a>
</g>
</g>
<!-- Node1&#45;&gt;Node5 -->
<g id="edge4_Node000001_Node000005" class="edge">
<title>Node1&#45;&gt;Node5</title>
<g id="a_edge4_Node000001_Node000005"><a xlink:title=" ">
<path fill="none" stroke="#63b8ff" d="M635.4,-453.32C680.21,-423.11 728.97,-386.35 768.5,-347 791.89,-323.71 813.92,-295.47 832.64,-268.65"/>
<polygon fill="none" stroke="#63b8ff" points="633.53,-450.35 627.16,-458.82 637.42,-456.18 633.53,-450.35"/>
</a>
</g>
</g>
</g>
</svg>
