<?xml version="1.0" encoding="UTF-8" standalone="no"?>
<!DOCTYPE svg PUBLIC "-//W3C//DTD SVG 1.1//EN"
 "http://www.w3.org/Graphics/SVG/1.1/DTD/svg11.dtd">
<!-- Generated by graphviz version 12.1.2 (20240928.0832)
 -->
<!-- Title: menus.DoctorMenu Pages: 1 -->
<svg width="238pt" height="98pt"
 viewBox="0.00 0.00 238.00 98.00" xmlns="http://www.w3.org/2000/svg" xmlns:xlink="http://www.w3.org/1999/xlink">
<g id="graph0" class="graph" transform="scale(1 1) rotate(0) translate(4 94)">
<title>menus.DoctorMenu</title>
<!-- Node1 -->
<g id="Node000001" class="node">
<title>Node1</title>
<g id="a_Node000001"><a xlink:title="Provides an interactive menu for doctors to manage patient records, appointments, schedules,...">
<polygon fill="#999999" stroke="none" points="230,-90 0,-90 0,0 230,0 230,-90"/>
<text text-anchor="start" x="72.25" y="-76.5" font-family="Helvetica,sans-Serif" font-size="10.00">menus.DoctorMenu</text>
<text text-anchor="start" x="113.5" y="-61.5" font-family="Helvetica,sans-Serif" font-size="10.00"> </text>
<text text-anchor="start" x="4" y="-46.5" font-family="Helvetica,sans-Serif" font-size="10.00">+</text>
<text text-anchor="start" x="14" y="-46.5" font-family="Helvetica,sans-Serif" font-size="10.00">DoctorMenu(TextDB textDB)</text>
<text text-anchor="start" x="4" y="-31.5" font-family="Helvetica,sans-Serif" font-size="10.00">+</text>
<text text-anchor="start" x="14" y="-31.5" font-family="Helvetica,sans-Serif" font-size="10.00">void showMenu(Scanner scanner, Doctor doctor)</text>
<text text-anchor="start" x="4" y="-16.5" font-family="Helvetica,sans-Serif" font-size="10.00">+</text>
<text text-anchor="start" x="14" y="-16.5" font-family="Helvetica,sans-Serif" font-size="10.00">void recordAppointmentOutcome(Scanner</text>
<text text-anchor="start" x="14" y="-5.25" font-family="Helvetica,sans-Serif" font-size="10.00"> scanner, Doctor doctor)</text>
<polygon fill="#666666" stroke="#666666" points="0,-73 0,-73 230,-73 230,-73 0,-73"/>
<polygon fill="#666666" stroke="#666666" points="0,-58 0,-58 230,-58 230,-58 0,-58"/>
<polygon fill="none" stroke="#666666" points="0,0 0,-90 230,-90 230,0 0,0"/>
</a>
</g>
</g>
</g>
</svg>
