<?xml version="1.0" encoding="UTF-8" standalone="no"?>
<!DOCTYPE svg PUBLIC "-//W3C//DTD SVG 1.1//EN"
 "http://www.w3.org/Graphics/SVG/1.1/DTD/svg11.dtd">
<!-- Generated by graphviz version 12.1.2 (20240928.0832)
 -->
<!-- Title: menus.PharmacistMenu Pages: 1 -->
<svg width="225pt" height="83pt"
 viewBox="0.00 0.00 225.00 83.00" xmlns="http://www.w3.org/2000/svg" xmlns:xlink="http://www.w3.org/1999/xlink">
<g id="graph0" class="graph" transform="scale(1 1) rotate(0) translate(4 79)">
<title>menus.PharmacistMenu</title>
<!-- Node1 -->
<g id="Node000001" class="node">
<title>Node1</title>
<g id="a_Node000001"><a xlink:title="Displays a menu for pharmacists to do pharmacist tasks.">
<polygon fill="#999999" stroke="none" points="217,-75 0,-75 0,0 217,0 217,-75"/>
<text text-anchor="start" x="55.62" y="-61.5" font-family="Helvetica,sans-Serif" font-size="10.00">menus.PharmacistMenu</text>
<text text-anchor="start" x="107" y="-46.5" font-family="Helvetica,sans-Serif" font-size="10.00"> </text>
<text text-anchor="start" x="4" y="-31.5" font-family="Helvetica,sans-Serif" font-size="10.00">+</text>
<text text-anchor="start" x="14" y="-31.5" font-family="Helvetica,sans-Serif" font-size="10.00">PharmacistMenu(TextDB textDB)</text>
<text text-anchor="start" x="4" y="-16.5" font-family="Helvetica,sans-Serif" font-size="10.00">+</text>
<text text-anchor="start" x="14" y="-16.5" font-family="Helvetica,sans-Serif" font-size="10.00">void showMenu(Scanner scanner, Pharmacist</text>
<text text-anchor="start" x="14" y="-5.25" font-family="Helvetica,sans-Serif" font-size="10.00"> pharmacist)</text>
<polygon fill="#666666" stroke="#666666" points="0,-58 0,-58 217,-58 217,-58 0,-58"/>
<polygon fill="#666666" stroke="#666666" points="0,-43 0,-43 217,-43 217,-43 0,-43"/>
<polygon fill="none" stroke="#666666" points="0,0 0,-75 217,-75 217,0 0,0"/>
</a>
</g>
</g>
</g>
</svg>
