<?xml version="1.0" encoding="UTF-8" standalone="no"?>
<!DOCTYPE svg PUBLIC "-//W3C//DTD SVG 1.1//EN"
 "http://www.w3.org/Graphics/SVG/1.1/DTD/svg11.dtd">
<!-- Generated by graphviz version 12.1.2 (20240928.0832)
 -->
<!-- Title: db.DataLoader&lt; T &gt; Pages: 1 -->
<svg width="1177pt" height="546pt"
 viewBox="0.00 0.00 1176.50 546.25" xmlns="http://www.w3.org/2000/svg" xmlns:xlink="http://www.w3.org/1999/xlink">
<g id="graph0" class="graph" transform="scale(1 1) rotate(0) translate(4 542.25)">
<title>db.DataLoader&lt; T &gt;</title>
<!-- Node1 -->
<g id="Node000001" class="node">
<title>Node1</title>
<g id="a_Node000001"><a xlink:title="Abstract base class for loading and saving data from files.">
<polygon fill="#999999" stroke="none" points="682,-538.25 483,-538.25 483,-373.25 682,-373.25 682,-538.25"/>
<text text-anchor="start" x="538.62" y="-524.75" font-family="Helvetica,sans-Serif" font-size="10.00">db.DataLoader&lt; T &gt;</text>
<text text-anchor="start" x="487" y="-509.75" font-family="Helvetica,sans-Serif" font-size="10.00">+</text>
<text text-anchor="start" x="497" y="-509.75" font-family="Helvetica,sans-Serif" font-size="10.00">static final String SEPARATOR</text>
<text text-anchor="start" x="487.38" y="-494.75" font-family="Helvetica,sans-Serif" font-size="10.00">#</text>
<text text-anchor="start" x="497" y="-494.75" font-family="Helvetica,sans-Serif" font-size="10.00">String filePath</text>
<text text-anchor="start" x="487" y="-479.75" font-family="Helvetica,sans-Serif" font-size="10.00">+</text>
<text text-anchor="start" x="497" y="-479.75" font-family="Helvetica,sans-Serif" font-size="10.00">DataLoader(String filePath)</text>
<text text-anchor="start" x="487" y="-464.75" font-family="Helvetica,sans-Serif" font-size="10.00">+</text>
<text text-anchor="start" x="497" y="-464.75" font-family="Helvetica,sans-Serif" font-size="10.00">abstract void loadData()</text>
<text text-anchor="start" x="487" y="-449.75" font-family="Helvetica,sans-Serif" font-size="10.00">+</text>
<text text-anchor="start" x="497" y="-449.75" font-family="Helvetica,sans-Serif" font-size="10.00">abstract void saveData()</text>
<text text-anchor="start" x="487" y="-434.75" font-family="Helvetica,sans-Serif" font-size="10.00">+</text>
<text text-anchor="start" x="497" y="-434.75" font-family="Helvetica,sans-Serif" font-size="10.00">static List&lt; String &gt; read(String fileName)</text>
<text text-anchor="start" x="487" y="-419.75" font-family="Helvetica,sans-Serif" font-size="10.00">+</text>
<text text-anchor="start" x="497" y="-419.75" font-family="Helvetica,sans-Serif" font-size="10.00">static void write(String fileName, List</text>
<text text-anchor="start" x="497" y="-408.5" font-family="Helvetica,sans-Serif" font-size="10.00">&lt; String &gt; data)</text>
<text text-anchor="start" x="487.38" y="-393.75" font-family="Helvetica,sans-Serif" font-size="10.00">#</text>
<text text-anchor="start" x="497" y="-393.75" font-family="Helvetica,sans-Serif" font-size="10.00">abstract T deserialize(String data)</text>
<text text-anchor="start" x="487.38" y="-378.75" font-family="Helvetica,sans-Serif" font-size="10.00">#</text>
<text text-anchor="start" x="497" y="-378.75" font-family="Helvetica,sans-Serif" font-size="10.00">abstract String serialize(T data)</text>
<polygon fill="#666666" stroke="#666666" points="483,-521.25 483,-521.25 682,-521.25 682,-521.25 483,-521.25"/>
<polygon fill="#666666" stroke="#666666" points="483,-491.25 483,-491.25 495,-491.25 495,-491.25 483,-491.25"/>
<polygon fill="#666666" stroke="#666666" points="495,-491.25 495,-491.25 682,-491.25 682,-491.25 495,-491.25"/>
<polygon fill="none" stroke="#666666" points="483,-373.25 483,-538.25 682,-538.25 682,-373.25 483,-373.25"/>
</a>
</g>
</g>
<!-- Node2 -->
<g id="Node000002" class="node">
<title>Node2</title>
<g id="a_Node000002"><a xlink:href="classdb_1_1_data_loader.html" target="_top" xlink:title=" ">
<polygon fill="white" stroke="none" points="227,-326 28,-326 28,-161 227,-161 227,-326"/>
<text text-anchor="start" x="59.62" y="-312.5" font-family="Helvetica,sans-Serif" font-size="10.00">db.DataLoader&lt; Appointment &gt;</text>
<text text-anchor="start" x="32" y="-297.5" font-family="Helvetica,sans-Serif" font-size="10.00">+</text>
<text text-anchor="start" x="42" y="-297.5" font-family="Helvetica,sans-Serif" font-size="10.00">static final String SEPARATOR</text>
<text text-anchor="start" x="32.38" y="-282.5" font-family="Helvetica,sans-Serif" font-size="10.00">#</text>
<text text-anchor="start" x="42" y="-282.5" font-family="Helvetica,sans-Serif" font-size="10.00">String filePath</text>
<text text-anchor="start" x="32" y="-267.5" font-family="Helvetica,sans-Serif" font-size="10.00">+</text>
<text text-anchor="start" x="42" y="-267.5" font-family="Helvetica,sans-Serif" font-size="10.00">DataLoader(String filePath)</text>
<text text-anchor="start" x="32" y="-252.5" font-family="Helvetica,sans-Serif" font-size="10.00">+</text>
<text text-anchor="start" x="42" y="-252.5" font-family="Helvetica,sans-Serif" font-size="10.00">abstract void loadData()</text>
<text text-anchor="start" x="32" y="-237.5" font-family="Helvetica,sans-Serif" font-size="10.00">+</text>
<text text-anchor="start" x="42" y="-237.5" font-family="Helvetica,sans-Serif" font-size="10.00">abstract void saveData()</text>
<text text-anchor="start" x="32" y="-222.5" font-family="Helvetica,sans-Serif" font-size="10.00">+</text>
<text text-anchor="start" x="42" y="-222.5" font-family="Helvetica,sans-Serif" font-size="10.00">static List&lt; String &gt; read(String fileName)</text>
<text text-anchor="start" x="32" y="-207.5" font-family="Helvetica,sans-Serif" font-size="10.00">+</text>
<text text-anchor="start" x="42" y="-207.5" font-family="Helvetica,sans-Serif" font-size="10.00">static void write(String fileName, List</text>
<text text-anchor="start" x="42" y="-196.25" font-family="Helvetica,sans-Serif" font-size="10.00">&lt; String &gt; data)</text>
<text text-anchor="start" x="32.38" y="-181.5" font-family="Helvetica,sans-Serif" font-size="10.00">#</text>
<text text-anchor="start" x="42" y="-181.5" font-family="Helvetica,sans-Serif" font-size="10.00">abstract T deserialize(String data)</text>
<text text-anchor="start" x="32.38" y="-166.5" font-family="Helvetica,sans-Serif" font-size="10.00">#</text>
<text text-anchor="start" x="42" y="-166.5" font-family="Helvetica,sans-Serif" font-size="10.00">abstract String serialize(T data)</text>
<polygon fill="#666666" stroke="#666666" points="28,-309 28,-309 227,-309 227,-309 28,-309"/>
<polygon fill="#666666" stroke="#666666" points="28,-279 28,-279 40,-279 40,-279 28,-279"/>
<polygon fill="#666666" stroke="#666666" points="40,-279 40,-279 227,-279 227,-279 40,-279"/>
<polygon fill="none" stroke="#666666" points="28,-161 28,-326 227,-326 227,-161 28,-161"/>
</a>
</g>
</g>
<!-- Node1&#45;&gt;Node2 -->
<g id="edge1_Node000001_Node000002" class="edge">
<title>Node1&#45;&gt;Node2</title>
<g id="a_edge1_Node000001_Node000002"><a xlink:title=" ">
<path fill="none" stroke="orange" d="M472.31,-418.47C406.69,-395.26 322.62,-362.68 251.5,-326 243.37,-321.81 235.11,-317.21 226.92,-312.4"/>
<polygon fill="orange" stroke="orange" points="471.07,-421.74 481.66,-421.75 473.39,-415.14 471.07,-421.74"/>
</a>
</g>
<text text-anchor="middle" x="341.26" y="-345.75" font-family="Helvetica,sans-Serif" font-size="10.00" fill="grey"> &lt; Appointment &gt;</text>
</g>
<!-- Node4 -->
<g id="Node000004" class="node">
<title>Node4</title>
<g id="a_Node000004"><a xlink:href="classdb_1_1_data_loader.html" target="_top" xlink:title=" ">
<polygon fill="white" stroke="none" points="460,-326 261,-326 261,-161 460,-161 460,-326"/>
<text text-anchor="start" x="287" y="-312.5" font-family="Helvetica,sans-Serif" font-size="10.00">db.DataLoader&lt; MedicalRecord &gt;</text>
<text text-anchor="start" x="265" y="-297.5" font-family="Helvetica,sans-Serif" font-size="10.00">+</text>
<text text-anchor="start" x="275" y="-297.5" font-family="Helvetica,sans-Serif" font-size="10.00">static final String SEPARATOR</text>
<text text-anchor="start" x="265.38" y="-282.5" font-family="Helvetica,sans-Serif" font-size="10.00">#</text>
<text text-anchor="start" x="275" y="-282.5" font-family="Helvetica,sans-Serif" font-size="10.00">String filePath</text>
<text text-anchor="start" x="265" y="-267.5" font-family="Helvetica,sans-Serif" font-size="10.00">+</text>
<text text-anchor="start" x="275" y="-267.5" font-family="Helvetica,sans-Serif" font-size="10.00">DataLoader(String filePath)</text>
<text text-anchor="start" x="265" y="-252.5" font-family="Helvetica,sans-Serif" font-size="10.00">+</text>
<text text-anchor="start" x="275" y="-252.5" font-family="Helvetica,sans-Serif" font-size="10.00">abstract void loadData()</text>
<text text-anchor="start" x="265" y="-237.5" font-family="Helvetica,sans-Serif" font-size="10.00">+</text>
<text text-anchor="start" x="275" y="-237.5" font-family="Helvetica,sans-Serif" font-size="10.00">abstract void saveData()</text>
<text text-anchor="start" x="265" y="-222.5" font-family="Helvetica,sans-Serif" font-size="10.00">+</text>
<text text-anchor="start" x="275" y="-222.5" font-family="Helvetica,sans-Serif" font-size="10.00">static List&lt; String &gt; read(String fileName)</text>
<text text-anchor="start" x="265" y="-207.5" font-family="Helvetica,sans-Serif" font-size="10.00">+</text>
<text text-anchor="start" x="275" y="-207.5" font-family="Helvetica,sans-Serif" font-size="10.00">static void write(String fileName, List</text>
<text text-anchor="start" x="275" y="-196.25" font-family="Helvetica,sans-Serif" font-size="10.00">&lt; String &gt; data)</text>
<text text-anchor="start" x="265.38" y="-181.5" font-family="Helvetica,sans-Serif" font-size="10.00">#</text>
<text text-anchor="start" x="275" y="-181.5" font-family="Helvetica,sans-Serif" font-size="10.00">abstract T deserialize(String data)</text>
<text text-anchor="start" x="265.38" y="-166.5" font-family="Helvetica,sans-Serif" font-size="10.00">#</text>
<text text-anchor="start" x="275" y="-166.5" font-family="Helvetica,sans-Serif" font-size="10.00">abstract String serialize(T data)</text>
<polygon fill="#666666" stroke="#666666" points="261,-309 261,-309 460,-309 460,-309 261,-309"/>
<polygon fill="#666666" stroke="#666666" points="261,-279 261,-279 273,-279 273,-279 261,-279"/>
<polygon fill="#666666" stroke="#666666" points="273,-279 273,-279 460,-279 460,-279 273,-279"/>
<polygon fill="none" stroke="#666666" points="261,-161 261,-326 460,-326 460,-161 261,-161"/>
</a>
</g>
</g>
<!-- Node1&#45;&gt;Node4 -->
<g id="edge3_Node000001_Node000004" class="edge">
<title>Node1&#45;&gt;Node4</title>
<g id="a_edge3_Node000001_Node000004"><a xlink:title=" ">
<path fill="none" stroke="orange" d="M488.51,-365.73C474.56,-352.52 460.24,-338.96 446.47,-325.92"/>
<polygon fill="orange" stroke="orange" points="485.9,-368.09 495.57,-372.42 490.72,-363 485.9,-368.09"/>
</a>
</g>
<text text-anchor="middle" x="514.62" y="-345.75" font-family="Helvetica,sans-Serif" font-size="10.00" fill="grey"> &lt; MedicalRecord &gt;</text>
</g>
<!-- Node6 -->
<g id="Node000006" class="node">
<title>Node6</title>
<g id="a_Node000006"><a xlink:href="classdb_1_1_data_loader.html" target="_top" xlink:title=" ">
<polygon fill="white" stroke="none" points="682,-326 483,-326 483,-161 682,-161 682,-326"/>
<text text-anchor="start" x="518" y="-312.5" font-family="Helvetica,sans-Serif" font-size="10.00">db.DataLoader&lt; Medication &gt;</text>
<text text-anchor="start" x="487" y="-297.5" font-family="Helvetica,sans-Serif" font-size="10.00">+</text>
<text text-anchor="start" x="497" y="-297.5" font-family="Helvetica,sans-Serif" font-size="10.00">static final String SEPARATOR</text>
<text text-anchor="start" x="487.38" y="-282.5" font-family="Helvetica,sans-Serif" font-size="10.00">#</text>
<text text-anchor="start" x="497" y="-282.5" font-family="Helvetica,sans-Serif" font-size="10.00">String filePath</text>
<text text-anchor="start" x="487" y="-267.5" font-family="Helvetica,sans-Serif" font-size="10.00">+</text>
<text text-anchor="start" x="497" y="-267.5" font-family="Helvetica,sans-Serif" font-size="10.00">DataLoader(String filePath)</text>
<text text-anchor="start" x="487" y="-252.5" font-family="Helvetica,sans-Serif" font-size="10.00">+</text>
<text text-anchor="start" x="497" y="-252.5" font-family="Helvetica,sans-Serif" font-size="10.00">abstract void loadData()</text>
<text text-anchor="start" x="487" y="-237.5" font-family="Helvetica,sans-Serif" font-size="10.00">+</text>
<text text-anchor="start" x="497" y="-237.5" font-family="Helvetica,sans-Serif" font-size="10.00">abstract void saveData()</text>
<text text-anchor="start" x="487" y="-222.5" font-family="Helvetica,sans-Serif" font-size="10.00">+</text>
<text text-anchor="start" x="497" y="-222.5" font-family="Helvetica,sans-Serif" font-size="10.00">static List&lt; String &gt; read(String fileName)</text>
<text text-anchor="start" x="487" y="-207.5" font-family="Helvetica,sans-Serif" font-size="10.00">+</text>
<text text-anchor="start" x="497" y="-207.5" font-family="Helvetica,sans-Serif" font-size="10.00">static void write(String fileName, List</text>
<text text-anchor="start" x="497" y="-196.25" font-family="Helvetica,sans-Serif" font-size="10.00">&lt; String &gt; data)</text>
<text text-anchor="start" x="487.38" y="-181.5" font-family="Helvetica,sans-Serif" font-size="10.00">#</text>
<text text-anchor="start" x="497" y="-181.5" font-family="Helvetica,sans-Serif" font-size="10.00">abstract T deserialize(String data)</text>
<text text-anchor="start" x="487.38" y="-166.5" font-family="Helvetica,sans-Serif" font-size="10.00">#</text>
<text text-anchor="start" x="497" y="-166.5" font-family="Helvetica,sans-Serif" font-size="10.00">abstract String serialize(T data)</text>
<polygon fill="#666666" stroke="#666666" points="483,-309 483,-309 682,-309 682,-309 483,-309"/>
<polygon fill="#666666" stroke="#666666" points="483,-279 483,-279 495,-279 495,-279 483,-279"/>
<polygon fill="#666666" stroke="#666666" points="495,-279 495,-279 682,-279 682,-279 495,-279"/>
<polygon fill="none" stroke="#666666" points="483,-161 483,-326 682,-326 682,-161 483,-161"/>
</a>
</g>
</g>
<!-- Node1&#45;&gt;Node6 -->
<g id="edge5_Node000001_Node000006" class="edge">
<title>Node1&#45;&gt;Node6</title>
<g id="a_edge5_Node000001_Node000006"><a xlink:title=" ">
<path fill="none" stroke="orange" d="M582.5,-362.02C582.5,-349.99 582.5,-337.74 582.5,-325.92"/>
<polygon fill="orange" stroke="orange" points="579,-361.95 582.5,-371.95 586,-361.95 579,-361.95"/>
</a>
</g>
<text text-anchor="middle" x="616.62" y="-345.75" font-family="Helvetica,sans-Serif" font-size="10.00" fill="grey"> &lt; Medication &gt;</text>
</g>
<!-- Node8 -->
<g id="Node000008" class="node">
<title>Node8</title>
<g id="a_Node000008"><a xlink:href="classdb_1_1_data_loader.html" target="_top" xlink:title=" ">
<polygon fill="white" stroke="none" points="923,-326 724,-326 724,-161 923,-161 923,-326"/>
<text text-anchor="start" x="731.62" y="-312.5" font-family="Helvetica,sans-Serif" font-size="10.00">db.DataLoader&lt; ReplenishmentRequest &gt;</text>
<text text-anchor="start" x="728" y="-297.5" font-family="Helvetica,sans-Serif" font-size="10.00">+</text>
<text text-anchor="start" x="738" y="-297.5" font-family="Helvetica,sans-Serif" font-size="10.00">static final String SEPARATOR</text>
<text text-anchor="start" x="728.38" y="-282.5" font-family="Helvetica,sans-Serif" font-size="10.00">#</text>
<text text-anchor="start" x="738" y="-282.5" font-family="Helvetica,sans-Serif" font-size="10.00">String filePath</text>
<text text-anchor="start" x="728" y="-267.5" font-family="Helvetica,sans-Serif" font-size="10.00">+</text>
<text text-anchor="start" x="738" y="-267.5" font-family="Helvetica,sans-Serif" font-size="10.00">DataLoader(String filePath)</text>
<text text-anchor="start" x="728" y="-252.5" font-family="Helvetica,sans-Serif" font-size="10.00">+</text>
<text text-anchor="start" x="738" y="-252.5" font-family="Helvetica,sans-Serif" font-size="10.00">abstract void loadData()</text>
<text text-anchor="start" x="728" y="-237.5" font-family="Helvetica,sans-Serif" font-size="10.00">+</text>
<text text-anchor="start" x="738" y="-237.5" font-family="Helvetica,sans-Serif" font-size="10.00">abstract void saveData()</text>
<text text-anchor="start" x="728" y="-222.5" font-family="Helvetica,sans-Serif" font-size="10.00">+</text>
<text text-anchor="start" x="738" y="-222.5" font-family="Helvetica,sans-Serif" font-size="10.00">static List&lt; String &gt; read(String fileName)</text>
<text text-anchor="start" x="728" y="-207.5" font-family="Helvetica,sans-Serif" font-size="10.00">+</text>
<text text-anchor="start" x="738" y="-207.5" font-family="Helvetica,sans-Serif" font-size="10.00">static void write(String fileName, List</text>
<text text-anchor="start" x="738" y="-196.25" font-family="Helvetica,sans-Serif" font-size="10.00">&lt; String &gt; data)</text>
<text text-anchor="start" x="728.38" y="-181.5" font-family="Helvetica,sans-Serif" font-size="10.00">#</text>
<text text-anchor="start" x="738" y="-181.5" font-family="Helvetica,sans-Serif" font-size="10.00">abstract T deserialize(String data)</text>
<text text-anchor="start" x="728.38" y="-166.5" font-family="Helvetica,sans-Serif" font-size="10.00">#</text>
<text text-anchor="start" x="738" y="-166.5" font-family="Helvetica,sans-Serif" font-size="10.00">abstract String serialize(T data)</text>
<polygon fill="#666666" stroke="#666666" points="724,-309 724,-309 923,-309 923,-309 724,-309"/>
<polygon fill="#666666" stroke="#666666" points="724,-279 724,-279 736,-279 736,-279 724,-279"/>
<polygon fill="#666666" stroke="#666666" points="736,-279 736,-279 923,-279 923,-279 736,-279"/>
<polygon fill="none" stroke="#666666" points="724,-161 724,-326 923,-326 923,-161 724,-161"/>
</a>
</g>
</g>
<!-- Node1&#45;&gt;Node8 -->
<g id="edge7_Node000001_Node000008" class="edge">
<title>Node1&#45;&gt;Node8</title>
<g id="a_edge7_Node000001_Node000008"><a xlink:title=" ">
<path fill="none" stroke="orange" d="M684.11,-366.1C699.39,-352.77 715.08,-339.08 730.17,-325.92"/>
<polygon fill="orange" stroke="orange" points="682.05,-363.26 676.82,-372.47 686.65,-368.53 682.05,-363.26"/>
</a>
</g>
<text text-anchor="middle" x="764.5" y="-345.75" font-family="Helvetica,sans-Serif" font-size="10.00" fill="grey"> &lt; ReplenishmentRequest &gt;</text>
</g>
<!-- Node10 -->
<g id="Node000010" class="node">
<title>Node10</title>
<g id="a_Node000010"><a xlink:href="classdb_1_1_data_loader.html" target="_top" xlink:title=" ">
<polygon fill="white" stroke="none" points="1164,-326 965,-326 965,-161 1164,-161 1164,-326"/>
<text text-anchor="start" x="1013.12" y="-312.5" font-family="Helvetica,sans-Serif" font-size="10.00">db.DataLoader&lt; User &gt;</text>
<text text-anchor="start" x="969" y="-297.5" font-family="Helvetica,sans-Serif" font-size="10.00">+</text>
<text text-anchor="start" x="979" y="-297.5" font-family="Helvetica,sans-Serif" font-size="10.00">static final String SEPARATOR</text>
<text text-anchor="start" x="969.38" y="-282.5" font-family="Helvetica,sans-Serif" font-size="10.00">#</text>
<text text-anchor="start" x="979" y="-282.5" font-family="Helvetica,sans-Serif" font-size="10.00">String filePath</text>
<text text-anchor="start" x="969" y="-267.5" font-family="Helvetica,sans-Serif" font-size="10.00">+</text>
<text text-anchor="start" x="979" y="-267.5" font-family="Helvetica,sans-Serif" font-size="10.00">DataLoader(String filePath)</text>
<text text-anchor="start" x="969" y="-252.5" font-family="Helvetica,sans-Serif" font-size="10.00">+</text>
<text text-anchor="start" x="979" y="-252.5" font-family="Helvetica,sans-Serif" font-size="10.00">abstract void loadData()</text>
<text text-anchor="start" x="969" y="-237.5" font-family="Helvetica,sans-Serif" font-size="10.00">+</text>
<text text-anchor="start" x="979" y="-237.5" font-family="Helvetica,sans-Serif" font-size="10.00">abstract void saveData()</text>
<text text-anchor="start" x="969" y="-222.5" font-family="Helvetica,sans-Serif" font-size="10.00">+</text>
<text text-anchor="start" x="979" y="-222.5" font-family="Helvetica,sans-Serif" font-size="10.00">static List&lt; String &gt; read(String fileName)</text>
<text text-anchor="start" x="969" y="-207.5" font-family="Helvetica,sans-Serif" font-size="10.00">+</text>
<text text-anchor="start" x="979" y="-207.5" font-family="Helvetica,sans-Serif" font-size="10.00">static void write(String fileName, List</text>
<text text-anchor="start" x="979" y="-196.25" font-family="Helvetica,sans-Serif" font-size="10.00">&lt; String &gt; data)</text>
<text text-anchor="start" x="969.38" y="-181.5" font-family="Helvetica,sans-Serif" font-size="10.00">#</text>
<text text-anchor="start" x="979" y="-181.5" font-family="Helvetica,sans-Serif" font-size="10.00">abstract T deserialize(String data)</text>
<text text-anchor="start" x="969.38" y="-166.5" font-family="Helvetica,sans-Serif" font-size="10.00">#</text>
<text text-anchor="start" x="979" y="-166.5" font-family="Helvetica,sans-Serif" font-size="10.00">abstract String serialize(T data)</text>
<polygon fill="#666666" stroke="#666666" points="965,-309 965,-309 1164,-309 1164,-309 965,-309"/>
<polygon fill="#666666" stroke="#666666" points="965,-279 965,-279 977,-279 977,-279 965,-279"/>
<polygon fill="#666666" stroke="#666666" points="977,-279 977,-279 1164,-279 1164,-279 977,-279"/>
<polygon fill="none" stroke="#666666" points="965,-161 965,-326 1164,-326 1164,-161 965,-161"/>
</a>
</g>
</g>
<!-- Node1&#45;&gt;Node10 -->
<g id="edge9_Node000001_Node000010" class="edge">
<title>Node1&#45;&gt;Node10</title>
<g id="a_edge9_Node000001_Node000010"><a xlink:title=" ">
<path fill="none" stroke="orange" d="M692.25,-420.44C762.16,-397.09 853.85,-363.66 931.5,-326 942.59,-320.62 953.93,-314.58 965.1,-308.28"/>
<polygon fill="orange" stroke="orange" points="691.49,-417.01 683.1,-423.48 693.69,-423.65 691.49,-417.01"/>
</a>
</g>
<text text-anchor="middle" x="906.58" y="-345.75" font-family="Helvetica,sans-Serif" font-size="10.00" fill="grey"> &lt; User &gt;</text>
</g>
<!-- Node3 -->
<g id="Node000003" class="node">
<title>Node3</title>
<g id="a_Node000003"><a xlink:href="classdb_1_1_appointments_loader.html" target="_top" xlink:title="Handles loading, saving, and managing appointment data from a file.">
<polygon fill="white" stroke="none" points="231,-124 0,-124 0,0 231,0 231,-124"/>
<text text-anchor="start" x="64.12" y="-110.5" font-family="Helvetica,sans-Serif" font-size="10.00">db.AppointmentsLoader</text>
<text text-anchor="start" x="114" y="-95.5" font-family="Helvetica,sans-Serif" font-size="10.00"> </text>
<text text-anchor="start" x="4" y="-80.5" font-family="Helvetica,sans-Serif" font-size="10.00">+</text>
<text text-anchor="start" x="14" y="-80.5" font-family="Helvetica,sans-Serif" font-size="10.00">AppointmentsLoader(String filePath)</text>
<text text-anchor="start" x="4" y="-65.5" font-family="Helvetica,sans-Serif" font-size="10.00">+</text>
<text text-anchor="start" x="14" y="-65.5" font-family="Helvetica,sans-Serif" font-size="10.00">void loadData()</text>
<text text-anchor="start" x="4" y="-50.5" font-family="Helvetica,sans-Serif" font-size="10.00">+</text>
<text text-anchor="start" x="14" y="-50.5" font-family="Helvetica,sans-Serif" font-size="10.00">void saveData()</text>
<text text-anchor="start" x="4" y="-35.5" font-family="Helvetica,sans-Serif" font-size="10.00">+</text>
<text text-anchor="start" x="14" y="-35.5" font-family="Helvetica,sans-Serif" font-size="10.00">List&lt; Appointment &gt; getAppointments()</text>
<text text-anchor="start" x="4.38" y="-20.5" font-family="Helvetica,sans-Serif" font-size="10.00">#</text>
<text text-anchor="start" x="14" y="-20.5" font-family="Helvetica,sans-Serif" font-size="10.00">Appointment deserialize(String appointmentData)</text>
<text text-anchor="start" x="4.38" y="-5.5" font-family="Helvetica,sans-Serif" font-size="10.00">#</text>
<text text-anchor="start" x="14" y="-5.5" font-family="Helvetica,sans-Serif" font-size="10.00">String serialize(Appointment appointment)</text>
<polygon fill="#666666" stroke="#666666" points="0,-107 0,-107 231,-107 231,-107 0,-107"/>
<polygon fill="#666666" stroke="#666666" points="0,-92 0,-92 231,-92 231,-92 0,-92"/>
<polygon fill="none" stroke="#666666" points="0,0 0,-124 231,-124 231,0 0,0"/>
</a>
</g>
</g>
<!-- Node2&#45;&gt;Node3 -->
<g id="edge2_Node000002_Node000003" class="edge">
<title>Node2&#45;&gt;Node3</title>
<g id="a_edge2_Node000002_Node000003"><a xlink:title=" ">
<path fill="none" stroke="#63b8ff" d="M121.29,-149.67C120.71,-140.94 120.13,-132.24 119.57,-123.91"/>
<polygon fill="none" stroke="#63b8ff" points="117.8,-149.9 121.96,-159.64 124.79,-149.43 117.8,-149.9"/>
</a>
</g>
</g>
<!-- Node5 -->
<g id="Node000005" class="node">
<title>Node5</title>
<g id="a_Node000005"><a xlink:href="classdb_1_1_medical_record_loader.html" target="_top" xlink:title="Class responsible for loading and saving MedicalRecord data from and to files.">
<polygon fill="white" stroke="none" points="459.5,-124 249.5,-124 249.5,0 459.5,0 459.5,-124"/>
<text text-anchor="start" x="300.5" y="-110.5" font-family="Helvetica,sans-Serif" font-size="10.00">db.MedicalRecordLoader</text>
<text text-anchor="start" x="353" y="-95.5" font-family="Helvetica,sans-Serif" font-size="10.00"> </text>
<text text-anchor="start" x="253.5" y="-80.5" font-family="Helvetica,sans-Serif" font-size="10.00">+</text>
<text text-anchor="start" x="263.5" y="-80.5" font-family="Helvetica,sans-Serif" font-size="10.00">MedicalRecordLoader(String filePath)</text>
<text text-anchor="start" x="253.5" y="-65.5" font-family="Helvetica,sans-Serif" font-size="10.00">+</text>
<text text-anchor="start" x="263.5" y="-65.5" font-family="Helvetica,sans-Serif" font-size="10.00">void loadData()</text>
<text text-anchor="start" x="253.5" y="-50.5" font-family="Helvetica,sans-Serif" font-size="10.00">+</text>
<text text-anchor="start" x="263.5" y="-50.5" font-family="Helvetica,sans-Serif" font-size="10.00">void saveData()</text>
<text text-anchor="start" x="253.5" y="-35.5" font-family="Helvetica,sans-Serif" font-size="10.00">+</text>
<text text-anchor="start" x="263.5" y="-35.5" font-family="Helvetica,sans-Serif" font-size="10.00">List&lt; MedicalRecord &gt; getMedicalRecords()</text>
<text text-anchor="start" x="253.88" y="-20.5" font-family="Helvetica,sans-Serif" font-size="10.00">#</text>
<text text-anchor="start" x="263.5" y="-20.5" font-family="Helvetica,sans-Serif" font-size="10.00">MedicalRecord deserialize(String data)</text>
<text text-anchor="start" x="253.88" y="-5.5" font-family="Helvetica,sans-Serif" font-size="10.00">#</text>
<text text-anchor="start" x="263.5" y="-5.5" font-family="Helvetica,sans-Serif" font-size="10.00">String serialize(MedicalRecord record)</text>
<polygon fill="#666666" stroke="#666666" points="249.5,-107 249.5,-107 459.5,-107 459.5,-107 249.5,-107"/>
<polygon fill="#666666" stroke="#666666" points="249.5,-92 249.5,-92 459.5,-92 459.5,-92 249.5,-92"/>
<polygon fill="none" stroke="#666666" points="249.5,0 249.5,-124 459.5,-124 459.5,0 249.5,0"/>
</a>
</g>
</g>
<!-- Node4&#45;&gt;Node5 -->
<g id="edge4_Node000004_Node000005" class="edge">
<title>Node4&#45;&gt;Node5</title>
<g id="a_edge4_Node000004_Node000005"><a xlink:title=" ">
<path fill="none" stroke="#63b8ff" d="M357.4,-149.67C357.11,-140.94 356.81,-132.24 356.54,-123.91"/>
<polygon fill="none" stroke="#63b8ff" points="353.9,-149.76 357.73,-159.64 360.89,-149.53 353.9,-149.76"/>
</a>
</g>
</g>
<!-- Node7 -->
<g id="Node000007" class="node">
<title>Node7</title>
<g id="a_Node000007"><a xlink:href="classdb_1_1_medication_inventory_loader.html" target="_top" xlink:title="Handles the loading and saving of medication inventory data from/to a file.">
<polygon fill="white" stroke="none" points="687,-124 478,-124 478,0 687,0 687,-124"/>
<text text-anchor="start" x="517.25" y="-110.5" font-family="Helvetica,sans-Serif" font-size="10.00">db.MedicationInventoryLoader</text>
<text text-anchor="start" x="581" y="-95.5" font-family="Helvetica,sans-Serif" font-size="10.00"> </text>
<text text-anchor="start" x="482" y="-80.5" font-family="Helvetica,sans-Serif" font-size="10.00">+</text>
<text text-anchor="start" x="492" y="-80.5" font-family="Helvetica,sans-Serif" font-size="10.00">MedicationInventoryLoader(String filePath)</text>
<text text-anchor="start" x="482" y="-65.5" font-family="Helvetica,sans-Serif" font-size="10.00">+</text>
<text text-anchor="start" x="492" y="-65.5" font-family="Helvetica,sans-Serif" font-size="10.00">void loadData()</text>
<text text-anchor="start" x="482" y="-50.5" font-family="Helvetica,sans-Serif" font-size="10.00">+</text>
<text text-anchor="start" x="492" y="-50.5" font-family="Helvetica,sans-Serif" font-size="10.00">void saveData()</text>
<text text-anchor="start" x="482" y="-35.5" font-family="Helvetica,sans-Serif" font-size="10.00">+</text>
<text text-anchor="start" x="492" y="-35.5" font-family="Helvetica,sans-Serif" font-size="10.00">List&lt; Medication &gt; getMedicationInventory()</text>
<text text-anchor="start" x="482.38" y="-20.5" font-family="Helvetica,sans-Serif" font-size="10.00">#</text>
<text text-anchor="start" x="492" y="-20.5" font-family="Helvetica,sans-Serif" font-size="10.00">Medication deserialize(String data)</text>
<text text-anchor="start" x="482.38" y="-5.5" font-family="Helvetica,sans-Serif" font-size="10.00">#</text>
<text text-anchor="start" x="492" y="-5.5" font-family="Helvetica,sans-Serif" font-size="10.00">String serialize(Medication medication)</text>
<polygon fill="#666666" stroke="#666666" points="478,-107 478,-107 687,-107 687,-107 478,-107"/>
<polygon fill="#666666" stroke="#666666" points="478,-92 478,-92 687,-92 687,-92 478,-92"/>
<polygon fill="none" stroke="#666666" points="478,0 478,-124 687,-124 687,0 478,0"/>
</a>
</g>
</g>
<!-- Node6&#45;&gt;Node7 -->
<g id="edge6_Node000006_Node000007" class="edge">
<title>Node6&#45;&gt;Node7</title>
<g id="a_edge6_Node000006_Node000007"><a xlink:title=" ">
<path fill="none" stroke="#63b8ff" d="M582.5,-149.67C582.5,-140.94 582.5,-132.24 582.5,-123.91"/>
<polygon fill="none" stroke="#63b8ff" points="579,-149.64 582.5,-159.64 586,-149.64 579,-149.64"/>
</a>
</g>
</g>
<!-- Node9 -->
<g id="Node000009" class="node">
<title>Node9</title>
<g id="a_Node000009"><a xlink:href="classdb_1_1_replenishment_requests_loader.html" target="_top" xlink:title="Manages the loading and saving of replenishment requests data from/to a file.">
<polygon fill="white" stroke="none" points="988,-124 705,-124 705,0 988,0 988,-124"/>
<text text-anchor="start" x="771.5" y="-110.5" font-family="Helvetica,sans-Serif" font-size="10.00">db.ReplenishmentRequestsLoader</text>
<text text-anchor="start" x="845" y="-95.5" font-family="Helvetica,sans-Serif" font-size="10.00"> </text>
<text text-anchor="start" x="709" y="-80.5" font-family="Helvetica,sans-Serif" font-size="10.00">+</text>
<text text-anchor="start" x="719" y="-80.5" font-family="Helvetica,sans-Serif" font-size="10.00">ReplenishmentRequestsLoader(String filePath)</text>
<text text-anchor="start" x="709" y="-65.5" font-family="Helvetica,sans-Serif" font-size="10.00">+</text>
<text text-anchor="start" x="719" y="-65.5" font-family="Helvetica,sans-Serif" font-size="10.00">void loadData()</text>
<text text-anchor="start" x="709" y="-50.5" font-family="Helvetica,sans-Serif" font-size="10.00">+</text>
<text text-anchor="start" x="719" y="-50.5" font-family="Helvetica,sans-Serif" font-size="10.00">void saveData()</text>
<text text-anchor="start" x="709" y="-35.5" font-family="Helvetica,sans-Serif" font-size="10.00">+</text>
<text text-anchor="start" x="719" y="-35.5" font-family="Helvetica,sans-Serif" font-size="10.00">List&lt; ReplenishmentRequest &gt; getReplenishmentRequests()</text>
<text text-anchor="start" x="709.38" y="-20.5" font-family="Helvetica,sans-Serif" font-size="10.00">#</text>
<text text-anchor="start" x="719" y="-20.5" font-family="Helvetica,sans-Serif" font-size="10.00">ReplenishmentRequest deserialize(String data)</text>
<text text-anchor="start" x="709.38" y="-5.5" font-family="Helvetica,sans-Serif" font-size="10.00">#</text>
<text text-anchor="start" x="719" y="-5.5" font-family="Helvetica,sans-Serif" font-size="10.00">String serialize(ReplenishmentRequest request)</text>
<polygon fill="#666666" stroke="#666666" points="705,-107 705,-107 988,-107 988,-107 705,-107"/>
<polygon fill="#666666" stroke="#666666" points="705,-92 705,-92 988,-92 988,-92 705,-92"/>
<polygon fill="none" stroke="#666666" points="705,0 705,-124 988,-124 988,0 705,0"/>
</a>
</g>
</g>
<!-- Node8&#45;&gt;Node9 -->
<g id="edge8_Node000008_Node000009" class="edge">
<title>Node8&#45;&gt;Node9</title>
<g id="a_edge8_Node000008_Node000009"><a xlink:title=" ">
<path fill="none" stroke="#63b8ff" d="M835.36,-149.97C836.49,-141.13 837.62,-132.33 838.7,-123.91"/>
<polygon fill="none" stroke="#63b8ff" points="831.92,-149.29 834.12,-159.65 838.86,-150.18 831.92,-149.29"/>
</a>
</g>
</g>
<!-- Node11 -->
<g id="Node000011" class="node">
<title>Node11</title>
<g id="a_Node000011"><a xlink:href="classdb_1_1_users_loader.html" target="_top" xlink:title="Manages loading and saving of User objects (e.g., Administrator, Doctor, Patient, Pharmacist) from/to...">
<polygon fill="white" stroke="none" points="1168.5,-124 1006.5,-124 1006.5,0 1168.5,0 1168.5,-124"/>
<text text-anchor="start" x="1053" y="-110.5" font-family="Helvetica,sans-Serif" font-size="10.00">db.UsersLoader</text>
<text text-anchor="start" x="1086" y="-95.5" font-family="Helvetica,sans-Serif" font-size="10.00"> </text>
<text text-anchor="start" x="1010.5" y="-80.5" font-family="Helvetica,sans-Serif" font-size="10.00">+</text>
<text text-anchor="start" x="1020.5" y="-80.5" font-family="Helvetica,sans-Serif" font-size="10.00">UsersLoader(String filePath)</text>
<text text-anchor="start" x="1010.5" y="-65.5" font-family="Helvetica,sans-Serif" font-size="10.00">+</text>
<text text-anchor="start" x="1020.5" y="-65.5" font-family="Helvetica,sans-Serif" font-size="10.00">void loadData()</text>
<text text-anchor="start" x="1010.5" y="-50.5" font-family="Helvetica,sans-Serif" font-size="10.00">+</text>
<text text-anchor="start" x="1020.5" y="-50.5" font-family="Helvetica,sans-Serif" font-size="10.00">void saveData()</text>
<text text-anchor="start" x="1010.5" y="-35.5" font-family="Helvetica,sans-Serif" font-size="10.00">+</text>
<text text-anchor="start" x="1020.5" y="-35.5" font-family="Helvetica,sans-Serif" font-size="10.00">List&lt; User &gt; getUsers()</text>
<text text-anchor="start" x="1010.88" y="-20.5" font-family="Helvetica,sans-Serif" font-size="10.00">#</text>
<text text-anchor="start" x="1020.5" y="-20.5" font-family="Helvetica,sans-Serif" font-size="10.00">User deserialize(String userData)</text>
<text text-anchor="start" x="1010.88" y="-5.5" font-family="Helvetica,sans-Serif" font-size="10.00">#</text>
<text text-anchor="start" x="1020.5" y="-5.5" font-family="Helvetica,sans-Serif" font-size="10.00">String serialize(User user)</text>
<polygon fill="#666666" stroke="#666666" points="1006.5,-107 1006.5,-107 1168.5,-107 1168.5,-107 1006.5,-107"/>
<polygon fill="#666666" stroke="#666666" points="1006.5,-92 1006.5,-92 1168.5,-92 1168.5,-92 1006.5,-92"/>
<polygon fill="none" stroke="#666666" points="1006.5,0 1006.5,-124 1168.5,-124 1168.5,0 1006.5,0"/>
</a>
</g>
</g>
<!-- Node10&#45;&gt;Node11 -->
<g id="edge10_Node000010_Node000011" class="edge">
<title>Node10&#45;&gt;Node11</title>
<g id="a_edge10_Node000010_Node000011"><a xlink:title=" ">
<path fill="none" stroke="#63b8ff" d="M1076.36,-149.97C1077.49,-141.13 1078.62,-132.33 1079.7,-123.91"/>
<polygon fill="none" stroke="#63b8ff" points="1072.92,-149.29 1075.12,-159.65 1079.86,-150.18 1072.92,-149.29"/>
</a>
</g>
</g>
</g>
</svg>
