<?xml version="1.0" encoding="UTF-8" standalone="no"?>
<!DOCTYPE svg PUBLIC "-//W3C//DTD SVG 1.1//EN"
 "http://www.w3.org/Graphics/SVG/1.1/DTD/svg11.dtd">
<!-- Generated by graphviz version 12.1.2 (20240928.0832)
 -->
<!-- Title: items.Treatment.serialize Pages: 1 -->
<svg width="537pt" height="27pt"
 viewBox="0.00 0.00 536.75 27.25" xmlns="http://www.w3.org/2000/svg" xmlns:xlink="http://www.w3.org/1999/xlink">
<g id="graph0" class="graph" transform="scale(1 1) rotate(0) translate(4 23.25)">
<title>items.Treatment.serialize</title>
<!-- Node1 -->
<g id="Node000001" class="node">
<title>Node1</title>
<g id="a_Node000001"><a xlink:title="Serializes the Treatment object into a string.">
<polygon fill="#999999" stroke="#666666" points="528.75,-19.25 402.5,-19.25 402.5,0 528.75,0 528.75,-19.25"/>
<text text-anchor="middle" x="465.62" y="-5.75" font-family="Helvetica,sans-Serif" font-size="10.00">items.Treatment.serialize</text>
</a>
</g>
</g>
<!-- Node2 -->
<g id="Node000002" class="node">
<title>Node2</title>
<g id="a_Node000002"><a xlink:href="classdb_1_1_medical_record_loader.html#a74c661fbd5b13961ff19ad859d9e01c6" target="_top" xlink:title="Serializes a MedicalRecord object into a string representation.">
<polygon fill="white" stroke="#666666" points="366.5,-19.25 204.25,-19.25 204.25,0 366.5,0 366.5,-19.25"/>
<text text-anchor="middle" x="285.38" y="-5.75" font-family="Helvetica,sans-Serif" font-size="10.00">db.MedicalRecordLoader.serialize</text>
</a>
</g>
</g>
<!-- Node1&#45;&gt;Node2 -->
<g id="edge1_Node000001_Node000002" class="edge">
<title>Node1&#45;&gt;Node2</title>
<g id="a_edge1_Node000001_Node000002"><a xlink:title=" ">
<path fill="none" stroke="#63b8ff" d="M390.7,-9.62C382.86,-9.62 374.87,-9.62 366.96,-9.62"/>
<polygon fill="#63b8ff" stroke="#63b8ff" points="390.52,-13.13 400.52,-9.63 390.52,-6.13 390.52,-13.13"/>
</a>
</g>
</g>
<!-- Node3 -->
<g id="Node000003" class="node">
<title>Node3</title>
<g id="a_Node000003"><a xlink:href="classdb_1_1_medical_record_loader.html#a8fbb4abb9b99d283ef5a7e333389c05a" target="_top" xlink:title="Saves all loaded medical records to the associated file.">
<polygon fill="white" stroke="#666666" points="168.25,-19.25 0,-19.25 0,0 168.25,0 168.25,-19.25"/>
<text text-anchor="middle" x="84.12" y="-5.75" font-family="Helvetica,sans-Serif" font-size="10.00">db.MedicalRecordLoader.saveData</text>
</a>
</g>
</g>
<!-- Node2&#45;&gt;Node3 -->
<g id="edge2_Node000002_Node000003" class="edge">
<title>Node2&#45;&gt;Node3</title>
<g id="a_edge2_Node000002_Node000003"><a xlink:title=" ">
<path fill="none" stroke="#63b8ff" d="M192.61,-9.62C184.57,-9.62 176.46,-9.62 168.49,-9.62"/>
<polygon fill="#63b8ff" stroke="#63b8ff" points="192.39,-13.13 202.39,-9.63 192.39,-6.13 192.39,-13.13"/>
</a>
</g>
</g>
</g>
</svg>
