<?xml version="1.0" encoding="UTF-8" standalone="no"?>
<!DOCTYPE svg PUBLIC "-//W3C//DTD SVG 1.1//EN"
 "http://www.w3.org/Graphics/SVG/1.1/DTD/svg11.dtd">
<!-- Generated by graphviz version 12.1.2 (20240928.0832)
 -->
<!-- Title: db.MedicationInventoryLoader.saveData Pages: 1 -->
<svg width="420pt" height="64pt"
 viewBox="0.00 0.00 419.50 64.25" xmlns="http://www.w3.org/2000/svg" xmlns:xlink="http://www.w3.org/1999/xlink">
<g id="graph0" class="graph" transform="scale(1 1) rotate(0) translate(4 60.25)">
<title>db.MedicationInventoryLoader.saveData</title>
<!-- Node1 -->
<g id="Node000001" class="node">
<title>Node1</title>
<g id="a_Node000001"><a xlink:title="Saves all loaded medications to the associated file.">
<polygon fill="#999999" stroke="#666666" points="190.75,-37.25 0,-37.25 0,-18 190.75,-18 190.75,-37.25"/>
<text text-anchor="middle" x="95.38" y="-23.75" font-family="Helvetica,sans-Serif" font-size="10.00">db.MedicationInventoryLoader.saveData</text>
</a>
</g>
</g>
<!-- Node2 -->
<g id="Node000002" class="node">
<title>Node2</title>
<g id="a_Node000002"><a xlink:href="classdb_1_1_medication_inventory_loader.html#a3f02e3c747ed41fe69b6541e402e29a5" target="_top" xlink:title="Serializes a Medication object into a string representation.">
<polygon fill="white" stroke="#666666" points="411.5,-56.25 226.75,-56.25 226.75,-37 411.5,-37 411.5,-56.25"/>
<text text-anchor="middle" x="319.12" y="-42.75" font-family="Helvetica,sans-Serif" font-size="10.00">db.MedicationInventoryLoader.serialize</text>
</a>
</g>
</g>
<!-- Node1&#45;&gt;Node2 -->
<g id="edge1_Node000001_Node000002" class="edge">
<title>Node1&#45;&gt;Node2</title>
<g id="a_edge1_Node000001_Node000002"><a xlink:title=" ">
<path fill="none" stroke="#63b8ff" d="M191.06,-35.74C199.06,-36.42 207.18,-37.12 215.24,-37.81"/>
<polygon fill="#63b8ff" stroke="#63b8ff" points="214.81,-41.29 225.07,-38.65 215.4,-34.31 214.81,-41.29"/>
</a>
</g>
</g>
<!-- Node3 -->
<g id="Node000003" class="node">
<title>Node3</title>
<g id="a_Node000003"><a xlink:href="classdb_1_1_data_loader.html#aa5158bfeba84e106797b9139c4ef8bf1" target="_top" xlink:title="Writes a list of strings to a specified file.">
<polygon fill="white" stroke="#666666" points="405.12,-19.25 233.12,-19.25 233.12,0 405.12,0 405.12,-19.25"/>
<text text-anchor="middle" x="319.12" y="-5.75" font-family="Helvetica,sans-Serif" font-size="10.00">db.DataLoader&lt; Medication &gt;::write</text>
</a>
</g>
</g>
<!-- Node1&#45;&gt;Node3 -->
<g id="edge2_Node000001_Node000003" class="edge">
<title>Node1&#45;&gt;Node3</title>
<g id="a_edge2_Node000001_Node000003"><a xlink:title=" ">
<path fill="none" stroke="#63b8ff" d="M191.06,-19.94C201.15,-19.12 211.43,-18.29 221.54,-17.46"/>
<polygon fill="#63b8ff" stroke="#63b8ff" points="221.68,-20.97 231.37,-16.67 221.11,-13.99 221.68,-20.97"/>
</a>
</g>
</g>
</g>
</svg>
