<?xml version="1.0" encoding="UTF-8" standalone="no"?>
<!DOCTYPE svg PUBLIC "-//W3C//DTD SVG 1.1//EN"
 "http://www.w3.org/Graphics/SVG/1.1/DTD/svg11.dtd">
<!-- Generated by graphviz version 12.1.2 (20240928.0832)
 -->
<!-- Title: db.TextDB.updateAppointmentStatus Pages: 1 -->
<svg width="615pt" height="138pt"
 viewBox="0.00 0.00 614.75 138.25" xmlns="http://www.w3.org/2000/svg" xmlns:xlink="http://www.w3.org/1999/xlink">
<g id="graph0" class="graph" transform="scale(1 1) rotate(0) translate(4 134.25)">
<title>db.TextDB.updateAppointmentStatus</title>
<!-- Node1 -->
<g id="Node000001" class="node">
<title>Node1</title>
<g id="a_Node000001"><a xlink:title="Calculates the result.">
<polygon fill="#999999" stroke="#666666" points="178,-93.25 0,-93.25 0,-74 178,-74 178,-93.25"/>
<text text-anchor="middle" x="89" y="-79.75" font-family="Helvetica,sans-Serif" font-size="10.00">db.TextDB.updateAppointmentStatus</text>
</a>
</g>
</g>
<!-- Node2 -->
<g id="Node000002" class="node">
<title>Node2</title>
<g id="a_Node000002"><a xlink:href="classdb_1_1_text_d_b.html#a02e30a4932582125edba84c86f7c598a" target="_top" xlink:title="Calculates the result.">
<polygon fill="white" stroke="#666666" points="377.38,-130.25 223.38,-130.25 223.38,-111 377.38,-111 377.38,-130.25"/>
<text text-anchor="middle" x="300.38" y="-116.75" font-family="Helvetica,sans-Serif" font-size="10.00">db.TextDB.getAppointmentById</text>
</a>
</g>
</g>
<!-- Node1&#45;&gt;Node2 -->
<g id="edge1_Node000001_Node000002" class="edge">
<title>Node1&#45;&gt;Node2</title>
<g id="a_edge1_Node000001_Node000002"><a xlink:title=" ">
<path fill="none" stroke="#63b8ff" d="M147.21,-93.74C173.18,-98.32 204.09,-103.79 231.24,-108.59"/>
<polygon fill="#63b8ff" stroke="#63b8ff" points="230.28,-111.97 240.74,-110.26 231.5,-105.08 230.28,-111.97"/>
</a>
</g>
</g>
<!-- Node3 -->
<g id="Node000003" class="node">
<title>Node3</title>
<g id="a_Node000003"><a xlink:href="classdb_1_1_text_d_b.html#a15e72117fb552c009020fe017eff11b1" target="_top" xlink:title=" ">
<polygon fill="white" stroke="#666666" points="386.75,-93.25 214,-93.25 214,-74 386.75,-74 386.75,-93.25"/>
<text text-anchor="middle" x="300.38" y="-79.75" font-family="Helvetica,sans-Serif" font-size="10.00">db.TextDB.saveAppointmentsToFile</text>
</a>
</g>
</g>
<!-- Node1&#45;&gt;Node3 -->
<g id="edge2_Node000001_Node000003" class="edge">
<title>Node1&#45;&gt;Node3</title>
<g id="a_edge2_Node000001_Node000003"><a xlink:title=" ">
<path fill="none" stroke="#63b8ff" d="M178.49,-83.62C186.29,-83.62 194.21,-83.62 202.08,-83.62"/>
<polygon fill="#63b8ff" stroke="#63b8ff" points="202.03,-87.13 212.03,-83.63 202.03,-80.13 202.03,-87.13"/>
</a>
</g>
</g>
<!-- Node5 -->
<g id="Node000005" class="node">
<title>Node5</title>
<g id="a_Node000005"><a xlink:href="classdb_1_1_text_d_b.html#ad0cc1ccd01528bf3a15b1dda0e764482" target="_top" xlink:title=" ">
<polygon fill="white" stroke="#666666" points="379.62,-56.25 221.12,-56.25 221.12,-37 379.62,-37 379.62,-56.25"/>
<text text-anchor="middle" x="300.38" y="-42.75" font-family="Helvetica,sans-Serif" font-size="10.00">db.TextDB.saveSchedulesToFile</text>
</a>
</g>
</g>
<!-- Node1&#45;&gt;Node5 -->
<g id="edge4_Node000001_Node000005" class="edge">
<title>Node1&#45;&gt;Node5</title>
<g id="a_edge4_Node000001_Node000005"><a xlink:title=" ">
<path fill="none" stroke="#63b8ff" d="M147.21,-73.51C173.18,-68.93 204.09,-63.46 231.24,-58.66"/>
<polygon fill="#63b8ff" stroke="#63b8ff" points="231.5,-62.17 240.74,-56.99 230.28,-55.28 231.5,-62.17"/>
</a>
</g>
</g>
<!-- Node4 -->
<g id="Node000004" class="node">
<title>Node4</title>
<g id="a_Node000004"><a xlink:href="classdb_1_1_text_d_b.html#ab0828cdec6203b29d3036e79ecd6cc5e" target="_top" xlink:title=" ">
<polygon fill="white" stroke="#666666" points="558,-93.25 471.5,-93.25 471.5,-74 558,-74 558,-93.25"/>
<text text-anchor="middle" x="514.75" y="-79.75" font-family="Helvetica,sans-Serif" font-size="10.00">db.TextDB.write</text>
</a>
</g>
</g>
<!-- Node3&#45;&gt;Node4 -->
<g id="edge3_Node000003_Node000004" class="edge">
<title>Node3&#45;&gt;Node4</title>
<g id="a_edge3_Node000003_Node000004"><a xlink:title=" ">
<path fill="none" stroke="#63b8ff" d="M387.14,-83.62C411.64,-83.62 437.64,-83.62 459.66,-83.62"/>
<polygon fill="#63b8ff" stroke="#63b8ff" points="459.61,-87.13 469.61,-83.63 459.61,-80.13 459.61,-87.13"/>
</a>
</g>
</g>
<!-- Node5&#45;&gt;Node4 -->
<g id="edge7_Node000005_Node000004" class="edge">
<title>Node5&#45;&gt;Node4</title>
<g id="a_edge7_Node000005_Node000004"><a xlink:title=" ">
<path fill="none" stroke="#63b8ff" d="M359.41,-56.74C390.91,-62.22 429.58,-68.96 460.34,-74.32"/>
<polygon fill="#63b8ff" stroke="#63b8ff" points="459.34,-77.7 469.79,-75.97 460.54,-70.8 459.34,-77.7"/>
</a>
</g>
</g>
<!-- Node6 -->
<g id="Node000006" class="node">
<title>Node6</title>
<g id="a_Node000006"><a xlink:href="classitems_1_1_schedule.html#a4549ab37ec9b3215ebfaf575c5d691c6" target="_top" xlink:title=" ">
<polygon fill="white" stroke="#666666" points="588.38,-56.25 441.12,-56.25 441.12,-37 588.38,-37 588.38,-56.25"/>
<text text-anchor="middle" x="514.75" y="-42.75" font-family="Helvetica,sans-Serif" font-size="10.00">items.Schedule.getAvailability</text>
</a>
</g>
</g>
<!-- Node5&#45;&gt;Node6 -->
<g id="edge5_Node000005_Node000006" class="edge">
<title>Node5&#45;&gt;Node6</title>
<g id="a_edge5_Node000005_Node000006"><a xlink:title=" ">
<path fill="none" stroke="#63b8ff" d="M379.85,-46.62C396.08,-46.62 413.23,-46.62 429.65,-46.62"/>
<polygon fill="#63b8ff" stroke="#63b8ff" points="429.36,-50.13 439.36,-46.63 429.36,-43.13 429.36,-50.13"/>
</a>
</g>
</g>
<!-- Node7 -->
<g id="Node000007" class="node">
<title>Node7</title>
<g id="a_Node000007"><a xlink:href="classitems_1_1_schedule.html#a85b87460a427b084400c5a4fa7f1a2c5" target="_top" xlink:title=" ">
<polygon fill="white" stroke="#666666" points="606.75,-19.25 422.75,-19.25 422.75,0 606.75,0 606.75,-19.25"/>
<text text-anchor="middle" x="514.75" y="-5.75" font-family="Helvetica,sans-Serif" font-size="10.00">items.Schedule.getAvailableTimeSlots</text>
</a>
</g>
</g>
<!-- Node5&#45;&gt;Node7 -->
<g id="edge6_Node000005_Node000007" class="edge">
<title>Node5&#45;&gt;Node7</title>
<g id="a_edge6_Node000005_Node000007"><a xlink:title=" ">
<path fill="none" stroke="#63b8ff" d="M359.41,-36.51C385.75,-31.93 417.1,-26.46 444.64,-21.66"/>
<polygon fill="#63b8ff" stroke="#63b8ff" points="445.05,-25.15 454.3,-19.98 443.84,-18.25 445.05,-25.15"/>
</a>
</g>
</g>
</g>
</svg>
