<?xml version="1.0" encoding="UTF-8" standalone="no"?>
<!DOCTYPE svg PUBLIC "-//W3C//DTD SVG 1.1//EN"
 "http://www.w3.org/Graphics/SVG/1.1/DTD/svg11.dtd">
<!-- Generated by graphviz version 12.1.2 (20240928.0832)
 -->
<!-- Title: user_classes.User.setPassword Pages: 1 -->
<svg width="632pt" height="27pt"
 viewBox="0.00 0.00 631.50 27.25" xmlns="http://www.w3.org/2000/svg" xmlns:xlink="http://www.w3.org/1999/xlink">
<g id="graph0" class="graph" transform="scale(1 1) rotate(0) translate(4 23.25)">
<title>user_classes.User.setPassword</title>
<!-- Node1 -->
<g id="Node000001" class="node">
<title>Node1</title>
<g id="a_Node000001"><a xlink:title="Sets the user&#39;s password and updates it in the database.">
<polygon fill="#999999" stroke="#666666" points="157,-19.25 0,-19.25 0,0 157,0 157,-19.25"/>
<text text-anchor="middle" x="78.5" y="-5.75" font-family="Helvetica,sans-Serif" font-size="10.00">user_classes.User.setPassword</text>
</a>
</g>
</g>
<!-- Node2 -->
<g id="Node000002" class="node">
<title>Node2</title>
<g id="a_Node000002"><a xlink:href="classdb_1_1_text_d_b.html#a041f3ac450450fd0d648d0fd20831a11" target="_top" xlink:title="Sets the object&#39;s name.">
<polygon fill="white" stroke="#666666" points="352.25,-19.25 193,-19.25 193,0 352.25,0 352.25,-19.25"/>
<text text-anchor="middle" x="272.62" y="-5.75" font-family="Helvetica,sans-Serif" font-size="10.00">db.TextDB.updateUserPassword</text>
</a>
</g>
</g>
<!-- Node1&#45;&gt;Node2 -->
<g id="edge1_Node000001_Node000002" class="edge">
<title>Node1&#45;&gt;Node2</title>
<g id="a_edge1_Node000001_Node000002"><a xlink:title=" ">
<path fill="none" stroke="#63b8ff" d="M157.37,-9.62C165.29,-9.62 173.38,-9.62 181.41,-9.62"/>
<polygon fill="#63b8ff" stroke="#63b8ff" points="181.2,-13.13 191.2,-9.63 181.2,-6.13 181.2,-13.13"/>
</a>
</g>
</g>
<!-- Node3 -->
<g id="Node000003" class="node">
<title>Node3</title>
<g id="a_Node000003"><a xlink:href="classdb_1_1_text_d_b.html#a5d011188d9c20f646307db43839666c7" target="_top" xlink:title="Sets the object&#39;s name.">
<polygon fill="white" stroke="#666666" points="501,-19.25 388.25,-19.25 388.25,0 501,0 501,-19.25"/>
<text text-anchor="middle" x="444.62" y="-5.75" font-family="Helvetica,sans-Serif" font-size="10.00">db.TextDB.saveToFile</text>
</a>
</g>
</g>
<!-- Node2&#45;&gt;Node3 -->
<g id="edge2_Node000002_Node000003" class="edge">
<title>Node2&#45;&gt;Node3</title>
<g id="a_edge2_Node000002_Node000003"><a xlink:title=" ">
<path fill="none" stroke="#63b8ff" d="M352.65,-9.62C360.69,-9.62 368.8,-9.62 376.7,-9.62"/>
<polygon fill="#63b8ff" stroke="#63b8ff" points="376.56,-13.13 386.56,-9.63 376.56,-6.13 376.56,-13.13"/>
</a>
</g>
</g>
<!-- Node4 -->
<g id="Node000004" class="node">
<title>Node4</title>
<g id="a_Node000004"><a xlink:href="classdb_1_1_text_d_b.html#ab0828cdec6203b29d3036e79ecd6cc5e" target="_top" xlink:title=" ">
<polygon fill="white" stroke="#666666" points="623.5,-19.25 537,-19.25 537,0 623.5,0 623.5,-19.25"/>
<text text-anchor="middle" x="580.25" y="-5.75" font-family="Helvetica,sans-Serif" font-size="10.00">db.TextDB.write</text>
</a>
</g>
</g>
<!-- Node3&#45;&gt;Node4 -->
<g id="edge3_Node000003_Node000004" class="edge">
<title>Node3&#45;&gt;Node4</title>
<g id="a_edge3_Node000003_Node000004"><a xlink:title=" ">
<path fill="none" stroke="#63b8ff" d="M501.13,-9.62C509.13,-9.62 517.35,-9.62 525.32,-9.62"/>
<polygon fill="#63b8ff" stroke="#63b8ff" points="525.24,-13.13 535.24,-9.63 525.24,-6.13 525.24,-13.13"/>
</a>
</g>
</g>
</g>
</svg>
