<?xml version="1.0" encoding="UTF-8" standalone="no"?>
<!DOCTYPE svg PUBLIC "-//W3C//DTD SVG 1.1//EN"
 "http://www.w3.org/Graphics/SVG/1.1/DTD/svg11.dtd">
<!-- Generated by graphviz version 12.1.2 (20240928.0832)
 -->
<!-- Title: items.Treatment.Treatment Pages: 1 -->
<svg width="725pt" height="27pt"
 viewBox="0.00 0.00 725.25 27.25" xmlns="http://www.w3.org/2000/svg" xmlns:xlink="http://www.w3.org/1999/xlink">
<g id="graph0" class="graph" transform="scale(1 1) rotate(0) translate(4 23.25)">
<title>items.Treatment.Treatment</title>
<!-- Node1 -->
<g id="Node000001" class="node">
<title>Node1</title>
<g id="a_Node000001"><a xlink:title="Default constructor initializes the list of prescribed medicines and sets comments to an empty string...">
<polygon fill="#999999" stroke="#666666" points="717.25,-19.25 582.75,-19.25 582.75,0 717.25,0 717.25,-19.25"/>
<text text-anchor="middle" x="650" y="-5.75" font-family="Helvetica,sans-Serif" font-size="10.00">items.Treatment.Treatment</text>
</a>
</g>
</g>
<!-- Node2 -->
<g id="Node000002" class="node">
<title>Node2</title>
<g id="a_Node000002"><a xlink:href="classitems_1_1_treatment.html#a8f88f9c1ac686801ba3e47b65c7142b5" target="_top" xlink:title="Deserializes a Treatment object from a string.">
<polygon fill="white" stroke="#666666" points="546.75,-19.25 410,-19.25 410,0 546.75,0 546.75,-19.25"/>
<text text-anchor="middle" x="478.38" y="-5.75" font-family="Helvetica,sans-Serif" font-size="10.00">items.Treatment.deserialize</text>
</a>
</g>
</g>
<!-- Node1&#45;&gt;Node2 -->
<g id="edge1_Node000001_Node000002" class="edge">
<title>Node1&#45;&gt;Node2</title>
<g id="a_edge1_Node000001_Node000002"><a xlink:title=" ">
<path fill="none" stroke="#63b8ff" d="M571.18,-9.62C563.15,-9.62 555.04,-9.62 547.13,-9.62"/>
<polygon fill="#63b8ff" stroke="#63b8ff" points="570.93,-13.13 580.93,-9.63 570.93,-6.13 570.93,-13.13"/>
</a>
</g>
</g>
<!-- Node3 -->
<g id="Node000003" class="node">
<title>Node3</title>
<g id="a_Node000003"><a xlink:href="classdb_1_1_medical_record_loader.html#a90d533c86c0cb78c0ffbcddbfdd9e3ee" target="_top" xlink:title="Deserializes a MedicalRecord object from a string representation.">
<polygon fill="white" stroke="#666666" points="374,-19.25 201.25,-19.25 201.25,0 374,0 374,-19.25"/>
<text text-anchor="middle" x="287.62" y="-5.75" font-family="Helvetica,sans-Serif" font-size="10.00">db.MedicalRecordLoader.deserialize</text>
</a>
</g>
</g>
<!-- Node2&#45;&gt;Node3 -->
<g id="edge2_Node000002_Node000003" class="edge">
<title>Node2&#45;&gt;Node3</title>
<g id="a_edge2_Node000002_Node000003"><a xlink:title=" ">
<path fill="none" stroke="#63b8ff" d="M398.25,-9.62C390.31,-9.62 382.21,-9.62 374.2,-9.62"/>
<polygon fill="#63b8ff" stroke="#63b8ff" points="398.25,-13.13 408.25,-9.63 398.25,-6.13 398.25,-13.13"/>
</a>
</g>
</g>
<!-- Node4 -->
<g id="Node000004" class="node">
<title>Node4</title>
<g id="a_Node000004"><a xlink:href="classdb_1_1_medical_record_loader.html#ad552a3c26b60c2f5f5b94aa78dd7ee62" target="_top" xlink:title="Loads medical records from the associated file.">
<polygon fill="white" stroke="#666666" points="165.25,-19.25 0,-19.25 0,0 165.25,0 165.25,-19.25"/>
<text text-anchor="middle" x="82.62" y="-5.75" font-family="Helvetica,sans-Serif" font-size="10.00">db.MedicalRecordLoader.loadData</text>
</a>
</g>
</g>
<!-- Node3&#45;&gt;Node4 -->
<g id="edge3_Node000003_Node000004" class="edge">
<title>Node3&#45;&gt;Node4</title>
<g id="a_edge3_Node000003_Node000004"><a xlink:title=" ">
<path fill="none" stroke="#63b8ff" d="M189.53,-9.62C181.51,-9.62 173.45,-9.62 165.56,-9.62"/>
<polygon fill="#63b8ff" stroke="#63b8ff" points="189.32,-13.13 199.32,-9.63 189.32,-6.13 189.32,-13.13"/>
</a>
</g>
</g>
</g>
</svg>
