<?xml version="1.0" encoding="UTF-8" standalone="no"?>
<!DOCTYPE svg PUBLIC "-//W3C//DTD SVG 1.1//EN"
 "http://www.w3.org/Graphics/SVG/1.1/DTD/svg11.dtd">
<!-- Generated by graphviz version 12.1.2 (20240928.0832)
 -->
<!-- Title: db.TextDB.saveToFile Pages: 1 -->
<svg width="540pt" height="64pt"
 viewBox="0.00 0.00 539.75 64.25" xmlns="http://www.w3.org/2000/svg" xmlns:xlink="http://www.w3.org/1999/xlink">
<g id="graph0" class="graph" transform="scale(1 1) rotate(0) translate(4 60.25)">
<title>db.TextDB.saveToFile</title>
<!-- Node1 -->
<g id="Node000001" class="node">
<title>Node1</title>
<g id="a_Node000001"><a xlink:title="Sets the object&#39;s name.">
<polygon fill="#999999" stroke="#666666" points="531.75,-37.25 419,-37.25 419,-18 531.75,-18 531.75,-37.25"/>
<text text-anchor="middle" x="475.38" y="-23.75" font-family="Helvetica,sans-Serif" font-size="10.00">db.TextDB.saveToFile</text>
</a>
</g>
</g>
<!-- Node2 -->
<g id="Node000002" class="node">
<title>Node2</title>
<g id="a_Node000002"><a xlink:href="classmain_1_1_hospital_management_system.html#abc443238cd870242799d0f301cf2109e" target="_top" xlink:title="Main method for running the Hospital Management System.">
<polygon fill="white" stroke="#666666" points="383,-56.25 193,-56.25 193,-37 383,-37 383,-56.25"/>
<text text-anchor="middle" x="288" y="-42.75" font-family="Helvetica,sans-Serif" font-size="10.00">main.HospitalManagementSystem.main</text>
</a>
</g>
</g>
<!-- Node1&#45;&gt;Node2 -->
<g id="edge1_Node000001_Node000002" class="edge">
<title>Node1&#45;&gt;Node2</title>
<g id="a_edge1_Node000001_Node000002"><a xlink:title=" ">
<path fill="none" stroke="#63b8ff" d="M407.24,-34.51C399.4,-35.31 391.3,-36.14 383.18,-36.97"/>
<polygon fill="#63b8ff" stroke="#63b8ff" points="407.41,-38.01 417,-33.51 406.69,-31.04 407.41,-38.01"/>
</a>
</g>
</g>
<!-- Node3 -->
<g id="Node000003" class="node">
<title>Node3</title>
<g id="a_Node000003"><a xlink:href="classdb_1_1_text_d_b.html#a041f3ac450450fd0d648d0fd20831a11" target="_top" xlink:title="Sets the object&#39;s name.">
<polygon fill="white" stroke="#666666" points="367.62,-19.25 208.38,-19.25 208.38,0 367.62,0 367.62,-19.25"/>
<text text-anchor="middle" x="288" y="-5.75" font-family="Helvetica,sans-Serif" font-size="10.00">db.TextDB.updateUserPassword</text>
</a>
</g>
</g>
<!-- Node1&#45;&gt;Node3 -->
<g id="edge2_Node000001_Node000003" class="edge">
<title>Node1&#45;&gt;Node3</title>
<g id="a_edge2_Node000001_Node000003"><a xlink:title=" ">
<path fill="none" stroke="#63b8ff" d="M407.08,-21.09C394.4,-19.86 381.03,-18.56 368.03,-17.3"/>
<polygon fill="#63b8ff" stroke="#63b8ff" points="406.71,-24.57 417,-22.05 407.38,-17.6 406.71,-24.57"/>
</a>
</g>
</g>
<!-- Node4 -->
<g id="Node000004" class="node">
<title>Node4</title>
<g id="a_Node000004"><a xlink:href="classuser__classes_1_1_user.html#a8b403334d60adc09d7eaedbb5711dfeb" target="_top" xlink:title="Sets the user&#39;s password and updates it in the database.">
<polygon fill="white" stroke="#666666" points="157,-19.25 0,-19.25 0,0 157,0 157,-19.25"/>
<text text-anchor="middle" x="78.5" y="-5.75" font-family="Helvetica,sans-Serif" font-size="10.00">user_classes.User.setPassword</text>
</a>
</g>
</g>
<!-- Node3&#45;&gt;Node4 -->
<g id="edge3_Node000003_Node000004" class="edge">
<title>Node3&#45;&gt;Node4</title>
<g id="a_edge3_Node000003_Node000004"><a xlink:title=" ">
<path fill="none" stroke="#63b8ff" d="M196.56,-9.62C183.47,-9.62 170.1,-9.62 157.29,-9.62"/>
<polygon fill="#63b8ff" stroke="#63b8ff" points="196.45,-13.13 206.45,-9.63 196.45,-6.13 196.45,-13.13"/>
</a>
</g>
</g>
</g>
</svg>
