<?xml version="1.0" encoding="UTF-8" standalone="no"?>
<!DOCTYPE svg PUBLIC "-//W3C//DTD SVG 1.1//EN"
 "http://www.w3.org/Graphics/SVG/1.1/DTD/svg11.dtd">
<!-- Generated by graphviz version 12.1.2 (20240928.0832)
 -->
<!-- Title: db.TextDB.updateAppointmentStatus Pages: 1 -->
<!--zoomable 138 -->

<svg id="main" version="1.1" xmlns="http://www.w3.org/2000/svg" xmlns:xlink="http://www.w3.org/1999/xlink" xml:space="preserve" onload="init(evt)">
<style type="text/css"><![CDATA[
.node, .edge {opacity: 0.7;}
.node.selected, .edge.selected {opacity: 1;}
.edge:hover path { stroke: red; }
.edge:hover polygon { stroke: red; fill: red; }
]]></style>

<defs>
  <circle id="rim" cx="0" cy="0" r="7"/>
  <circle id="rim2" cx="0" cy="0" r="3.5"/>
  <g id="zoomPlus">
    <use xlink:href="#rim" fill="#404040"><set attributeName="fill" to="#808080" begin="zoomplus.mouseover" end="zoomplus.mouseout"/></use>
    <path d="M-4,0h8M0,-4v8" fill="none" stroke="white" stroke-width="1.5" pointer-events="none"/>
  </g>
  <g id="zoomMin">
    <use xlink:href="#rim" fill="#404040"><set attributeName="fill" to="#808080" begin="zoomminus.mouseover" end="zoomminus.mouseout"/></use>
    <path d="M-4,0h8" fill="none" stroke="white" stroke-width="1.5" pointer-events="none"/>
  </g>
  <g id="arrowUp" transform="translate(30 24)">
    <use xlink:href="#rim"/>
    <path pointer-events="none" fill="none" stroke="white" stroke-width="1.5" d="M0,-3.0v7 M-2.5,-0.5L0,-3.0L2.5,-0.5"/>
  </g>
  <g id="arrowRight" transform="rotate(90) translate(36 -43)">
    <use xlink:href="#rim"/>
    <path pointer-events="none" fill="none" stroke="white" stroke-width="1.5" d="M0,-3.0v7 M-2.5,-0.5L0,-3.0L2.5,-0.5"/>
  </g>
  <g id="arrowDown" transform="rotate(180) translate(-30 -48)">
    <use xlink:href="#rim"/>
    <path pointer-events="none" fill="none" stroke="white" stroke-width="1.5" d="M0,-3.0v7 M-2.5,-0.5L0,-3.0L2.5,-0.5"/>
  </g>
  <g id="arrowLeft" transform="rotate(270) translate(-36 17)">
    <use xlink:href="#rim"/>
    <path pointer-events="none" fill="none" stroke="white" stroke-width="1.5" d="M0,-3.0v7 M-2.5,-0.5L0,-3.0L2.5,-0.5"/>
  </g>
  <g id="resetDef">
    <use xlink:href="#rim2" fill="#404040"><set attributeName="fill" to="#808080" begin="reset.mouseover" end="reset.mouseout"/></use>
  </g>
</defs>
<script type="application/ecmascript">
var viewWidth = 615;
var viewHeight = 138;
var sectionId = 'dynsection-26';
</script>
<script type="application/ecmascript" xlink:href="svg.min.js"/>
<svg id="graph" class="graph">
<g id="viewport">
<title>db.TextDB.updateAppointmentStatus</title>
<!-- Node1 -->
<g id="Node000001" class="node">
<title>Node1</title>
<g id="a_Node000001"><a xlink:title="Calculates the result.">
<polygon fill="#999999" stroke="#666666" points="178,-93.25 0,-93.25 0,-74 178,-74 178,-93.25"/>
<text text-anchor="middle" x="89" y="-79.75" font-family="Helvetica,sans-Serif" font-size="10.00">db.TextDB.updateAppointmentStatus</text>
</a>
</g>
</g>
<!-- Node2 -->
<g id="Node000002" class="node">
<title>Node2</title>
<g id="a_Node000002"><a xlink:href="classdb_1_1_text_d_b.html#a02e30a4932582125edba84c86f7c598a" target="_top" xlink:title="Calculates the result.">
<polygon fill="white" stroke="#666666" points="377.38,-130.25 223.38,-130.25 223.38,-111 377.38,-111 377.38,-130.25"/>
<text text-anchor="middle" x="300.38" y="-116.75" font-family="Helvetica,sans-Serif" font-size="10.00">db.TextDB.getAppointmentById</text>
</a>
</g>
</g>
<!-- Node1&#45;&gt;Node2 -->
<g id="edge1_Node000001_Node000002" class="edge">
<title>Node1&#45;&gt;Node2</title>
<g id="a_edge1_Node000001_Node000002"><a xlink:title=" ">
<path fill="none" stroke="#63b8ff" d="M147.21,-93.74C173.18,-98.32 204.09,-103.79 231.24,-108.59"/>
<polygon fill="#63b8ff" stroke="#63b8ff" points="230.28,-111.97 240.74,-110.26 231.5,-105.08 230.28,-111.97"/>
</a>
</g>
</g>
<!-- Node3 -->
<g id="Node000003" class="node">
<title>Node3</title>
<g id="a_Node000003"><a xlink:href="classdb_1_1_text_d_b.html#a15e72117fb552c009020fe017eff11b1" target="_top" xlink:title=" ">
<polygon fill="white" stroke="#666666" points="386.75,-93.25 214,-93.25 214,-74 386.75,-74 386.75,-93.25"/>
<text text-anchor="middle" x="300.38" y="-79.75" font-family="Helvetica,sans-Serif" font-size="10.00">db.TextDB.saveAppointmentsToFile</text>
</a>
</g>
</g>
<!-- Node1&#45;&gt;Node3 -->
<g id="edge2_Node000001_Node000003" class="edge">
<title>Node1&#45;&gt;Node3</title>
<g id="a_edge2_Node000001_Node000003"><a xlink:title=" ">
<path fill="none" stroke="#63b8ff" d="M178.49,-83.62C186.29,-83.62 194.21,-83.62 202.08,-83.62"/>
<polygon fill="#63b8ff" stroke="#63b8ff" points="202.03,-87.13 212.03,-83.63 202.03,-80.13 202.03,-87.13"/>
</a>
</g>
</g>
<!-- Node5 -->
<g id="Node000005" class="node">
<title>Node5</title>
<g id="a_Node000005"><a xlink:href="classdb_1_1_text_d_b.html#ad0cc1ccd01528bf3a15b1dda0e764482" target="_top" xlink:title=" ">
<polygon fill="white" stroke="#666666" points="379.62,-56.25 221.12,-56.25 221.12,-37 379.62,-37 379.62,-56.25"/>
<text text-anchor="middle" x="300.38" y="-42.75" font-family="Helvetica,sans-Serif" font-size="10.00">db.TextDB.saveSchedulesToFile</text>
</a>
</g>
</g>
<!-- Node1&#45;&gt;Node5 -->
<g id="edge4_Node000001_Node000005" class="edge">
<title>Node1&#45;&gt;Node5</title>
<g id="a_edge4_Node000001_Node000005"><a xlink:title=" ">
<path fill="none" stroke="#63b8ff" d="M147.21,-73.51C173.18,-68.93 204.09,-63.46 231.24,-58.66"/>
<polygon fill="#63b8ff" stroke="#63b8ff" points="231.5,-62.17 240.74,-56.99 230.28,-55.28 231.5,-62.17"/>
</a>
</g>
</g>
<!-- Node4 -->
<g id="Node000004" class="node">
<title>Node4</title>
<g id="a_Node000004"><a xlink:href="classdb_1_1_text_d_b.html#ab0828cdec6203b29d3036e79ecd6cc5e" target="_top" xlink:title=" ">
<polygon fill="white" stroke="#666666" points="558,-93.25 471.5,-93.25 471.5,-74 558,-74 558,-93.25"/>
<text text-anchor="middle" x="514.75" y="-79.75" font-family="Helvetica,sans-Serif" font-size="10.00">db.TextDB.write</text>
</a>
</g>
</g>
<!-- Node3&#45;&gt;Node4 -->
<g id="edge3_Node000003_Node000004" class="edge">
<title>Node3&#45;&gt;Node4</title>
<g id="a_edge3_Node000003_Node000004"><a xlink:title=" ">
<path fill="none" stroke="#63b8ff" d="M387.14,-83.62C411.64,-83.62 437.64,-83.62 459.66,-83.62"/>
<polygon fill="#63b8ff" stroke="#63b8ff" points="459.61,-87.13 469.61,-83.63 459.61,-80.13 459.61,-87.13"/>
</a>
</g>
</g>
<!-- Node5&#45;&gt;Node4 -->
<g id="edge7_Node000005_Node000004" class="edge">
<title>Node5&#45;&gt;Node4</title>
<g id="a_edge7_Node000005_Node000004"><a xlink:title=" ">
<path fill="none" stroke="#63b8ff" d="M359.41,-56.74C390.91,-62.22 429.58,-68.96 460.34,-74.32"/>
<polygon fill="#63b8ff" stroke="#63b8ff" points="459.34,-77.7 469.79,-75.97 460.54,-70.8 459.34,-77.7"/>
</a>
</g>
</g>
<!-- Node6 -->
<g id="Node000006" class="node">
<title>Node6</title>
<g id="a_Node000006"><a xlink:href="classitems_1_1_schedule.html#a4549ab37ec9b3215ebfaf575c5d691c6" target="_top" xlink:title=" ">
<polygon fill="white" stroke="#666666" points="588.38,-56.25 441.12,-56.25 441.12,-37 588.38,-37 588.38,-56.25"/>
<text text-anchor="middle" x="514.75" y="-42.75" font-family="Helvetica,sans-Serif" font-size="10.00">items.Schedule.getAvailability</text>
</a>
</g>
</g>
<!-- Node5&#45;&gt;Node6 -->
<g id="edge5_Node000005_Node000006" class="edge">
<title>Node5&#45;&gt;Node6</title>
<g id="a_edge5_Node000005_Node000006"><a xlink:title=" ">
<path fill="none" stroke="#63b8ff" d="M379.85,-46.62C396.08,-46.62 413.23,-46.62 429.65,-46.62"/>
<polygon fill="#63b8ff" stroke="#63b8ff" points="429.36,-50.13 439.36,-46.63 429.36,-43.13 429.36,-50.13"/>
</a>
</g>
</g>
<!-- Node7 -->
<g id="Node000007" class="node">
<title>Node7</title>
<g id="a_Node000007"><a xlink:href="classitems_1_1_schedule.html#a85b87460a427b084400c5a4fa7f1a2c5" target="_top" xlink:title=" ">
<polygon fill="white" stroke="#666666" points="606.75,-19.25 422.75,-19.25 422.75,0 606.75,0 606.75,-19.25"/>
<text text-anchor="middle" x="514.75" y="-5.75" font-family="Helvetica,sans-Serif" font-size="10.00">items.Schedule.getAvailableTimeSlots</text>
</a>
</g>
</g>
<!-- Node5&#45;&gt;Node7 -->
<g id="edge6_Node000005_Node000007" class="edge">
<title>Node5&#45;&gt;Node7</title>
<g id="a_edge6_Node000005_Node000007"><a xlink:title=" ">
<path fill="none" stroke="#63b8ff" d="M359.41,-36.51C385.75,-31.93 417.1,-26.46 444.64,-21.66"/>
<polygon fill="#63b8ff" stroke="#63b8ff" points="445.05,-25.15 454.3,-19.98 443.84,-18.25 445.05,-25.15"/>
</a>
</g>
</g>
</g>
</svg>

<g id="navigator" transform="translate(0 0)" fill="#404254">
  <rect fill="#f2f5e9" fill-opacity="0.5" stroke="#606060" stroke-width=".5" x="0" y="0" width="60" height="60"/>
  <use id="zoomplus" xlink:href="#zoomPlus" x="17" y="9" onmousedown="handleZoom(evt,'in')"/>
  <use id="zoomminus" xlink:href="#zoomMin" x="42" y="9" onmousedown="handleZoom(evt,'out')"/>
  <use id="reset" xlink:href="#resetDef" x="30" y="36" onmousedown="handleReset()"/>
   <use id="arrowup" xlink:href="#arrowUp" x="0" y="0" onmousedown="handlePan(0,-1)"/>
  <use id="arrowright" xlink:href="#arrowRight" x="0" y="0" onmousedown="handlePan(1,0)"/>
  <use id="arrowdown" xlink:href="#arrowDown" x="0" y="0" onmousedown="handlePan(0,1)"/>
  <use id="arrowleft" xlink:href="#arrowLeft" x="0" y="0" onmousedown="handlePan(-1,0)"/>
</g>
<svg viewBox="0 0 15 15" width="100%" height="30px" preserveAspectRatio="xMaxYMin meet">
 <g id="arrow_out" transform="scale(0.3 0.3)">
  <a xlink:href="classdb_1_1_text_d_b_a04a650ae8f6750cd2068585b496767dd_cgraph_org.svg" target="_base">
   <rect id="button" ry="5" rx="5" y="6" x="6" height="38" width="38"
        fill="#f2f5e9" fill-opacity="0.5" stroke="#606060" stroke-width="1.0"/>
   <path id="arrow"
     d="M 11.500037,31.436501 C 11.940474,20.09759 22.043105,11.32322 32.158766,21.979434 L 37.068811,17.246167 C 37.068811,17.246167 37.088388,32 37.088388,32 L 22.160133,31.978069 C 22.160133,31.978069 26.997745,27.140456 26.997745,27.140456 C 18.528582,18.264221 13.291696,25.230495 11.500037,31.436501 z"
     style="fill:#404040;"/>
  </a>
 </g>
</svg>

<style type='text/css'>
<![CDATA[
[data-mouse-over-selected='false'] { opacity: 0.7; }
[data-mouse-over-selected='true']  { opacity: 1.0; }
]]>
</style>
<script type="application/ecmascript"><![CDATA[
document.addEventListener('DOMContentLoaded', (event) => {
  highlightEdges();
  highlightAdjacentNodes();
});
]]></script>
</svg>
