<?xml version="1.0" encoding="UTF-8" standalone="no"?>
<!DOCTYPE svg PUBLIC "-//W3C//DTD SVG 1.1//EN"
 "http://www.w3.org/Graphics/SVG/1.1/DTD/svg11.dtd">
<!-- Generated by graphviz version 12.1.2 (20240928.0832)
 -->
<!-- Title: db.TextDB Pages: 1 -->
<svg width="283pt" height="534pt"
 viewBox="0.00 0.00 283.00 533.50" xmlns="http://www.w3.org/2000/svg" xmlns:xlink="http://www.w3.org/1999/xlink">
<g id="graph0" class="graph" transform="scale(1 1) rotate(0) translate(4 529.5)">
<title>db.TextDB</title>
<!-- Node1 -->
<g id="Node000001" class="node">
<title>Node1</title>
<g id="a_Node000001"><a xlink:title="This class.">
<polygon fill="#999999" stroke="none" points="244,-333 0,-333 0,0 244,0 244,-333"/>
<text text-anchor="start" x="98.75" y="-319.5" font-family="Helvetica,sans-Serif" font-size="10.00">db.TextDB</text>
<text text-anchor="start" x="4" y="-304.5" font-family="Helvetica,sans-Serif" font-size="10.00">+</text>
<text text-anchor="start" x="14" y="-304.5" font-family="Helvetica,sans-Serif" font-size="10.00">static final String SEPARATOR</text>
<text text-anchor="start" x="4" y="-289.5" font-family="Helvetica,sans-Serif" font-size="10.00">+</text>
<text text-anchor="start" x="14" y="-289.5" font-family="Helvetica,sans-Serif" font-size="10.00">void loadSchedulesFromFile(String filename)</text>
<text text-anchor="start" x="4" y="-274.5" font-family="Helvetica,sans-Serif" font-size="10.00">+</text>
<text text-anchor="start" x="14" y="-274.5" font-family="Helvetica,sans-Serif" font-size="10.00">void saveSchedulesToFile(String filename)</text>
<text text-anchor="start" x="4" y="-259.5" font-family="Helvetica,sans-Serif" font-size="10.00">+</text>
<text text-anchor="start" x="14" y="-259.5" font-family="Helvetica,sans-Serif" font-size="10.00">void updateDoctorSchedule(String doctorId,</text>
<text text-anchor="start" x="14" y="-248.25" font-family="Helvetica,sans-Serif" font-size="10.00"> Schedule schedule)</text>
<text text-anchor="start" x="4" y="-233.5" font-family="Helvetica,sans-Serif" font-size="10.00">+</text>
<text text-anchor="start" x="14" y="-233.5" font-family="Helvetica,sans-Serif" font-size="10.00">void addUser(User user)</text>
<text text-anchor="start" x="4" y="-218.5" font-family="Helvetica,sans-Serif" font-size="10.00">+</text>
<text text-anchor="start" x="14" y="-218.5" font-family="Helvetica,sans-Serif" font-size="10.00">void removeUser(User user)</text>
<text text-anchor="start" x="4" y="-203.5" font-family="Helvetica,sans-Serif" font-size="10.00">+</text>
<text text-anchor="start" x="14" y="-203.5" font-family="Helvetica,sans-Serif" font-size="10.00">User getUserByHospitalID(String hospitalID)</text>
<text text-anchor="start" x="4" y="-188.5" font-family="Helvetica,sans-Serif" font-size="10.00">+</text>
<text text-anchor="start" x="14" y="-188.5" font-family="Helvetica,sans-Serif" font-size="10.00">List&lt; User &gt; getUsers()</text>
<text text-anchor="start" x="4" y="-173.5" font-family="Helvetica,sans-Serif" font-size="10.00">+</text>
<text text-anchor="start" x="14" y="-173.5" font-family="Helvetica,sans-Serif" font-size="10.00">boolean cancelAppointment(Patient patient,</text>
<text text-anchor="start" x="14" y="-162.25" font-family="Helvetica,sans-Serif" font-size="10.00"> int appointmentId)</text>
<text text-anchor="start" x="4" y="-147.5" font-family="Helvetica,sans-Serif" font-size="10.00">+</text>
<text text-anchor="start" x="14" y="-147.5" font-family="Helvetica,sans-Serif" font-size="10.00">List&lt; Doctor &gt; getAllDoctors()</text>
<text text-anchor="start" x="4" y="-132.5" font-family="Helvetica,sans-Serif" font-size="10.00">+</text>
<text text-anchor="start" x="14" y="-132.5" font-family="Helvetica,sans-Serif" font-size="10.00">List&lt; TimeSlot &gt; getAvailableAppointmentSlots</text>
<text text-anchor="start" x="14" y="-121.25" font-family="Helvetica,sans-Serif" font-size="10.00">(LocalDate date, Doctor doctor)</text>
<text text-anchor="start" x="14" y="-106.5" font-family="Helvetica,sans-Serif" font-size="10.00">and 18 more...</text>
<text text-anchor="start" x="4" y="-91.5" font-family="Helvetica,sans-Serif" font-size="10.00">+</text>
<text text-anchor="start" x="14" y="-91.5" font-family="Helvetica,sans-Serif" font-size="10.00">static TextDB getInstance()</text>
<text text-anchor="start" x="4" y="-76.5" font-family="Helvetica,sans-Serif" font-size="10.00">+</text>
<text text-anchor="start" x="14" y="-76.5" font-family="Helvetica,sans-Serif" font-size="10.00">static void updateUserPassword(User user)</text>
<text text-anchor="start" x="4" y="-61.5" font-family="Helvetica,sans-Serif" font-size="10.00">+</text>
<text text-anchor="start" x="14" y="-61.5" font-family="Helvetica,sans-Serif" font-size="10.00">static void saveToFile(String filename)</text>
<text text-anchor="start" x="4" y="-46.5" font-family="Helvetica,sans-Serif" font-size="10.00">+</text>
<text text-anchor="start" x="14" y="-46.5" font-family="Helvetica,sans-Serif" font-size="10.00">static void write(String fileName, List</text>
<text text-anchor="start" x="14" y="-35.25" font-family="Helvetica,sans-Serif" font-size="10.00">&lt; String &gt; data)</text>
<text text-anchor="start" x="4" y="-20.5" font-family="Helvetica,sans-Serif" font-size="10.00">+</text>
<text text-anchor="start" x="14" y="-20.5" font-family="Helvetica,sans-Serif" font-size="10.00">static List&lt; String &gt; read(String fileName)</text>
<text text-anchor="start" x="4" y="-5.5" font-family="Helvetica,sans-Serif" font-size="10.00">+</text>
<text text-anchor="start" x="14" y="-5.5" font-family="Helvetica,sans-Serif" font-size="10.00">static void saveAppointmentsToFile(String filename)</text>
<polygon fill="#666666" stroke="#666666" points="0,-316 0,-316 244,-316 244,-316 0,-316"/>
<polygon fill="#666666" stroke="#666666" points="0,-301 0,-301 12,-301 12,-301 0,-301"/>
<polygon fill="#666666" stroke="#666666" points="12,-301 12,-301 244,-301 244,-301 12,-301"/>
<polygon fill="none" stroke="#666666" points="0,0 0,-333 244,-333 244,0 0,0"/>
</a>
</g>
</g>
<!-- Node2 -->
<g id="Node000002" class="node">
<title>Node2</title>
<g id="a_Node000002"><a xlink:title=" ">
<polygon fill="white" stroke="none" points="208,-429.25 36,-429.25 36,-380.25 208,-380.25 208,-429.25"/>
<text text-anchor="start" x="40.62" y="-415.75" font-family="Helvetica,sans-Serif" font-size="10.00">List&lt; items.ReplenishmentRequest &gt;</text>
<text text-anchor="start" x="120.5" y="-400.75" font-family="Helvetica,sans-Serif" font-size="10.00"> </text>
<text text-anchor="start" x="120.5" y="-385.75" font-family="Helvetica,sans-Serif" font-size="10.00"> </text>
<polygon fill="#666666" stroke="#666666" points="36,-412.25 36,-412.25 208,-412.25 208,-412.25 36,-412.25"/>
<polygon fill="#666666" stroke="#666666" points="36,-397.25 36,-397.25 208,-397.25 208,-397.25 36,-397.25"/>
<polygon fill="none" stroke="#666666" points="36,-380.25 36,-429.25 208,-429.25 208,-380.25 36,-380.25"/>
</a>
</g>
</g>
<!-- Node2&#45;&gt;Node1 -->
<g id="edge1_Node000001_Node000002" class="edge">
<title>Node2&#45;&gt;Node1</title>
<g id="a_edge1_Node000001_Node000002"><a xlink:title=" ">
<path fill="none" stroke="#63b8ff" d="M122,-380.67C122,-371.07 122,-359.01 122,-345.53"/>
<polygon fill="none" stroke="#63b8ff" points="122,-345.69 118,-339.69 122,-333.69 126,-339.69 122,-345.69"/>
</a>
</g>
<text text-anchor="middle" x="177.88" y="-352.75" font-family="Helvetica,sans-Serif" font-size="10.00" fill="grey"> +replenishmentRequests</text>
</g>
<!-- Node3 -->
<g id="Node000003" class="node">
<title>Node3</title>
<g id="a_Node000003"><a xlink:title=" ">
<polygon fill="white" stroke="none" points="134.5,-525.5 109.5,-525.5 109.5,-476.5 134.5,-476.5 134.5,-525.5"/>
<text text-anchor="start" x="114.12" y="-512" font-family="Helvetica,sans-Serif" font-size="10.00">List</text>
<text text-anchor="start" x="120.5" y="-497" font-family="Helvetica,sans-Serif" font-size="10.00"> </text>
<text text-anchor="start" x="120.5" y="-482" font-family="Helvetica,sans-Serif" font-size="10.00"> </text>
<polygon fill="#666666" stroke="#666666" points="109.5,-508.5 109.5,-508.5 134.5,-508.5 134.5,-508.5 109.5,-508.5"/>
<polygon fill="#666666" stroke="#666666" points="109.5,-493.5 109.5,-493.5 134.5,-493.5 134.5,-493.5 109.5,-493.5"/>
<polygon fill="none" stroke="#666666" points="109.5,-476.5 109.5,-525.5 134.5,-525.5 134.5,-476.5 109.5,-476.5"/>
</a>
</g>
</g>
<!-- Node3&#45;&gt;Node2 -->
<g id="edge2_Node000002_Node000003" class="edge">
<title>Node3&#45;&gt;Node2</title>
<g id="a_edge2_Node000002_Node000003"><a xlink:title=" ">
<path fill="none" stroke="orange" d="M122,-465.19C122,-453.16 122,-439.99 122,-429.11"/>
<polygon fill="orange" stroke="orange" points="118.5,-465.19 122,-475.19 125.5,-465.19 118.5,-465.19"/>
</a>
</g>
<text text-anchor="middle" x="198.5" y="-449" font-family="Helvetica,sans-Serif" font-size="10.00" fill="grey"> &lt; items::ReplenishmentRequest &gt;</text>
</g>
</g>
</svg>
