<?xml version="1.0" encoding="UTF-8" standalone="no"?>
<!DOCTYPE svg PUBLIC "-//W3C//DTD SVG 1.1//EN"
 "http://www.w3.org/Graphics/SVG/1.1/DTD/svg11.dtd">
<!-- Generated by graphviz version 12.1.2 (20240928.0832)
 -->
<!-- Title: user_classes.User Pages: 1 -->
<!--zoomable 691 -->

<svg id="main" version="1.1" xmlns="http://www.w3.org/2000/svg" xmlns:xlink="http://www.w3.org/1999/xlink" xml:space="preserve" onload="init(evt)">
<style type="text/css"><![CDATA[
.node, .edge {opacity: 0.7;}
.node.selected, .edge.selected {opacity: 1;}
.edge:hover path { stroke: red; }
.edge:hover polygon { stroke: red; fill: red; }
]]></style>

<defs>
  <circle id="rim" cx="0" cy="0" r="7"/>
  <circle id="rim2" cx="0" cy="0" r="3.5"/>
  <g id="zoomPlus">
    <use xlink:href="#rim" fill="#404040"><set attributeName="fill" to="#808080" begin="zoomplus.mouseover" end="zoomplus.mouseout"/></use>
    <path d="M-4,0h8M0,-4v8" fill="none" stroke="white" stroke-width="1.5" pointer-events="none"/>
  </g>
  <g id="zoomMin">
    <use xlink:href="#rim" fill="#404040"><set attributeName="fill" to="#808080" begin="zoomminus.mouseover" end="zoomminus.mouseout"/></use>
    <path d="M-4,0h8" fill="none" stroke="white" stroke-width="1.5" pointer-events="none"/>
  </g>
  <g id="arrowUp" transform="translate(30 24)">
    <use xlink:href="#rim"/>
    <path pointer-events="none" fill="none" stroke="white" stroke-width="1.5" d="M0,-3.0v7 M-2.5,-0.5L0,-3.0L2.5,-0.5"/>
  </g>
  <g id="arrowRight" transform="rotate(90) translate(36 -43)">
    <use xlink:href="#rim"/>
    <path pointer-events="none" fill="none" stroke="white" stroke-width="1.5" d="M0,-3.0v7 M-2.5,-0.5L0,-3.0L2.5,-0.5"/>
  </g>
  <g id="arrowDown" transform="rotate(180) translate(-30 -48)">
    <use xlink:href="#rim"/>
    <path pointer-events="none" fill="none" stroke="white" stroke-width="1.5" d="M0,-3.0v7 M-2.5,-0.5L0,-3.0L2.5,-0.5"/>
  </g>
  <g id="arrowLeft" transform="rotate(270) translate(-36 17)">
    <use xlink:href="#rim"/>
    <path pointer-events="none" fill="none" stroke="white" stroke-width="1.5" d="M0,-3.0v7 M-2.5,-0.5L0,-3.0L2.5,-0.5"/>
  </g>
  <g id="resetDef">
    <use xlink:href="#rim2" fill="#404040"><set attributeName="fill" to="#808080" begin="reset.mouseover" end="reset.mouseout"/></use>
  </g>
</defs>
<script type="application/ecmascript">
var viewWidth = 1012;
var viewHeight = 691;
var sectionId = 'dynsection-0';
</script>
<script type="application/ecmascript" xlink:href="svg.min.js"/>
<svg id="graph" class="graph">
<g id="viewport">
<title>user_classes.User</title>
<!-- Node1 -->
<g id="Node000001" class="node">
<title>Node1</title>
<g id="a_Node000001"><a xlink:title="An abstract base class representing a generic user in the hospital management system.">
<polygon fill="#999999" stroke="none" points="626,-683 383,-683 383,-383 626,-383 626,-683"/>
<text text-anchor="start" x="463.62" y="-669.5" font-family="Helvetica,sans-Serif" font-size="10.00">user_classes.User</text>
<text text-anchor="start" x="387" y="-654.5" font-family="Helvetica,sans-Serif" font-size="10.00">+</text>
<text text-anchor="start" x="397" y="-654.5" font-family="Helvetica,sans-Serif" font-size="10.00">String role</text>
<text text-anchor="start" x="387" y="-639.5" font-family="Helvetica,sans-Serif" font-size="10.00">~</text>
<text text-anchor="start" x="397" y="-639.5" font-family="Helvetica,sans-Serif" font-size="10.00">static int userCount</text>
<text text-anchor="start" x="387.38" y="-624.5" font-family="Helvetica,sans-Serif" font-size="10.00">#</text>
<text text-anchor="start" x="397" y="-624.5" font-family="Helvetica,sans-Serif" font-size="10.00">String hospitalID</text>
<text text-anchor="start" x="387.38" y="-609.5" font-family="Helvetica,sans-Serif" font-size="10.00">#</text>
<text text-anchor="start" x="397" y="-609.5" font-family="Helvetica,sans-Serif" font-size="10.00">String password</text>
<text text-anchor="start" x="387.38" y="-594.5" font-family="Helvetica,sans-Serif" font-size="10.00">#</text>
<text text-anchor="start" x="397" y="-594.5" font-family="Helvetica,sans-Serif" font-size="10.00">String name</text>
<text text-anchor="start" x="387.38" y="-579.5" font-family="Helvetica,sans-Serif" font-size="10.00">#</text>
<text text-anchor="start" x="397" y="-579.5" font-family="Helvetica,sans-Serif" font-size="10.00">LocalDate dateOfBirth</text>
<text text-anchor="start" x="387.38" y="-564.5" font-family="Helvetica,sans-Serif" font-size="10.00">#</text>
<text text-anchor="start" x="397" y="-564.5" font-family="Helvetica,sans-Serif" font-size="10.00">String gender</text>
<text text-anchor="start" x="387" y="-549.5" font-family="Helvetica,sans-Serif" font-size="10.00">+</text>
<text text-anchor="start" x="397" y="-549.5" font-family="Helvetica,sans-Serif" font-size="10.00">User(String hospitalID, String password,</text>
<text text-anchor="start" x="397" y="-538.25" font-family="Helvetica,sans-Serif" font-size="10.00"> String name, LocalDate dateOfBirth, String gender)</text>
<text text-anchor="start" x="387" y="-523.5" font-family="Helvetica,sans-Serif" font-size="10.00">+</text>
<text text-anchor="start" x="397" y="-523.5" font-family="Helvetica,sans-Serif" font-size="10.00">String getRole()</text>
<text text-anchor="start" x="387" y="-508.5" font-family="Helvetica,sans-Serif" font-size="10.00">+</text>
<text text-anchor="start" x="397" y="-508.5" font-family="Helvetica,sans-Serif" font-size="10.00">String getAge()</text>
<text text-anchor="start" x="387" y="-493.5" font-family="Helvetica,sans-Serif" font-size="10.00">+</text>
<text text-anchor="start" x="397" y="-493.5" font-family="Helvetica,sans-Serif" font-size="10.00">String getHospitalID()</text>
<text text-anchor="start" x="387" y="-478.5" font-family="Helvetica,sans-Serif" font-size="10.00">+</text>
<text text-anchor="start" x="397" y="-478.5" font-family="Helvetica,sans-Serif" font-size="10.00">void setHospitalID(String hospitalID)</text>
<text text-anchor="start" x="387" y="-463.5" font-family="Helvetica,sans-Serif" font-size="10.00">+</text>
<text text-anchor="start" x="397" y="-463.5" font-family="Helvetica,sans-Serif" font-size="10.00">String getPassword()</text>
<text text-anchor="start" x="387" y="-448.5" font-family="Helvetica,sans-Serif" font-size="10.00">+</text>
<text text-anchor="start" x="397" y="-448.5" font-family="Helvetica,sans-Serif" font-size="10.00">void setPassword(String password)</text>
<text text-anchor="start" x="387" y="-433.5" font-family="Helvetica,sans-Serif" font-size="10.00">+</text>
<text text-anchor="start" x="397" y="-433.5" font-family="Helvetica,sans-Serif" font-size="10.00">String getName()</text>
<text text-anchor="start" x="387" y="-418.5" font-family="Helvetica,sans-Serif" font-size="10.00">+</text>
<text text-anchor="start" x="397" y="-418.5" font-family="Helvetica,sans-Serif" font-size="10.00">void setName(String name)</text>
<text text-anchor="start" x="387" y="-403.5" font-family="Helvetica,sans-Serif" font-size="10.00">+</text>
<text text-anchor="start" x="397" y="-403.5" font-family="Helvetica,sans-Serif" font-size="10.00">LocalDate getDateOfBirth()</text>
<text text-anchor="start" x="397" y="-388.5" font-family="Helvetica,sans-Serif" font-size="10.00">and 6 more...</text>
<polygon fill="#666666" stroke="#666666" points="383,-666 383,-666 626,-666 626,-666 383,-666"/>
<polygon fill="#666666" stroke="#666666" points="383,-561 383,-561 395,-561 395,-561 383,-561"/>
<polygon fill="#666666" stroke="#666666" points="395,-561 395,-561 626,-561 626,-561 395,-561"/>
<polygon fill="none" stroke="#666666" points="383,-383 383,-683 626,-683 626,-383 383,-383"/>
</a>
</g>
</g>
<!-- Node2 -->
<g id="Node000002" class="node">
<title>Node2</title>
<g id="a_Node000002"><a xlink:href="classuser__classes_1_1_administrator.html" target="_top" xlink:title="Represents an administrator user with specific responsibilities within the hospital system.">
<polygon fill="white" stroke="none" points="227,-269 0,-269 0,-78 227,-78 227,-269"/>
<text text-anchor="start" x="54.25" y="-255.5" font-family="Helvetica,sans-Serif" font-size="10.00">user_classes.Administrator</text>
<text text-anchor="start" x="112" y="-240.5" font-family="Helvetica,sans-Serif" font-size="10.00"> </text>
<text text-anchor="start" x="4" y="-225.5" font-family="Helvetica,sans-Serif" font-size="10.00">+</text>
<text text-anchor="start" x="14" y="-225.5" font-family="Helvetica,sans-Serif" font-size="10.00">Administrator(String hospitalID, String</text>
<text text-anchor="start" x="14" y="-214.25" font-family="Helvetica,sans-Serif" font-size="10.00"> password, String name, LocalDate dateOfBirth,</text>
<text text-anchor="start" x="14" y="-203" font-family="Helvetica,sans-Serif" font-size="10.00"> String gender)</text>
<text text-anchor="start" x="4" y="-188.5" font-family="Helvetica,sans-Serif" font-size="10.00">+</text>
<text text-anchor="start" x="14" y="-188.5" font-family="Helvetica,sans-Serif" font-size="10.00">String toString()</text>
<text text-anchor="start" x="4" y="-173.5" font-family="Helvetica,sans-Serif" font-size="10.00">+</text>
<text text-anchor="start" x="14" y="-173.5" font-family="Helvetica,sans-Serif" font-size="10.00">void login()</text>
<text text-anchor="start" x="4" y="-158.5" font-family="Helvetica,sans-Serif" font-size="10.00">+</text>
<text text-anchor="start" x="14" y="-158.5" font-family="Helvetica,sans-Serif" font-size="10.00">void changePassword()</text>
<text text-anchor="start" x="4" y="-143.5" font-family="Helvetica,sans-Serif" font-size="10.00">+</text>
<text text-anchor="start" x="14" y="-143.5" font-family="Helvetica,sans-Serif" font-size="10.00">void logout()</text>
<text text-anchor="start" x="4" y="-128.5" font-family="Helvetica,sans-Serif" font-size="10.00">+</text>
<text text-anchor="start" x="14" y="-128.5" font-family="Helvetica,sans-Serif" font-size="10.00">void manageHospitalStaff()</text>
<text text-anchor="start" x="4" y="-113.5" font-family="Helvetica,sans-Serif" font-size="10.00">+</text>
<text text-anchor="start" x="14" y="-113.5" font-family="Helvetica,sans-Serif" font-size="10.00">void viewAppointmentsDetails()</text>
<text text-anchor="start" x="4" y="-98.5" font-family="Helvetica,sans-Serif" font-size="10.00">+</text>
<text text-anchor="start" x="14" y="-98.5" font-family="Helvetica,sans-Serif" font-size="10.00">void viewAndManageMedicationInventory()</text>
<text text-anchor="start" x="4" y="-83.5" font-family="Helvetica,sans-Serif" font-size="10.00">+</text>
<text text-anchor="start" x="14" y="-83.5" font-family="Helvetica,sans-Serif" font-size="10.00">void approveReplenishmentRequests()</text>
<polygon fill="#666666" stroke="#666666" points="0,-252 0,-252 227,-252 227,-252 0,-252"/>
<polygon fill="#666666" stroke="#666666" points="0,-237 0,-237 227,-237 227,-237 0,-237"/>
<polygon fill="none" stroke="#666666" points="0,-78 0,-269 227,-269 227,-78 0,-78"/>
</a>
</g>
</g>
<!-- Node1&#45;&gt;Node2 -->
<g id="edge1_Node000001_Node000002" class="edge">
<title>Node1&#45;&gt;Node2</title>
<g id="a_edge1_Node000001_Node000002"><a xlink:title=" ">
<path fill="none" stroke="#63b8ff" d="M373.85,-454.98C327.75,-424.52 277.29,-387.18 236.5,-347 212.91,-323.77 190.71,-295.56 171.83,-268.73"/>
<polygon fill="none" stroke="#63b8ff" points="371.76,-457.79 382.04,-460.35 375.59,-451.94 371.76,-457.79"/>
</a>
</g>
</g>
<!-- Node3 -->
<g id="Node000003" class="node">
<title>Node3</title>
<g id="a_Node000003"><a xlink:href="classuser__classes_1_1_doctor.html" target="_top" xlink:title="Represents a doctor in the hospital management system.">
<polygon fill="white" stroke="none" points="497.5,-347 245.5,-347 245.5,0 497.5,0 497.5,-347"/>
<text text-anchor="start" x="326.5" y="-333.5" font-family="Helvetica,sans-Serif" font-size="10.00">user_classes.Doctor</text>
<text text-anchor="start" x="370" y="-318.5" font-family="Helvetica,sans-Serif" font-size="10.00"> </text>
<text text-anchor="start" x="249.5" y="-303.5" font-family="Helvetica,sans-Serif" font-size="10.00">+</text>
<text text-anchor="start" x="259.5" y="-303.5" font-family="Helvetica,sans-Serif" font-size="10.00">Doctor(String hospitalID, String password,</text>
<text text-anchor="start" x="259.5" y="-292.25" font-family="Helvetica,sans-Serif" font-size="10.00"> String name, LocalDate dateOfBirth, String</text>
<text text-anchor="start" x="259.5" y="-281" font-family="Helvetica,sans-Serif" font-size="10.00"> gender, Schedule schedule)</text>
<text text-anchor="start" x="249.5" y="-266.5" font-family="Helvetica,sans-Serif" font-size="10.00">+</text>
<text text-anchor="start" x="259.5" y="-266.5" font-family="Helvetica,sans-Serif" font-size="10.00">Doctor(String hospitalID, String password,</text>
<text text-anchor="start" x="259.5" y="-255.25" font-family="Helvetica,sans-Serif" font-size="10.00"> String name, LocalDate dateOfBirth, String</text>
<text text-anchor="start" x="259.5" y="-244" font-family="Helvetica,sans-Serif" font-size="10.00"> gender, Schedule schedule, List&lt; String &gt; patientIds)</text>
<text text-anchor="start" x="249.5" y="-229.5" font-family="Helvetica,sans-Serif" font-size="10.00">+</text>
<text text-anchor="start" x="259.5" y="-229.5" font-family="Helvetica,sans-Serif" font-size="10.00">List&lt; String &gt; getPatients()</text>
<text text-anchor="start" x="249.5" y="-214.5" font-family="Helvetica,sans-Serif" font-size="10.00">+</text>
<text text-anchor="start" x="259.5" y="-214.5" font-family="Helvetica,sans-Serif" font-size="10.00">void addPatient(String patientId)</text>
<text text-anchor="start" x="249.5" y="-199.5" font-family="Helvetica,sans-Serif" font-size="10.00">+</text>
<text text-anchor="start" x="259.5" y="-199.5" font-family="Helvetica,sans-Serif" font-size="10.00">void removePatient(String patientId)</text>
<text text-anchor="start" x="249.5" y="-184.5" font-family="Helvetica,sans-Serif" font-size="10.00">+</text>
<text text-anchor="start" x="259.5" y="-184.5" font-family="Helvetica,sans-Serif" font-size="10.00">Schedule getSchedule()</text>
<text text-anchor="start" x="249.5" y="-169.5" font-family="Helvetica,sans-Serif" font-size="10.00">+</text>
<text text-anchor="start" x="259.5" y="-169.5" font-family="Helvetica,sans-Serif" font-size="10.00">void setSchedule(Schedule schedule)</text>
<text text-anchor="start" x="249.5" y="-154.5" font-family="Helvetica,sans-Serif" font-size="10.00">+</text>
<text text-anchor="start" x="259.5" y="-154.5" font-family="Helvetica,sans-Serif" font-size="10.00">MedicalRecord getPatientMedicalRecord</text>
<text text-anchor="start" x="259.5" y="-143.25" font-family="Helvetica,sans-Serif" font-size="10.00">(String patientId)</text>
<text text-anchor="start" x="249.5" y="-128.5" font-family="Helvetica,sans-Serif" font-size="10.00">+</text>
<text text-anchor="start" x="259.5" y="-128.5" font-family="Helvetica,sans-Serif" font-size="10.00">void updatePatientMedicalRecord(String</text>
<text text-anchor="start" x="259.5" y="-117.25" font-family="Helvetica,sans-Serif" font-size="10.00"> patientId, MedicalRecord updatedRecord)</text>
<text text-anchor="start" x="249.5" y="-102.5" font-family="Helvetica,sans-Serif" font-size="10.00">+</text>
<text text-anchor="start" x="259.5" y="-102.5" font-family="Helvetica,sans-Serif" font-size="10.00">void setAvailability(LocalDate date,</text>
<text text-anchor="start" x="259.5" y="-91.25" font-family="Helvetica,sans-Serif" font-size="10.00"> List&lt; TimeSlot &gt; availability)</text>
<text text-anchor="start" x="249.5" y="-76.5" font-family="Helvetica,sans-Serif" font-size="10.00">+</text>
<text text-anchor="start" x="259.5" y="-76.5" font-family="Helvetica,sans-Serif" font-size="10.00">List&lt; TimeSlot &gt; getAvailableTimeSlots</text>
<text text-anchor="start" x="259.5" y="-65.25" font-family="Helvetica,sans-Serif" font-size="10.00">(LocalDate date)</text>
<text text-anchor="start" x="249.5" y="-50.5" font-family="Helvetica,sans-Serif" font-size="10.00">+</text>
<text text-anchor="start" x="259.5" y="-50.5" font-family="Helvetica,sans-Serif" font-size="10.00">String toString()</text>
<text text-anchor="start" x="249.5" y="-35.5" font-family="Helvetica,sans-Serif" font-size="10.00">+</text>
<text text-anchor="start" x="259.5" y="-35.5" font-family="Helvetica,sans-Serif" font-size="10.00">void login()</text>
<text text-anchor="start" x="249.5" y="-20.5" font-family="Helvetica,sans-Serif" font-size="10.00">+</text>
<text text-anchor="start" x="259.5" y="-20.5" font-family="Helvetica,sans-Serif" font-size="10.00">void changePassword()</text>
<text text-anchor="start" x="249.5" y="-5.5" font-family="Helvetica,sans-Serif" font-size="10.00">+</text>
<text text-anchor="start" x="259.5" y="-5.5" font-family="Helvetica,sans-Serif" font-size="10.00">void logout()</text>
<polygon fill="#666666" stroke="#666666" points="245.5,-330 245.5,-330 497.5,-330 497.5,-330 245.5,-330"/>
<polygon fill="#666666" stroke="#666666" points="245.5,-315 245.5,-315 497.5,-315 497.5,-315 245.5,-315"/>
<polygon fill="none" stroke="#666666" points="245.5,0 245.5,-347 497.5,-347 497.5,0 245.5,0"/>
</a>
</g>
</g>
<!-- Node1&#45;&gt;Node3 -->
<g id="edge2_Node000001_Node000003" class="edge">
<title>Node1&#45;&gt;Node3</title>
<g id="a_edge2_Node000001_Node000003"><a xlink:title=" ">
<path fill="none" stroke="#63b8ff" d="M445.17,-372.52C442.01,-364.03 438.83,-355.48 435.66,-346.96"/>
<polygon fill="none" stroke="#63b8ff" points="441.86,-373.66 448.63,-381.82 448.42,-371.22 441.86,-373.66"/>
</a>
</g>
</g>
<!-- Node4 -->
<g id="Node000004" class="node">
<title>Node4</title>
<g id="a_Node000004"><a xlink:href="classuser__classes_1_1_patient.html" target="_top" xlink:title="Represents a patient in the hospital management system.">
<polygon fill="white" stroke="none" points="759,-263.5 516,-263.5 516,-83.5 759,-83.5 759,-263.5"/>
<text text-anchor="start" x="591.75" y="-250" font-family="Helvetica,sans-Serif" font-size="10.00">user_classes.Patient</text>
<text text-anchor="start" x="636" y="-235" font-family="Helvetica,sans-Serif" font-size="10.00"> </text>
<text text-anchor="start" x="520" y="-220" font-family="Helvetica,sans-Serif" font-size="10.00">+</text>
<text text-anchor="start" x="530" y="-220" font-family="Helvetica,sans-Serif" font-size="10.00">Patient(String hospitalID, String password,</text>
<text text-anchor="start" x="530" y="-208.75" font-family="Helvetica,sans-Serif" font-size="10.00"> String name, LocalDate dateOfBirth, String gender)</text>
<text text-anchor="start" x="520" y="-194" font-family="Helvetica,sans-Serif" font-size="10.00">+</text>
<text text-anchor="start" x="530" y="-194" font-family="Helvetica,sans-Serif" font-size="10.00">void login()</text>
<text text-anchor="start" x="520" y="-179" font-family="Helvetica,sans-Serif" font-size="10.00">+</text>
<text text-anchor="start" x="530" y="-179" font-family="Helvetica,sans-Serif" font-size="10.00">String toString()</text>
<text text-anchor="start" x="520" y="-164" font-family="Helvetica,sans-Serif" font-size="10.00">+</text>
<text text-anchor="start" x="530" y="-164" font-family="Helvetica,sans-Serif" font-size="10.00">void changePassword()</text>
<text text-anchor="start" x="520" y="-149" font-family="Helvetica,sans-Serif" font-size="10.00">+</text>
<text text-anchor="start" x="530" y="-149" font-family="Helvetica,sans-Serif" font-size="10.00">void logout()</text>
<text text-anchor="start" x="520" y="-134" font-family="Helvetica,sans-Serif" font-size="10.00">+</text>
<text text-anchor="start" x="530" y="-134" font-family="Helvetica,sans-Serif" font-size="10.00">void requestAppointment()</text>
<text text-anchor="start" x="520" y="-119" font-family="Helvetica,sans-Serif" font-size="10.00">+</text>
<text text-anchor="start" x="530" y="-119" font-family="Helvetica,sans-Serif" font-size="10.00">void viewPrescriptions()</text>
<text text-anchor="start" x="520" y="-104" font-family="Helvetica,sans-Serif" font-size="10.00">+</text>
<text text-anchor="start" x="530" y="-104" font-family="Helvetica,sans-Serif" font-size="10.00">void updateContactInformation()</text>
<text text-anchor="start" x="520" y="-89" font-family="Helvetica,sans-Serif" font-size="10.00">+</text>
<text text-anchor="start" x="530" y="-89" font-family="Helvetica,sans-Serif" font-size="10.00">MedicalRecord getMedicalRecord()</text>
<polygon fill="#666666" stroke="#666666" points="516,-246.5 516,-246.5 759,-246.5 759,-246.5 516,-246.5"/>
<polygon fill="#666666" stroke="#666666" points="516,-231.5 516,-231.5 759,-231.5 759,-231.5 516,-231.5"/>
<polygon fill="none" stroke="#666666" points="516,-83.5 516,-263.5 759,-263.5 759,-83.5 516,-83.5"/>
</a>
</g>
</g>
<!-- Node1&#45;&gt;Node4 -->
<g id="edge3_Node000001_Node000004" class="edge">
<title>Node1&#45;&gt;Node4</title>
<g id="a_edge3_Node000001_Node000004"><a xlink:title=" ">
<path fill="none" stroke="#63b8ff" d="M563.77,-372.69C577.72,-335.17 592.11,-296.5 604.43,-263.39"/>
<polygon fill="none" stroke="#63b8ff" points="560.58,-371.22 560.37,-381.82 567.14,-373.66 560.58,-371.22"/>
</a>
</g>
</g>
<!-- Node5 -->
<g id="Node000005" class="node">
<title>Node5</title>
<g id="a_Node000005"><a xlink:href="classuser__classes_1_1_pharmacist.html" target="_top" xlink:title="Represents a pharmacist in the hospital management system.">
<polygon fill="white" stroke="none" points="1004,-269 777,-269 777,-78 1004,-78 1004,-269"/>
<text text-anchor="start" x="835.38" y="-255.5" font-family="Helvetica,sans-Serif" font-size="10.00">user_classes.Pharmacist</text>
<text text-anchor="start" x="889" y="-240.5" font-family="Helvetica,sans-Serif" font-size="10.00"> </text>
<text text-anchor="start" x="781" y="-225.5" font-family="Helvetica,sans-Serif" font-size="10.00">+</text>
<text text-anchor="start" x="791" y="-225.5" font-family="Helvetica,sans-Serif" font-size="10.00">Pharmacist(String hospitalID, String</text>
<text text-anchor="start" x="791" y="-214.25" font-family="Helvetica,sans-Serif" font-size="10.00"> password, String name, LocalDate dateOfBirth,</text>
<text text-anchor="start" x="791" y="-203" font-family="Helvetica,sans-Serif" font-size="10.00"> String gender)</text>
<text text-anchor="start" x="781" y="-188.5" font-family="Helvetica,sans-Serif" font-size="10.00">+</text>
<text text-anchor="start" x="791" y="-188.5" font-family="Helvetica,sans-Serif" font-size="10.00">void login()</text>
<text text-anchor="start" x="781" y="-173.5" font-family="Helvetica,sans-Serif" font-size="10.00">+</text>
<text text-anchor="start" x="791" y="-173.5" font-family="Helvetica,sans-Serif" font-size="10.00">void changePassword()</text>
<text text-anchor="start" x="781" y="-158.5" font-family="Helvetica,sans-Serif" font-size="10.00">+</text>
<text text-anchor="start" x="791" y="-158.5" font-family="Helvetica,sans-Serif" font-size="10.00">void logout()</text>
<text text-anchor="start" x="781" y="-143.5" font-family="Helvetica,sans-Serif" font-size="10.00">+</text>
<text text-anchor="start" x="791" y="-143.5" font-family="Helvetica,sans-Serif" font-size="10.00">String toString()</text>
<text text-anchor="start" x="781" y="-128.5" font-family="Helvetica,sans-Serif" font-size="10.00">+</text>
<text text-anchor="start" x="791" y="-128.5" font-family="Helvetica,sans-Serif" font-size="10.00">void viewAppointmentOutcomeRecords()</text>
<text text-anchor="start" x="781" y="-113.5" font-family="Helvetica,sans-Serif" font-size="10.00">+</text>
<text text-anchor="start" x="791" y="-113.5" font-family="Helvetica,sans-Serif" font-size="10.00">void updatePrescriptionStatus()</text>
<text text-anchor="start" x="781" y="-98.5" font-family="Helvetica,sans-Serif" font-size="10.00">+</text>
<text text-anchor="start" x="791" y="-98.5" font-family="Helvetica,sans-Serif" font-size="10.00">void viewMedicationInventory()</text>
<text text-anchor="start" x="781" y="-83.5" font-family="Helvetica,sans-Serif" font-size="10.00">+</text>
<text text-anchor="start" x="791" y="-83.5" font-family="Helvetica,sans-Serif" font-size="10.00">void submitReplenishmentRequest()</text>
<polygon fill="#666666" stroke="#666666" points="777,-252 777,-252 1004,-252 1004,-252 777,-252"/>
<polygon fill="#666666" stroke="#666666" points="777,-237 777,-237 1004,-237 1004,-237 777,-237"/>
<polygon fill="none" stroke="#666666" points="777,-78 777,-269 1004,-269 1004,-78 777,-78"/>
</a>
</g>
</g>
<!-- Node1&#45;&gt;Node5 -->
<g id="edge4_Node000001_Node000005" class="edge">
<title>Node1&#45;&gt;Node5</title>
<g id="a_edge4_Node000001_Node000005"><a xlink:title=" ">
<path fill="none" stroke="#63b8ff" d="M635.4,-453.32C680.21,-423.11 728.97,-386.35 768.5,-347 791.89,-323.71 813.92,-295.47 832.64,-268.65"/>
<polygon fill="none" stroke="#63b8ff" points="633.53,-450.35 627.16,-458.82 637.42,-456.18 633.53,-450.35"/>
</a>
</g>
</g>
</g>
</svg>

<g id="navigator" transform="translate(0 0)" fill="#404254">
  <rect fill="#f2f5e9" fill-opacity="0.5" stroke="#606060" stroke-width=".5" x="0" y="0" width="60" height="60"/>
  <use id="zoomplus" xlink:href="#zoomPlus" x="17" y="9" onmousedown="handleZoom(evt,'in')"/>
  <use id="zoomminus" xlink:href="#zoomMin" x="42" y="9" onmousedown="handleZoom(evt,'out')"/>
  <use id="reset" xlink:href="#resetDef" x="30" y="36" onmousedown="handleReset()"/>
   <use id="arrowup" xlink:href="#arrowUp" x="0" y="0" onmousedown="handlePan(0,-1)"/>
  <use id="arrowright" xlink:href="#arrowRight" x="0" y="0" onmousedown="handlePan(1,0)"/>
  <use id="arrowdown" xlink:href="#arrowDown" x="0" y="0" onmousedown="handlePan(0,1)"/>
  <use id="arrowleft" xlink:href="#arrowLeft" x="0" y="0" onmousedown="handlePan(-1,0)"/>
</g>
<svg viewBox="0 0 15 15" width="100%" height="30px" preserveAspectRatio="xMaxYMin meet">
 <g id="arrow_out" transform="scale(0.3 0.3)">
  <a xlink:href="classuser__classes_1_1_user__inherit__graph_org.svg" target="_base">
   <rect id="button" ry="5" rx="5" y="6" x="6" height="38" width="38"
        fill="#f2f5e9" fill-opacity="0.5" stroke="#606060" stroke-width="1.0"/>
   <path id="arrow"
     d="M 11.500037,31.436501 C 11.940474,20.09759 22.043105,11.32322 32.158766,21.979434 L 37.068811,17.246167 C 37.068811,17.246167 37.088388,32 37.088388,32 L 22.160133,31.978069 C 22.160133,31.978069 26.997745,27.140456 26.997745,27.140456 C 18.528582,18.264221 13.291696,25.230495 11.500037,31.436501 z"
     style="fill:#404040;"/>
  </a>
 </g>
</svg>

<style type='text/css'>
<![CDATA[
[data-mouse-over-selected='false'] { opacity: 0.7; }
[data-mouse-over-selected='true']  { opacity: 1.0; }
]]>
</style>
<script type="application/ecmascript"><![CDATA[
document.addEventListener('DOMContentLoaded', (event) => {
  highlightEdges();
  highlightAdjacentNodes();
});
]]></script>
</svg>
