<?xml version="1.0" encoding="UTF-8" standalone="no"?>
<!DOCTYPE svg PUBLIC "-//W3C//DTD SVG 1.1//EN"
 "http://www.w3.org/Graphics/SVG/1.1/DTD/svg11.dtd">
<!-- Generated by graphviz version 12.1.2 (20240928.0832)
 -->
<!-- Title: user_classes.Pharmacist Pages: 1 -->
<svg width="251pt" height="617pt"
 viewBox="0.00 0.00 251.00 617.25" xmlns="http://www.w3.org/2000/svg" xmlns:xlink="http://www.w3.org/1999/xlink">
<g id="graph0" class="graph" transform="scale(1 1) rotate(0) translate(4 613.25)">
<title>user_classes.Pharmacist</title>
<!-- Node1 -->
<g id="Node000001" class="node">
<title>Node1</title>
<g id="a_Node000001"><a xlink:title="Represents a pharmacist in the hospital management system.">
<polygon fill="#999999" stroke="none" points="235,-191 8,-191 8,0 235,0 235,-191"/>
<text text-anchor="start" x="66.38" y="-177.5" font-family="Helvetica,sans-Serif" font-size="10.00">user_classes.Pharmacist</text>
<text text-anchor="start" x="120" y="-162.5" font-family="Helvetica,sans-Serif" font-size="10.00"> </text>
<text text-anchor="start" x="12" y="-147.5" font-family="Helvetica,sans-Serif" font-size="10.00">+</text>
<text text-anchor="start" x="22" y="-147.5" font-family="Helvetica,sans-Serif" font-size="10.00">Pharmacist(String hospitalID, String</text>
<text text-anchor="start" x="22" y="-136.25" font-family="Helvetica,sans-Serif" font-size="10.00"> password, String name, LocalDate dateOfBirth,</text>
<text text-anchor="start" x="22" y="-125" font-family="Helvetica,sans-Serif" font-size="10.00"> String gender)</text>
<text text-anchor="start" x="12" y="-110.5" font-family="Helvetica,sans-Serif" font-size="10.00">+</text>
<text text-anchor="start" x="22" y="-110.5" font-family="Helvetica,sans-Serif" font-size="10.00">void login()</text>
<text text-anchor="start" x="12" y="-95.5" font-family="Helvetica,sans-Serif" font-size="10.00">+</text>
<text text-anchor="start" x="22" y="-95.5" font-family="Helvetica,sans-Serif" font-size="10.00">void changePassword()</text>
<text text-anchor="start" x="12" y="-80.5" font-family="Helvetica,sans-Serif" font-size="10.00">+</text>
<text text-anchor="start" x="22" y="-80.5" font-family="Helvetica,sans-Serif" font-size="10.00">void logout()</text>
<text text-anchor="start" x="12" y="-65.5" font-family="Helvetica,sans-Serif" font-size="10.00">+</text>
<text text-anchor="start" x="22" y="-65.5" font-family="Helvetica,sans-Serif" font-size="10.00">String toString()</text>
<text text-anchor="start" x="12" y="-50.5" font-family="Helvetica,sans-Serif" font-size="10.00">+</text>
<text text-anchor="start" x="22" y="-50.5" font-family="Helvetica,sans-Serif" font-size="10.00">void viewAppointmentOutcomeRecords()</text>
<text text-anchor="start" x="12" y="-35.5" font-family="Helvetica,sans-Serif" font-size="10.00">+</text>
<text text-anchor="start" x="22" y="-35.5" font-family="Helvetica,sans-Serif" font-size="10.00">void updatePrescriptionStatus()</text>
<text text-anchor="start" x="12" y="-20.5" font-family="Helvetica,sans-Serif" font-size="10.00">+</text>
<text text-anchor="start" x="22" y="-20.5" font-family="Helvetica,sans-Serif" font-size="10.00">void viewMedicationInventory()</text>
<text text-anchor="start" x="12" y="-5.5" font-family="Helvetica,sans-Serif" font-size="10.00">+</text>
<text text-anchor="start" x="22" y="-5.5" font-family="Helvetica,sans-Serif" font-size="10.00">void submitReplenishmentRequest()</text>
<polygon fill="#666666" stroke="#666666" points="8,-174 8,-174 235,-174 235,-174 8,-174"/>
<polygon fill="#666666" stroke="#666666" points="8,-159 8,-159 235,-159 235,-159 8,-159"/>
<polygon fill="none" stroke="#666666" points="8,0 8,-191 235,-191 235,0 8,0"/>
</a>
</g>
</g>
<!-- Node2 -->
<g id="Node000002" class="node">
<title>Node2</title>
<g id="a_Node000002"><a xlink:href="classuser__classes_1_1_user.html" target="_top" xlink:title="An abstract base class representing a generic user in the hospital management system.">
<polygon fill="white" stroke="none" points="243,-513 0,-513 0,-228 243,-228 243,-513"/>
<text text-anchor="start" x="80.62" y="-499.5" font-family="Helvetica,sans-Serif" font-size="10.00">user_classes.User</text>
<text text-anchor="start" x="4" y="-484.5" font-family="Helvetica,sans-Serif" font-size="10.00">+</text>
<text text-anchor="start" x="14" y="-484.5" font-family="Helvetica,sans-Serif" font-size="10.00">String role</text>
<text text-anchor="start" x="4" y="-469.5" font-family="Helvetica,sans-Serif" font-size="10.00">~</text>
<text text-anchor="start" x="14" y="-469.5" font-family="Helvetica,sans-Serif" font-size="10.00">static int userCount</text>
<text text-anchor="start" x="4.38" y="-454.5" font-family="Helvetica,sans-Serif" font-size="10.00">#</text>
<text text-anchor="start" x="14" y="-454.5" font-family="Helvetica,sans-Serif" font-size="10.00">String hospitalID</text>
<text text-anchor="start" x="4.38" y="-439.5" font-family="Helvetica,sans-Serif" font-size="10.00">#</text>
<text text-anchor="start" x="14" y="-439.5" font-family="Helvetica,sans-Serif" font-size="10.00">String password</text>
<text text-anchor="start" x="4.38" y="-424.5" font-family="Helvetica,sans-Serif" font-size="10.00">#</text>
<text text-anchor="start" x="14" y="-424.5" font-family="Helvetica,sans-Serif" font-size="10.00">String name</text>
<text text-anchor="start" x="4.38" y="-409.5" font-family="Helvetica,sans-Serif" font-size="10.00">#</text>
<text text-anchor="start" x="14" y="-409.5" font-family="Helvetica,sans-Serif" font-size="10.00">String gender</text>
<text text-anchor="start" x="4" y="-394.5" font-family="Helvetica,sans-Serif" font-size="10.00">+</text>
<text text-anchor="start" x="14" y="-394.5" font-family="Helvetica,sans-Serif" font-size="10.00">User(String hospitalID, String password,</text>
<text text-anchor="start" x="14" y="-383.25" font-family="Helvetica,sans-Serif" font-size="10.00"> String name, LocalDate dateOfBirth, String gender)</text>
<text text-anchor="start" x="4" y="-368.5" font-family="Helvetica,sans-Serif" font-size="10.00">+</text>
<text text-anchor="start" x="14" y="-368.5" font-family="Helvetica,sans-Serif" font-size="10.00">String getRole()</text>
<text text-anchor="start" x="4" y="-353.5" font-family="Helvetica,sans-Serif" font-size="10.00">+</text>
<text text-anchor="start" x="14" y="-353.5" font-family="Helvetica,sans-Serif" font-size="10.00">String getAge()</text>
<text text-anchor="start" x="4" y="-338.5" font-family="Helvetica,sans-Serif" font-size="10.00">+</text>
<text text-anchor="start" x="14" y="-338.5" font-family="Helvetica,sans-Serif" font-size="10.00">String getHospitalID()</text>
<text text-anchor="start" x="4" y="-323.5" font-family="Helvetica,sans-Serif" font-size="10.00">+</text>
<text text-anchor="start" x="14" y="-323.5" font-family="Helvetica,sans-Serif" font-size="10.00">void setHospitalID(String hospitalID)</text>
<text text-anchor="start" x="4" y="-308.5" font-family="Helvetica,sans-Serif" font-size="10.00">+</text>
<text text-anchor="start" x="14" y="-308.5" font-family="Helvetica,sans-Serif" font-size="10.00">String getPassword()</text>
<text text-anchor="start" x="4" y="-293.5" font-family="Helvetica,sans-Serif" font-size="10.00">+</text>
<text text-anchor="start" x="14" y="-293.5" font-family="Helvetica,sans-Serif" font-size="10.00">void setPassword(String password)</text>
<text text-anchor="start" x="4" y="-278.5" font-family="Helvetica,sans-Serif" font-size="10.00">+</text>
<text text-anchor="start" x="14" y="-278.5" font-family="Helvetica,sans-Serif" font-size="10.00">String getName()</text>
<text text-anchor="start" x="4" y="-263.5" font-family="Helvetica,sans-Serif" font-size="10.00">+</text>
<text text-anchor="start" x="14" y="-263.5" font-family="Helvetica,sans-Serif" font-size="10.00">void setName(String name)</text>
<text text-anchor="start" x="4" y="-248.5" font-family="Helvetica,sans-Serif" font-size="10.00">+</text>
<text text-anchor="start" x="14" y="-248.5" font-family="Helvetica,sans-Serif" font-size="10.00">LocalDate getDateOfBirth()</text>
<text text-anchor="start" x="14" y="-233.5" font-family="Helvetica,sans-Serif" font-size="10.00">and 6 more...</text>
<polygon fill="#666666" stroke="#666666" points="0,-496 0,-496 243,-496 243,-496 0,-496"/>
<polygon fill="#666666" stroke="#666666" points="0,-406 0,-406 12,-406 12,-406 0,-406"/>
<polygon fill="#666666" stroke="#666666" points="12,-406 12,-406 243,-406 243,-406 12,-406"/>
<polygon fill="none" stroke="#666666" points="0,-228 0,-513 243,-513 243,-228 0,-228"/>
</a>
</g>
</g>
<!-- Node2&#45;&gt;Node1 -->
<g id="edge1_Node000001_Node000002" class="edge">
<title>Node2&#45;&gt;Node1</title>
<g id="a_edge1_Node000001_Node000002"><a xlink:title=" ">
<path fill="none" stroke="#63b8ff" d="M121.5,-216.69C121.5,-207.97 121.5,-199.34 121.5,-190.94"/>
<polygon fill="none" stroke="#63b8ff" points="118,-216.69 121.5,-226.69 125,-216.69 118,-216.69"/>
</a>
</g>
</g>
<!-- Node3 -->
<g id="Node000003" class="node">
<title>Node3</title>
<g id="a_Node000003"><a xlink:title=" ">
<polygon fill="white" stroke="none" points="148.5,-609.25 94.5,-609.25 94.5,-560.25 148.5,-560.25 148.5,-609.25"/>
<text text-anchor="start" x="99.38" y="-595.75" font-family="Helvetica,sans-Serif" font-size="10.00">LocalDate</text>
<text text-anchor="start" x="120" y="-580.75" font-family="Helvetica,sans-Serif" font-size="10.00"> </text>
<text text-anchor="start" x="120" y="-565.75" font-family="Helvetica,sans-Serif" font-size="10.00"> </text>
<polygon fill="#666666" stroke="#666666" points="94.5,-592.25 94.5,-592.25 148.5,-592.25 148.5,-592.25 94.5,-592.25"/>
<polygon fill="#666666" stroke="#666666" points="94.5,-577.25 94.5,-577.25 148.5,-577.25 148.5,-577.25 94.5,-577.25"/>
<polygon fill="none" stroke="#666666" points="94.5,-560.25 94.5,-609.25 148.5,-609.25 148.5,-560.25 94.5,-560.25"/>
</a>
</g>
</g>
<!-- Node3&#45;&gt;Node2 -->
<g id="edge2_Node000002_Node000003" class="edge">
<title>Node3&#45;&gt;Node2</title>
<g id="a_edge2_Node000002_Node000003"><a xlink:title=" ">
<path fill="none" stroke="#63b8ff" d="M121.5,-560.63C121.5,-550.92 121.5,-538.75 121.5,-525.29"/>
<polygon fill="none" stroke="#63b8ff" points="121.5,-525.5 117.5,-519.5 121.5,-513.5 125.5,-519.5 121.5,-525.5"/>
</a>
</g>
<text text-anchor="middle" x="150.38" y="-532.75" font-family="Helvetica,sans-Serif" font-size="10.00" fill="grey"> #dateOfBirth</text>
</g>
</g>
</svg>
