<?xml version="1.0" encoding="UTF-8" standalone="no"?>
<!DOCTYPE svg PUBLIC "-//W3C//DTD SVG 1.1//EN"
 "http://www.w3.org/Graphics/SVG/1.1/DTD/svg11.dtd">
<!-- Generated by graphviz version 12.1.2 (20240928.0832)
 -->
<!-- Title: db.TextDB.addAppointment Pages: 1 -->
<svg width="596pt" height="138pt"
 viewBox="0.00 0.00 596.00 138.25" xmlns="http://www.w3.org/2000/svg" xmlns:xlink="http://www.w3.org/1999/xlink">
<g id="graph0" class="graph" transform="scale(1 1) rotate(0) translate(4 134.25)">
<title>db.TextDB.addAppointment</title>
<!-- Node1 -->
<g id="Node000001" class="node">
<title>Node1</title>
<g id="a_Node000001"><a xlink:title="Calculates the result.">
<polygon fill="#999999" stroke="#666666" points="136,-74.25 0,-74.25 0,-55 136,-55 136,-74.25"/>
<text text-anchor="middle" x="68" y="-60.75" font-family="Helvetica,sans-Serif" font-size="10.00">db.TextDB.addAppointment</text>
</a>
</g>
</g>
<!-- Node2 -->
<g id="Node000002" class="node">
<title>Node2</title>
<g id="a_Node000002"><a xlink:href="classdb_1_1_text_d_b.html#aab8621330ecb08ae4364ef3745975c8e" target="_top" xlink:title="Calculates the result.">
<polygon fill="white" stroke="#666666" points="368,-130.25 172,-130.25 172,-111 368,-111 368,-130.25"/>
<text text-anchor="middle" x="270" y="-116.75" font-family="Helvetica,sans-Serif" font-size="10.00">db.TextDB.getAvailableAppointmentSlots</text>
</a>
</g>
</g>
<!-- Node1&#45;&gt;Node2 -->
<g id="edge1_Node000001_Node000002" class="edge">
<title>Node1&#45;&gt;Node2</title>
<g id="a_edge1_Node000001_Node000002"><a xlink:title=" ">
<path fill="none" stroke="#63b8ff" d="M92.76,-74.71C113.4,-83.14 144.25,-94.99 172,-102.62 179.27,-104.62 186.9,-106.47 194.56,-108.15"/>
<polygon fill="#63b8ff" stroke="#63b8ff" points="193.78,-111.56 204.29,-110.19 195.22,-104.71 193.78,-111.56"/>
</a>
</g>
</g>
<!-- Node4 -->
<g id="Node000004" class="node">
<title>Node4</title>
<g id="a_Node000004"><a xlink:href="classdb_1_1_text_d_b.html#a15e72117fb552c009020fe017eff11b1" target="_top" xlink:title=" ">
<polygon fill="white" stroke="#666666" points="356.38,-93.25 183.62,-93.25 183.62,-74 356.38,-74 356.38,-93.25"/>
<text text-anchor="middle" x="270" y="-79.75" font-family="Helvetica,sans-Serif" font-size="10.00">db.TextDB.saveAppointmentsToFile</text>
</a>
</g>
</g>
<!-- Node1&#45;&gt;Node4 -->
<g id="edge3_Node000001_Node000004" class="edge">
<title>Node1&#45;&gt;Node4</title>
<g id="a_edge3_Node000001_Node000004"><a xlink:title=" ">
<path fill="none" stroke="#63b8ff" d="M136.43,-71.03C147.98,-72.13 160.18,-73.29 172.31,-74.44"/>
<polygon fill="#63b8ff" stroke="#63b8ff" points="171.62,-77.89 181.91,-75.35 172.28,-70.92 171.62,-77.89"/>
</a>
</g>
</g>
<!-- Node6 -->
<g id="Node000006" class="node">
<title>Node6</title>
<g id="a_Node000006"><a xlink:href="classdb_1_1_text_d_b.html#ad0cc1ccd01528bf3a15b1dda0e764482" target="_top" xlink:title=" ">
<polygon fill="white" stroke="#666666" points="349.25,-56.25 190.75,-56.25 190.75,-37 349.25,-37 349.25,-56.25"/>
<text text-anchor="middle" x="270" y="-42.75" font-family="Helvetica,sans-Serif" font-size="10.00">db.TextDB.saveSchedulesToFile</text>
</a>
</g>
</g>
<!-- Node1&#45;&gt;Node6 -->
<g id="edge5_Node000001_Node000006" class="edge">
<title>Node1&#45;&gt;Node6</title>
<g id="a_edge5_Node000001_Node000006"><a xlink:title=" ">
<path fill="none" stroke="#63b8ff" d="M136.43,-58.56C150.12,-57.32 164.73,-56.01 179.05,-54.72"/>
<polygon fill="#63b8ff" stroke="#63b8ff" points="179.31,-58.21 188.95,-53.83 178.68,-51.24 179.31,-58.21"/>
</a>
</g>
</g>
<!-- Node9 -->
<g id="Node000009" class="node">
<title>Node9</title>
<g id="a_Node000009"><a xlink:href="classitems_1_1_time_slot.html#ad518f4137e03403e0e5f2b1b1aa9dac3" target="_top" xlink:title="Sets availability of the timeslot.">
<polygon fill="white" stroke="#666666" points="339.12,-19.25 200.88,-19.25 200.88,0 339.12,0 339.12,-19.25"/>
<text text-anchor="middle" x="270" y="-5.75" font-family="Helvetica,sans-Serif" font-size="10.00">items.TimeSlot.setAvailable</text>
</a>
</g>
</g>
<!-- Node1&#45;&gt;Node9 -->
<g id="edge9_Node000001_Node000009" class="edge">
<title>Node1&#45;&gt;Node9</title>
<g id="a_edge9_Node000001_Node000009"><a xlink:title=" ">
<path fill="none" stroke="#63b8ff" d="M93.62,-54.51C114.26,-46.34 144.67,-35.02 172,-27.62 179.47,-25.6 187.33,-23.73 195.21,-22.03"/>
<polygon fill="#63b8ff" stroke="#63b8ff" points="195.75,-25.49 204.83,-20.03 194.32,-18.64 195.75,-25.49"/>
</a>
</g>
</g>
<!-- Node3 -->
<g id="Node000003" class="node">
<title>Node3</title>
<g id="a_Node000003"><a xlink:href="classitems_1_1_appointment.html#a6a84a91381635c3891317409c4f90f6e" target="_top" xlink:title="Gets the time slot for the appointment.">
<polygon fill="white" stroke="#666666" points="572.62,-130.25 419.38,-130.25 419.38,-111 572.62,-111 572.62,-130.25"/>
<text text-anchor="middle" x="496" y="-116.75" font-family="Helvetica,sans-Serif" font-size="10.00">items.Appointment.getTimeSlot</text>
</a>
</g>
</g>
<!-- Node2&#45;&gt;Node3 -->
<g id="edge2_Node000002_Node000003" class="edge">
<title>Node2&#45;&gt;Node3</title>
<g id="a_edge2_Node000002_Node000003"><a xlink:title=" ">
<path fill="none" stroke="#63b8ff" d="M368.27,-120.62C381.42,-120.62 394.85,-120.62 407.81,-120.62"/>
<polygon fill="#63b8ff" stroke="#63b8ff" points="407.54,-124.13 417.54,-120.63 407.54,-117.13 407.54,-124.13"/>
</a>
</g>
</g>
<!-- Node5 -->
<g id="Node000005" class="node">
<title>Node5</title>
<g id="a_Node000005"><a xlink:href="classdb_1_1_text_d_b.html#ab0828cdec6203b29d3036e79ecd6cc5e" target="_top" xlink:title=" ">
<polygon fill="white" stroke="#666666" points="539.25,-93.25 452.75,-93.25 452.75,-74 539.25,-74 539.25,-93.25"/>
<text text-anchor="middle" x="496" y="-79.75" font-family="Helvetica,sans-Serif" font-size="10.00">db.TextDB.write</text>
</a>
</g>
</g>
<!-- Node4&#45;&gt;Node5 -->
<g id="edge4_Node000004_Node000005" class="edge">
<title>Node4&#45;&gt;Node5</title>
<g id="a_edge4_Node000004_Node000005"><a xlink:title=" ">
<path fill="none" stroke="#63b8ff" d="M356.64,-83.62C385.03,-83.62 415.8,-83.62 441.11,-83.62"/>
<polygon fill="#63b8ff" stroke="#63b8ff" points="440.81,-87.13 450.81,-83.63 440.81,-80.13 440.81,-87.13"/>
</a>
</g>
</g>
<!-- Node6&#45;&gt;Node5 -->
<g id="edge8_Node000006_Node000005" class="edge">
<title>Node6&#45;&gt;Node5</title>
<g id="a_edge8_Node000006_Node000005"><a xlink:title=" ">
<path fill="none" stroke="#63b8ff" d="M332.21,-56.74C366.28,-62.36 408.3,-69.3 441.11,-74.72"/>
<polygon fill="#63b8ff" stroke="#63b8ff" points="440.38,-78.15 450.81,-76.33 441.52,-71.24 440.38,-78.15"/>
</a>
</g>
</g>
<!-- Node7 -->
<g id="Node000007" class="node">
<title>Node7</title>
<g id="a_Node000007"><a xlink:href="classitems_1_1_schedule.html#a4549ab37ec9b3215ebfaf575c5d691c6" target="_top" xlink:title=" ">
<polygon fill="white" stroke="#666666" points="569.62,-56.25 422.38,-56.25 422.38,-37 569.62,-37 569.62,-56.25"/>
<text text-anchor="middle" x="496" y="-42.75" font-family="Helvetica,sans-Serif" font-size="10.00">items.Schedule.getAvailability</text>
</a>
</g>
</g>
<!-- Node6&#45;&gt;Node7 -->
<g id="edge6_Node000006_Node000007" class="edge">
<title>Node6&#45;&gt;Node7</title>
<g id="a_edge6_Node000006_Node000007"><a xlink:title=" ">
<path fill="none" stroke="#63b8ff" d="M349.66,-46.62C369.46,-46.62 390.78,-46.62 410.84,-46.62"/>
<polygon fill="#63b8ff" stroke="#63b8ff" points="410.64,-50.13 420.64,-46.63 410.64,-43.13 410.64,-50.13"/>
</a>
</g>
</g>
<!-- Node8 -->
<g id="Node000008" class="node">
<title>Node8</title>
<g id="a_Node000008"><a xlink:href="classitems_1_1_schedule.html#a85b87460a427b084400c5a4fa7f1a2c5" target="_top" xlink:title=" ">
<polygon fill="white" stroke="#666666" points="588,-19.25 404,-19.25 404,0 588,0 588,-19.25"/>
<text text-anchor="middle" x="496" y="-5.75" font-family="Helvetica,sans-Serif" font-size="10.00">items.Schedule.getAvailableTimeSlots</text>
</a>
</g>
</g>
<!-- Node6&#45;&gt;Node8 -->
<g id="edge7_Node000006_Node000008" class="edge">
<title>Node6&#45;&gt;Node8</title>
<g id="a_edge7_Node000006_Node000008"><a xlink:title=" ">
<path fill="none" stroke="#63b8ff" d="M332.21,-36.51C360.24,-31.89 393.64,-26.37 422.88,-21.54"/>
<polygon fill="#63b8ff" stroke="#63b8ff" points="423.08,-25.05 432.37,-19.97 421.93,-18.15 423.08,-25.05"/>
</a>
</g>
</g>
</g>
</svg>
