<?xml version="1.0" encoding="UTF-8" standalone="no"?>
<!DOCTYPE svg PUBLIC "-//W3C//DTD SVG 1.1//EN"
 "http://www.w3.org/Graphics/SVG/1.1/DTD/svg11.dtd">
<!-- Generated by graphviz version 12.1.2 (20240928.0832)
 -->
<!-- Title: db.MedicalRecordLoader.deserialize Pages: 1 -->
<svg width="524pt" height="27pt"
 viewBox="0.00 0.00 524.00 27.25" xmlns="http://www.w3.org/2000/svg" xmlns:xlink="http://www.w3.org/1999/xlink">
<g id="graph0" class="graph" transform="scale(1 1) rotate(0) translate(4 23.25)">
<title>db.MedicalRecordLoader.deserialize</title>
<!-- Node1 -->
<g id="Node000001" class="node">
<title>Node1</title>
<g id="a_Node000001"><a xlink:title="Deserializes a MedicalRecord object from a string representation.">
<polygon fill="#999999" stroke="#666666" points="172.75,-19.25 0,-19.25 0,0 172.75,0 172.75,-19.25"/>
<text text-anchor="middle" x="86.38" y="-5.75" font-family="Helvetica,sans-Serif" font-size="10.00">db.MedicalRecordLoader.deserialize</text>
</a>
</g>
</g>
<!-- Node2 -->
<g id="Node000002" class="node">
<title>Node2</title>
<g id="a_Node000002"><a xlink:href="classitems_1_1_treatment.html#a8f88f9c1ac686801ba3e47b65c7142b5" target="_top" xlink:title="Deserializes a Treatment object from a string.">
<polygon fill="white" stroke="#666666" points="345.5,-19.25 208.75,-19.25 208.75,0 345.5,0 345.5,-19.25"/>
<text text-anchor="middle" x="277.12" y="-5.75" font-family="Helvetica,sans-Serif" font-size="10.00">items.Treatment.deserialize</text>
</a>
</g>
</g>
<!-- Node1&#45;&gt;Node2 -->
<g id="edge1_Node000001_Node000002" class="edge">
<title>Node1&#45;&gt;Node2</title>
<g id="a_edge1_Node000001_Node000002"><a xlink:title=" ">
<path fill="none" stroke="#63b8ff" d="M173.19,-9.62C181.11,-9.62 189.1,-9.62 196.96,-9.62"/>
<polygon fill="#63b8ff" stroke="#63b8ff" points="196.82,-13.13 206.82,-9.63 196.82,-6.13 196.82,-13.13"/>
</a>
</g>
</g>
<!-- Node3 -->
<g id="Node000003" class="node">
<title>Node3</title>
<g id="a_Node000003"><a xlink:href="classitems_1_1_treatment.html#a392635dc4fde65f3db7b4372503fad72" target="_top" xlink:title="Default constructor initializes the list of prescribed medicines and sets comments to an empty string...">
<polygon fill="white" stroke="#666666" points="516,-19.25 381.5,-19.25 381.5,0 516,0 516,-19.25"/>
<text text-anchor="middle" x="448.75" y="-5.75" font-family="Helvetica,sans-Serif" font-size="10.00">items.Treatment.Treatment</text>
</a>
</g>
</g>
<!-- Node2&#45;&gt;Node3 -->
<g id="edge2_Node000002_Node000003" class="edge">
<title>Node2&#45;&gt;Node3</title>
<g id="a_edge2_Node000002_Node000003"><a xlink:title=" ">
<path fill="none" stroke="#63b8ff" d="M345.65,-9.62C353.56,-9.62 361.69,-9.62 369.73,-9.62"/>
<polygon fill="#63b8ff" stroke="#63b8ff" points="369.49,-13.13 379.49,-9.63 369.49,-6.13 369.49,-13.13"/>
</a>
</g>
</g>
</g>
</svg>
