<?xml version="1.0" encoding="UTF-8" standalone="no"?>
<!DOCTYPE svg PUBLIC "-//W3C//DTD SVG 1.1//EN"
 "http://www.w3.org/Graphics/SVG/1.1/DTD/svg11.dtd">
<!-- Generated by graphviz version 12.1.2 (20240928.0832)
 -->
<!-- Title: items.Schedule.getAvailableTimeSlots Pages: 1 -->
<!--zoomable 138 -->

<svg id="main" version="1.1" xmlns="http://www.w3.org/2000/svg" xmlns:xlink="http://www.w3.org/1999/xlink" xml:space="preserve" onload="init(evt)">
<style type="text/css"><![CDATA[
.node, .edge {opacity: 0.7;}
.node.selected, .edge.selected {opacity: 1;}
.edge:hover path { stroke: red; }
.edge:hover polygon { stroke: red; fill: red; }
]]></style>

<defs>
  <circle id="rim" cx="0" cy="0" r="7"/>
  <circle id="rim2" cx="0" cy="0" r="3.5"/>
  <g id="zoomPlus">
    <use xlink:href="#rim" fill="#404040"><set attributeName="fill" to="#808080" begin="zoomplus.mouseover" end="zoomplus.mouseout"/></use>
    <path d="M-4,0h8M0,-4v8" fill="none" stroke="white" stroke-width="1.5" pointer-events="none"/>
  </g>
  <g id="zoomMin">
    <use xlink:href="#rim" fill="#404040"><set attributeName="fill" to="#808080" begin="zoomminus.mouseover" end="zoomminus.mouseout"/></use>
    <path d="M-4,0h8" fill="none" stroke="white" stroke-width="1.5" pointer-events="none"/>
  </g>
  <g id="arrowUp" transform="translate(30 24)">
    <use xlink:href="#rim"/>
    <path pointer-events="none" fill="none" stroke="white" stroke-width="1.5" d="M0,-3.0v7 M-2.5,-0.5L0,-3.0L2.5,-0.5"/>
  </g>
  <g id="arrowRight" transform="rotate(90) translate(36 -43)">
    <use xlink:href="#rim"/>
    <path pointer-events="none" fill="none" stroke="white" stroke-width="1.5" d="M0,-3.0v7 M-2.5,-0.5L0,-3.0L2.5,-0.5"/>
  </g>
  <g id="arrowDown" transform="rotate(180) translate(-30 -48)">
    <use xlink:href="#rim"/>
    <path pointer-events="none" fill="none" stroke="white" stroke-width="1.5" d="M0,-3.0v7 M-2.5,-0.5L0,-3.0L2.5,-0.5"/>
  </g>
  <g id="arrowLeft" transform="rotate(270) translate(-36 17)">
    <use xlink:href="#rim"/>
    <path pointer-events="none" fill="none" stroke="white" stroke-width="1.5" d="M0,-3.0v7 M-2.5,-0.5L0,-3.0L2.5,-0.5"/>
  </g>
  <g id="resetDef">
    <use xlink:href="#rim2" fill="#404040"><set attributeName="fill" to="#808080" begin="reset.mouseover" end="reset.mouseout"/></use>
  </g>
</defs>
<script type="application/ecmascript">
var viewWidth = 1098;
var viewHeight = 138;
var sectionId = 'dynsection-2';
</script>
<script type="application/ecmascript" xlink:href="svg.min.js"/>
<svg id="graph" class="graph">
<g id="viewport">
<title>items.Schedule.getAvailableTimeSlots</title>
<!-- Node1 -->
<g id="Node000001" class="node">
<title>Node1</title>
<g id="a_Node000001"><a xlink:title=" ">
<polygon fill="#999999" stroke="#666666" points="1089.5,-92.25 905.5,-92.25 905.5,-73 1089.5,-73 1089.5,-92.25"/>
<text text-anchor="middle" x="997.5" y="-78.75" font-family="Helvetica,sans-Serif" font-size="10.00">items.Schedule.getAvailableTimeSlots</text>
</a>
</g>
</g>
<!-- Node2 -->
<g id="Node000002" class="node">
<title>Node2</title>
<g id="a_Node000002"><a xlink:href="classuser__classes_1_1_doctor.html#a6cf6dd2c1123114b8be632a205501578" target="_top" xlink:title="Retrieves the doctor&#39;s available TimeSlots for a specific date.">
<polygon fill="white" stroke="#666666" points="869.5,-111.25 663.75,-111.25 663.75,-92 869.5,-92 869.5,-111.25"/>
<text text-anchor="middle" x="766.62" y="-97.75" font-family="Helvetica,sans-Serif" font-size="10.00">user_classes.Doctor.getAvailableTimeSlots</text>
</a>
</g>
</g>
<!-- Node1&#45;&gt;Node2 -->
<g id="edge1_Node000001_Node000002" class="edge">
<title>Node1&#45;&gt;Node2</title>
<g id="a_edge1_Node000001_Node000002"><a xlink:title=" ">
<path fill="none" stroke="#63b8ff" d="M893.84,-91.15C885.87,-91.81 877.81,-92.48 869.83,-93.14"/>
<polygon fill="#63b8ff" stroke="#63b8ff" points="893.87,-94.66 903.55,-90.34 893.29,-87.68 893.87,-94.66"/>
</a>
</g>
</g>
<!-- Node3 -->
<g id="Node000003" class="node">
<title>Node3</title>
<g id="a_Node000003"><a xlink:href="classdb_1_1_text_d_b.html#ad0cc1ccd01528bf3a15b1dda0e764482" target="_top" xlink:title=" ">
<polygon fill="white" stroke="#666666" points="845.88,-74.25 687.38,-74.25 687.38,-55 845.88,-55 845.88,-74.25"/>
<text text-anchor="middle" x="766.62" y="-60.75" font-family="Helvetica,sans-Serif" font-size="10.00">db.TextDB.saveSchedulesToFile</text>
</a>
</g>
</g>
<!-- Node1&#45;&gt;Node3 -->
<g id="edge2_Node000001_Node000003" class="edge">
<title>Node1&#45;&gt;Node3</title>
<g id="a_edge2_Node000001_Node000003"><a xlink:title=" ">
<path fill="none" stroke="#63b8ff" d="M893.98,-74.56C877.88,-73.3 861.46,-72 846.02,-70.79"/>
<polygon fill="#63b8ff" stroke="#63b8ff" points="893.3,-78.02 903.55,-75.31 893.85,-71.04 893.3,-78.02"/>
</a>
</g>
</g>
<!-- Node4 -->
<g id="Node000004" class="node">
<title>Node4</title>
<g id="a_Node000004"><a xlink:href="classdb_1_1_text_d_b.html#ad012623bfd1b59de612a4bdb189029a4" target="_top" xlink:title="Calculates the result.">
<polygon fill="white" stroke="#666666" points="606.75,-130.25 470.75,-130.25 470.75,-111 606.75,-111 606.75,-130.25"/>
<text text-anchor="middle" x="538.75" y="-116.75" font-family="Helvetica,sans-Serif" font-size="10.00">db.TextDB.addAppointment</text>
</a>
</g>
</g>
<!-- Node3&#45;&gt;Node4 -->
<g id="edge3_Node000003_Node000004" class="edge">
<title>Node3&#45;&gt;Node4</title>
<g id="a_edge3_Node000003_Node000004"><a xlink:title=" ">
<path fill="none" stroke="#63b8ff" d="M680.4,-77.48C674.71,-79.01 669.11,-80.72 663.75,-82.62 646.5,-88.75 644.92,-96.27 627.75,-102.62 619.27,-105.76 610.11,-108.4 601.02,-110.61"/>
<polygon fill="#63b8ff" stroke="#63b8ff" points="681.09,-80.92 689.95,-75.11 679.4,-74.12 681.09,-80.92"/>
</a>
</g>
</g>
<!-- Node5 -->
<g id="Node000005" class="node">
<title>Node5</title>
<g id="a_Node000005"><a xlink:href="classdb_1_1_text_d_b.html#a86c8f97829de1275242b05f46cdd6415" target="_top" xlink:title="Updates an appointment with a new status and saves changes.">
<polygon fill="white" stroke="#666666" points="613.5,-93.25 464,-93.25 464,-74 613.5,-74 613.5,-93.25"/>
<text text-anchor="middle" x="538.75" y="-79.75" font-family="Helvetica,sans-Serif" font-size="10.00">db.TextDB.updateAppointment</text>
</a>
</g>
</g>
<!-- Node3&#45;&gt;Node5 -->
<g id="edge4_Node000003_Node000005" class="edge">
<title>Node3&#45;&gt;Node5</title>
<g id="a_edge4_Node000003_Node000005"><a xlink:title=" ">
<path fill="none" stroke="#63b8ff" d="M675.7,-72.19C655.23,-73.91 633.71,-75.72 613.98,-77.38"/>
<polygon fill="#63b8ff" stroke="#63b8ff" points="675.76,-75.7 685.43,-71.37 675.18,-68.72 675.76,-75.7"/>
</a>
</g>
</g>
<!-- Node8 -->
<g id="Node000008" class="node">
<title>Node8</title>
<g id="a_Node000008"><a xlink:href="classdb_1_1_text_d_b.html#a04a650ae8f6750cd2068585b496767dd" target="_top" xlink:title="Calculates the result.">
<polygon fill="white" stroke="#666666" points="627.75,-56.25 449.75,-56.25 449.75,-37 627.75,-37 627.75,-56.25"/>
<text text-anchor="middle" x="538.75" y="-42.75" font-family="Helvetica,sans-Serif" font-size="10.00">db.TextDB.updateAppointmentStatus</text>
</a>
</g>
</g>
<!-- Node3&#45;&gt;Node8 -->
<g id="edge7_Node000003_Node000008" class="edge">
<title>Node3&#45;&gt;Node8</title>
<g id="a_edge7_Node000003_Node000008"><a xlink:title=" ">
<path fill="none" stroke="#63b8ff" d="M675.68,-57.46C660.04,-56.21 643.79,-54.92 628.19,-53.67"/>
<polygon fill="#63b8ff" stroke="#63b8ff" points="675.19,-60.93 685.43,-58.23 675.74,-53.95 675.19,-60.93"/>
</a>
</g>
</g>
<!-- Node9 -->
<g id="Node000009" class="node">
<title>Node9</title>
<g id="a_Node000009"><a xlink:href="classdb_1_1_text_d_b.html#a6f9c8a5da2c13ddf2e9f16e50f825b7d" target="_top" xlink:title=" ">
<polygon fill="white" stroke="#666666" points="621,-19.25 456.5,-19.25 456.5,0 621,0 621,-19.25"/>
<text text-anchor="middle" x="538.75" y="-5.75" font-family="Helvetica,sans-Serif" font-size="10.00">db.TextDB.updateDoctorSchedule</text>
</a>
</g>
</g>
<!-- Node3&#45;&gt;Node9 -->
<g id="edge8_Node000003_Node000009" class="edge">
<title>Node3&#45;&gt;Node9</title>
<g id="a_edge8_Node000003_Node000009"><a xlink:title=" ">
<path fill="none" stroke="#63b8ff" d="M719.41,-51.47C692.72,-44.07 658.46,-34.88 627.75,-27.62 616.06,-24.86 603.45,-22.14 591.52,-19.67"/>
<polygon fill="#63b8ff" stroke="#63b8ff" points="718.32,-54.8 728.89,-54.12 720.2,-48.06 718.32,-54.8"/>
</a>
</g>
</g>
<!-- Node6 -->
<g id="Node000006" class="node">
<title>Node6</title>
<g id="a_Node000006"><a xlink:href="classmenus_1_1_doctor_menu.html#ae7d20b71f38894a6236e1f23b637ce42" target="_top" xlink:title="Records the outcome of a completed appointment.">
<polygon fill="white" stroke="#666666" points="413.75,-93.25 187.75,-93.25 187.75,-74 413.75,-74 413.75,-93.25"/>
<text text-anchor="middle" x="300.75" y="-79.75" font-family="Helvetica,sans-Serif" font-size="10.00">menus.DoctorMenu.recordAppointmentOutcome</text>
</a>
</g>
</g>
<!-- Node5&#45;&gt;Node6 -->
<g id="edge5_Node000005_Node000006" class="edge">
<title>Node5&#45;&gt;Node6</title>
<g id="a_edge5_Node000005_Node000006"><a xlink:title=" ">
<path fill="none" stroke="#63b8ff" d="M452.42,-83.62C439.93,-83.62 426.91,-83.62 413.98,-83.62"/>
<polygon fill="#63b8ff" stroke="#63b8ff" points="452.21,-87.13 462.21,-83.63 452.21,-80.13 452.21,-87.13"/>
</a>
</g>
</g>
<!-- Node7 -->
<g id="Node000007" class="node">
<title>Node7</title>
<g id="a_Node000007"><a xlink:href="classmenus_1_1_doctor_menu.html#af4a80d7af2990dd2f809c409c732536d" target="_top" xlink:title="Displays the Doctor Menu and handles user selections.">
<polygon fill="white" stroke="#666666" points="151.75,-93.25 0,-93.25 0,-74 151.75,-74 151.75,-93.25"/>
<text text-anchor="middle" x="75.88" y="-79.75" font-family="Helvetica,sans-Serif" font-size="10.00">menus.DoctorMenu.showMenu</text>
</a>
</g>
</g>
<!-- Node6&#45;&gt;Node7 -->
<g id="edge6_Node000006_Node000007" class="edge">
<title>Node6&#45;&gt;Node7</title>
<g id="a_edge6_Node000006_Node000007"><a xlink:title=" ">
<path fill="none" stroke="#63b8ff" d="M175.92,-83.62C167.88,-83.62 159.92,-83.62 152.22,-83.62"/>
<polygon fill="#63b8ff" stroke="#63b8ff" points="175.82,-87.13 185.82,-83.63 175.82,-80.13 175.82,-87.13"/>
</a>
</g>
</g>
</g>
</svg>

<g id="navigator" transform="translate(0 0)" fill="#404254">
  <rect fill="#f2f5e9" fill-opacity="0.5" stroke="#606060" stroke-width=".5" x="0" y="0" width="60" height="60"/>
  <use id="zoomplus" xlink:href="#zoomPlus" x="17" y="9" onmousedown="handleZoom(evt,'in')"/>
  <use id="zoomminus" xlink:href="#zoomMin" x="42" y="9" onmousedown="handleZoom(evt,'out')"/>
  <use id="reset" xlink:href="#resetDef" x="30" y="36" onmousedown="handleReset()"/>
   <use id="arrowup" xlink:href="#arrowUp" x="0" y="0" onmousedown="handlePan(0,-1)"/>
  <use id="arrowright" xlink:href="#arrowRight" x="0" y="0" onmousedown="handlePan(1,0)"/>
  <use id="arrowdown" xlink:href="#arrowDown" x="0" y="0" onmousedown="handlePan(0,1)"/>
  <use id="arrowleft" xlink:href="#arrowLeft" x="0" y="0" onmousedown="handlePan(-1,0)"/>
</g>
<svg viewBox="0 0 15 15" width="100%" height="30px" preserveAspectRatio="xMaxYMin meet">
 <g id="arrow_out" transform="scale(0.3 0.3)">
  <a xlink:href="classitems_1_1_schedule_a85b87460a427b084400c5a4fa7f1a2c5_icgraph_org.svg" target="_base">
   <rect id="button" ry="5" rx="5" y="6" x="6" height="38" width="38"
        fill="#f2f5e9" fill-opacity="0.5" stroke="#606060" stroke-width="1.0"/>
   <path id="arrow"
     d="M 11.500037,31.436501 C 11.940474,20.09759 22.043105,11.32322 32.158766,21.979434 L 37.068811,17.246167 C 37.068811,17.246167 37.088388,32 37.088388,32 L 22.160133,31.978069 C 22.160133,31.978069 26.997745,27.140456 26.997745,27.140456 C 18.528582,18.264221 13.291696,25.230495 11.500037,31.436501 z"
     style="fill:#404040;"/>
  </a>
 </g>
</svg>

<style type='text/css'>
<![CDATA[
[data-mouse-over-selected='false'] { opacity: 0.7; }
[data-mouse-over-selected='true']  { opacity: 1.0; }
]]>
</style>
<script type="application/ecmascript"><![CDATA[
document.addEventListener('DOMContentLoaded', (event) => {
  highlightEdges();
  highlightAdjacentNodes();
});
]]></script>
</svg>
