<?xml version="1.0" encoding="UTF-8" standalone="no"?>
<!DOCTYPE svg PUBLIC "-//W3C//DTD SVG 1.1//EN"
 "http://www.w3.org/Graphics/SVG/1.1/DTD/svg11.dtd">
<!-- Generated by graphviz version 12.1.2 (20240928.0832)
 -->
<!-- Title: user_classes.Patient Pages: 1 -->
<svg width="251pt" height="606pt"
 viewBox="0.00 0.00 251.00 606.25" xmlns="http://www.w3.org/2000/svg" xmlns:xlink="http://www.w3.org/1999/xlink">
<g id="graph0" class="graph" transform="scale(1 1) rotate(0) translate(4 602.25)">
<title>user_classes.Patient</title>
<!-- Node1 -->
<g id="Node000001" class="node">
<title>Node1</title>
<g id="a_Node000001"><a xlink:title="Represents a patient in the hospital management system.">
<polygon fill="#999999" stroke="none" points="243,-180 0,-180 0,0 243,0 243,-180"/>
<text text-anchor="start" x="75.75" y="-166.5" font-family="Helvetica,sans-Serif" font-size="10.00">user_classes.Patient</text>
<text text-anchor="start" x="120" y="-151.5" font-family="Helvetica,sans-Serif" font-size="10.00"> </text>
<text text-anchor="start" x="4" y="-136.5" font-family="Helvetica,sans-Serif" font-size="10.00">+</text>
<text text-anchor="start" x="14" y="-136.5" font-family="Helvetica,sans-Serif" font-size="10.00">Patient(String hospitalID, String password,</text>
<text text-anchor="start" x="14" y="-125.25" font-family="Helvetica,sans-Serif" font-size="10.00"> String name, LocalDate dateOfBirth, String gender)</text>
<text text-anchor="start" x="4" y="-110.5" font-family="Helvetica,sans-Serif" font-size="10.00">+</text>
<text text-anchor="start" x="14" y="-110.5" font-family="Helvetica,sans-Serif" font-size="10.00">void login()</text>
<text text-anchor="start" x="4" y="-95.5" font-family="Helvetica,sans-Serif" font-size="10.00">+</text>
<text text-anchor="start" x="14" y="-95.5" font-family="Helvetica,sans-Serif" font-size="10.00">String toString()</text>
<text text-anchor="start" x="4" y="-80.5" font-family="Helvetica,sans-Serif" font-size="10.00">+</text>
<text text-anchor="start" x="14" y="-80.5" font-family="Helvetica,sans-Serif" font-size="10.00">void changePassword()</text>
<text text-anchor="start" x="4" y="-65.5" font-family="Helvetica,sans-Serif" font-size="10.00">+</text>
<text text-anchor="start" x="14" y="-65.5" font-family="Helvetica,sans-Serif" font-size="10.00">void logout()</text>
<text text-anchor="start" x="4" y="-50.5" font-family="Helvetica,sans-Serif" font-size="10.00">+</text>
<text text-anchor="start" x="14" y="-50.5" font-family="Helvetica,sans-Serif" font-size="10.00">void requestAppointment()</text>
<text text-anchor="start" x="4" y="-35.5" font-family="Helvetica,sans-Serif" font-size="10.00">+</text>
<text text-anchor="start" x="14" y="-35.5" font-family="Helvetica,sans-Serif" font-size="10.00">void viewPrescriptions()</text>
<text text-anchor="start" x="4" y="-20.5" font-family="Helvetica,sans-Serif" font-size="10.00">+</text>
<text text-anchor="start" x="14" y="-20.5" font-family="Helvetica,sans-Serif" font-size="10.00">void updateContactInformation()</text>
<text text-anchor="start" x="4" y="-5.5" font-family="Helvetica,sans-Serif" font-size="10.00">+</text>
<text text-anchor="start" x="14" y="-5.5" font-family="Helvetica,sans-Serif" font-size="10.00">MedicalRecord getMedicalRecord()</text>
<polygon fill="#666666" stroke="#666666" points="0,-163 0,-163 243,-163 243,-163 0,-163"/>
<polygon fill="#666666" stroke="#666666" points="0,-148 0,-148 243,-148 243,-148 0,-148"/>
<polygon fill="none" stroke="#666666" points="0,0 0,-180 243,-180 243,0 0,0"/>
</a>
</g>
</g>
<!-- Node2 -->
<g id="Node000002" class="node">
<title>Node2</title>
<g id="a_Node000002"><a xlink:href="classuser__classes_1_1_user.html" target="_top" xlink:title="An abstract base class representing a generic user in the hospital management system.">
<polygon fill="white" stroke="none" points="243,-502 0,-502 0,-217 243,-217 243,-502"/>
<text text-anchor="start" x="80.62" y="-488.5" font-family="Helvetica,sans-Serif" font-size="10.00">user_classes.User</text>
<text text-anchor="start" x="4" y="-473.5" font-family="Helvetica,sans-Serif" font-size="10.00">+</text>
<text text-anchor="start" x="14" y="-473.5" font-family="Helvetica,sans-Serif" font-size="10.00">String role</text>
<text text-anchor="start" x="4" y="-458.5" font-family="Helvetica,sans-Serif" font-size="10.00">~</text>
<text text-anchor="start" x="14" y="-458.5" font-family="Helvetica,sans-Serif" font-size="10.00">static int userCount</text>
<text text-anchor="start" x="4.38" y="-443.5" font-family="Helvetica,sans-Serif" font-size="10.00">#</text>
<text text-anchor="start" x="14" y="-443.5" font-family="Helvetica,sans-Serif" font-size="10.00">String hospitalID</text>
<text text-anchor="start" x="4.38" y="-428.5" font-family="Helvetica,sans-Serif" font-size="10.00">#</text>
<text text-anchor="start" x="14" y="-428.5" font-family="Helvetica,sans-Serif" font-size="10.00">String password</text>
<text text-anchor="start" x="4.38" y="-413.5" font-family="Helvetica,sans-Serif" font-size="10.00">#</text>
<text text-anchor="start" x="14" y="-413.5" font-family="Helvetica,sans-Serif" font-size="10.00">String name</text>
<text text-anchor="start" x="4.38" y="-398.5" font-family="Helvetica,sans-Serif" font-size="10.00">#</text>
<text text-anchor="start" x="14" y="-398.5" font-family="Helvetica,sans-Serif" font-size="10.00">String gender</text>
<text text-anchor="start" x="4" y="-383.5" font-family="Helvetica,sans-Serif" font-size="10.00">+</text>
<text text-anchor="start" x="14" y="-383.5" font-family="Helvetica,sans-Serif" font-size="10.00">User(String hospitalID, String password,</text>
<text text-anchor="start" x="14" y="-372.25" font-family="Helvetica,sans-Serif" font-size="10.00"> String name, LocalDate dateOfBirth, String gender)</text>
<text text-anchor="start" x="4" y="-357.5" font-family="Helvetica,sans-Serif" font-size="10.00">+</text>
<text text-anchor="start" x="14" y="-357.5" font-family="Helvetica,sans-Serif" font-size="10.00">String getRole()</text>
<text text-anchor="start" x="4" y="-342.5" font-family="Helvetica,sans-Serif" font-size="10.00">+</text>
<text text-anchor="start" x="14" y="-342.5" font-family="Helvetica,sans-Serif" font-size="10.00">String getAge()</text>
<text text-anchor="start" x="4" y="-327.5" font-family="Helvetica,sans-Serif" font-size="10.00">+</text>
<text text-anchor="start" x="14" y="-327.5" font-family="Helvetica,sans-Serif" font-size="10.00">String getHospitalID()</text>
<text text-anchor="start" x="4" y="-312.5" font-family="Helvetica,sans-Serif" font-size="10.00">+</text>
<text text-anchor="start" x="14" y="-312.5" font-family="Helvetica,sans-Serif" font-size="10.00">void setHospitalID(String hospitalID)</text>
<text text-anchor="start" x="4" y="-297.5" font-family="Helvetica,sans-Serif" font-size="10.00">+</text>
<text text-anchor="start" x="14" y="-297.5" font-family="Helvetica,sans-Serif" font-size="10.00">String getPassword()</text>
<text text-anchor="start" x="4" y="-282.5" font-family="Helvetica,sans-Serif" font-size="10.00">+</text>
<text text-anchor="start" x="14" y="-282.5" font-family="Helvetica,sans-Serif" font-size="10.00">void setPassword(String password)</text>
<text text-anchor="start" x="4" y="-267.5" font-family="Helvetica,sans-Serif" font-size="10.00">+</text>
<text text-anchor="start" x="14" y="-267.5" font-family="Helvetica,sans-Serif" font-size="10.00">String getName()</text>
<text text-anchor="start" x="4" y="-252.5" font-family="Helvetica,sans-Serif" font-size="10.00">+</text>
<text text-anchor="start" x="14" y="-252.5" font-family="Helvetica,sans-Serif" font-size="10.00">void setName(String name)</text>
<text text-anchor="start" x="4" y="-237.5" font-family="Helvetica,sans-Serif" font-size="10.00">+</text>
<text text-anchor="start" x="14" y="-237.5" font-family="Helvetica,sans-Serif" font-size="10.00">LocalDate getDateOfBirth()</text>
<text text-anchor="start" x="14" y="-222.5" font-family="Helvetica,sans-Serif" font-size="10.00">and 6 more...</text>
<polygon fill="#666666" stroke="#666666" points="0,-485 0,-485 243,-485 243,-485 0,-485"/>
<polygon fill="#666666" stroke="#666666" points="0,-395 0,-395 12,-395 12,-395 0,-395"/>
<polygon fill="#666666" stroke="#666666" points="12,-395 12,-395 243,-395 243,-395 12,-395"/>
<polygon fill="none" stroke="#666666" points="0,-217 0,-502 243,-502 243,-217 0,-217"/>
</a>
</g>
</g>
<!-- Node2&#45;&gt;Node1 -->
<g id="edge1_Node000001_Node000002" class="edge">
<title>Node2&#45;&gt;Node1</title>
<g id="a_edge1_Node000001_Node000002"><a xlink:title=" ">
<path fill="none" stroke="#63b8ff" d="M121.5,-206.05C121.5,-197.19 121.5,-188.45 121.5,-179.98"/>
<polygon fill="none" stroke="#63b8ff" points="118,-205.79 121.5,-215.79 125,-205.79 118,-205.79"/>
</a>
</g>
</g>
<!-- Node3 -->
<g id="Node000003" class="node">
<title>Node3</title>
<g id="a_Node000003"><a xlink:title=" ">
<polygon fill="white" stroke="none" points="148.5,-598.25 94.5,-598.25 94.5,-549.25 148.5,-549.25 148.5,-598.25"/>
<text text-anchor="start" x="99.38" y="-584.75" font-family="Helvetica,sans-Serif" font-size="10.00">LocalDate</text>
<text text-anchor="start" x="120" y="-569.75" font-family="Helvetica,sans-Serif" font-size="10.00"> </text>
<text text-anchor="start" x="120" y="-554.75" font-family="Helvetica,sans-Serif" font-size="10.00"> </text>
<polygon fill="#666666" stroke="#666666" points="94.5,-581.25 94.5,-581.25 148.5,-581.25 148.5,-581.25 94.5,-581.25"/>
<polygon fill="#666666" stroke="#666666" points="94.5,-566.25 94.5,-566.25 148.5,-566.25 148.5,-566.25 94.5,-566.25"/>
<polygon fill="none" stroke="#666666" points="94.5,-549.25 94.5,-598.25 148.5,-598.25 148.5,-549.25 94.5,-549.25"/>
</a>
</g>
</g>
<!-- Node3&#45;&gt;Node2 -->
<g id="edge2_Node000002_Node000003" class="edge">
<title>Node3&#45;&gt;Node2</title>
<g id="a_edge2_Node000002_Node000003"><a xlink:title=" ">
<path fill="none" stroke="#63b8ff" d="M121.5,-549.63C121.5,-539.92 121.5,-527.75 121.5,-514.29"/>
<polygon fill="none" stroke="#63b8ff" points="121.5,-514.5 117.5,-508.5 121.5,-502.5 125.5,-508.5 121.5,-514.5"/>
</a>
</g>
<text text-anchor="middle" x="150.38" y="-521.75" font-family="Helvetica,sans-Serif" font-size="10.00" fill="grey"> #dateOfBirth</text>
</g>
</g>
</svg>
