<?xml version="1.0" encoding="UTF-8" standalone="no"?>
<!DOCTYPE svg PUBLIC "-//W3C//DTD SVG 1.1//EN"
 "http://www.w3.org/Graphics/SVG/1.1/DTD/svg11.dtd">
<!-- Generated by graphviz version 12.1.2 (20240928.0832)
 -->
<!-- Title: db.MedicationInventoryLoader Pages: 1 -->
<svg width="217pt" height="546pt"
 viewBox="0.00 0.00 217.00 546.25" xmlns="http://www.w3.org/2000/svg" xmlns:xlink="http://www.w3.org/1999/xlink">
<g id="graph0" class="graph" transform="scale(1 1) rotate(0) translate(4 542.25)">
<title>db.MedicationInventoryLoader</title>
<!-- Node1 -->
<g id="Node000001" class="node">
<title>Node1</title>
<g id="a_Node000001"><a xlink:title="Handles the loading and saving of medication inventory data from/to a file.">
<polygon fill="#999999" stroke="none" points="209,-124 0,-124 0,0 209,0 209,-124"/>
<text text-anchor="start" x="39.25" y="-110.5" font-family="Helvetica,sans-Serif" font-size="10.00">db.MedicationInventoryLoader</text>
<text text-anchor="start" x="103" y="-95.5" font-family="Helvetica,sans-Serif" font-size="10.00"> </text>
<text text-anchor="start" x="4" y="-80.5" font-family="Helvetica,sans-Serif" font-size="10.00">+</text>
<text text-anchor="start" x="14" y="-80.5" font-family="Helvetica,sans-Serif" font-size="10.00">MedicationInventoryLoader(String filePath)</text>
<text text-anchor="start" x="4" y="-65.5" font-family="Helvetica,sans-Serif" font-size="10.00">+</text>
<text text-anchor="start" x="14" y="-65.5" font-family="Helvetica,sans-Serif" font-size="10.00">void loadData()</text>
<text text-anchor="start" x="4" y="-50.5" font-family="Helvetica,sans-Serif" font-size="10.00">+</text>
<text text-anchor="start" x="14" y="-50.5" font-family="Helvetica,sans-Serif" font-size="10.00">void saveData()</text>
<text text-anchor="start" x="4" y="-35.5" font-family="Helvetica,sans-Serif" font-size="10.00">+</text>
<text text-anchor="start" x="14" y="-35.5" font-family="Helvetica,sans-Serif" font-size="10.00">List&lt; Medication &gt; getMedicationInventory()</text>
<text text-anchor="start" x="4.38" y="-20.5" font-family="Helvetica,sans-Serif" font-size="10.00">#</text>
<text text-anchor="start" x="14" y="-20.5" font-family="Helvetica,sans-Serif" font-size="10.00">Medication deserialize(String data)</text>
<text text-anchor="start" x="4.38" y="-5.5" font-family="Helvetica,sans-Serif" font-size="10.00">#</text>
<text text-anchor="start" x="14" y="-5.5" font-family="Helvetica,sans-Serif" font-size="10.00">String serialize(Medication medication)</text>
<polygon fill="#666666" stroke="#666666" points="0,-107 0,-107 209,-107 209,-107 0,-107"/>
<polygon fill="#666666" stroke="#666666" points="0,-92 0,-92 209,-92 209,-92 0,-92"/>
<polygon fill="none" stroke="#666666" points="0,0 0,-124 209,-124 209,0 0,0"/>
</a>
</g>
</g>
<!-- Node2 -->
<g id="Node000002" class="node">
<title>Node2</title>
<g id="a_Node000002"><a xlink:href="classdb_1_1_data_loader.html" target="_top" xlink:title=" ">
<polygon fill="white" stroke="none" points="204,-326 5,-326 5,-161 204,-161 204,-326"/>
<text text-anchor="start" x="40" y="-312.5" font-family="Helvetica,sans-Serif" font-size="10.00">db.DataLoader&lt; Medication &gt;</text>
<text text-anchor="start" x="9" y="-297.5" font-family="Helvetica,sans-Serif" font-size="10.00">+</text>
<text text-anchor="start" x="19" y="-297.5" font-family="Helvetica,sans-Serif" font-size="10.00">static final String SEPARATOR</text>
<text text-anchor="start" x="9.38" y="-282.5" font-family="Helvetica,sans-Serif" font-size="10.00">#</text>
<text text-anchor="start" x="19" y="-282.5" font-family="Helvetica,sans-Serif" font-size="10.00">String filePath</text>
<text text-anchor="start" x="9" y="-267.5" font-family="Helvetica,sans-Serif" font-size="10.00">+</text>
<text text-anchor="start" x="19" y="-267.5" font-family="Helvetica,sans-Serif" font-size="10.00">DataLoader(String filePath)</text>
<text text-anchor="start" x="9" y="-252.5" font-family="Helvetica,sans-Serif" font-size="10.00">+</text>
<text text-anchor="start" x="19" y="-252.5" font-family="Helvetica,sans-Serif" font-size="10.00">abstract void loadData()</text>
<text text-anchor="start" x="9" y="-237.5" font-family="Helvetica,sans-Serif" font-size="10.00">+</text>
<text text-anchor="start" x="19" y="-237.5" font-family="Helvetica,sans-Serif" font-size="10.00">abstract void saveData()</text>
<text text-anchor="start" x="9" y="-222.5" font-family="Helvetica,sans-Serif" font-size="10.00">+</text>
<text text-anchor="start" x="19" y="-222.5" font-family="Helvetica,sans-Serif" font-size="10.00">static List&lt; String &gt; read(String fileName)</text>
<text text-anchor="start" x="9" y="-207.5" font-family="Helvetica,sans-Serif" font-size="10.00">+</text>
<text text-anchor="start" x="19" y="-207.5" font-family="Helvetica,sans-Serif" font-size="10.00">static void write(String fileName, List</text>
<text text-anchor="start" x="19" y="-196.25" font-family="Helvetica,sans-Serif" font-size="10.00">&lt; String &gt; data)</text>
<text text-anchor="start" x="9.38" y="-181.5" font-family="Helvetica,sans-Serif" font-size="10.00">#</text>
<text text-anchor="start" x="19" y="-181.5" font-family="Helvetica,sans-Serif" font-size="10.00">abstract T deserialize(String data)</text>
<text text-anchor="start" x="9.38" y="-166.5" font-family="Helvetica,sans-Serif" font-size="10.00">#</text>
<text text-anchor="start" x="19" y="-166.5" font-family="Helvetica,sans-Serif" font-size="10.00">abstract String serialize(T data)</text>
<polygon fill="#666666" stroke="#666666" points="5,-309 5,-309 204,-309 204,-309 5,-309"/>
<polygon fill="#666666" stroke="#666666" points="5,-279 5,-279 17,-279 17,-279 5,-279"/>
<polygon fill="#666666" stroke="#666666" points="17,-279 17,-279 204,-279 204,-279 17,-279"/>
<polygon fill="none" stroke="#666666" points="5,-161 5,-326 204,-326 204,-161 5,-161"/>
</a>
</g>
</g>
<!-- Node2&#45;&gt;Node1 -->
<g id="edge1_Node000001_Node000002" class="edge">
<title>Node2&#45;&gt;Node1</title>
<g id="a_edge1_Node000001_Node000002"><a xlink:title=" ">
<path fill="none" stroke="#63b8ff" d="M104.5,-149.67C104.5,-140.94 104.5,-132.24 104.5,-123.91"/>
<polygon fill="none" stroke="#63b8ff" points="101,-149.64 104.5,-159.64 108,-149.64 101,-149.64"/>
</a>
</g>
</g>
<!-- Node3 -->
<g id="Node000003" class="node">
<title>Node3</title>
<g id="a_Node000003"><a xlink:href="classdb_1_1_data_loader.html" target="_top" xlink:title="Abstract base class for loading and saving data from files.">
<polygon fill="white" stroke="none" points="204,-538.25 5,-538.25 5,-373.25 204,-373.25 204,-538.25"/>
<text text-anchor="start" x="60.62" y="-524.75" font-family="Helvetica,sans-Serif" font-size="10.00">db.DataLoader&lt; T &gt;</text>
<text text-anchor="start" x="9" y="-509.75" font-family="Helvetica,sans-Serif" font-size="10.00">+</text>
<text text-anchor="start" x="19" y="-509.75" font-family="Helvetica,sans-Serif" font-size="10.00">static final String SEPARATOR</text>
<text text-anchor="start" x="9.38" y="-494.75" font-family="Helvetica,sans-Serif" font-size="10.00">#</text>
<text text-anchor="start" x="19" y="-494.75" font-family="Helvetica,sans-Serif" font-size="10.00">String filePath</text>
<text text-anchor="start" x="9" y="-479.75" font-family="Helvetica,sans-Serif" font-size="10.00">+</text>
<text text-anchor="start" x="19" y="-479.75" font-family="Helvetica,sans-Serif" font-size="10.00">DataLoader(String filePath)</text>
<text text-anchor="start" x="9" y="-464.75" font-family="Helvetica,sans-Serif" font-size="10.00">+</text>
<text text-anchor="start" x="19" y="-464.75" font-family="Helvetica,sans-Serif" font-size="10.00">abstract void loadData()</text>
<text text-anchor="start" x="9" y="-449.75" font-family="Helvetica,sans-Serif" font-size="10.00">+</text>
<text text-anchor="start" x="19" y="-449.75" font-family="Helvetica,sans-Serif" font-size="10.00">abstract void saveData()</text>
<text text-anchor="start" x="9" y="-434.75" font-family="Helvetica,sans-Serif" font-size="10.00">+</text>
<text text-anchor="start" x="19" y="-434.75" font-family="Helvetica,sans-Serif" font-size="10.00">static List&lt; String &gt; read(String fileName)</text>
<text text-anchor="start" x="9" y="-419.75" font-family="Helvetica,sans-Serif" font-size="10.00">+</text>
<text text-anchor="start" x="19" y="-419.75" font-family="Helvetica,sans-Serif" font-size="10.00">static void write(String fileName, List</text>
<text text-anchor="start" x="19" y="-408.5" font-family="Helvetica,sans-Serif" font-size="10.00">&lt; String &gt; data)</text>
<text text-anchor="start" x="9.38" y="-393.75" font-family="Helvetica,sans-Serif" font-size="10.00">#</text>
<text text-anchor="start" x="19" y="-393.75" font-family="Helvetica,sans-Serif" font-size="10.00">abstract T deserialize(String data)</text>
<text text-anchor="start" x="9.38" y="-378.75" font-family="Helvetica,sans-Serif" font-size="10.00">#</text>
<text text-anchor="start" x="19" y="-378.75" font-family="Helvetica,sans-Serif" font-size="10.00">abstract String serialize(T data)</text>
<polygon fill="#666666" stroke="#666666" points="5,-521.25 5,-521.25 204,-521.25 204,-521.25 5,-521.25"/>
<polygon fill="#666666" stroke="#666666" points="5,-491.25 5,-491.25 17,-491.25 17,-491.25 5,-491.25"/>
<polygon fill="#666666" stroke="#666666" points="17,-491.25 17,-491.25 204,-491.25 204,-491.25 17,-491.25"/>
<polygon fill="none" stroke="#666666" points="5,-373.25 5,-538.25 204,-538.25 204,-373.25 5,-373.25"/>
</a>
</g>
</g>
<!-- Node3&#45;&gt;Node2 -->
<g id="edge2_Node000002_Node000003" class="edge">
<title>Node3&#45;&gt;Node2</title>
<g id="a_edge2_Node000002_Node000003"><a xlink:title=" ">
<path fill="none" stroke="orange" d="M104.5,-362.02C104.5,-349.99 104.5,-337.74 104.5,-325.92"/>
<polygon fill="orange" stroke="orange" points="101,-361.95 104.5,-371.95 108,-361.95 101,-361.95"/>
</a>
</g>
<text text-anchor="middle" x="138.62" y="-345.75" font-family="Helvetica,sans-Serif" font-size="10.00" fill="grey"> &lt; Medication &gt;</text>
</g>
</g>
</svg>
