<?xml version="1.0" encoding="UTF-8" standalone="no"?>
<!DOCTYPE svg PUBLIC "-//W3C//DTD SVG 1.1//EN"
 "http://www.w3.org/Graphics/SVG/1.1/DTD/svg11.dtd">
<!-- Generated by graphviz version 12.1.2 (20240928.0832)
 -->
<!-- Title: db.ReplenishmentRequestsLoader Pages: 1 -->
<!--zoomable 546 -->

<svg id="main" version="1.1" xmlns="http://www.w3.org/2000/svg" xmlns:xlink="http://www.w3.org/1999/xlink" xml:space="preserve" onload="init(evt)">
<style type="text/css"><![CDATA[
.node, .edge {opacity: 0.7;}
.node.selected, .edge.selected {opacity: 1;}
.edge:hover path { stroke: red; }
.edge:hover polygon { stroke: red; fill: red; }
]]></style>

<defs>
  <circle id="rim" cx="0" cy="0" r="7"/>
  <circle id="rim2" cx="0" cy="0" r="3.5"/>
  <g id="zoomPlus">
    <use xlink:href="#rim" fill="#404040"><set attributeName="fill" to="#808080" begin="zoomplus.mouseover" end="zoomplus.mouseout"/></use>
    <path d="M-4,0h8M0,-4v8" fill="none" stroke="white" stroke-width="1.5" pointer-events="none"/>
  </g>
  <g id="zoomMin">
    <use xlink:href="#rim" fill="#404040"><set attributeName="fill" to="#808080" begin="zoomminus.mouseover" end="zoomminus.mouseout"/></use>
    <path d="M-4,0h8" fill="none" stroke="white" stroke-width="1.5" pointer-events="none"/>
  </g>
  <g id="arrowUp" transform="translate(30 24)">
    <use xlink:href="#rim"/>
    <path pointer-events="none" fill="none" stroke="white" stroke-width="1.5" d="M0,-3.0v7 M-2.5,-0.5L0,-3.0L2.5,-0.5"/>
  </g>
  <g id="arrowRight" transform="rotate(90) translate(36 -43)">
    <use xlink:href="#rim"/>
    <path pointer-events="none" fill="none" stroke="white" stroke-width="1.5" d="M0,-3.0v7 M-2.5,-0.5L0,-3.0L2.5,-0.5"/>
  </g>
  <g id="arrowDown" transform="rotate(180) translate(-30 -48)">
    <use xlink:href="#rim"/>
    <path pointer-events="none" fill="none" stroke="white" stroke-width="1.5" d="M0,-3.0v7 M-2.5,-0.5L0,-3.0L2.5,-0.5"/>
  </g>
  <g id="arrowLeft" transform="rotate(270) translate(-36 17)">
    <use xlink:href="#rim"/>
    <path pointer-events="none" fill="none" stroke="white" stroke-width="1.5" d="M0,-3.0v7 M-2.5,-0.5L0,-3.0L2.5,-0.5"/>
  </g>
  <g id="resetDef">
    <use xlink:href="#rim2" fill="#404040"><set attributeName="fill" to="#808080" begin="reset.mouseover" end="reset.mouseout"/></use>
  </g>
</defs>
<script type="application/ecmascript">
var viewWidth = 291;
var viewHeight = 546;
var sectionId = 'dynsection-0';
</script>
<script type="application/ecmascript" xlink:href="svg.min.js"/>
<svg id="graph" class="graph">
<g id="viewport">
<title>db.ReplenishmentRequestsLoader</title>
<!-- Node1 -->
<g id="Node000001" class="node">
<title>Node1</title>
<g id="a_Node000001"><a xlink:title="Manages the loading and saving of replenishment requests data from/to a file.">
<polygon fill="#999999" stroke="none" points="283,-124 0,-124 0,0 283,0 283,-124"/>
<text text-anchor="start" x="66.5" y="-110.5" font-family="Helvetica,sans-Serif" font-size="10.00">db.ReplenishmentRequestsLoader</text>
<text text-anchor="start" x="140" y="-95.5" font-family="Helvetica,sans-Serif" font-size="10.00"> </text>
<text text-anchor="start" x="4" y="-80.5" font-family="Helvetica,sans-Serif" font-size="10.00">+</text>
<text text-anchor="start" x="14" y="-80.5" font-family="Helvetica,sans-Serif" font-size="10.00">ReplenishmentRequestsLoader(String filePath)</text>
<text text-anchor="start" x="4" y="-65.5" font-family="Helvetica,sans-Serif" font-size="10.00">+</text>
<text text-anchor="start" x="14" y="-65.5" font-family="Helvetica,sans-Serif" font-size="10.00">void loadData()</text>
<text text-anchor="start" x="4" y="-50.5" font-family="Helvetica,sans-Serif" font-size="10.00">+</text>
<text text-anchor="start" x="14" y="-50.5" font-family="Helvetica,sans-Serif" font-size="10.00">void saveData()</text>
<text text-anchor="start" x="4" y="-35.5" font-family="Helvetica,sans-Serif" font-size="10.00">+</text>
<text text-anchor="start" x="14" y="-35.5" font-family="Helvetica,sans-Serif" font-size="10.00">List&lt; ReplenishmentRequest &gt; getReplenishmentRequests()</text>
<text text-anchor="start" x="4.38" y="-20.5" font-family="Helvetica,sans-Serif" font-size="10.00">#</text>
<text text-anchor="start" x="14" y="-20.5" font-family="Helvetica,sans-Serif" font-size="10.00">ReplenishmentRequest deserialize(String data)</text>
<text text-anchor="start" x="4.38" y="-5.5" font-family="Helvetica,sans-Serif" font-size="10.00">#</text>
<text text-anchor="start" x="14" y="-5.5" font-family="Helvetica,sans-Serif" font-size="10.00">String serialize(ReplenishmentRequest request)</text>
<polygon fill="#666666" stroke="#666666" points="0,-107 0,-107 283,-107 283,-107 0,-107"/>
<polygon fill="#666666" stroke="#666666" points="0,-92 0,-92 283,-92 283,-92 0,-92"/>
<polygon fill="none" stroke="#666666" points="0,0 0,-124 283,-124 283,0 0,0"/>
</a>
</g>
</g>
<!-- Node2 -->
<g id="Node000002" class="node">
<title>Node2</title>
<g id="a_Node000002"><a xlink:href="classdb_1_1_data_loader.html" target="_top" xlink:title=" ">
<polygon fill="white" stroke="none" points="241,-326 42,-326 42,-161 241,-161 241,-326"/>
<text text-anchor="start" x="49.62" y="-312.5" font-family="Helvetica,sans-Serif" font-size="10.00">db.DataLoader&lt; ReplenishmentRequest &gt;</text>
<text text-anchor="start" x="46" y="-297.5" font-family="Helvetica,sans-Serif" font-size="10.00">+</text>
<text text-anchor="start" x="56" y="-297.5" font-family="Helvetica,sans-Serif" font-size="10.00">static final String SEPARATOR</text>
<text text-anchor="start" x="46.38" y="-282.5" font-family="Helvetica,sans-Serif" font-size="10.00">#</text>
<text text-anchor="start" x="56" y="-282.5" font-family="Helvetica,sans-Serif" font-size="10.00">String filePath</text>
<text text-anchor="start" x="46" y="-267.5" font-family="Helvetica,sans-Serif" font-size="10.00">+</text>
<text text-anchor="start" x="56" y="-267.5" font-family="Helvetica,sans-Serif" font-size="10.00">DataLoader(String filePath)</text>
<text text-anchor="start" x="46" y="-252.5" font-family="Helvetica,sans-Serif" font-size="10.00">+</text>
<text text-anchor="start" x="56" y="-252.5" font-family="Helvetica,sans-Serif" font-size="10.00">abstract void loadData()</text>
<text text-anchor="start" x="46" y="-237.5" font-family="Helvetica,sans-Serif" font-size="10.00">+</text>
<text text-anchor="start" x="56" y="-237.5" font-family="Helvetica,sans-Serif" font-size="10.00">abstract void saveData()</text>
<text text-anchor="start" x="46" y="-222.5" font-family="Helvetica,sans-Serif" font-size="10.00">+</text>
<text text-anchor="start" x="56" y="-222.5" font-family="Helvetica,sans-Serif" font-size="10.00">static List&lt; String &gt; read(String fileName)</text>
<text text-anchor="start" x="46" y="-207.5" font-family="Helvetica,sans-Serif" font-size="10.00">+</text>
<text text-anchor="start" x="56" y="-207.5" font-family="Helvetica,sans-Serif" font-size="10.00">static void write(String fileName, List</text>
<text text-anchor="start" x="56" y="-196.25" font-family="Helvetica,sans-Serif" font-size="10.00">&lt; String &gt; data)</text>
<text text-anchor="start" x="46.38" y="-181.5" font-family="Helvetica,sans-Serif" font-size="10.00">#</text>
<text text-anchor="start" x="56" y="-181.5" font-family="Helvetica,sans-Serif" font-size="10.00">abstract T deserialize(String data)</text>
<text text-anchor="start" x="46.38" y="-166.5" font-family="Helvetica,sans-Serif" font-size="10.00">#</text>
<text text-anchor="start" x="56" y="-166.5" font-family="Helvetica,sans-Serif" font-size="10.00">abstract String serialize(T data)</text>
<polygon fill="#666666" stroke="#666666" points="42,-309 42,-309 241,-309 241,-309 42,-309"/>
<polygon fill="#666666" stroke="#666666" points="42,-279 42,-279 54,-279 54,-279 42,-279"/>
<polygon fill="#666666" stroke="#666666" points="54,-279 54,-279 241,-279 241,-279 54,-279"/>
<polygon fill="none" stroke="#666666" points="42,-161 42,-326 241,-326 241,-161 42,-161"/>
</a>
</g>
</g>
<!-- Node2&#45;&gt;Node1 -->
<g id="edge1_Node000001_Node000002" class="edge">
<title>Node2&#45;&gt;Node1</title>
<g id="a_edge1_Node000001_Node000002"><a xlink:title=" ">
<path fill="none" stroke="#63b8ff" d="M141.5,-149.67C141.5,-140.94 141.5,-132.24 141.5,-123.91"/>
<polygon fill="none" stroke="#63b8ff" points="138,-149.64 141.5,-159.64 145,-149.64 138,-149.64"/>
</a>
</g>
</g>
<!-- Node3 -->
<g id="Node000003" class="node">
<title>Node3</title>
<g id="a_Node000003"><a xlink:href="classdb_1_1_data_loader.html" target="_top" xlink:title="Abstract base class for loading and saving data from files.">
<polygon fill="white" stroke="none" points="241,-538.25 42,-538.25 42,-373.25 241,-373.25 241,-538.25"/>
<text text-anchor="start" x="97.62" y="-524.75" font-family="Helvetica,sans-Serif" font-size="10.00">db.DataLoader&lt; T &gt;</text>
<text text-anchor="start" x="46" y="-509.75" font-family="Helvetica,sans-Serif" font-size="10.00">+</text>
<text text-anchor="start" x="56" y="-509.75" font-family="Helvetica,sans-Serif" font-size="10.00">static final String SEPARATOR</text>
<text text-anchor="start" x="46.38" y="-494.75" font-family="Helvetica,sans-Serif" font-size="10.00">#</text>
<text text-anchor="start" x="56" y="-494.75" font-family="Helvetica,sans-Serif" font-size="10.00">String filePath</text>
<text text-anchor="start" x="46" y="-479.75" font-family="Helvetica,sans-Serif" font-size="10.00">+</text>
<text text-anchor="start" x="56" y="-479.75" font-family="Helvetica,sans-Serif" font-size="10.00">DataLoader(String filePath)</text>
<text text-anchor="start" x="46" y="-464.75" font-family="Helvetica,sans-Serif" font-size="10.00">+</text>
<text text-anchor="start" x="56" y="-464.75" font-family="Helvetica,sans-Serif" font-size="10.00">abstract void loadData()</text>
<text text-anchor="start" x="46" y="-449.75" font-family="Helvetica,sans-Serif" font-size="10.00">+</text>
<text text-anchor="start" x="56" y="-449.75" font-family="Helvetica,sans-Serif" font-size="10.00">abstract void saveData()</text>
<text text-anchor="start" x="46" y="-434.75" font-family="Helvetica,sans-Serif" font-size="10.00">+</text>
<text text-anchor="start" x="56" y="-434.75" font-family="Helvetica,sans-Serif" font-size="10.00">static List&lt; String &gt; read(String fileName)</text>
<text text-anchor="start" x="46" y="-419.75" font-family="Helvetica,sans-Serif" font-size="10.00">+</text>
<text text-anchor="start" x="56" y="-419.75" font-family="Helvetica,sans-Serif" font-size="10.00">static void write(String fileName, List</text>
<text text-anchor="start" x="56" y="-408.5" font-family="Helvetica,sans-Serif" font-size="10.00">&lt; String &gt; data)</text>
<text text-anchor="start" x="46.38" y="-393.75" font-family="Helvetica,sans-Serif" font-size="10.00">#</text>
<text text-anchor="start" x="56" y="-393.75" font-family="Helvetica,sans-Serif" font-size="10.00">abstract T deserialize(String data)</text>
<text text-anchor="start" x="46.38" y="-378.75" font-family="Helvetica,sans-Serif" font-size="10.00">#</text>
<text text-anchor="start" x="56" y="-378.75" font-family="Helvetica,sans-Serif" font-size="10.00">abstract String serialize(T data)</text>
<polygon fill="#666666" stroke="#666666" points="42,-521.25 42,-521.25 241,-521.25 241,-521.25 42,-521.25"/>
<polygon fill="#666666" stroke="#666666" points="42,-491.25 42,-491.25 54,-491.25 54,-491.25 42,-491.25"/>
<polygon fill="#666666" stroke="#666666" points="54,-491.25 54,-491.25 241,-491.25 241,-491.25 54,-491.25"/>
<polygon fill="none" stroke="#666666" points="42,-373.25 42,-538.25 241,-538.25 241,-373.25 42,-373.25"/>
</a>
</g>
</g>
<!-- Node3&#45;&gt;Node2 -->
<g id="edge2_Node000002_Node000003" class="edge">
<title>Node3&#45;&gt;Node2</title>
<g id="a_edge2_Node000002_Node000003"><a xlink:title=" ">
<path fill="none" stroke="orange" d="M141.5,-362.02C141.5,-349.99 141.5,-337.74 141.5,-325.92"/>
<polygon fill="orange" stroke="orange" points="138,-361.95 141.5,-371.95 145,-361.95 138,-361.95"/>
</a>
</g>
<text text-anchor="middle" x="203" y="-345.75" font-family="Helvetica,sans-Serif" font-size="10.00" fill="grey"> &lt; ReplenishmentRequest &gt;</text>
</g>
</g>
</svg>

<g id="navigator" transform="translate(0 0)" fill="#404254">
  <rect fill="#f2f5e9" fill-opacity="0.5" stroke="#606060" stroke-width=".5" x="0" y="0" width="60" height="60"/>
  <use id="zoomplus" xlink:href="#zoomPlus" x="17" y="9" onmousedown="handleZoom(evt,'in')"/>
  <use id="zoomminus" xlink:href="#zoomMin" x="42" y="9" onmousedown="handleZoom(evt,'out')"/>
  <use id="reset" xlink:href="#resetDef" x="30" y="36" onmousedown="handleReset()"/>
   <use id="arrowup" xlink:href="#arrowUp" x="0" y="0" onmousedown="handlePan(0,-1)"/>
  <use id="arrowright" xlink:href="#arrowRight" x="0" y="0" onmousedown="handlePan(1,0)"/>
  <use id="arrowdown" xlink:href="#arrowDown" x="0" y="0" onmousedown="handlePan(0,1)"/>
  <use id="arrowleft" xlink:href="#arrowLeft" x="0" y="0" onmousedown="handlePan(-1,0)"/>
</g>
<svg viewBox="0 0 15 15" width="100%" height="30px" preserveAspectRatio="xMaxYMin meet">
 <g id="arrow_out" transform="scale(0.3 0.3)">
  <a xlink:href="classdb_1_1_replenishment_requests_loader__inherit__graph_org.svg" target="_base">
   <rect id="button" ry="5" rx="5" y="6" x="6" height="38" width="38"
        fill="#f2f5e9" fill-opacity="0.5" stroke="#606060" stroke-width="1.0"/>
   <path id="arrow"
     d="M 11.500037,31.436501 C 11.940474,20.09759 22.043105,11.32322 32.158766,21.979434 L 37.068811,17.246167 C 37.068811,17.246167 37.088388,32 37.088388,32 L 22.160133,31.978069 C 22.160133,31.978069 26.997745,27.140456 26.997745,27.140456 C 18.528582,18.264221 13.291696,25.230495 11.500037,31.436501 z"
     style="fill:#404040;"/>
  </a>
 </g>
</svg>

<style type='text/css'>
<![CDATA[
[data-mouse-over-selected='false'] { opacity: 0.7; }
[data-mouse-over-selected='true']  { opacity: 1.0; }
]]>
</style>
<script type="application/ecmascript"><![CDATA[
document.addEventListener('DOMContentLoaded', (event) => {
  highlightEdges();
  highlightAdjacentNodes();
});
]]></script>
</svg>
