<?xml version="1.0" encoding="UTF-8" standalone="no"?>
<!DOCTYPE svg PUBLIC "-//W3C//DTD SVG 1.1//EN"
 "http://www.w3.org/Graphics/SVG/1.1/DTD/svg11.dtd">
<!-- Generated by graphviz version 12.1.2 (20240928.0832)
 -->
<!-- Title: db.UsersLoader Pages: 1 -->
<svg width="207pt" height="546pt"
 viewBox="0.00 0.00 207.00 546.25" xmlns="http://www.w3.org/2000/svg" xmlns:xlink="http://www.w3.org/1999/xlink">
<g id="graph0" class="graph" transform="scale(1 1) rotate(0) translate(4 542.25)">
<title>db.UsersLoader</title>
<!-- Node1 -->
<g id="Node000001" class="node">
<title>Node1</title>
<g id="a_Node000001"><a xlink:title="Manages loading and saving of User objects (e.g., Administrator, Doctor, Patient, Pharmacist) from/to...">
<polygon fill="#999999" stroke="none" points="180.5,-124 18.5,-124 18.5,0 180.5,0 180.5,-124"/>
<text text-anchor="start" x="65" y="-110.5" font-family="Helvetica,sans-Serif" font-size="10.00">db.UsersLoader</text>
<text text-anchor="start" x="98" y="-95.5" font-family="Helvetica,sans-Serif" font-size="10.00"> </text>
<text text-anchor="start" x="22.5" y="-80.5" font-family="Helvetica,sans-Serif" font-size="10.00">+</text>
<text text-anchor="start" x="32.5" y="-80.5" font-family="Helvetica,sans-Serif" font-size="10.00">UsersLoader(String filePath)</text>
<text text-anchor="start" x="22.5" y="-65.5" font-family="Helvetica,sans-Serif" font-size="10.00">+</text>
<text text-anchor="start" x="32.5" y="-65.5" font-family="Helvetica,sans-Serif" font-size="10.00">void loadData()</text>
<text text-anchor="start" x="22.5" y="-50.5" font-family="Helvetica,sans-Serif" font-size="10.00">+</text>
<text text-anchor="start" x="32.5" y="-50.5" font-family="Helvetica,sans-Serif" font-size="10.00">void saveData()</text>
<text text-anchor="start" x="22.5" y="-35.5" font-family="Helvetica,sans-Serif" font-size="10.00">+</text>
<text text-anchor="start" x="32.5" y="-35.5" font-family="Helvetica,sans-Serif" font-size="10.00">List&lt; User &gt; getUsers()</text>
<text text-anchor="start" x="22.88" y="-20.5" font-family="Helvetica,sans-Serif" font-size="10.00">#</text>
<text text-anchor="start" x="32.5" y="-20.5" font-family="Helvetica,sans-Serif" font-size="10.00">User deserialize(String userData)</text>
<text text-anchor="start" x="22.88" y="-5.5" font-family="Helvetica,sans-Serif" font-size="10.00">#</text>
<text text-anchor="start" x="32.5" y="-5.5" font-family="Helvetica,sans-Serif" font-size="10.00">String serialize(User user)</text>
<polygon fill="#666666" stroke="#666666" points="18.5,-107 18.5,-107 180.5,-107 180.5,-107 18.5,-107"/>
<polygon fill="#666666" stroke="#666666" points="18.5,-92 18.5,-92 180.5,-92 180.5,-92 18.5,-92"/>
<polygon fill="none" stroke="#666666" points="18.5,0 18.5,-124 180.5,-124 180.5,0 18.5,0"/>
</a>
</g>
</g>
<!-- Node2 -->
<g id="Node000002" class="node">
<title>Node2</title>
<g id="a_Node000002"><a xlink:href="classdb_1_1_data_loader.html" target="_top" xlink:title=" ">
<polygon fill="white" stroke="none" points="199,-326 0,-326 0,-161 199,-161 199,-326"/>
<text text-anchor="start" x="48.12" y="-312.5" font-family="Helvetica,sans-Serif" font-size="10.00">db.DataLoader&lt; User &gt;</text>
<text text-anchor="start" x="4" y="-297.5" font-family="Helvetica,sans-Serif" font-size="10.00">+</text>
<text text-anchor="start" x="14" y="-297.5" font-family="Helvetica,sans-Serif" font-size="10.00">static final String SEPARATOR</text>
<text text-anchor="start" x="4.38" y="-282.5" font-family="Helvetica,sans-Serif" font-size="10.00">#</text>
<text text-anchor="start" x="14" y="-282.5" font-family="Helvetica,sans-Serif" font-size="10.00">String filePath</text>
<text text-anchor="start" x="4" y="-267.5" font-family="Helvetica,sans-Serif" font-size="10.00">+</text>
<text text-anchor="start" x="14" y="-267.5" font-family="Helvetica,sans-Serif" font-size="10.00">DataLoader(String filePath)</text>
<text text-anchor="start" x="4" y="-252.5" font-family="Helvetica,sans-Serif" font-size="10.00">+</text>
<text text-anchor="start" x="14" y="-252.5" font-family="Helvetica,sans-Serif" font-size="10.00">abstract void loadData()</text>
<text text-anchor="start" x="4" y="-237.5" font-family="Helvetica,sans-Serif" font-size="10.00">+</text>
<text text-anchor="start" x="14" y="-237.5" font-family="Helvetica,sans-Serif" font-size="10.00">abstract void saveData()</text>
<text text-anchor="start" x="4" y="-222.5" font-family="Helvetica,sans-Serif" font-size="10.00">+</text>
<text text-anchor="start" x="14" y="-222.5" font-family="Helvetica,sans-Serif" font-size="10.00">static List&lt; String &gt; read(String fileName)</text>
<text text-anchor="start" x="4" y="-207.5" font-family="Helvetica,sans-Serif" font-size="10.00">+</text>
<text text-anchor="start" x="14" y="-207.5" font-family="Helvetica,sans-Serif" font-size="10.00">static void write(String fileName, List</text>
<text text-anchor="start" x="14" y="-196.25" font-family="Helvetica,sans-Serif" font-size="10.00">&lt; String &gt; data)</text>
<text text-anchor="start" x="4.38" y="-181.5" font-family="Helvetica,sans-Serif" font-size="10.00">#</text>
<text text-anchor="start" x="14" y="-181.5" font-family="Helvetica,sans-Serif" font-size="10.00">abstract T deserialize(String data)</text>
<text text-anchor="start" x="4.38" y="-166.5" font-family="Helvetica,sans-Serif" font-size="10.00">#</text>
<text text-anchor="start" x="14" y="-166.5" font-family="Helvetica,sans-Serif" font-size="10.00">abstract String serialize(T data)</text>
<polygon fill="#666666" stroke="#666666" points="0,-309 0,-309 199,-309 199,-309 0,-309"/>
<polygon fill="#666666" stroke="#666666" points="0,-279 0,-279 12,-279 12,-279 0,-279"/>
<polygon fill="#666666" stroke="#666666" points="12,-279 12,-279 199,-279 199,-279 12,-279"/>
<polygon fill="none" stroke="#666666" points="0,-161 0,-326 199,-326 199,-161 0,-161"/>
</a>
</g>
</g>
<!-- Node2&#45;&gt;Node1 -->
<g id="edge1_Node000001_Node000002" class="edge">
<title>Node2&#45;&gt;Node1</title>
<g id="a_edge1_Node000001_Node000002"><a xlink:title=" ">
<path fill="none" stroke="#63b8ff" d="M99.5,-149.67C99.5,-140.94 99.5,-132.24 99.5,-123.91"/>
<polygon fill="none" stroke="#63b8ff" points="96,-149.64 99.5,-159.64 103,-149.64 96,-149.64"/>
</a>
</g>
</g>
<!-- Node3 -->
<g id="Node000003" class="node">
<title>Node3</title>
<g id="a_Node000003"><a xlink:href="classdb_1_1_data_loader.html" target="_top" xlink:title="Abstract base class for loading and saving data from files.">
<polygon fill="white" stroke="none" points="199,-538.25 0,-538.25 0,-373.25 199,-373.25 199,-538.25"/>
<text text-anchor="start" x="55.62" y="-524.75" font-family="Helvetica,sans-Serif" font-size="10.00">db.DataLoader&lt; T &gt;</text>
<text text-anchor="start" x="4" y="-509.75" font-family="Helvetica,sans-Serif" font-size="10.00">+</text>
<text text-anchor="start" x="14" y="-509.75" font-family="Helvetica,sans-Serif" font-size="10.00">static final String SEPARATOR</text>
<text text-anchor="start" x="4.38" y="-494.75" font-family="Helvetica,sans-Serif" font-size="10.00">#</text>
<text text-anchor="start" x="14" y="-494.75" font-family="Helvetica,sans-Serif" font-size="10.00">String filePath</text>
<text text-anchor="start" x="4" y="-479.75" font-family="Helvetica,sans-Serif" font-size="10.00">+</text>
<text text-anchor="start" x="14" y="-479.75" font-family="Helvetica,sans-Serif" font-size="10.00">DataLoader(String filePath)</text>
<text text-anchor="start" x="4" y="-464.75" font-family="Helvetica,sans-Serif" font-size="10.00">+</text>
<text text-anchor="start" x="14" y="-464.75" font-family="Helvetica,sans-Serif" font-size="10.00">abstract void loadData()</text>
<text text-anchor="start" x="4" y="-449.75" font-family="Helvetica,sans-Serif" font-size="10.00">+</text>
<text text-anchor="start" x="14" y="-449.75" font-family="Helvetica,sans-Serif" font-size="10.00">abstract void saveData()</text>
<text text-anchor="start" x="4" y="-434.75" font-family="Helvetica,sans-Serif" font-size="10.00">+</text>
<text text-anchor="start" x="14" y="-434.75" font-family="Helvetica,sans-Serif" font-size="10.00">static List&lt; String &gt; read(String fileName)</text>
<text text-anchor="start" x="4" y="-419.75" font-family="Helvetica,sans-Serif" font-size="10.00">+</text>
<text text-anchor="start" x="14" y="-419.75" font-family="Helvetica,sans-Serif" font-size="10.00">static void write(String fileName, List</text>
<text text-anchor="start" x="14" y="-408.5" font-family="Helvetica,sans-Serif" font-size="10.00">&lt; String &gt; data)</text>
<text text-anchor="start" x="4.38" y="-393.75" font-family="Helvetica,sans-Serif" font-size="10.00">#</text>
<text text-anchor="start" x="14" y="-393.75" font-family="Helvetica,sans-Serif" font-size="10.00">abstract T deserialize(String data)</text>
<text text-anchor="start" x="4.38" y="-378.75" font-family="Helvetica,sans-Serif" font-size="10.00">#</text>
<text text-anchor="start" x="14" y="-378.75" font-family="Helvetica,sans-Serif" font-size="10.00">abstract String serialize(T data)</text>
<polygon fill="#666666" stroke="#666666" points="0,-521.25 0,-521.25 199,-521.25 199,-521.25 0,-521.25"/>
<polygon fill="#666666" stroke="#666666" points="0,-491.25 0,-491.25 12,-491.25 12,-491.25 0,-491.25"/>
<polygon fill="#666666" stroke="#666666" points="12,-491.25 12,-491.25 199,-491.25 199,-491.25 12,-491.25"/>
<polygon fill="none" stroke="#666666" points="0,-373.25 0,-538.25 199,-538.25 199,-373.25 0,-373.25"/>
</a>
</g>
</g>
<!-- Node3&#45;&gt;Node2 -->
<g id="edge2_Node000002_Node000003" class="edge">
<title>Node3&#45;&gt;Node2</title>
<g id="a_edge2_Node000002_Node000003"><a xlink:title=" ">
<path fill="none" stroke="orange" d="M99.5,-362.02C99.5,-349.99 99.5,-337.74 99.5,-325.92"/>
<polygon fill="orange" stroke="orange" points="96,-361.95 99.5,-371.95 103,-361.95 96,-361.95"/>
</a>
</g>
<text text-anchor="middle" x="120.5" y="-345.75" font-family="Helvetica,sans-Serif" font-size="10.00" fill="grey"> &lt; User &gt;</text>
</g>
</g>
</svg>
