<?xml version="1.0" encoding="UTF-8" standalone="no"?>
<!DOCTYPE svg PUBLIC "-//W3C//DTD SVG 1.1//EN"
 "http://www.w3.org/Graphics/SVG/1.1/DTD/svg11.dtd">
<!-- Generated by graphviz version 12.1.2 (20240928.0832)
 -->
<!-- Title: db.TextDB.getAppointments Pages: 1 -->
<svg width="623pt" height="101pt"
 viewBox="0.00 0.00 623.00 101.25" xmlns="http://www.w3.org/2000/svg" xmlns:xlink="http://www.w3.org/1999/xlink">
<g id="graph0" class="graph" transform="scale(1 1) rotate(0) translate(4 97.25)">
<title>db.TextDB.getAppointments</title>
<!-- Node1 -->
<g id="Node000001" class="node">
<title>Node1</title>
<g id="a_Node000001"><a xlink:title="Calculates the result.">
<polygon fill="#999999" stroke="#666666" points="615,-56.25 476,-56.25 476,-37 615,-37 615,-56.25"/>
<text text-anchor="middle" x="545.5" y="-42.75" font-family="Helvetica,sans-Serif" font-size="10.00">db.TextDB.getAppointments</text>
</a>
</g>
</g>
<!-- Node2 -->
<g id="Node000002" class="node">
<title>Node2</title>
<g id="a_Node000002"><a xlink:href="classservices_1_1_appointment_service.html#a7613cf6b49194ce7d5022e75ab1173bd" target="_top" xlink:title="Retrieves current and upcoming appointments.">
<polygon fill="white" stroke="#666666" points="440,-93.25 187.75,-93.25 187.75,-74 440,-74 440,-93.25"/>
<text text-anchor="middle" x="313.88" y="-79.75" font-family="Helvetica,sans-Serif" font-size="10.00">services.AppointmentService.getCurrentAppointments</text>
</a>
</g>
</g>
<!-- Node1&#45;&gt;Node2 -->
<g id="edge1_Node000001_Node000002" class="edge">
<title>Node1&#45;&gt;Node2</title>
<g id="a_edge1_Node000001_Node000002"><a xlink:title=" ">
<path fill="none" stroke="#63b8ff" d="M480.17,-58.71C466.9,-61.09 453.01,-63.51 440,-65.62 423.32,-68.34 405.35,-71.05 388.39,-73.51"/>
<polygon fill="#63b8ff" stroke="#63b8ff" points="480.43,-62.22 489.65,-56.99 479.18,-55.33 480.43,-62.22"/>
</a>
</g>
</g>
<!-- Node3 -->
<g id="Node000003" class="node">
<title>Node3</title>
<g id="a_Node000003"><a xlink:href="classservices_1_1_appointment_service.html#ae8fd20807e637c7232dc82b356f158d0" target="_top" xlink:title="Retrieves past appointments for a given patient.">
<polygon fill="white" stroke="#666666" points="434,-56.25 193.75,-56.25 193.75,-37 434,-37 434,-56.25"/>
<text text-anchor="middle" x="313.88" y="-42.75" font-family="Helvetica,sans-Serif" font-size="10.00">services.AppointmentService.getPastAppointments</text>
</a>
</g>
</g>
<!-- Node1&#45;&gt;Node3 -->
<g id="edge2_Node000001_Node000003" class="edge">
<title>Node1&#45;&gt;Node3</title>
<g id="a_edge2_Node000001_Node000003"><a xlink:title=" ">
<path fill="none" stroke="#63b8ff" d="M464.36,-46.62C454.63,-46.62 444.52,-46.62 434.37,-46.62"/>
<polygon fill="#63b8ff" stroke="#63b8ff" points="464.09,-50.13 474.09,-46.63 464.09,-43.13 464.09,-50.13"/>
</a>
</g>
</g>
<!-- Node4 -->
<g id="Node000004" class="node">
<title>Node4</title>
<g id="a_Node000004"><a xlink:href="classmenus_1_1_doctor_menu.html#ae7d20b71f38894a6236e1f23b637ce42" target="_top" xlink:title="Records the outcome of a completed appointment.">
<polygon fill="white" stroke="#666666" points="426.88,-19.25 200.88,-19.25 200.88,0 426.88,0 426.88,-19.25"/>
<text text-anchor="middle" x="313.88" y="-5.75" font-family="Helvetica,sans-Serif" font-size="10.00">menus.DoctorMenu.recordAppointmentOutcome</text>
</a>
</g>
</g>
<!-- Node1&#45;&gt;Node4 -->
<g id="edge3_Node000001_Node000004" class="edge">
<title>Node1&#45;&gt;Node4</title>
<g id="a_edge3_Node000001_Node000004"><a xlink:title=" ">
<path fill="none" stroke="#63b8ff" d="M480.17,-34.54C466.9,-32.16 453.01,-29.74 440,-27.62 423.32,-24.91 405.35,-22.2 388.39,-19.74"/>
<polygon fill="#63b8ff" stroke="#63b8ff" points="479.18,-37.92 489.65,-36.26 480.43,-31.03 479.18,-37.92"/>
</a>
</g>
</g>
<!-- Node5 -->
<g id="Node000005" class="node">
<title>Node5</title>
<g id="a_Node000005"><a xlink:href="classmenus_1_1_doctor_menu.html#af4a80d7af2990dd2f809c409c732536d" target="_top" xlink:title="Displays the Doctor Menu and handles user selections.">
<polygon fill="white" stroke="#666666" points="151.75,-19.25 0,-19.25 0,0 151.75,0 151.75,-19.25"/>
<text text-anchor="middle" x="75.88" y="-5.75" font-family="Helvetica,sans-Serif" font-size="10.00">menus.DoctorMenu.showMenu</text>
</a>
</g>
</g>
<!-- Node4&#45;&gt;Node5 -->
<g id="edge4_Node000004_Node000005" class="edge">
<title>Node4&#45;&gt;Node5</title>
<g id="a_edge4_Node000004_Node000005"><a xlink:title=" ">
<path fill="none" stroke="#63b8ff" d="M189.26,-9.62C176.59,-9.62 164.01,-9.62 152.09,-9.62"/>
<polygon fill="#63b8ff" stroke="#63b8ff" points="188.89,-13.13 198.89,-9.63 188.89,-6.13 188.89,-13.13"/>
</a>
</g>
</g>
</g>
</svg>
