<?xml version="1.0" encoding="UTF-8" standalone="no"?>
<!DOCTYPE svg PUBLIC "-//W3C//DTD SVG 1.1//EN"
 "http://www.w3.org/Graphics/SVG/1.1/DTD/svg11.dtd">
<!-- Generated by graphviz version 12.1.2 (20240928.0832)
 -->
<!-- Title: db.TextDB.cancelAppointment Pages: 1 -->
<svg width="488pt" height="27pt"
 viewBox="0.00 0.00 488.00 27.25" xmlns="http://www.w3.org/2000/svg" xmlns:xlink="http://www.w3.org/1999/xlink">
<g id="graph0" class="graph" transform="scale(1 1) rotate(0) translate(4 23.25)">
<title>db.TextDB.cancelAppointment</title>
<!-- Node1 -->
<g id="Node000001" class="node">
<title>Node1</title>
<g id="a_Node000001"><a xlink:title="Calculates the result.">
<polygon fill="#999999" stroke="#666666" points="148.75,-19.25 0,-19.25 0,0 148.75,0 148.75,-19.25"/>
<text text-anchor="middle" x="74.38" y="-5.75" font-family="Helvetica,sans-Serif" font-size="10.00">db.TextDB.cancelAppointment</text>
</a>
</g>
</g>
<!-- Node2 -->
<g id="Node000002" class="node">
<title>Node2</title>
<g id="a_Node000002"><a xlink:href="classdb_1_1_text_d_b.html#a15e72117fb552c009020fe017eff11b1" target="_top" xlink:title=" ">
<polygon fill="white" stroke="#666666" points="357.5,-19.25 184.75,-19.25 184.75,0 357.5,0 357.5,-19.25"/>
<text text-anchor="middle" x="271.12" y="-5.75" font-family="Helvetica,sans-Serif" font-size="10.00">db.TextDB.saveAppointmentsToFile</text>
</a>
</g>
</g>
<!-- Node1&#45;&gt;Node2 -->
<g id="edge1_Node000001_Node000002" class="edge">
<title>Node1&#45;&gt;Node2</title>
<g id="a_edge1_Node000001_Node000002"><a xlink:title=" ">
<path fill="none" stroke="#63b8ff" d="M149,-9.62C156.84,-9.62 164.89,-9.62 172.94,-9.62"/>
<polygon fill="#63b8ff" stroke="#63b8ff" points="172.78,-13.13 182.78,-9.63 172.78,-6.13 172.78,-13.13"/>
</a>
</g>
</g>
<!-- Node3 -->
<g id="Node000003" class="node">
<title>Node3</title>
<g id="a_Node000003"><a xlink:href="classdb_1_1_text_d_b.html#ab0828cdec6203b29d3036e79ecd6cc5e" target="_top" xlink:title=" ">
<polygon fill="white" stroke="#666666" points="480,-19.25 393.5,-19.25 393.5,0 480,0 480,-19.25"/>
<text text-anchor="middle" x="436.75" y="-5.75" font-family="Helvetica,sans-Serif" font-size="10.00">db.TextDB.write</text>
</a>
</g>
</g>
<!-- Node2&#45;&gt;Node3 -->
<g id="edge2_Node000002_Node000003" class="edge">
<title>Node2&#45;&gt;Node3</title>
<g id="a_edge2_Node000002_Node000003"><a xlink:title=" ">
<path fill="none" stroke="#63b8ff" d="M357.77,-9.62C365.99,-9.62 374.15,-9.62 381.93,-9.62"/>
<polygon fill="#63b8ff" stroke="#63b8ff" points="381.89,-13.13 391.89,-9.63 381.89,-6.13 381.89,-13.13"/>
</a>
</g>
</g>
</g>
</svg>
