<?xml version="1.0" encoding="UTF-8" standalone="no"?>
<!DOCTYPE svg PUBLIC "-//W3C//DTD SVG 1.1//EN"
 "http://www.w3.org/Graphics/SVG/1.1/DTD/svg11.dtd">
<!-- Generated by graphviz version 12.1.2 (20240928.0832)
 -->
<!-- Title: menus.DoctorMenu.showMenu Pages: 1 -->
<svg width="1082pt" height="249pt"
 viewBox="0.00 0.00 1081.75 249.25" xmlns="http://www.w3.org/2000/svg" xmlns:xlink="http://www.w3.org/1999/xlink">
<g id="graph0" class="graph" transform="scale(1 1) rotate(0) translate(4 245.25)">
<title>menus.DoctorMenu.showMenu</title>
<!-- Node1 -->
<g id="Node000001" class="node">
<title>Node1</title>
<g id="a_Node000001"><a xlink:title="Displays the Doctor Menu and handles user selections.">
<polygon fill="#999999" stroke="#666666" points="151.75,-148.25 0,-148.25 0,-129 151.75,-129 151.75,-148.25"/>
<text text-anchor="middle" x="75.88" y="-134.75" font-family="Helvetica,sans-Serif" font-size="10.00">menus.DoctorMenu.showMenu</text>
</a>
</g>
</g>
<!-- Node2 -->
<g id="Node000002" class="node">
<title>Node2</title>
<g id="a_Node000002"><a xlink:href="classmenus_1_1_doctor_menu.html#ae7d20b71f38894a6236e1f23b637ce42" target="_top" xlink:title="Records the outcome of a completed appointment.">
<polygon fill="white" stroke="#666666" points="413.75,-148.25 187.75,-148.25 187.75,-129 413.75,-129 413.75,-148.25"/>
<text text-anchor="middle" x="300.75" y="-134.75" font-family="Helvetica,sans-Serif" font-size="10.00">menus.DoctorMenu.recordAppointmentOutcome</text>
</a>
</g>
</g>
<!-- Node1&#45;&gt;Node2 -->
<g id="edge1_Node000001_Node000002" class="edge">
<title>Node1&#45;&gt;Node2</title>
<g id="a_edge1_Node000001_Node000002"><a xlink:title=" ">
<path fill="none" stroke="#63b8ff" d="M152.02,-138.62C159.75,-138.62 167.74,-138.62 175.82,-138.62"/>
<polygon fill="#63b8ff" stroke="#63b8ff" points="175.77,-142.13 185.77,-138.63 175.77,-135.13 175.77,-142.13"/>
</a>
</g>
</g>
<!-- Node3 -->
<g id="Node000003" class="node">
<title>Node3</title>
<g id="a_Node000003"><a xlink:href="classitems_1_1_medical_record.html#a908cb7dcead431f2e7e9f712b0a0eb9f" target="_top" xlink:title="Adds a treatment to the medical record.">
<polygon fill="white" stroke="#666666" points="633,-241.25 461.75,-241.25 461.75,-222 633,-222 633,-241.25"/>
<text text-anchor="middle" x="547.38" y="-227.75" font-family="Helvetica,sans-Serif" font-size="10.00">items.MedicalRecord.addTreatment</text>
</a>
</g>
</g>
<!-- Node2&#45;&gt;Node3 -->
<g id="edge2_Node000002_Node000003" class="edge">
<title>Node2&#45;&gt;Node3</title>
<g id="a_edge2_Node000002_Node000003"><a xlink:title=" ">
<path fill="none" stroke="#63b8ff" d="M317.51,-148.53C343.87,-164.63 399,-196.44 449.75,-213.62 455.46,-215.56 461.43,-217.3 467.48,-218.87"/>
<polygon fill="#63b8ff" stroke="#63b8ff" points="466.42,-222.21 476.96,-221.15 468.05,-215.41 466.42,-222.21"/>
</a>
</g>
</g>
<!-- Node4 -->
<g id="Node000004" class="node">
<title>Node4</title>
<g id="a_Node000004"><a xlink:href="classdb_1_1_text_d_b.html#abbad566987a06b5249224e8e5ea7e667" target="_top" xlink:title="Calculates the result.">
<polygon fill="white" stroke="#666666" points="616.88,-204.25 477.88,-204.25 477.88,-185 616.88,-185 616.88,-204.25"/>
<text text-anchor="middle" x="547.38" y="-190.75" font-family="Helvetica,sans-Serif" font-size="10.00">db.TextDB.getAppointments</text>
</a>
</g>
</g>
<!-- Node2&#45;&gt;Node4 -->
<g id="edge3_Node000002_Node000004" class="edge">
<title>Node2&#45;&gt;Node4</title>
<g id="a_edge3_Node000002_Node000004"><a xlink:title=" ">
<path fill="none" stroke="#63b8ff" d="M338.08,-148.68C367.94,-156.77 411.42,-168.14 449.75,-176.62 458.63,-178.59 468.01,-180.52 477.28,-182.34"/>
<polygon fill="#63b8ff" stroke="#63b8ff" points="476.54,-185.76 487.02,-184.21 477.87,-178.89 476.54,-185.76"/>
</a>
</g>
</g>
<!-- Node5 -->
<g id="Node000005" class="node">
<title>Node5</title>
<g id="a_Node000005"><a xlink:href="classdb_1_1_text_d_b.html#aab1523293cf65f8ac7227048532a7d11" target="_top" xlink:title=" ">
<polygon fill="white" stroke="#666666" points="645,-167.25 449.75,-167.25 449.75,-148 645,-148 645,-167.25"/>
<text text-anchor="middle" x="547.38" y="-153.75" font-family="Helvetica,sans-Serif" font-size="10.00">db.TextDB.getMedicalRecordByPatientId</text>
</a>
</g>
</g>
<!-- Node2&#45;&gt;Node5 -->
<g id="edge4_Node000002_Node000005" class="edge">
<title>Node2&#45;&gt;Node5</title>
<g id="a_edge4_Node000002_Node000005"><a xlink:title=" ">
<path fill="none" stroke="#63b8ff" d="M414.04,-147.35C422.06,-147.97 430.15,-148.6 438.15,-149.22"/>
<polygon fill="#63b8ff" stroke="#63b8ff" points="437.64,-152.69 447.88,-149.98 438.18,-145.71 437.64,-152.69"/>
</a>
</g>
</g>
<!-- Node6 -->
<g id="Node000006" class="node">
<title>Node6</title>
<g id="a_Node000006"><a xlink:href="classitems_1_1_appointment.html#adb475898d23e112a0f1751507da7fb52" target="_top" xlink:title="Prints the details of the appointment.">
<polygon fill="white" stroke="#666666" points="607.12,-130.25 487.62,-130.25 487.62,-111 607.12,-111 607.12,-130.25"/>
<text text-anchor="middle" x="547.38" y="-116.75" font-family="Helvetica,sans-Serif" font-size="10.00">items.Appointment.print</text>
</a>
</g>
</g>
<!-- Node2&#45;&gt;Node6 -->
<g id="edge5_Node000002_Node000006" class="edge">
<title>Node2&#45;&gt;Node6</title>
<g id="a_edge5_Node000002_Node000006"><a xlink:title=" ">
<path fill="none" stroke="#63b8ff" d="M414.04,-130.36C435.04,-128.82 456.45,-127.24 475.75,-125.82"/>
<polygon fill="#63b8ff" stroke="#63b8ff" points="475.93,-129.32 485.65,-125.09 475.42,-122.34 475.93,-129.32"/>
</a>
</g>
</g>
<!-- Node8 -->
<g id="Node000008" class="node">
<title>Node8</title>
<g id="a_Node000008"><a xlink:href="classdb_1_1_text_d_b.html#a86c8f97829de1275242b05f46cdd6415" target="_top" xlink:title="Updates an appointment with a new status and saves changes.">
<polygon fill="white" stroke="#666666" points="622.12,-93.25 472.62,-93.25 472.62,-74 622.12,-74 622.12,-93.25"/>
<text text-anchor="middle" x="547.38" y="-79.75" font-family="Helvetica,sans-Serif" font-size="10.00">db.TextDB.updateAppointment</text>
</a>
</g>
</g>
<!-- Node2&#45;&gt;Node8 -->
<g id="edge7_Node000002_Node000008" class="edge">
<title>Node2&#45;&gt;Node8</title>
<g id="a_edge7_Node000002_Node000008"><a xlink:title=" ">
<path fill="none" stroke="#63b8ff" d="M339.32,-128.56C369.14,-120.74 411.97,-109.86 449.75,-101.62 458.86,-99.64 468.48,-97.68 477.98,-95.83"/>
<polygon fill="#63b8ff" stroke="#63b8ff" points="478.39,-99.32 487.55,-94 477.07,-92.44 478.39,-99.32"/>
</a>
</g>
</g>
<!-- Node14 -->
<g id="Node000014" class="node">
<title>Node14</title>
<g id="a_Node000014"><a xlink:href="classdb_1_1_text_d_b.html#adfdc3049e72c63729571069796bb3291" target="_top" xlink:title=" ">
<polygon fill="white" stroke="#666666" points="627.38,-56.25 467.38,-56.25 467.38,-37 627.38,-37 627.38,-56.25"/>
<text text-anchor="middle" x="547.38" y="-42.75" font-family="Helvetica,sans-Serif" font-size="10.00">db.TextDB.updateMedicalRecord</text>
</a>
</g>
</g>
<!-- Node2&#45;&gt;Node14 -->
<g id="edge14_Node000002_Node000014" class="edge">
<title>Node2&#45;&gt;Node14</title>
<g id="a_edge14_Node000002_Node000014"><a xlink:title=" ">
<path fill="none" stroke="#63b8ff" d="M317.96,-128.61C344.51,-112.65 399.37,-81.54 449.75,-64.62 455.51,-62.69 461.54,-60.95 467.65,-59.37"/>
<polygon fill="#63b8ff" stroke="#63b8ff" points="468.32,-62.81 477.23,-57.09 466.69,-56.01 468.32,-62.81"/>
</a>
</g>
</g>
<!-- Node7 -->
<g id="Node000007" class="node">
<title>Node7</title>
<g id="a_Node000007"><a xlink:href="classitems_1_1_time_slot.html#adde7d44b94192b8fce5921554c74799c" target="_top" xlink:title=" ">
<polygon fill="white" stroke="#666666" points="826.75,-130.25 708,-130.25 708,-111 826.75,-111 826.75,-130.25"/>
<text text-anchor="middle" x="767.38" y="-116.75" font-family="Helvetica,sans-Serif" font-size="10.00">items.TimeSlot.toString</text>
</a>
</g>
</g>
<!-- Node6&#45;&gt;Node7 -->
<g id="edge6_Node000006_Node000007" class="edge">
<title>Node6&#45;&gt;Node7</title>
<g id="a_edge6_Node000006_Node000007"><a xlink:title=" ">
<path fill="none" stroke="#63b8ff" d="M607.37,-120.62C634.86,-120.62 667.78,-120.62 696.51,-120.62"/>
<polygon fill="#63b8ff" stroke="#63b8ff" points="696.2,-124.13 706.2,-120.63 696.2,-117.13 696.2,-124.13"/>
</a>
</g>
</g>
<!-- Node9 -->
<g id="Node000009" class="node">
<title>Node9</title>
<g id="a_Node000009"><a xlink:href="classdb_1_1_text_d_b.html#a15e72117fb552c009020fe017eff11b1" target="_top" xlink:title=" ">
<polygon fill="white" stroke="#666666" points="853.75,-93.25 681,-93.25 681,-74 853.75,-74 853.75,-93.25"/>
<text text-anchor="middle" x="767.38" y="-79.75" font-family="Helvetica,sans-Serif" font-size="10.00">db.TextDB.saveAppointmentsToFile</text>
</a>
</g>
</g>
<!-- Node8&#45;&gt;Node9 -->
<g id="edge8_Node000008_Node000009" class="edge">
<title>Node8&#45;&gt;Node9</title>
<g id="a_edge8_Node000008_Node000009"><a xlink:title=" ">
<path fill="none" stroke="#63b8ff" d="M622.48,-83.62C637.58,-83.62 653.68,-83.62 669.43,-83.62"/>
<polygon fill="#63b8ff" stroke="#63b8ff" points="669.31,-87.13 679.31,-83.63 669.31,-80.13 669.31,-87.13"/>
</a>
</g>
</g>
<!-- Node11 -->
<g id="Node000011" class="node">
<title>Node11</title>
<g id="a_Node000011"><a xlink:href="classdb_1_1_text_d_b.html#ad0cc1ccd01528bf3a15b1dda0e764482" target="_top" xlink:title=" ">
<polygon fill="white" stroke="#666666" points="846.62,-56.25 688.12,-56.25 688.12,-37 846.62,-37 846.62,-56.25"/>
<text text-anchor="middle" x="767.38" y="-42.75" font-family="Helvetica,sans-Serif" font-size="10.00">db.TextDB.saveSchedulesToFile</text>
</a>
</g>
</g>
<!-- Node8&#45;&gt;Node11 -->
<g id="edge10_Node000008_Node000011" class="edge">
<title>Node8&#45;&gt;Node11</title>
<g id="a_edge10_Node000008_Node000011"><a xlink:title=" ">
<path fill="none" stroke="#63b8ff" d="M607.94,-73.51C635.1,-68.91 667.45,-63.42 695.81,-58.6"/>
<polygon fill="#63b8ff" stroke="#63b8ff" points="696.11,-62.1 705.39,-56.98 694.94,-55.2 696.11,-62.1"/>
</a>
</g>
</g>
<!-- Node10 -->
<g id="Node000010" class="node">
<title>Node10</title>
<g id="a_Node000010"><a xlink:href="classdb_1_1_text_d_b.html#ab0828cdec6203b29d3036e79ecd6cc5e" target="_top" xlink:title=" ">
<polygon fill="white" stroke="#666666" points="1025,-93.25 938.5,-93.25 938.5,-74 1025,-74 1025,-93.25"/>
<text text-anchor="middle" x="981.75" y="-79.75" font-family="Helvetica,sans-Serif" font-size="10.00">db.TextDB.write</text>
</a>
</g>
</g>
<!-- Node9&#45;&gt;Node10 -->
<g id="edge9_Node000009_Node000010" class="edge">
<title>Node9&#45;&gt;Node10</title>
<g id="a_edge9_Node000009_Node000010"><a xlink:title=" ">
<path fill="none" stroke="#63b8ff" d="M854.14,-83.62C878.64,-83.62 904.64,-83.62 926.66,-83.62"/>
<polygon fill="#63b8ff" stroke="#63b8ff" points="926.61,-87.13 936.61,-83.63 926.61,-80.13 926.61,-87.13"/>
</a>
</g>
</g>
<!-- Node11&#45;&gt;Node10 -->
<g id="edge13_Node000011_Node000010" class="edge">
<title>Node11&#45;&gt;Node10</title>
<g id="a_edge13_Node000011_Node000010"><a xlink:title=" ">
<path fill="none" stroke="#63b8ff" d="M826.41,-56.74C857.91,-62.22 896.58,-68.96 927.34,-74.32"/>
<polygon fill="#63b8ff" stroke="#63b8ff" points="926.34,-77.7 936.79,-75.97 927.54,-70.8 926.34,-77.7"/>
</a>
</g>
</g>
<!-- Node12 -->
<g id="Node000012" class="node">
<title>Node12</title>
<g id="a_Node000012"><a xlink:href="classitems_1_1_schedule.html#a4549ab37ec9b3215ebfaf575c5d691c6" target="_top" xlink:title=" ">
<polygon fill="white" stroke="#666666" points="1055.38,-56.25 908.12,-56.25 908.12,-37 1055.38,-37 1055.38,-56.25"/>
<text text-anchor="middle" x="981.75" y="-42.75" font-family="Helvetica,sans-Serif" font-size="10.00">items.Schedule.getAvailability</text>
</a>
</g>
</g>
<!-- Node11&#45;&gt;Node12 -->
<g id="edge11_Node000011_Node000012" class="edge">
<title>Node11&#45;&gt;Node12</title>
<g id="a_edge11_Node000011_Node000012"><a xlink:title=" ">
<path fill="none" stroke="#63b8ff" d="M846.85,-46.62C863.08,-46.62 880.23,-46.62 896.65,-46.62"/>
<polygon fill="#63b8ff" stroke="#63b8ff" points="896.36,-50.13 906.36,-46.63 896.36,-43.13 896.36,-50.13"/>
</a>
</g>
</g>
<!-- Node13 -->
<g id="Node000013" class="node">
<title>Node13</title>
<g id="a_Node000013"><a xlink:href="classitems_1_1_schedule.html#a85b87460a427b084400c5a4fa7f1a2c5" target="_top" xlink:title=" ">
<polygon fill="white" stroke="#666666" points="1073.75,-19.25 889.75,-19.25 889.75,0 1073.75,0 1073.75,-19.25"/>
<text text-anchor="middle" x="981.75" y="-5.75" font-family="Helvetica,sans-Serif" font-size="10.00">items.Schedule.getAvailableTimeSlots</text>
</a>
</g>
</g>
<!-- Node11&#45;&gt;Node13 -->
<g id="edge12_Node000011_Node000013" class="edge">
<title>Node11&#45;&gt;Node13</title>
<g id="a_edge12_Node000011_Node000013"><a xlink:title=" ">
<path fill="none" stroke="#63b8ff" d="M826.41,-36.51C852.75,-31.93 884.1,-26.46 911.64,-21.66"/>
<polygon fill="#63b8ff" stroke="#63b8ff" points="912.05,-25.15 921.3,-19.98 910.84,-18.25 912.05,-25.15"/>
</a>
</g>
</g>
</g>
</svg>
