<?xml version="1.0" encoding="UTF-8" standalone="no"?>
<!DOCTYPE svg PUBLIC "-//W3C//DTD SVG 1.1//EN"
 "http://www.w3.org/Graphics/SVG/1.1/DTD/svg11.dtd">
<!-- Generated by graphviz version 12.1.2 (20240928.0832)
 -->
<!-- Title: Graphical Class Hierarchy Pages: 1 -->
<svg width="276pt" height="138pt"
 viewBox="0.00 0.00 276.25 138.25" xmlns="http://www.w3.org/2000/svg" xmlns:xlink="http://www.w3.org/1999/xlink">
<g id="graph0" class="graph" transform="scale(1 1) rotate(0) translate(4 134.25)">
<title>Graphical Class Hierarchy</title>
<!-- Node0 -->
<g id="Node000000" class="node">
<title>Node0</title>
<g id="a_Node000000"><a xlink:href="classuser__classes_1_1_user.html" target="_top" xlink:title="An abstract base class representing a generic user in the hospital management system.">
<polygon fill="white" stroke="#666666" points="97.75,-74.25 0,-74.25 0,-55 97.75,-55 97.75,-74.25"/>
<text text-anchor="middle" x="48.88" y="-60.75" font-family="Helvetica,sans-Serif" font-size="10.00">user_classes.User</text>
</a>
</g>
</g>
<!-- Node1 -->
<g id="Node000001" class="node">
<title>Node1</title>
<g id="a_Node000001"><a xlink:href="classuser__classes_1_1_administrator.html" target="_top" xlink:title="Represents an administrator user with specific responsibilities within the hospital system.">
<polygon fill="white" stroke="#666666" points="268.25,-130.25 133.75,-130.25 133.75,-111 268.25,-111 268.25,-130.25"/>
<text text-anchor="middle" x="201" y="-116.75" font-family="Helvetica,sans-Serif" font-size="10.00">user_classes.Administrator</text>
</a>
</g>
</g>
<!-- Node0&#45;&gt;Node1 -->
<g id="edge6_Node000000_Node000001" class="edge">
<title>Node0&#45;&gt;Node1</title>
<g id="a_edge6_Node000000_Node000001"><a xlink:title=" ">
<path fill="none" stroke="#63b8ff" d="M79.72,-79.56C95.53,-87.1 115.42,-96.03 133.75,-102.62 141.82,-105.53 150.6,-108.22 159.04,-110.6"/>
<polygon fill="#63b8ff" stroke="#63b8ff" points="81.39,-76.47 70.86,-75.26 78.33,-82.77 81.39,-76.47"/>
</a>
</g>
</g>
<!-- Node2 -->
<g id="Node000002" class="node">
<title>Node2</title>
<g id="a_Node000002"><a xlink:href="classuser__classes_1_1_doctor.html" target="_top" xlink:title="Represents a doctor in the hospital management system.">
<polygon fill="white" stroke="#666666" points="254,-93.25 148,-93.25 148,-74 254,-74 254,-93.25"/>
<text text-anchor="middle" x="201" y="-79.75" font-family="Helvetica,sans-Serif" font-size="10.00">user_classes.Doctor</text>
</a>
</g>
</g>
<!-- Node0&#45;&gt;Node2 -->
<g id="edge7_Node000000_Node000002" class="edge">
<title>Node0&#45;&gt;Node2</title>
<g id="a_edge7_Node000000_Node000002"><a xlink:title=" ">
<path fill="none" stroke="#63b8ff" d="M109.55,-72.18C122.13,-73.77 135.32,-75.44 147.61,-76.99"/>
<polygon fill="#63b8ff" stroke="#63b8ff" points="110.06,-68.71 99.7,-70.93 109.18,-75.66 110.06,-68.71"/>
</a>
</g>
</g>
<!-- Node3 -->
<g id="Node000003" class="node">
<title>Node3</title>
<g id="a_Node000003"><a xlink:href="classuser__classes_1_1_patient.html" target="_top" xlink:title="Represents a patient in the hospital management system.">
<polygon fill="white" stroke="#666666" points="254.75,-56.25 147.25,-56.25 147.25,-37 254.75,-37 254.75,-56.25"/>
<text text-anchor="middle" x="201" y="-42.75" font-family="Helvetica,sans-Serif" font-size="10.00">user_classes.Patient</text>
</a>
</g>
</g>
<!-- Node0&#45;&gt;Node3 -->
<g id="edge8_Node000000_Node000003" class="edge">
<title>Node0&#45;&gt;Node3</title>
<g id="a_edge8_Node000000_Node000003"><a xlink:title=" ">
<path fill="none" stroke="#63b8ff" d="M109.36,-57.49C121.73,-56.01 134.7,-54.45 146.83,-53"/>
<polygon fill="#63b8ff" stroke="#63b8ff" points="109.22,-53.98 99.7,-58.65 110.05,-60.93 109.22,-53.98"/>
</a>
</g>
</g>
<!-- Node4 -->
<g id="Node000004" class="node">
<title>Node4</title>
<g id="a_Node000004"><a xlink:href="classuser__classes_1_1_pharmacist.html" target="_top" xlink:title="Represents a pharmacist in the hospital management system.">
<polygon fill="white" stroke="#666666" points="264.12,-19.25 137.88,-19.25 137.88,0 264.12,0 264.12,-19.25"/>
<text text-anchor="middle" x="201" y="-5.75" font-family="Helvetica,sans-Serif" font-size="10.00">user_classes.Pharmacist</text>
</a>
</g>
</g>
<!-- Node0&#45;&gt;Node4 -->
<g id="edge9_Node000000_Node000004" class="edge">
<title>Node0&#45;&gt;Node4</title>
<g id="a_edge9_Node000000_Node000004"><a xlink:title=" ">
<path fill="none" stroke="#63b8ff" d="M80.4,-49.84C96.11,-42.56 115.71,-34.01 133.75,-27.62 141.84,-24.76 150.62,-22.08 159.06,-19.71"/>
<polygon fill="#63b8ff" stroke="#63b8ff" points="79.14,-46.56 71.58,-53.98 82.12,-52.9 79.14,-46.56"/>
</a>
</g>
</g>
</g>
</svg>
